<svg width="4022" height="4022" xmlns="http://www.w3.org/2000/svg" xmlns:xlink="http://www.w3.org/1999/xlink" overflow="hidden"><defs><clipPath id="clip0"><rect x="0" y="0" width="4022" height="4022"/></clipPath><linearGradient x1="-159.327" y1="189.879" x2="4181.33" y2="3832.12" gradientUnits="userSpaceOnUse" spreadMethod="reflect" id="fill1"><stop offset="0" stop-color="#00C37B"/><stop offset="0.12" stop-color="#00C37B"/><stop offset="1" stop-color="#00E360"/></linearGradient><clipPath id="clip2"><rect x="848" y="666" width="2327" height="2689"/></clipPath><clipPath id="clip3"><rect x="848" y="666" width="2327" height="2689"/></clipPath><clipPath id="clip4"><rect x="848" y="666" width="2327" height="2689"/></clipPath></defs><g clip-path="url(#clip0)"><path d="M0 2011C-2.56027e-13 900.355 900.355-2.56027e-13 2011-5.12054e-13 3121.64-1.02411e-12 4022 900.355 4022 2011 4022 3121.64 3121.64 4022 2011 4022 900.355 4022-1.28014e-12 3121.64 0 2011Z" fill="url(#fill1)" fill-rule="evenodd"/><g clip-path="url(#clip2)"><g clip-path="url(#clip3)"><g clip-path="url(#clip4)"><path d="M2327 1307.53 2325.63 1307.53C2300.58 1103.96 1915.52 942.228 1444.11 942.228 1204.15 942.228 986.791 984.111 827.606 1052.18 651.138 1127.77 453.505 995.69 451.718 799.432L451.718 794.724C451.725 775.129 452.818 755.548 454.982 736.074 635.711 859.251 881.825 839.151 1041.15 675.567L383 0C219.486 167.844 203.165 429.488 333.867 616.126 132.351 757.857 0 995.656 0 1265.37 0 1279.56 0.412308 1293.62 1.09949 1307.53L0 1307.53C0 1627.07 122.387 1917.44 321.532 2131.74 247.385 2307.21 260.064 2516.83 373.277 2686.29L747.378 2423C764.901 2429.87 782.836 2436.47 800.772 2442.51 917.647 2481.89 1040.17 2501.92 1163.5 2501.82 1793.99 2501.82 2307.14 1986.71 2326.04 1344.37 2326.63 1339.14 2326.95 1333.89 2327 1328.63 2327 1326.5 2326.73 1324.4 2326.59 1322.31 2326.73 1317.36 2327 1312.52 2327 1307.53ZM1230.43 2083.12 1230.84 2082.81" fill="#060405" transform="matrix(1 0 0 1.00003 848 667.808)"/><path d="M1227.89 1361.37C1264.72 1361.36 1300.35 1374.5 1328.35 1398.41 1338.29 1380.47 1343.49 1360.28 1343.44 1339.76 1343.44 1274.2 1291.66 1221.05 1227.79 1221.05 1163.91 1221.05 1112.1 1274.2 1112.1 1339.76 1112.13 1360.3 1117.4 1380.49 1127.42 1398.41 1155.43 1374.5 1191.06 1361.36 1227.89 1361.37Z" fill="#FFFFFF" transform="matrix(1 0 0 1.00003 848 667.808)"/><path d="M1876 1433.53C1738.05 1433.53 1616.42 1526.81 1577.9 1662.74 1568.34 1696.26 1556.95 1729.24 1543.79 1761.52L1543.17 1761.52C1494.08 1886.17 1405.35 1991.21 1290.66 2060.44L1290.25 2060.72 883.027 2347.41C982.978 2372.46 1087.91 2374.55 1182.57 2374.55 1190.27 2374.55 1197.89 2374.28 1205.52 2373.97 1215.14 2374.28 1224.83 2374.55 1234.55 2374.55 1713.35 2374.55 2201.04 1925 2201.04 1433.53Z" fill="#FFFFFF" transform="matrix(1 0 0 1.00003 848 667.808)"/></g></g></g></g></svg>