<?xml version="1.0" encoding="UTF-8"?>
<svg width="242px" height="58px" viewBox="0 0 242 58" version="1.1" xmlns="http://www.w3.org/2000/svg" xmlns:xlink="http://www.w3.org/1999/xlink">
    <title>Group 18</title>
    <g id="Page-1" stroke="none" stroke-width="1" fill="none" fill-rule="evenodd">
        <g id="Logo" transform="translate(-609.000000, -189.000000)">
            <g id="Group-2" transform="translate(538.000000, 118.000000)">
                <g id="Group-18" transform="translate(71.000000, 72.000000)">
                    <g id="logo_text" transform="translate(0.000000, 6.000000)" fill-rule="nonzero">
                        <circle id="Oval" cx="62" cy="27" r="24"></circle>
                        <g id="T" transform="translate(0.000000, 3.000000)" fill="#FFFFFF">
                            <polygon id="Shape" points="32 0 32 10.9660795 21.8546677 10.9660795 21.8546677 42 10.0874063 42 10.0874063 10.9660795 0 10.9660795 0 0"></polygon>
                        </g>
                        <g id="KPIE" transform="translate(96.000000, 3.000000)" fill="#FFFFFF">
                            <polygon id="Shape" points="23.4311181 41.9830969 15.7565159 27.5520676 12.2107638 32.1032297 12.2107638 41.9830969 0 41.9830969 0 0 12.2107638 0 12.2107638 14.5535768 23.1695814 0 37.2068148 0 24.0828162 16.903109 38 42"></polygon>
                            <path d="M72,15.0371414 C72,25.2253649 66.5529209,31.1015601 57.1000132,31.1015601 L52.0556365,31.1015601 L52.0556365,42 L40,42 L40,0 L57.0830574,0 C66.535965,0 72,5.45344741 72,15.0371414 Z M59.9880478,14.9112426 C59.9880478,11.7962806 58.5776892,10 56.1314741,10 L52,10 L52,20 L56.1394422,20 C58.5856574,20 60,18.1445478 60,14.9112426 L59.9880478,14.9112426 Z" id="Shape"></path>
                            <polygon id="Shape" points="88 0 88 42 76 42 76 0"></polygon>
                            <polygon id="Shape" points="125.509628 0 125.509628 10.5433317 106.320043 10.5433317 106.320043 15.6966281 123.76946 15.6966281 123.76946 26.2441872 106.320043 26.2441872 106.320043 31.4566683 126 31.4566683 126 42 94 42 94 0"></polygon>
                        </g>
                        <g id="Group-7" transform="translate(38.000000, 0.000000)">
                            <path d="M23.188412,24.3424046 L31.1609698,14.3719072 C26.3777844,10.8135802 19.7076339,11.3066628 15.4996344,15.5296519 C11.2916349,19.752641 10.822068,26.4247086 14.3971038,31.1954888 C17.9721397,35.9662689 24.5074738,37.3887891 29.7418941,34.5355283 C34.9763144,31.6822674 37.3222268,25.4186165 35.250034,19.8286429 L23.188412,24.3424046 Z" id="Shape" fill="#FFFFFF"></path>
                            <path d="M38,17.4704301 C37.1940811,15.2907396 35.7816159,13.3914125 33.9318266,12 L26,22 L38,17.4704301 Z" id="Shape" fill="#FFFFFF"></path>
                            <path d="M46.4981451,15.6332784 L40.6607526,17.8664402 C43.7185497,26.1581856 40.2223502,35.4378982 32.4544272,39.6479035 C24.6865042,43.8579088 15.0065477,41.7193182 9.73350618,34.6281756 C4.46046464,27.5370331 5.19614892,17.6474404 11.460314,11.4151939 C17.724479,5.18294747 27.6142369,4.50123912 34.6736835,9.81507914 L38.6294256,4.97228389 C31.3810566,-0.599504028 21.598378,-1.56918768 13.3979354,2.47127526 C5.19749284,6.5117382 0.00288502832,14.8609224 0,24.005496 C0.00587605842,33.6061759 5.72856245,42.2802877 14.5504827,46.0602629 C23.3724029,49.840238 33.5971739,47.9992182 40.5479502,41.3792922 C47.4987265,34.7593661 49.8389306,24.6334916 46.4981451,15.6332784 L46.4981451,15.6332784 Z" id="Shape" fill="#FFAF14"></path>
                            <path d="M44.3971067,3.9117159 C43.6481161,3.22851518 42.8522784,2.58997328 42.0144665,2 L38,6.50846333 C38.6708481,6.97361915 39.305986,7.48062721 39.9009042,8.02588782 C41.748853,9.71537255 43.1735656,11.7540075 44.0759494,14 L50,11.921009 C48.782951,8.91199491 46.8716991,6.17987501 44.3971067,3.9117159 Z" id="Shape" fill="#FFAF14"></path>
                        </g>
                    </g>
                    <g id="Group-4" transform="translate(229.000000, 0.000000)">
                        <text id="R" font-family="OpenSans, Open Sans" font-size="6" font-weight="normal" fill="#FFFFFF">
                            <tspan x="4" y="8">R</tspan>
                        </text>
                        <circle id="Oval-2" stroke="#FFFFFF" stroke-width="0.5" fill-rule="nonzero" cx="6" cy="6" r="6"></circle>
                    </g>
                </g>
            </g>
        </g>
    </g>
</svg>