<svg height="16" viewBox="0 0 15 16" width="15" xmlns="http://www.w3.org/2000/svg"><path d="m7.703 8.760688h5.722438v7.239313h-5.722438z"/><path d="m.937063 8.760688h5.722438v7.239313h-5.722438z"/><path d="m11.6425625 2.951c.1547812-.28359375.242875-.6085625.242875-.95378125.0000312-1.10128125-.8959375-1.99721875-1.9971875-1.99721875-.81453125 0-1.64796875.420875-2.2865 1.15471875-.15803125.18159375-.29878125.37675-.4205.58-.12171875-.20325-.26246875-.39840625-.4205-.58-.63853125-.73384375-1.4719375-1.15471875-2.2865-1.15471875-1.10125 0-1.99721875.89596875-1.99721875 1.99721875 0 .3451875.0880625.6701875.242875.95378125h-2.71990625v4.76621875h6.6595v-4.76621875h1.04346875v4.76621875h6.65953125v-4.76621875zm-7.1683125 0c-.525875 0-.95375-.427875-.95375-.95378125s.427875-.95375.95375-.95375c.94684375 0 1.8470625.96853125 2.10903125 1.9075h-2.10903125zm5.414 0h-2.10903125c.26196875-.939 1.1621875-1.9075 2.10903125-1.9075.525875 0 .95375.427875.95375.95375-.0000313.52590625-.427875.95375-.95375.95375z"/></svg>