<svg height="24" width="24" xmlns="http://www.w3.org/2000/svg"><path d="M24 12c0 3.207-1.24 6.22-3.49 8.483A11.851 11.851 0 0 1 12.048 24v-.066l-.03.066a12.89 12.89 0 0 1-1.608-.1l.242-1.86c.434.056.925.085 1.366.085l.03.066v-.066c5.557 0 10.078-4.542 10.078-10.125S17.604 1.875 12.047 1.875c-3.65 0-6.92 1.906-8.72 4.969h2.251v1.875H0V3.094h1.875v2.534a12.005 12.005 0 0 1 3.322-3.482A11.929 11.929 0 0 1 12.047 0c3.203 0 6.21 1.249 8.464 3.517A11.953 11.953 0 0 1 24 12zM6.541 22.704a11.96 11.96 0 0 0 1.883.763l.553-1.791a10.084 10.084 0 0 1-1.587-.643zm-1.892-3.71L3.294 20.29c.467.489.98.941 1.521 1.344l1.12-1.504c-.459-.34-.89-.723-1.286-1.136zm-1.911-2.83l-1.709.771c.278.616.611 1.213.99 1.774l1.554-1.05c-.32-.473-.6-.976-.835-1.496zm-.829-3.022h.001l-.03-.298H0l.014.172H.013c.056.675.17 1.349.34 2.002l1.815-.47c-.119-.46-.205-.931-.259-1.406zm6.81 1.861c0-1.384.632-2.376 1.226-3.003-.594-.627-1.226-1.62-1.226-3.003V8.72H7.547V6.844h8.906v1.875h-1.172v.278c0 1.384-.632 2.376-1.226 3.003.594.627 1.226 1.62 1.226 3.003v.278h1.172v1.875H7.547v-1.875h1.172zm1.875 0v.278h2.812v-.278c0-1.436-1.262-2.176-1.275-2.183a.965.965 0 0 1-.129-.087.957.957 0 0 1-.13.085c-.09.053-1.278.778-1.278 2.185zm2.812-6.284h-2.812v.278c0 1.406 1.187 2.131 1.278 2.185a.961.961 0 0 1 .128.083c.04-.03.083-.059.128-.083.091-.054 1.278-.779 1.278-2.185z" fill="#fff"/></svg>