<svg width="149" height="62" viewBox="0 0 149 62" fill="none" xmlns="http://www.w3.org/2000/svg">
<g clip-path="url(#clip0_9465_228167)">
<path fill-rule="evenodd" clip-rule="evenodd" d="M60.5511 23.8247V34.6774H65.8986V30.5033C65.8986 27.765 65.8986 26.254 65.9404 26.0537C65.9923 25.6499 66.132 25.2624 66.3498 24.9183C66.5305 24.6664 66.7779 24.4697 67.0642 24.3502C67.3505 24.2308 67.6644 24.1934 67.9708 24.2421C68.9066 24.2922 69.4497 24.8432 69.6418 25.9117C69.6418 26.0704 69.6418 27.715 69.6418 30.4532V34.6774H74.9893V29.6684C74.9893 25.4943 74.9893 24.5844 74.9308 24.167C74.8367 22.8474 74.2909 21.6005 73.3851 20.6357C72.6312 19.8854 71.6439 19.4142 70.586 19.2999C69.9369 19.2476 69.284 19.2672 68.6392 19.3584C67.7217 19.5454 66.8809 20.0018 66.2245 20.669L65.8485 21.0447V12.9636H60.5511V23.8247ZM117.368 13.1306C117.226 13.4562 111.795 26.5879 111.795 26.613H118.12L120.944 19.8175C122.49 16.0775 123.76 13.0054 123.76 12.9887C123.76 12.972 122.34 12.9887 120.602 12.9887H117.443L117.368 13.1306ZM48.8368 19.2999C47.7739 19.4296 46.7557 19.8039 45.8622 20.3936C44.9497 21.0285 44.1807 21.8477 43.605 22.7983C43.0293 23.7488 42.6597 24.8095 42.5201 25.9117C42.3649 27.0648 42.4244 28.2365 42.6955 29.3679C42.9641 30.584 43.5362 31.7124 44.3587 32.648C45.1812 33.5837 46.2273 34.2962 47.3996 34.7191C48.0928 34.9791 48.8331 35.09 49.5721 35.0447C49.9882 35.0684 50.4058 35.046 50.817 34.9779C51.7648 34.8061 52.6386 34.3522 53.3237 33.6756L53.6662 33.3333V34.6774H58.8215V19.6506H53.6579V21.0364L53.4156 20.7776C52.7302 20.0917 51.8588 19.6215 50.9089 19.4252C50.5202 19.3354 50.121 19.2989 49.7225 19.3166C49.2963 19.2832 48.8953 19.2916 48.8368 19.2999ZM82.9688 19.3417C81.5014 19.5295 80.1109 20.106 78.9415 21.0113C77.8719 21.8959 77.0529 23.045 76.5662 24.3442C76.0795 25.6434 75.942 27.0474 76.1674 28.4162C76.3843 29.9485 77.0584 31.3799 78.1017 32.5236C79.1451 33.6673 80.5093 34.4703 82.0163 34.8277C82.7236 35.0051 83.4511 35.0893 84.1803 35.0781C85.4946 35.1198 86.7985 34.8328 87.9737 34.2433C89.0957 33.6854 90.0634 32.8608 90.7919 31.8419C91.5203 30.8229 91.9871 29.6409 92.1514 28.3995C92.2392 27.6144 92.2392 26.822 92.1514 26.037C91.9719 24.774 91.4936 23.572 90.7561 22.5307C90.3322 21.9876 89.8534 21.4897 89.3273 21.0447C88.1644 20.1389 86.7792 19.5622 85.3167 19.3751C84.5372 19.2847 83.7505 19.2735 82.9688 19.3417ZM99.9805 19.3417C98.5376 19.5358 97.1729 20.1123 96.0284 21.0113C95.5002 21.4541 95.0211 21.9522 94.5996 22.4973C93.8597 23.5381 93.3785 24.74 93.1959 26.0036C93.104 26.7884 93.104 27.5813 93.1959 28.3661C93.4894 30.2583 94.4616 31.9792 95.9313 33.208C97.401 34.4368 99.2678 35.0896 101.184 35.0447C102.527 35.0713 103.857 34.7644 105.052 34.1514C106.585 33.3499 107.811 32.0654 108.539 30.4972C109.267 28.9291 109.457 27.1647 109.08 25.4776C108.757 23.8627 107.927 22.3929 106.709 21.283C105.492 20.1732 103.951 19.4812 102.312 19.3083C101.535 19.2401 100.754 19.2512 99.9805 19.3417ZM25.1992 19.6422C25.1992 19.6422 26.6447 23.065 28.4077 27.2141C30.1707 31.3631 31.6078 34.7943 31.6078 34.811C31.6078 34.8277 31.0898 36.0715 30.4548 37.5575L29.3101 40.2791C29.3101 40.2791 30.5885 40.2791 32.1426 40.2791H34.9834L39.2531 30.0024C41.6177 24.3423 43.5812 19.7007 43.5812 19.6673C42.6462 19.6138 41.7088 19.6138 40.7738 19.6673H37.9162L36.1866 24.0501C35.2258 26.4293 34.4487 28.4162 34.4403 28.4162C34.432 28.4162 33.6549 26.4377 32.7108 24.0334L31.0397 19.6756H28.1153C26.5194 19.6255 25.1992 19.6339 25.1992 19.6422ZM51.4353 24.192C51.9686 24.3209 52.4566 24.5927 52.8467 24.9781C53.2369 25.3635 53.5144 25.8479 53.6495 26.3792C53.7581 26.9024 53.7581 27.4422 53.6495 27.9654C53.5125 28.493 53.2364 28.9743 52.8499 29.359C52.4634 29.7437 51.9806 30.0178 51.452 30.1526C50.9293 30.2695 50.3872 30.2695 49.8645 30.1526C49.4043 30.0332 48.9775 29.8101 48.6169 29.5004C48.2563 29.1907 47.9714 28.8027 47.784 28.3661C47.5957 27.8915 47.5233 27.379 47.5727 26.8709C47.6221 26.3628 47.7919 25.8737 48.0681 25.4442C48.4324 24.9106 48.9539 24.5034 49.5602 24.279C50.1665 24.0546 50.8277 24.0242 51.452 24.192H51.4353ZM84.7151 24.192C85.286 24.2929 85.814 24.561 86.232 24.9623C86.6501 25.3637 86.9393 25.8801 87.063 26.446C87.1631 26.9419 87.1631 27.4528 87.063 27.9487C86.9355 28.4592 86.6738 28.9265 86.3052 29.3022C85.9365 29.6779 85.4741 29.9484 84.9657 30.0859C84.4409 30.1818 83.903 30.1818 83.3782 30.0859C82.9634 29.9751 82.5779 29.775 82.2488 29.4995C81.9197 29.2241 81.655 28.8799 81.4732 28.4913C81.2667 28.0773 81.169 27.6177 81.1891 27.1556C81.1725 26.7403 81.2496 26.3266 81.4147 25.9451C81.6429 25.4084 82.0198 24.9479 82.5009 24.6178C83.1729 24.2224 83.9672 24.0886 84.7318 24.2421L84.7151 24.192ZM101.727 24.192C102.211 24.2738 102.666 24.4777 103.049 24.7845C103.432 25.0913 103.731 25.4908 103.916 25.9451C104.081 26.3266 104.158 26.7403 104.141 27.1556C104.162 27.6177 104.064 28.0773 103.857 28.4913C103.679 28.8779 103.419 29.2208 103.094 29.4963C102.769 29.7717 102.388 29.9729 101.977 30.0859C101.455 30.1798 100.92 30.1798 100.398 30.0859C99.8921 29.9486 99.4317 29.679 99.0645 29.3048C98.6974 28.9306 98.4367 28.4654 98.3094 27.9571C98.1924 27.4348 98.1924 26.8932 98.3094 26.3709C98.4673 25.7325 98.8361 25.1661 99.3562 24.7631C99.8763 24.3601 100.517 24.1442 101.175 24.1503C101.367 24.165 101.557 24.1958 101.743 24.2421L101.727 24.192ZM113.057 27.9153C112.31 28.0024 111.609 28.3203 111.052 28.8247C110.494 29.329 110.109 29.9947 109.949 30.7287C109.848 31.2527 109.848 31.7909 109.949 32.3148C110.099 32.9499 110.429 33.5286 110.898 33.9827C111.368 34.4368 111.957 34.7474 112.597 34.8777C112.838 34.9169 113.081 34.9364 113.324 34.9362C114.093 34.945 114.844 34.7044 115.464 34.2505C116.084 33.7965 116.54 33.1537 116.763 32.4187C116.986 31.6837 116.965 30.8961 116.702 30.1744C116.439 29.4526 115.948 28.8357 115.304 28.4162C114.632 28.0207 113.85 27.851 113.073 27.932L113.057 27.9153Z" fill="white"/>
</g>
<path fill-rule="evenodd" clip-rule="evenodd" d="M102.202 41.5536C101.37 40.6281 100.098 40.2161 98.875 40.2462L98.8766 40.2493C97.8589 40.2695 96.8779 40.633 96.0928 41.281C95.6224 41.6816 95.2409 42.1761 94.9726 42.7327C94.5084 43.7216 94.4624 44.8785 94.6922 45.9403C94.8316 46.5671 95.1221 47.1502 95.5382 47.6391C95.9543 48.128 96.4836 48.5077 97.0799 48.7454C98.2606 49.1732 99.5475 49.2104 100.751 48.8516C101.72 48.5526 102.543 47.9027 103.058 47.0291C102.638 46.8611 102.215 46.7021 101.793 46.5432C101.343 46.3737 100.893 46.2043 100.447 46.0243C100.43 46.0418 100.412 46.0594 100.395 46.0771C100.198 46.2804 99.9936 46.4907 99.7211 46.5869C99.4243 46.7046 99.1012 46.7394 98.7861 46.6878C98.4711 46.6362 98.176 46.5 97.9323 46.2937C97.7067 46.0633 97.5607 45.7668 97.5156 45.4474H103.311C103.47 44.0798 103.164 42.5837 102.202 41.5536ZM97.9207 42.9573C98.1219 42.7561 98.3849 42.6284 98.6674 42.5948H98.6706C99.4074 42.4252 100.353 42.8737 100.388 43.7042H97.5584C97.5919 43.4216 97.7196 43.1585 97.9207 42.9573ZM79.7422 49.1025C78.8503 49.1035 77.9782 48.8454 77.2362 48.3606C76.4941 47.8758 75.9155 47.1862 75.5735 46.3791C75.2314 45.5719 75.1414 44.6835 75.3147 43.8261C75.4881 42.9688 75.917 42.1811 76.5472 41.5627C77.1775 40.9443 77.9807 40.5231 78.8554 40.3522C79.73 40.1813 80.6367 40.2685 81.4607 40.6027C82.2848 40.9369 82.9892 41.5032 83.4847 42.2298C83.9803 42.9564 84.2449 43.8108 84.2449 44.6848C84.2434 45.8551 83.7688 46.9772 82.9248 47.8053C82.0809 48.6333 80.9364 49.0997 79.7422 49.1025ZM79.7422 42.9081C79.3821 42.907 79.0299 43.0108 78.73 43.2062C78.4302 43.4016 78.1963 43.6799 78.058 44.0057C77.9197 44.3315 77.8832 44.6902 77.9532 45.0364C78.0232 45.3825 78.1965 45.7004 78.4511 45.9499C78.7057 46.1995 79.0302 46.3693 79.3834 46.4379C79.7366 46.5065 80.1027 46.4708 80.4352 46.3353C80.7676 46.1998 81.0515 45.9705 81.2509 45.6767C81.4503 45.3829 81.5562 45.0376 81.5551 44.6848C81.5537 44.214 81.3622 43.7629 81.0226 43.43C80.6829 43.0971 80.2226 42.9095 79.7422 42.9081ZM93.3901 48.8074V42.8607C93.3901 42.2545 93.1211 40.8468 92.0237 40.4304C91.8163 40.3511 91.5953 40.3117 91.3727 40.3144C89.7734 40.3144 89.0563 40.7442 88.0697 41.7781V40.4356H85.4122V48.8126H88.0697V43.9989C88.9454 42.805 90.7003 42.9197 90.7003 44.0363V48.8074H93.3901ZM68.7357 48.8074V44.0363C69.6018 42.8027 71.3931 42.9082 71.3931 44.0363V48.8074H74.056V42.8607C74.056 42.2545 73.787 40.8468 72.7165 40.4304C72.5091 40.3511 72.2881 40.3117 72.0656 40.3144C70.4805 40.3144 69.5649 40.884 68.5847 41.9033C68.4085 41.3152 68.0533 40.686 67.3962 40.4304C67.1888 40.3511 66.9678 40.3117 66.7452 40.3144C65.1314 40.3144 64.4159 40.752 63.4153 41.8063V40.4304H60.7578V48.8074H63.4153V44.0363C64.2814 42.8027 66.0728 42.9082 66.0728 44.0363V48.8074H68.7357ZM103.003 40.3249C103.003 40.3249 103.81 42.2333 104.8 44.5423C105.79 46.8514 106.597 48.7599 106.597 48.7862C106.597 48.8112 106.335 49.4244 106.006 50.1983L106.005 50.1986L105.951 50.3256L105.306 51.8439H108.49L110.884 46.1028C111.405 44.8579 111.892 43.7013 112.291 42.7536L112.291 42.7524C112.905 41.2928 113.311 40.3293 113.311 40.3038C112.785 40.2774 112.259 40.2774 111.734 40.3038H110.12L109.152 42.7551C108.847 43.5077 108.575 44.1909 108.396 44.6418L108.395 44.6442C108.258 44.9879 108.175 45.1961 108.173 45.1961C108.168 45.1961 107.732 44.089 107.205 42.7447L106.269 40.309H104.655C103.762 40.3143 103.003 40.3196 103.003 40.3249Z" fill="white" fill-opacity="0.4"/>
<defs>
<clipPath id="clip0_9465_228167">
<rect width="98.5692" height="36.0727" fill="white" transform="translate(25.2148 12.9636)"/>
</clipPath>
</defs>
</svg>
