<svg width="151" height="62" viewBox="0 0 151 62" fill="none" xmlns="http://www.w3.org/2000/svg">
<g clip-path="url(#clip0_9465_227656)">
<path d="M34.0603 38.7645H45.2437V35.7871H37.4386V32.1436H43.9041V29.1662H37.4386V25.797H45.2826V22.8196H34.0603V38.7645ZM58.6988 32.8488L51.3791 22.8196H46.331L47.9037 24.8372V38.8037H51.282V28.3435L58.8541 38.7645H62.0771V22.8196H58.6988V32.8488ZM28.954 30.557C30.4296 30.2632 31.6722 28.8724 31.6722 26.9136C31.6528 24.798 30.1383 22.8196 27.0901 22.8196H17.2852L18.7996 24.7784V38.7645H27.4201C30.4684 38.7645 32.0411 36.8449 32.0411 34.4355C32.0022 32.4766 30.6626 30.792 28.954 30.557ZM22.1973 25.8166H26.4299C27.5755 25.8166 28.2938 26.4826 28.2938 27.5012C28.2938 28.5002 27.5755 29.1858 26.4299 29.1858H22.1973V25.8166ZM26.5853 35.8067H22.2167V32.1436H26.5853C27.8667 32.1436 28.5851 32.9664 28.5851 33.9654C28.5851 35.1211 27.8279 35.7871 26.5853 35.8067ZM111.529 32.8488H113.296V34.7293C112.383 35.4933 111.238 35.9046 110.053 35.9242C107.238 35.9242 105.238 33.7695 105.238 30.8312C105.238 27.9126 107.238 25.7382 110.053 25.7382C111.529 25.7578 112.888 26.5022 113.665 27.7558L116.325 26.2671C115.179 24.4454 113.179 22.8196 109.995 22.8196C105.529 22.8196 101.802 25.9341 101.802 30.792C101.802 35.65 105.471 38.7645 109.995 38.7645C112.461 38.8037 114.83 37.7459 116.46 35.885V29.9889H109.257L111.529 32.8488ZM96.307 32.8488L88.9679 22.8196H83.9198L85.4925 24.8372V38.8037H88.8708V28.3435L96.4429 38.7645H99.6853V22.8196H96.307V32.8488ZM127.663 22.8196H121.14L122.712 24.8372L122.421 25.6011L117.373 38.8037H121.178L122.169 36.1201H128.984L129.974 38.8037H133.779L127.663 22.8196ZM123.062 33.1035L125.528 26.228L127.993 33.1035H123.062ZM78.5999 22.8196H81.9782V38.8037H78.5999V22.8196ZM75.8817 25.562V22.8196H63.9799V25.797H71.4549L63.9799 36.0221V38.7645H76.0176V35.7871H68.3484L75.8817 25.562Z" fill="white"/>
</g>
<defs>
<clipPath id="clip0_9465_227656">
<rect width="116.538" height="18.0364" fill="white" transform="translate(17.2305 21.9818)"/>
</clipPath>
</defs>
</svg>
