<svg width="151" height="62" viewBox="0 0 151 62" fill="none" xmlns="http://www.w3.org/2000/svg">
<path d="M41.1949 29.4064L40.9818 30.4742H40.9447C40.6598 29.8537 39.8448 29.0276 38.1059 29.0276C35.2671 29.0276 32.3923 31.1632 31.7545 34.5049C31.1872 37.4329 32.6772 40.017 36.0127 40.017C37.255 40.017 38.6756 39.536 39.3841 38.5355H39.4212L39.2082 39.6382H42.3294L44.2814 29.3715H41.1949V29.4064ZM40.2015 34.5049C39.9885 35.5029 39.0311 37.1575 37.0432 37.1575C35.1271 37.1575 34.7369 35.5041 34.9128 34.5722C35.1259 33.401 36.2257 31.9195 38.034 31.9195C39.8089 31.9195 40.4121 33.2976 40.199 34.5049H40.2015ZM46.0922 29.4064H49.0375L48.8245 30.4742H48.8616C49.2518 29.9932 49.9615 29.0276 51.8069 29.0276L51.2397 32.13C49.7497 32.166 48.6387 32.4402 48.4009 34.0251L47.301 39.6767H44.0807L46.0922 29.4064ZM53.9348 25.3757H57.1303L55.6403 33.1268H55.7109L59.3647 29.4064H63.0903L58.2289 33.9192L61.0318 39.6731H57.4474L55.3889 34.7117H55.3641L54.4055 39.6731H51.2471L53.9348 25.3757ZM68.1784 29.0276C64.9829 29.0276 62.1094 31.7151 61.5768 34.5746C61.0095 37.6048 63.1027 40.0182 66.1546 40.0182C67.2898 40.0131 68.3994 39.6899 69.3501 39.0875C70.3434 38.5019 71.2661 37.606 72.013 36.4697H68.784C68.2515 37.0204 67.6483 37.4341 66.6537 37.4341C65.4114 37.4341 64.5234 36.7102 64.5481 35.5053H72.475C72.5815 35.2648 72.6174 35.0917 72.688 34.7117C73.2912 31.542 71.4123 29.0276 68.1796 29.0276H68.1784ZM64.9829 33.4046C65.2306 32.7841 66.0827 31.649 67.7511 31.649C69.3835 31.649 69.8096 32.7853 69.8096 33.4046H64.9829ZM27.0727 39.6731H30.231V25.3636H27.5334L21.9264 33.4924H21.8892V25.3636H19.1929L9.29297 39.6731H13.1251L18.6962 31.5444H18.7334V39.6731H21.4657L27.0021 31.5444H27.0727V39.6731ZM80.7276 29.4064H78.7409L79.3082 26.3761H76.54L76.3269 27.5473C76.0792 28.8905 75.2271 29.3029 74.0554 29.4076H74.0182L73.5228 31.7163H75.0834L73.5575 39.6526H76.7159L78.2418 31.7163H80.2644L80.7276 29.4064Z" fill="white"/>
<path d="M129.75 35.815C128.722 38.1201 126.236 39.985 123.396 39.985C120.199 39.985 118.177 37.5781 118.78 34.5606C119.348 31.5786 122.225 29.1706 125.42 29.1706C128.224 29.1706 130.128 30.9669 130.178 33.4306H126.981C126.768 32.7182 126.307 32.007 124.957 32.007C123.467 31.9396 122.224 33.1253 121.94 34.5512C121.655 36.009 122.436 37.1273 123.964 37.1273C125.277 37.1273 126.07 36.4149 126.52 35.7712H129.75V35.815ZM103.481 21.9818L97.34 25.5756H99.0797L93.5061 33.5749H93.4355V25.5756H90.7008L85.1247 33.5761H85.0876V25.5768H81.8906V39.6584H84.6601L90.2336 31.6591H90.2708V39.6584H93.0043L102.874 25.5768H104.435L103.481 21.9818ZM109.516 39.6454H106.393L106.606 38.5603H106.569C105.823 39.5425 104.438 40.0182 103.196 40.0182C99.8231 40.0182 98.3684 37.474 98.9359 34.5938C99.5753 31.3041 102.486 29.2037 105.29 29.2037C107.03 29.2037 107.846 30.0178 108.13 30.6272H108.167L108.38 29.5764H111.503L109.516 39.6454ZM104.19 37.1723C106.143 37.1723 107.136 35.5452 107.35 34.5618C107.563 33.343 106.959 32.0177 105.184 32.0177C103.374 32.0177 102.272 33.4755 102.061 34.6281C101.848 35.5771 102.274 37.1723 104.192 37.1723H104.19ZM119.419 29.5445H117.431L117.999 26.5625H115.229L115.016 27.7151C114.768 29.0368 113.916 29.4427 112.743 29.5457H112.706L112.245 31.8177H113.807L112.28 39.6277H115.44L116.966 31.8177H118.99L119.419 29.5445ZM132.732 25.578H135.891L134.932 30.5953H134.969C135.644 29.6463 136.568 29.1717 137.952 29.1717C138.946 29.1717 140.083 29.5445 140.616 30.29C141.29 31.2722 141.22 32.1549 140.864 33.9855L139.764 39.6135H136.604L137.67 34.1228C137.776 33.6495 138.06 31.9869 136.393 31.9869C134.618 31.9869 134.334 33.5134 134.227 34.0222L133.127 39.6158H130.004L132.732 25.578Z" fill="white" fill-opacity="0.4"/>
</svg>
