<svg width="143" height="60" viewBox="0 0 143 60" fill="none" xmlns="http://www.w3.org/2000/svg">
<g clip-path="url(#clip0_9465_228181)">
<path d="M30.3061 46.3654C29.4804 46.2411 28.6415 46.1747 27.8317 45.9834C22.1891 44.6502 18.2304 41.3131 16.015 35.9607C15.0008 33.5105 14.6342 30.9323 14.9763 28.3138C15.8203 21.8533 19.2843 17.3236 25.3091 14.7969C27.7567 13.7707 30.3443 13.436 32.9722 13.752C38.7237 14.446 43.0483 17.3373 45.8071 22.4266C47.7997 26.102 48.2486 30.0412 47.1717 34.0672C45.744 39.4037 42.3918 43.1224 37.2636 45.2267C35.7256 45.8577 34.1133 46.1834 32.4599 46.3214C32.3784 46.3283 32.2984 46.3495 32.2176 46.3639L30.3061 46.3654ZM38.701 24.0391C38.983 22.672 39.0194 21.3525 38.8092 20.0257C38.7299 19.5252 38.74 19.5213 38.2684 19.5213H24.7124C23.8659 19.5213 23.8634 19.5213 23.7358 20.35C23.5454 21.5838 23.6074 22.8061 23.8955 24.0543H28.7417V40.2192C30.4665 40.5795 32.1552 40.5817 33.8818 40.2102V24.0384L38.701 24.0391Z" fill="white" fill-opacity="0.4"/>
<path d="M128.15 35.6952H126.271C126.263 35.5384 126.252 35.4145 126.252 35.2909C126.252 34.3374 126.254 33.3836 126.25 32.4298C126.247 31.7834 126.041 31.2159 125.498 30.8332C124.61 30.2069 123.394 30.7165 123.124 31.823C123.067 32.0872 123.039 32.357 123.042 32.6273C123.031 33.6042 123.035 34.5814 123.032 35.5586C123.025 35.5909 123.015 35.6223 123.002 35.6523H121.098V28.9969C121.575 28.9969 122.044 28.9869 122.511 29.006C122.6 29.0096 122.7 29.1141 122.766 29.1973C122.845 29.296 122.892 29.42 122.969 29.5605C123.153 29.4387 123.317 29.3126 123.497 29.2128C125.069 28.3379 126.997 29.015 127.779 30.724C127.792 30.7514 127.804 30.7788 127.815 30.8062C128.039 31.3358 128.153 31.9054 128.15 32.4803L128.15 35.6952Z" fill="white"/>
<path d="M86.5547 24.8235C87.5663 24.8235 88.5556 24.7904 89.5413 24.8383C90.0104 24.8595 90.4711 24.9696 90.8991 25.1626C92.5936 25.9532 93.1935 27.9732 92.2557 29.5911C92.2265 29.6412 92.202 29.6938 92.1685 29.759C93.4725 30.9788 93.8331 32.4028 92.9808 34.0146C92.3347 35.2357 90.9276 35.8364 89.3852 35.6206V33.7951C89.6502 33.7951 89.9069 33.8052 90.1621 33.7933C90.8713 33.7598 91.4049 33.2355 91.4197 32.5682C91.4363 31.8306 90.9535 31.2591 90.2079 31.2328C89.1357 31.1968 88.0613 31.2141 86.9877 31.2087C86.8496 31.2087 86.7112 31.2087 86.555 31.2087L86.5547 24.8235ZM88.5124 29.0895C88.8581 29.0895 89.1866 29.1086 89.5121 29.0856C90.1596 29.0391 90.6377 28.5389 90.6575 27.9159C90.6777 27.2673 90.2732 26.7571 89.612 26.6717C89.2565 26.6256 88.8909 26.6634 88.5127 26.6634L88.5124 29.0895Z" fill="white"/>
<path d="M85.1422 35.6592H83.103V35.1522C83.103 34.2341 83.1145 33.3145 83.099 32.3978C83.0864 31.6498 82.7843 31.0408 82.0852 30.7119C81.442 30.4088 80.8132 30.5032 80.2663 30.9569C79.8697 31.2866 79.6494 31.7283 79.6444 32.2516C79.6343 33.2518 79.6372 34.2525 79.635 35.2531C79.635 35.38 79.635 35.5054 79.635 35.6563H77.5742V24.2046H79.635V29.3646C79.8892 29.2493 80.0947 29.1451 80.3085 29.0615C82.5182 28.1967 84.8959 29.593 85.122 31.9644C85.237 33.1744 85.1422 34.4053 85.1422 35.6592Z" fill="white"/>
<path d="M61.8684 24.8531V26.9881H58.8868V35.6588H56.6926V27.0108H53.7031V24.8531H61.8684Z" fill="white"/>
<path d="M68.3214 34.5937C67.4284 35.853 65.3452 36.2238 63.9255 35.3994C62.2991 34.4542 61.6541 32.5167 62.4163 30.8621C63.1965 29.1685 65.0986 28.3545 66.8508 28.9682C68.484 29.5407 69.5375 31.3507 69.133 32.9343H64.2326C64.4371 34.0874 65.7516 34.433 66.9042 33.6467L68.3214 34.5937ZM67.2871 31.747C67.088 30.923 66.3764 30.4434 65.5226 30.5244C64.8665 30.5871 64.2499 31.1633 64.2247 31.747H67.2871Z" fill="white"/>
<path d="M116.274 35.8366C113.717 35.8337 111.984 33.5034 112.796 31.1645C113.454 29.2702 115.711 28.2995 117.696 29.0566C119.589 29.7772 120.492 31.843 119.719 33.6829C119.168 34.9956 117.82 35.838 116.274 35.8366ZM116.321 30.5238C115.385 30.5188 114.57 31.3501 114.56 32.3186C114.55 33.2786 115.365 34.1351 116.296 34.1434C117.262 34.152 118.037 33.3315 118.032 32.3057C118.028 31.3187 117.269 30.5289 116.321 30.5238Z" fill="white"/>
<path d="M94.8136 29.0161H96.758C96.7637 29.1408 96.7742 29.2647 96.7746 29.3891C96.7746 30.3775 96.7652 31.3658 96.7803 32.3542C96.794 33.2216 97.3997 33.9037 98.1676 33.9548C99.038 34.0132 99.7562 33.3131 99.7727 32.3582C99.7897 31.3817 99.7781 30.4048 99.7792 29.4283V29.0219H101.738C101.752 29.0406 101.778 29.0579 101.778 29.0777C101.766 30.3465 101.837 31.6231 101.717 32.8814C101.566 34.4553 99.9299 35.9619 98.0245 35.8415C96.4418 35.7417 94.8998 34.2993 94.8068 32.6602C94.7408 31.4988 94.7833 30.3313 94.7797 29.1649C94.7857 29.1143 94.7971 29.0644 94.8136 29.0161Z" fill="white"/>
<path d="M105.03 35.6632H103.074V24.1989H105.03V35.6632Z" fill="white"/>
<path d="M108.249 24.2046V35.6502H106.297V24.2046H108.249Z" fill="white"/>
<path d="M76.2806 35.1464C74.7022 36.2879 72.4406 36.0022 71.1939 34.5338C70.0276 33.1606 70.1235 31.1337 71.4149 29.8588C72.7214 28.5692 74.9985 28.4078 76.3073 29.5248C76.0188 30.0293 75.7304 30.5337 75.4247 31.0699C74.952 30.6523 74.435 30.4833 73.8384 30.5845C73.3552 30.6667 72.946 30.8779 72.6331 31.2577C72.3753 31.5695 72.239 31.9641 72.2494 32.3685C72.2598 32.773 72.4162 33.16 72.6897 33.4582C73.3956 34.2434 74.4145 34.323 75.4297 33.6384L76.2806 35.1464Z" fill="white"/>
<path d="M111.501 29.0176V35.6582H109.523V29.0176H111.501Z" fill="white"/>
<path d="M109.516 24.8358H111.489V26.9715H109.516V24.8358Z" fill="white"/>
</g>
<defs>
<clipPath id="clip0_9465_228181">
<rect width="113.3" height="32.7273" fill="white" transform="translate(14.8516 13.6364)"/>
</clipPath>
</defs>
</svg>
