<svg width="149" height="62" viewBox="0 0 149 62" fill="none" xmlns="http://www.w3.org/2000/svg">
<g clip-path="url(#clip0_9465_228165)">
<path fill-rule="evenodd" clip-rule="evenodd" d="M89.1796 40.3282C90.3832 40.2985 91.6351 40.704 92.4536 41.6147C93.4 42.6284 93.7009 44.1005 93.545 45.4463C91.645 45.4463 89.744 45.4463 87.8419 45.4463C87.8863 45.7605 88.03 46.0523 88.2519 46.2791C88.4918 46.482 88.7822 46.616 89.0922 46.6668C89.4022 46.7177 89.7201 46.6834 90.0121 46.5676C90.3037 46.4646 90.5157 46.2292 90.7262 46.014C91.5775 46.357 92.4412 46.6611 93.2956 47.0027C92.7886 47.8623 91.9791 48.5018 91.0255 48.796C89.8413 49.1491 88.575 49.1125 87.4132 48.6916C86.8264 48.4577 86.3056 48.084 85.8961 47.6029C85.4867 47.1219 85.2009 46.548 85.0636 45.9313C84.8376 44.8865 84.8828 43.7481 85.3396 42.775C85.6036 42.2272 85.979 41.7407 86.4419 41.3465C87.2144 40.7089 88.1797 40.3511 89.1812 40.3313L89.1796 40.3282ZM88.9754 42.6393C88.6974 42.6723 88.4386 42.798 88.2406 42.996C88.0426 43.194 87.9171 43.4528 87.884 43.7309H90.6685C90.6342 42.9137 89.7035 42.4724 88.9785 42.6393H88.9754ZM80.4145 40.4389C81.3795 40.1816 82.5192 40.3656 83.238 41.0985C83.8741 41.7379 84.1033 42.6736 84.0955 43.5531C84.0955 45.3044 84.0955 47.0557 84.0955 48.8085C83.0914 48.8085 82.0874 48.8085 81.0849 48.8085C81.0849 47.3177 81.0849 45.8268 81.0849 44.336C81.1089 43.9754 80.9914 43.6196 80.7575 43.3442C80.5665 43.1609 80.3114 43.0597 80.0468 43.0623C79.7822 43.0649 79.5291 43.1712 79.3418 43.3582C79.0952 43.6509 78.9746 44.0294 79.0066 44.4108C79.0066 45.7629 79.0066 47.1165 79.0066 48.4654C79.0085 48.5837 78.9923 48.7015 78.9583 48.8148C77.9652 48.7992 76.9705 48.8023 75.9758 48.8148C75.9493 46.9044 75.9758 44.9941 75.9649 43.0837C75.9649 42.2385 75.9508 41.3933 75.9758 40.5496C76.9736 40.5496 77.9714 40.5621 78.9692 40.5496C79.044 40.849 78.9832 41.1609 79.0051 41.465C79.3352 40.9669 79.8331 40.6039 80.4082 40.442L80.4145 40.4389ZM108.623 40.69C109.191 40.4738 109.792 40.3551 110.4 40.3391C111.631 40.3441 112.843 40.6418 113.936 41.2077C113.782 41.5539 113.63 41.9011 113.479 42.2494C113.316 42.6206 113.168 42.9964 112.999 43.3644C112.333 43.011 111.608 42.7832 110.86 42.6923C110.572 42.654 110.28 42.673 109.999 42.7485C109.92 42.8458 109.88 42.9693 109.887 43.0947C110.127 43.3114 110.467 43.3457 110.765 43.4424C111.671 43.7028 112.636 43.9305 113.366 44.5715C113.597 44.7799 113.779 45.0379 113.897 45.3263C114.015 45.6147 114.066 45.926 114.047 46.237C114.045 46.6351 113.95 47.0272 113.77 47.3822C113.59 47.7371 113.329 48.0451 113.009 48.2814C112.245 48.8584 111.258 49.0175 110.322 49.0362C109.006 49.0159 107.653 48.7508 106.534 48.0272C106.9 47.3223 107.238 46.6034 107.588 45.8892C108.536 46.3851 109.602 46.7469 110.684 46.644C110.902 46.644 111.133 46.4444 111.043 46.2073C110.887 46.0373 110.647 45.9875 110.431 45.9266C109.822 45.7975 109.222 45.6303 108.634 45.426C108.03 45.1968 107.429 44.8272 107.143 44.2221C106.856 43.5487 106.847 42.7887 107.12 42.1091C107.415 41.4597 107.952 40.9514 108.617 40.6931L108.623 40.69ZM93.3314 40.5574C94.3495 40.5574 95.3676 40.5574 96.3856 40.5574C96.8175 41.9765 97.2088 43.4112 97.6875 44.8163C98.1178 43.3863 98.6229 41.9765 99.075 40.5543C99.8172 40.5543 100.558 40.5543 101.298 40.5543C101.395 40.8428 101.485 41.1329 101.576 41.4229C101.945 42.5566 102.326 43.6857 102.68 44.8256C103.126 43.4034 103.562 41.9796 103.988 40.5543C104.984 40.5543 105.98 40.5543 106.978 40.5543C106.962 40.6042 106.934 40.7102 106.919 40.7539C106.743 41.2498 106.574 41.7504 106.401 42.2479C105.841 43.9383 105.244 45.6163 104.686 47.3068C104.515 47.8058 104.345 48.3048 104.169 48.8023H103.356C102.765 48.8023 102.176 48.8023 101.585 48.8023C101.164 47.4299 100.682 46.0795 100.243 44.7149C100.205 44.6167 100.162 44.5216 100.12 44.428C100.001 44.9379 99.7984 45.4245 99.6597 45.9313C99.3167 46.8795 99.0283 47.8448 98.7165 48.8038H96.1331C95.4315 46.7407 94.7206 44.6791 94.0283 42.6128C93.7991 41.9251 93.5357 41.2498 93.3314 40.5558V40.5574Z" fill="white" fill-opacity="0.4"/>
<path fill-rule="evenodd" clip-rule="evenodd" d="M60.4464 12.399C62.2128 12.4255 63.9808 12.399 65.7472 12.4177C65.7036 15.1561 65.7597 17.8992 65.7192 20.6391C67.456 18.5136 70.8049 18.2204 72.9735 19.8313C74.3907 20.9604 74.9442 22.8489 74.9567 24.6017C75.0003 27.8579 74.9317 31.114 74.991 34.3717C73.2121 34.4591 71.4316 34.3717 69.6527 34.417C69.5077 31.454 69.6917 28.4785 69.5654 25.514C69.5264 24.4473 68.5364 23.5101 67.4435 23.7783C66.2305 23.8937 65.7426 25.2193 65.7457 26.2735C65.7114 28.9838 65.7457 31.6973 65.7332 34.4107C63.9449 34.3936 62.1551 34.4107 60.3669 34.3998C60.3981 28.2805 60.3668 22.1643 60.3809 16.0465C60.3918 14.8286 60.3341 13.6091 60.4448 12.3943L60.4464 12.399ZM117.959 12.4333C120.092 12.3912 122.223 12.4114 124.351 12.4239C122.429 17.0009 120.507 21.5779 118.672 26.1877C116.531 26.1877 114.389 26.1877 112.25 26.1877C114.161 21.605 116.063 17.0186 117.954 12.4286L117.959 12.4333ZM45.7973 19.7425C48.1203 18.3561 51.6329 18.3951 53.4056 20.6454C53.3869 20.1479 53.3822 19.6504 53.3775 19.1514C55.119 19.1514 56.8574 19.1717 58.5989 19.1421C58.5926 24.2176 58.5926 29.2926 58.5989 34.3671C56.8621 34.456 55.119 34.378 53.3791 34.4123C53.3791 33.9086 53.3791 33.4064 53.4009 32.9043C52.4031 34.3406 50.5353 34.8786 48.8593 34.7601C46.1107 34.6509 43.6146 32.6891 42.6636 30.1425C41.1606 26.523 42.3517 21.7947 45.7973 19.7425ZM49.5157 23.7612C47.584 24.1978 46.5534 26.6742 47.6105 28.3553C48.4368 29.8977 50.6258 30.3982 52.0664 29.447C53.6551 28.5004 53.9918 26.0551 52.7305 24.7062C51.9712 23.7846 50.6476 23.4976 49.5157 23.7705V23.7612ZM84.11 18.8161C86.6794 18.7319 89.2893 19.8766 90.8265 21.9631C93.3678 25.2037 92.7676 30.4107 89.5434 32.9776C86.26 35.6879 80.85 35.3168 78.053 32.0669C76.1089 29.854 75.5928 26.5308 76.6701 23.8017C77.7724 20.7951 80.9373 18.7787 84.11 18.8193V18.8161ZM82.9594 24.0029C81.1322 24.767 80.6208 27.4524 81.9959 28.859C83.1122 30.2298 85.4945 30.1784 86.5812 28.792C87.5338 27.7004 87.568 25.8696 86.5718 24.7889C85.7626 23.7082 84.1474 23.4508 82.9594 24.0091V24.0029ZM100.309 18.8692C102.7 18.5885 105.262 19.2107 107.063 20.8622C110.165 23.5974 110.471 28.831 107.785 31.9577C104.95 35.4103 99.2097 35.7144 95.92 32.7374C92.7754 30.0006 92.4682 24.7062 95.2044 21.5826C96.4907 20.0793 98.3647 19.1452 100.309 18.8723V18.8692ZM100.275 23.9374C98.544 24.647 97.8782 26.9674 98.9228 28.505C99.9206 30.2002 102.665 30.3031 103.845 28.7577C104.755 27.6474 104.707 25.9507 103.853 24.8201C103.418 24.3227 102.84 23.9712 102.199 23.8133C101.557 23.6554 100.883 23.6988 100.267 23.9374H100.275ZM24.6406 19.1421C26.5723 19.1717 28.5025 19.1592 30.4326 19.1421C31.6175 22.116 32.7587 25.107 33.9405 28.0824C35.1613 25.1195 36.2791 22.1113 37.5014 19.1499C39.3723 19.1499 41.2432 19.1499 43.1141 19.1499C40.3234 26.1284 37.3112 33.0181 34.5392 40.0014C32.6231 40.0185 30.707 39.9827 28.7924 40.0232C29.572 38.2065 30.2985 36.371 31.1311 34.5823C29.0341 29.4205 26.7438 24.321 24.6406 19.1452V19.1421ZM112.978 27.6848C115.112 26.9893 117.516 28.8466 117.415 31.0813C117.474 33.3238 115.094 35.192 112.93 34.5526C111.257 34.1581 110.07 32.4209 110.338 30.7195C110.466 29.2879 111.603 28.0435 112.978 27.6848Z" fill="white"/>
</g>
<defs>
<clipPath id="clip0_9465_228165">
<rect width="99.7154" height="36.6364" fill="white" transform="translate(24.6406 12.3999)"/>
</clipPath>
</defs>
</svg>
