<svg width="150" height="62" viewBox="0 0 150 62" fill="none" xmlns="http://www.w3.org/2000/svg">
<g clip-path="url(#clip0_9465_228166)">
<path fill-rule="evenodd" clip-rule="evenodd" d="M60.9524 23.8247V34.6774H66.3358V30.5033C66.3358 27.765 66.3358 26.254 66.3779 26.0537C66.4301 25.6499 66.5708 25.2624 66.79 24.9183C66.972 24.6664 67.221 24.4697 67.5092 24.3502C67.7974 24.2308 68.1134 24.1934 68.4219 24.2421C69.364 24.2922 69.9107 24.8432 70.1042 25.9117C70.1042 26.0704 70.1042 27.715 70.1042 30.4532V34.6774H75.4876V29.6684C75.4876 25.4943 75.4876 24.5844 75.4287 24.167C75.3339 22.8474 74.7844 21.6005 73.8726 20.6357C73.1136 19.8854 72.1197 19.4142 71.0547 19.2999C70.4012 19.2476 69.7439 19.2672 69.0948 19.3584C68.1711 19.5454 67.3247 20.0018 66.6639 20.669L66.2854 21.0447V12.9636H60.9524V23.8247ZM118.151 13.1306C118.008 13.4562 112.54 26.5879 112.54 26.613H118.908L121.751 19.8175C123.307 16.0775 124.586 13.0054 124.586 12.9887C124.586 12.972 123.156 12.9887 121.406 12.9887H118.227L118.151 13.1306ZM49.1595 19.2999C48.0895 19.4296 47.0644 19.8039 46.165 20.3936C45.2463 21.0285 44.4722 21.8477 43.8926 22.7983C43.313 23.7488 42.9409 24.8095 42.8004 25.9117C42.6442 27.0648 42.7041 28.2365 42.977 29.3679C43.2473 30.584 43.8233 31.7124 44.6514 32.648C45.4794 33.5837 46.5325 34.2962 47.7127 34.7191C48.4105 34.9791 49.1557 35.09 49.8997 35.0447C50.3187 35.0684 50.739 35.046 51.153 34.9779C52.1072 34.8061 52.9868 34.3522 53.6765 33.6756L54.0213 33.3333V34.6774H59.2113V19.6506H54.0129V21.0364L53.769 20.7776C53.0791 20.0917 52.2018 19.6215 51.2455 19.4252C50.8542 19.3354 50.4524 19.2989 50.0511 19.3166C49.6221 19.2832 49.2184 19.2916 49.1595 19.2999ZM83.5206 19.3417C82.0433 19.5295 80.6435 20.106 79.4662 21.0113C78.3895 21.8959 77.565 23.045 77.075 24.3442C76.5851 25.6434 76.4467 27.0474 76.6736 28.4162C76.8919 29.9485 77.5705 31.3799 78.6208 32.5236C79.6712 33.6673 81.0445 34.4703 82.5617 34.8277C83.2737 35.0051 84.0061 35.0893 84.7402 35.0781C86.0634 35.1198 87.376 34.8328 88.5591 34.2433C89.6886 33.6854 90.6628 32.8608 91.3961 31.8419C92.1295 30.8229 92.5995 29.6409 92.7648 28.3995C92.8532 27.6144 92.8532 26.822 92.7648 26.037C92.5841 24.774 92.1026 23.572 91.3601 22.5307C90.9334 21.9876 90.4514 21.4897 89.9217 21.0447C88.7511 20.1389 87.3566 19.5622 85.8842 19.3751C85.0995 19.2847 84.3076 19.2735 83.5206 19.3417ZM100.646 19.3417C99.1938 19.5358 97.82 20.1123 96.6678 21.0113C96.136 21.4541 95.6538 21.9522 95.2294 22.4973C94.4845 23.5381 94.0001 24.74 93.8163 26.0036C93.7238 26.7884 93.7238 27.5813 93.8163 28.3661C94.1118 30.2583 95.0905 31.9792 96.5701 33.208C98.0496 34.4368 99.929 35.0896 101.858 35.0447C103.21 35.0713 104.549 34.7644 105.752 34.1514C107.295 33.3499 108.529 32.0654 109.262 30.4972C109.995 28.9291 110.187 27.1647 109.807 25.4776C109.482 23.8627 108.646 22.3929 107.42 21.283C106.194 20.1732 104.643 19.4812 102.993 19.3083C102.212 19.2401 101.426 19.2512 100.646 19.3417ZM25.3633 19.6422C25.3633 19.6422 26.8185 23.065 28.5933 27.2141C30.3681 31.3631 31.8149 34.7943 31.8149 34.811C31.8149 34.8277 31.2934 36.0715 30.6541 37.5575L29.5018 40.2791C29.5018 40.2791 30.7887 40.2791 32.3533 40.2791H35.2132L39.5115 30.0024C41.8919 24.3423 43.8686 19.7007 43.8686 19.6673C42.9273 19.6138 41.9837 19.6138 41.0424 19.6673H38.1656L36.4244 24.0501C35.4571 26.4293 34.6748 28.4162 34.6664 28.4162C34.658 28.4162 33.8757 26.4377 32.9252 24.0334L31.2429 19.6756H28.2989C26.6923 19.6255 25.3633 19.6339 25.3633 19.6422ZM51.7755 24.192C52.3123 24.3209 52.8036 24.5927 53.1963 24.9781C53.5891 25.3635 53.8685 25.8479 54.0045 26.3792C54.1138 26.9024 54.1138 27.4422 54.0045 27.9654C53.8666 28.493 53.5886 28.9743 53.1995 29.359C52.8104 29.7437 52.3244 30.0178 51.7923 30.1526C51.2661 30.2695 50.7203 30.2695 50.1941 30.1526C49.7308 30.0332 49.3012 29.8101 48.9382 29.5004C48.5751 29.1907 48.2883 28.8027 48.0996 28.3661C47.9101 27.8915 47.8371 27.379 47.8869 26.8709C47.9366 26.3628 48.1076 25.8737 48.3856 25.4442C48.7524 24.9106 49.2774 24.5034 49.8878 24.279C50.4982 24.0546 51.1637 24.0242 51.7923 24.192H51.7755ZM85.2786 24.192C85.8533 24.2929 86.3849 24.561 86.8057 24.9623C87.2266 25.3637 87.5177 25.8801 87.6422 26.446C87.743 26.9419 87.743 27.4528 87.6422 27.9487C87.5139 28.4592 87.2505 28.9265 86.8793 29.3022C86.5082 29.6779 86.0427 29.9484 85.5309 30.0859C85.0026 30.1818 84.4611 30.1818 83.9327 30.0859C83.5152 29.9751 83.1271 29.775 82.7958 29.4995C82.4645 29.2241 82.1979 28.8799 82.0149 28.4913C81.8071 28.0773 81.7087 27.6177 81.7289 27.1556C81.7122 26.7403 81.7898 26.3266 81.956 25.9451C82.1858 25.4084 82.5652 24.9479 83.0495 24.6178C83.726 24.2224 84.5257 24.0886 85.2954 24.2421L85.2786 24.192ZM102.404 24.192C102.892 24.2738 103.35 24.4777 103.736 24.7845C104.121 25.0913 104.422 25.4908 104.608 25.9451C104.774 26.3266 104.852 26.7403 104.835 27.1556C104.856 27.6177 104.757 28.0773 104.549 28.4913C104.37 28.8779 104.108 29.2208 103.781 29.4963C103.454 29.7717 103.07 29.9729 102.657 30.0859C102.131 30.1798 101.593 30.1798 101.067 30.0859C100.557 29.9486 100.094 29.679 99.7243 29.3048C99.3547 28.9306 99.0923 28.4654 98.9641 27.9571C98.8464 27.4348 98.8464 26.8932 98.9641 26.3709C99.1231 25.7325 99.4944 25.1661 100.018 24.7631C100.542 24.3601 101.187 24.1442 101.849 24.1503C102.042 24.165 102.234 24.1958 102.421 24.2421L102.404 24.192ZM113.81 27.9153C113.059 28.0024 112.353 28.3203 111.792 28.8247C111.231 29.329 110.843 29.9947 110.681 30.7287C110.58 31.2527 110.58 31.7909 110.681 32.3148C110.833 32.9499 111.165 33.5286 111.638 33.9827C112.11 34.4368 112.703 34.7474 113.348 34.8777C113.59 34.9169 113.835 34.9364 114.08 34.9362C114.854 34.945 115.609 34.7044 116.234 34.2505C116.858 33.7965 117.317 33.1537 117.542 32.4187C117.766 31.6837 117.745 30.8961 117.48 30.1744C117.215 29.4526 116.722 28.8357 116.073 28.4162C115.396 28.0207 114.609 27.851 113.827 27.932L113.81 27.9153Z" fill="white"/>
</g>
<g clip-path="url(#clip1_9465_228166)">
<path fill-rule="evenodd" clip-rule="evenodd" d="M69.4908 36.1049C69.2436 36.1834 69.017 36.3155 68.8275 36.4916C68.6381 36.6678 68.4905 36.8835 68.3954 37.1233C68.3004 37.3631 68.2603 37.6208 68.2781 37.8778C68.2959 38.1349 68.3711 38.3848 68.4983 38.6094C68.7066 38.917 68.9981 39.1601 69.3394 39.3107C69.5641 39.4274 69.8201 39.4712 70.0712 39.4359C70.3223 39.4701 70.5779 39.4263 70.803 39.3107C71.1625 39.1238 71.4559 38.8326 71.6442 38.4758C71.7477 38.2721 71.8081 38.0495 71.8216 37.8217C71.835 37.5939 71.8013 37.3658 71.7225 37.1514C71.6437 36.9371 71.5214 36.741 71.3633 36.5754C71.2051 36.4098 71.0144 36.2781 70.803 36.1884C70.5972 36.0764 70.3647 36.0216 70.1301 36.0298C69.9141 36.0138 69.6971 36.0393 69.4908 36.1049ZM64.9907 36.1884C64.3165 36.2989 63.6923 36.6105 63.2009 37.0818C62.7096 37.553 62.3744 38.1616 62.2401 38.8265C62.1815 39.1153 62.1477 39.4085 62.1391 39.703V40.254H60.9531V41.5229V42.7919H62.1055V48.7943H65.2262V42.8086H67.3459V41.5229V40.254H65.243V39.9785C65.2347 39.725 65.3134 39.4763 65.4662 39.273C65.619 39.0697 65.8369 38.9241 66.0842 38.8598C66.4726 38.7612 66.8814 38.7756 67.2618 38.9016L67.5057 38.9767C67.5057 38.9767 67.5057 38.3923 67.5057 37.6827V36.3888L67.287 36.3053C66.8465 36.1551 66.3811 36.0899 65.9159 36.1133C65.6061 36.1156 65.2968 36.1408 64.9907 36.1884ZM77.7678 40.1037C77.1586 40.2121 76.6107 40.5389 76.2285 41.022L76.0518 41.2558V40.254H72.8891V48.811H76.0518V46.4818C76.0518 45.1377 76.0518 44.0441 76.0518 43.9105C76.0939 43.5951 76.2387 43.302 76.464 43.0757C76.6842 42.9112 76.9597 42.8369 77.2335 42.8679C77.5074 42.899 77.7588 43.0331 77.936 43.2427C78.1715 43.585 78.1715 43.5349 78.1883 46.2814V48.7859H81.3427V46.0059C81.3427 43.0256 81.3427 42.6666 81.166 42.124C81.038 41.632 80.7761 41.1843 80.409 40.83C80.1106 40.4903 79.7235 40.2389 79.2902 40.1037C78.787 40.0118 78.271 40.0118 77.7678 40.1037ZM85.7419 40.1037C85.142 40.2039 84.5694 40.4256 84.0596 40.7549C83.1166 41.4599 82.4815 42.4965 82.2847 43.6517C82.1964 44.2804 82.1964 44.9181 82.2847 45.5468C82.4021 46.2788 82.6902 46.9734 83.1259 47.5754C83.6849 48.3184 84.4989 48.8322 85.4138 49.0197C85.9939 49.1236 86.5891 49.1094 87.1634 48.9779C87.6491 48.8472 88.0924 48.5941 88.4504 48.2433L88.77 47.9511V48.7859H91.8907V40.254H88.77V41.1389L88.5597 40.9386C88.1049 40.4867 87.5145 40.1937 86.8774 40.1037C86.5021 40.0441 86.1211 40.0273 85.7419 40.0536V40.1037ZM97.9891 40.1037C97.3927 40.2429 96.8582 40.5711 96.4666 41.0387L96.332 41.2141V40.254H93.1524V48.811H96.3488V46.3816C96.3488 43.8104 96.3488 43.7603 96.5339 43.4096C96.6155 43.2573 96.7364 43.1292 96.8841 43.0383C97.0319 42.9474 97.2013 42.8969 97.375 42.892C97.5097 42.8746 97.6466 42.8899 97.774 42.9364C97.9014 42.9829 98.0156 43.0594 98.1068 43.1592C98.4433 43.4931 98.4349 43.3679 98.4433 46.2647V48.811H101.598V45.7054C101.598 42.6333 101.598 42.5915 101.497 42.2659C101.419 42.0175 101.323 41.7748 101.211 41.5396C101.096 41.2768 100.927 41.0408 100.714 40.8467C100.448 40.5606 100.117 40.3429 99.7471 40.2123C99.1799 40.0283 98.5748 39.9909 97.9891 40.1037ZM106.325 40.1037C105.437 40.2127 104.605 40.5924 103.943 41.1905C103.282 41.7886 102.824 42.5756 102.632 43.443C102.531 43.8126 102.494 44.1965 102.523 44.5784C102.486 45.1185 102.558 45.6603 102.733 46.1729C102.973 46.8939 103.403 47.538 103.979 48.0386C104.554 48.5391 105.254 48.8778 106.005 49.0197C106.361 49.0784 106.722 49.1008 107.082 49.0864C107.684 49.1273 108.287 49.0243 108.84 48.7859L109.151 48.6607V45.7221L108.89 45.8724C108.533 46.0877 108.123 46.2031 107.704 46.2063C107.319 46.2507 106.929 46.1779 106.586 45.9976C106.247 45.8357 105.976 45.5609 105.82 45.2212C105.716 45.0147 105.675 44.7826 105.702 44.5533C105.683 44.3403 105.715 44.1257 105.795 43.9272C105.935 43.6021 106.17 43.3264 106.47 43.1358C106.77 42.9452 107.121 42.8486 107.477 42.8587C108.073 42.8196 108.665 42.9782 109.16 43.3095C109.16 43.3095 109.16 42.675 109.16 41.8903V40.4544L108.907 40.3542C108.081 40.0586 107.193 39.9725 106.325 40.1037ZM113.5 40.1037C112.351 40.2913 111.32 40.9117 110.621 41.8356C109.922 42.7595 109.609 43.9155 109.748 45.0626C109.801 45.8363 110.053 46.5837 110.48 47.2331C110.794 47.6852 111.195 48.0712 111.66 48.3692C112.125 48.6672 112.644 48.8712 113.189 48.9696C113.989 49.0822 114.802 49.0822 115.603 48.9696C116.429 48.802 117.19 48.4055 117.798 47.8259C118.056 47.5823 118.275 47.3007 118.446 46.991C118.446 46.991 117.832 46.7406 117.108 46.4651L115.779 45.9475L115.586 46.1479C115.39 46.3641 115.131 46.5156 114.846 46.582C114.643 46.6481 114.428 46.6722 114.215 46.6528C114.002 46.6334 113.796 46.571 113.608 46.4693C113.421 46.3676 113.256 46.2288 113.125 46.0615C112.993 45.8943 112.898 45.702 112.844 45.4967V45.3297H115.813H118.782V44.6201C118.797 44.2709 118.774 43.9212 118.715 43.5766C118.554 42.7027 118.132 41.8971 117.504 41.2641C116.91 40.6626 116.143 40.2574 115.308 40.1037C114.709 40.0201 114.1 40.0201 113.5 40.1037ZM68.4478 44.5366V48.811H71.6273V40.254H68.4478V44.5366ZM114.77 42.4663C114.979 42.5176 115.169 42.6277 115.317 42.7835C115.499 42.9407 115.625 43.1512 115.678 43.3846V43.5432H114.274C112.65 43.5432 112.777 43.5432 112.92 43.2093C113.085 42.8838 113.363 42.6289 113.704 42.4922C114.044 42.3556 114.423 42.3463 114.77 42.4663ZM87.6092 42.892C87.8412 42.9612 88.0567 43.076 88.2431 43.2294C88.4295 43.3829 88.5829 43.5719 88.6943 43.7853C88.8078 44.0009 88.8725 44.2384 88.8838 44.4813C88.8951 44.7243 88.8528 44.9667 88.7599 45.1917C88.6669 45.4167 88.5256 45.6189 88.3457 45.7841C88.1659 45.9492 87.9518 46.0734 87.7186 46.1479C87.344 46.2482 86.9492 46.2482 86.5746 46.1479C86.31 46.0606 86.0696 45.9133 85.8725 45.7177C85.6754 45.522 85.5269 45.2834 85.4391 45.0208C85.3787 44.8236 85.3586 44.6164 85.3802 44.4114C85.3708 44.1917 85.4263 43.9741 85.54 43.7853C85.7258 43.4203 86.0343 43.1311 86.4122 42.968C86.7901 42.8049 87.2135 42.778 87.6092 42.892Z" fill="white" fill-opacity="0.4"/>
</g>
<defs>
<clipPath id="clip0_9465_228166">
<rect width="99.2308" height="36.0727" fill="white" transform="translate(25.3828 12.9636)"/>
</clipPath>
<clipPath id="clip1_9465_228166">
<rect width="99.2308" height="36.0727" fill="white" transform="translate(25.3828 12.9636)"/>
</clipPath>
</defs>
</svg>
