<svg width="149" height="62" viewBox="0 0 149 62" fill="none" xmlns="http://www.w3.org/2000/svg">
<g clip-path="url(#clip0_9465_227666)">
<path d="M38.5489 19.7996H28.7578L29.2404 18.9594H38.0663L38.5489 19.7996Z" fill="white" fill-opacity="0.4"/>
<path d="M40.6932 23.5347H26.6133L26.9487 22.9511L27.0959 22.6945H40.2106L40.6932 23.5347Z" fill="white" fill-opacity="0.4"/>
<path d="M42.8375 27.2699H24.4688L24.9513 26.4303H42.3556L42.8375 27.2699Z" fill="white" fill-opacity="0.4"/>
<path d="M44.9806 31.0057H22.3242C22.3343 30.9865 22.3457 30.9673 22.3564 30.9482L22.8055 30.1654H44.4993L44.9458 30.9482C44.9591 30.9673 44.9705 30.9865 44.9806 31.0057Z" fill="white" fill-opacity="0.4"/>
<path d="M46.4013 34.7408H20.9102C20.9569 34.5165 21.011 34.2935 21.0725 34.0718C21.0876 34.0149 21.1034 33.9574 21.1199 33.9005H46.196C46.2735 34.1779 46.3419 34.458 46.4013 34.7408Z" fill="white" fill-opacity="0.4"/>
<path d="M46.6765 37.6357C46.6719 37.9185 46.6578 38.1986 46.6342 38.476H20.6738C20.6506 38.1986 20.6356 37.9185 20.6289 37.6357H46.6765Z" fill="white" fill-opacity="0.4"/>
<path d="M46.0386 41.3715C45.9439 41.6559 45.8386 41.9358 45.7228 42.2111H21.5814C21.4673 41.9362 21.3621 41.6563 21.2656 41.3715H46.0386Z" fill="white" fill-opacity="0.4"/>
<path d="M44.0403 45.1066C43.8163 45.3951 43.5796 45.6752 43.3304 45.9468H23.9756C23.7267 45.6773 23.4901 45.3972 23.2656 45.1066H44.0403Z" fill="white" fill-opacity="0.4"/>
<path d="M26.9503 22.9512V48.3471C26.287 47.9568 25.6604 47.5094 25.0781 47.0104V26.2121L26.6149 23.5348L26.9503 22.9512Z" fill="white"/>
<path d="M33.654 15.6898L36.1395 20.0179L36.6221 20.8582L38.2839 23.753L38.7665 24.5933L40.429 27.4882L40.9109 28.3284L42.5728 31.2233L43.0149 31.9986C43.0187 32.0042 43.0219 32.0098 43.025 32.0153L43.0307 32.0265L43.0478 32.0568C43.4818 32.8201 43.8211 33.6315 44.0584 34.4737V34.4793C44.1215 34.7049 44.1803 34.9393 44.2302 35.1773C44.3856 35.9124 44.4641 36.6611 44.4645 37.4118C44.4645 37.4737 44.4645 37.5318 44.4645 37.5794V37.6004C44.4614 37.828 44.4494 38.0617 44.4298 38.2972C44.3617 39.1155 44.1962 39.9231 43.9365 40.7037C43.8575 40.9417 43.7704 41.1754 43.6775 41.3986C43.3208 42.257 42.8501 43.0657 42.2778 43.8038C42.0915 44.0449 41.8938 44.2787 41.6891 44.5C41.5533 44.6478 41.427 44.7782 41.3032 44.8988C39.3649 46.801 36.7596 47.9095 34.0165 47.9992C31.2734 48.0889 28.5984 47.153 26.5348 45.3817C26.2116 45.1059 25.9058 44.8113 25.6189 44.4994C25.4155 44.2793 25.2178 44.0456 25.0302 43.8026C24.4583 43.065 23.9881 42.2569 23.6317 41.3992C23.5345 41.1723 23.4498 40.9386 23.3702 40.7037C23.1108 39.9245 22.9453 39.1183 22.8769 38.3016C22.8573 38.0666 22.8453 37.8329 22.8422 37.6054V37.5843C22.8422 37.5367 22.8422 37.4817 22.8422 37.4168C22.8426 36.6661 22.9211 35.9174 23.0765 35.1823V35.1761C23.115 34.9906 23.1593 34.8051 23.2079 34.6246V34.6215C23.2193 34.5782 23.2306 34.5349 23.2433 34.4922V34.4854V34.4786C23.4807 33.6361 23.8199 32.8243 24.2539 32.0605L24.2703 32.0314L24.276 32.0203C24.2792 32.0147 24.2823 32.0092 24.2861 32.0036L24.7283 31.2289L26.3958 28.3309L26.8822 27.4888L27.0085 27.2718L28.5453 24.5958L28.8813 24.0109L29.0278 23.7549L30.6897 20.86L31.1723 20.0198L33.6584 15.6917L33.654 15.6898ZM33.6584 11.2746L29.2407 18.9594L28.7581 19.7996L27.0963 22.6945L26.9491 22.9511L26.6137 23.5348L25.0769 26.212L24.9506 26.4303L24.4693 27.2699L22.8068 30.1654L22.3577 30.9482C22.347 30.9673 22.3356 30.9865 22.3255 31.0057C21.8056 31.9206 21.3993 32.8931 21.1153 33.9024C21.0988 33.9593 21.0831 34.0168 21.0679 34.0737C21.0085 34.295 20.9555 34.518 20.9087 34.7427C20.7229 35.6214 20.6292 36.5164 20.6289 37.4137C20.6289 37.4879 20.6289 37.5621 20.6289 37.6357C20.6352 37.9184 20.6502 38.1991 20.6738 38.4778C20.7561 39.4624 20.9558 40.4341 21.2688 41.3733C21.3635 41.6577 21.4688 41.9376 21.5846 42.2129C22.0141 43.2462 22.5805 44.2197 23.2692 45.1084C23.4936 45.3969 23.7303 45.677 23.9791 45.9487C25.1621 47.2342 26.6 48.2706 28.2052 48.9947C29.8104 49.7188 31.5495 50.1155 33.3164 50.1606C35.0832 50.2057 36.841 49.8983 38.4827 49.2571C40.1243 48.6159 41.6154 47.6544 42.8652 46.4309C43.0257 46.2745 43.181 46.1131 43.3326 45.9487C43.5815 45.6791 43.8181 45.399 44.0426 45.1084C44.7313 44.2197 45.2977 43.2462 45.7272 42.2129C45.8413 41.938 45.9466 41.6581 46.043 41.3733C46.3547 40.434 46.5531 39.4622 46.6342 38.4778C46.6578 38.2 46.6719 37.9199 46.6765 37.6375C46.6765 37.5639 46.6765 37.4897 46.6765 37.4156C46.6776 36.5171 46.5849 35.6208 46.3999 34.7408C46.3405 34.4584 46.2714 34.1784 46.1927 33.9005C45.9088 32.8918 45.5025 31.9199 44.9825 31.0057C44.9724 30.9865 44.961 30.9673 44.9503 30.9482L44.5012 30.1654L42.8387 27.2699L42.3574 26.4303L40.6949 23.5348L40.2098 22.6945L38.5479 19.7996L38.0654 18.9594L33.654 11.2727L33.6584 11.2746Z" fill="white"/>
<path d="M118.759 33.6012C118.749 35.3399 118.576 36.8535 117.827 38.2384C116.776 40.1867 114.373 40.8792 112.401 39.8312C111.598 39.4046 111.074 38.7325 110.707 37.9417C109.923 36.2432 109.755 34.4396 109.976 32.6243C110.099 31.6152 110.335 30.5839 110.734 29.6509C111.392 28.1163 112.636 27.2655 114.398 27.2878C116.112 27.3094 117.262 28.1608 117.967 29.6453C118.594 30.9623 118.749 32.3671 118.759 33.6012ZM117.036 33.7416C117.036 33.3156 117.061 32.8314 117.012 32.4104C116.886 31.3475 116.683 30.3014 115.976 29.4296C115.092 28.337 113.715 28.2832 112.8 29.3479C112.471 29.7265 112.22 30.1639 112.06 30.6359C111.382 32.7634 111.41 34.9102 112.105 37.0266C112.527 38.3126 113.423 39.0552 114.391 38.994C115.632 38.9155 116.278 38.0721 116.561 37.039C116.839 36.0293 117.031 34.4971 117.036 33.7416Z" fill="white" fill-opacity="0.4"/>
<path d="M73.5742 40.0044V27.5568L74.9967 27.4486V32.0858C75.9144 31.2307 76.7204 30.673 77.8182 30.6638C79.5375 30.6471 80.8949 31.4818 81.4975 33.1314C82.1178 34.828 82.1159 36.55 81.2954 38.2014C80.2178 40.3698 77.7121 40.9788 75.6934 39.5901C75.5203 39.4708 75.3592 39.3341 75.1167 39.1474C75.0403 39.4906 74.9828 39.7478 74.9272 40.005L73.5742 40.0044ZM80.0927 37.2758C80.3904 36.339 80.4553 35.3461 80.2822 34.3797C80.2368 34.12 80.1875 33.8746 80.1231 33.6328C79.8496 32.6089 79.1478 31.9634 78.0677 31.8497C77.0924 31.7445 76.3136 32.186 75.7306 32.9385C74.6752 34.2956 74.7067 36.9049 75.7856 38.2354C76.8512 39.5493 79.0069 39.4448 79.8104 37.9572C79.925 37.7387 80.0195 37.5107 80.0927 37.2758Z" fill="white"/>
<path d="M55.8977 34.7483V40.036H54.4102V27.5167C56.3828 27.5785 58.3352 27.312 60.2661 27.7288C61.8345 28.0676 62.7807 29.1675 62.8558 30.6187C62.9664 32.7147 62.2469 33.9624 60.5649 34.5139C59.378 34.9029 58.1507 34.9863 56.9077 34.8453C56.6266 34.8126 56.3436 34.7903 55.8977 34.7483ZM55.9514 33.461C57.1344 33.461 58.2297 33.5346 59.3098 33.4418C60.652 33.3268 61.3633 32.3814 61.3115 30.9872C61.266 29.7803 60.5598 29.0426 59.2397 28.9653C58.1659 28.9035 57.0795 28.9524 55.9514 28.9524V33.461Z" fill="white"/>
<path d="M101.741 40.0434H100.301V27.5692L101.678 27.4456V31.9801C102.002 31.76 102.197 31.6419 102.373 31.5028C103.347 30.7411 104.475 30.5556 105.666 30.7034C106.613 30.8215 107.261 31.3915 107.586 32.2491C107.786 32.7759 107.954 33.3472 107.965 33.9018C108.009 35.9224 107.983 37.9436 107.983 40.0285H106.521C106.521 39.6662 106.528 39.2897 106.521 38.9156C106.484 37.1751 106.521 35.429 106.378 33.6972C106.24 32.0358 105.138 31.4806 103.532 32.1112C102.269 32.609 101.74 33.3726 101.74 34.7198C101.74 36.4572 101.741 38.1977 101.741 40.0434Z" fill="white"/>
<path d="M63.9862 30.9346H65.4762V33.5067C65.4762 34.6815 65.4585 35.8531 65.4832 37.026C65.5122 38.437 66.1186 39.0225 67.5474 39.0782C67.7288 39.0852 67.9106 39.0852 68.0925 39.0782C69.4675 39.0163 70.0752 38.4302 70.0922 37.0885C70.1125 35.5248 70.0979 33.9605 70.0979 32.3962C70.0979 31.9393 70.0979 31.4818 70.0979 30.9568H71.5974C71.5974 32.2614 71.5974 33.5327 71.5974 34.8045C71.5974 35.586 71.6107 36.3688 71.593 37.1503C71.5545 38.7251 70.7473 39.7484 69.1776 40.1472C68.1898 40.4103 67.145 40.386 66.171 40.0773C64.8345 39.6489 64.0316 38.6942 63.9982 37.321C63.9489 35.2286 63.9862 33.1345 63.9862 30.9346Z" fill="white"/>
<path d="M119.969 30.9345H121.633L124.146 34.3191C125.017 33.1567 125.858 32.0357 126.697 30.9185H128.323C127.285 32.5341 126.113 33.916 125.053 35.4642L128.364 40.0538H126.792L124.169 36.4825L121.533 40.0643H119.883C121.054 38.4648 122.142 36.9778 123.268 35.4376C122.189 33.9574 121.118 32.497 119.969 30.9345Z" fill="white" fill-opacity="0.4"/>
<path d="M98.0623 31.2956C97.9991 31.5683 97.9359 31.8614 97.8589 32.2187C97.1489 32.0765 96.523 31.891 95.8863 31.8441C95.3856 31.8067 94.8824 31.8698 94.4076 32.0295C93.9105 32.2039 93.6338 32.6274 93.6143 33.1963C93.594 33.7942 93.9061 34.1429 94.4278 34.3172C95.1814 34.5695 95.9633 34.7408 96.7125 35.0029C98.349 35.5742 99.03 37.0161 98.4375 38.5891C98.0913 39.5072 97.3668 40.0637 96.4345 40.2183C95.0159 40.4532 93.6206 40.3005 92.2505 39.4763C92.3548 39.1208 92.4571 38.7708 92.5133 38.5767C93.6098 39.0163 94.6944 39.1907 95.6715 39.0849C96.5748 38.9879 97.0384 38.6095 97.1704 37.878C97.3119 37.0934 96.9392 36.5536 95.9873 36.2327C95.2685 35.991 94.5143 35.8383 93.8139 35.5526C92.5506 35.0437 92.0219 34.1874 92.1312 32.9929C92.2284 31.9343 93.1045 31.0267 94.3002 30.7453C95.345 30.498 96.9038 30.7157 98.0623 31.2956Z" fill="white"/>
<path d="M83.8682 27.5489L85.2818 27.4506V28.5932C85.2818 31.4015 85.2835 34.21 85.2868 37.0187C85.2868 37.266 85.2906 37.5164 85.3045 37.7644C85.3677 38.9231 85.4675 39.0146 86.6505 39.0572C86.7811 39.0708 86.9108 39.0914 87.039 39.1191C87.063 39.4517 87.0876 39.7862 87.1205 40.2444C86.4958 40.2444 85.9538 40.3006 85.429 40.232C84.5383 40.1151 84.0343 39.5908 83.8846 38.6813C83.8157 38.2627 83.8145 37.8312 83.8132 37.4051C83.8056 34.3833 83.8031 31.3617 83.8056 28.3403C83.8056 28.101 83.8423 27.8617 83.8682 27.5489Z" fill="white"/>
<path d="M88.668 40.0452V30.9525H90.0765V40.0452H88.668Z" fill="white"/>
<path d="M88.6836 29.1186V27.558H90.0656V29.1186H88.6836Z" fill="white"/>
</g>
<defs>
<clipPath id="clip0_9465_227666">
<rect width="107.738" height="38.8909" fill="white" transform="translate(20.6289 11.2727)"/>
</clipPath>
</defs>
</svg>
