<svg width="17" height="19" viewBox="0 0 17 19" fill="none" xmlns="http://www.w3.org/2000/svg">

    <symbol id="saas-tasks">
        <path d="M4.00571 1.48176L3.84342 1.64405L4.00571 1.48176C3.83354 1.3096 3.60004 1.21287 3.35656 1.21287H1.97951C1.73603 1.21287 1.50253 1.3096 1.33036 1.48176C1.1582 1.65392 1.06148 1.88743 1.06148 2.13091V3.50796C1.06148 3.75143 1.1582 3.98494 1.33036 4.1571C1.50253 4.32927 1.73603 4.42599 1.97951 4.42599H3.35656C3.60004 4.42599 3.83354 4.32927 4.00571 4.1571C4.17787 3.98494 4.27459 3.75143 4.27459 3.50796V2.13091C4.27459 1.88743 4.17787 1.65392 4.00571 1.48176ZM2.20902 3.27845V2.36042H3.12705V3.27845H2.20902Z" fill="inherit" stroke="inherit" stroke-width="0.459016" />
        <path d="M6.15003 2.17024C5.97787 2.3424 5.88115 2.57591 5.88115 2.81938C5.88115 3.06286 5.97787 3.29637 6.15003 3.46853C6.3222 3.6407 6.5557 3.73742 6.79918 3.73742H19.1926C19.4361 3.73742 19.6696 3.6407 19.8418 3.46853C20.0139 3.29637 20.1107 3.06286 20.1107 2.81938C20.1107 2.57591 20.0139 2.3424 19.8418 2.17024C19.6696 1.99807 19.4361 1.90135 19.1926 1.90135H6.79918C6.5557 1.90135 6.3222 1.99807 6.15003 2.17024ZM6.79918 7.40955C6.5557 7.40955 6.3222 7.50627 6.15003 7.67843C5.97787 7.8506 5.88115 8.0841 5.88115 8.32758C5.88115 8.57106 5.97787 8.80456 6.15003 8.97673C6.3222 9.14889 6.5557 9.24561 6.79918 9.24561H19.1926C19.4361 9.24561 19.6696 9.14889 19.8418 8.97673C20.0139 8.80456 20.1107 8.57106 20.1107 8.32758C20.1107 8.0841 20.0139 7.8506 19.8418 7.67843C19.6696 7.50627 19.4361 7.40955 19.1926 7.40955H6.79918ZM6.79918 12.9177C6.5557 12.9177 6.3222 13.0145 6.15003 13.1866C5.97787 13.3588 5.88115 13.5923 5.88115 13.8358C5.88115 14.0793 5.97787 14.3128 6.15003 14.4849C6.3222 14.6571 6.5557 14.7538 6.79918 14.7538H19.1926C19.4361 14.7538 19.6696 14.6571 19.8418 14.4849C20.0139 14.3128 20.1107 14.0793 20.1107 13.8358C20.1107 13.5923 20.0139 13.3588 19.8418 13.1866C19.6696 13.0145 19.4361 12.9177 19.1926 12.9177H6.79918Z" fill="inherit" stroke="inherit" stroke-width="0.459016" />
        <path d="M4.00571 6.98957L3.8466 7.14868L4.00571 6.98957C3.83354 6.81741 3.60004 6.72069 3.35656 6.72069H1.97951C1.73603 6.72069 1.50253 6.81741 1.33036 6.98957C1.1582 7.16174 1.06148 7.39524 1.06148 7.63872V9.01577C1.06148 9.25925 1.1582 9.49275 1.33036 9.66492C1.50253 9.83708 1.73603 9.9338 1.97951 9.9338H3.35656C3.60004 9.9338 3.83354 9.83708 4.00571 9.66492C4.17787 9.49275 4.27459 9.25925 4.27459 9.01577V7.63872C4.27459 7.39524 4.17787 7.16174 4.00571 6.98957ZM4.00571 15.1731L3.86371 15.0311L4.00571 15.1731C4.17787 15.0009 4.27459 14.7674 4.27459 14.524V13.1469C4.27459 12.9034 4.17787 12.6699 4.00571 12.4978C3.83354 12.3256 3.60004 12.2289 3.35656 12.2289H1.97951C1.73603 12.2289 1.50253 12.3256 1.33036 12.4978C1.1582 12.6699 1.06148 12.9034 1.06148 13.1469V14.524C1.06148 14.7674 1.1582 15.0009 1.33036 15.1731L1.49265 15.0108L1.33036 15.1731C1.50253 15.3453 1.73603 15.442 1.97951 15.442H3.35656C3.60004 15.442 3.83354 15.3453 4.00571 15.1731ZM2.20902 7.86823H3.12705V8.78626H2.20902V7.86823ZM2.20902 14.2945V13.3764H3.12705V14.2945H2.20902Z" fill="inherit" stroke="inherit" stroke-width="0.459016" />
    </symbol>

    <symbol id="saas-username" viewBox="0 0 32 31" fill="none" xmlns="http://www.w3.org/2000/svg">
        <path d="M15.9166 30.7599C24.3403 30.7599 31.1691 23.9311 31.1691 15.5074C31.1691 7.08368 24.3403 0.254883 15.9166 0.254883C7.49286 0.254883 0.664062 7.08368 0.664062 15.5074C0.664062 23.9311 7.49286 30.7599 15.9166 30.7599Z" fill="#364FCC"/>
        <path d="M16.125 15.5C18.7484 15.5 20.875 13.3734 20.875 10.75C20.875 8.12665 18.7484 6 16.125 6C13.5016 6 11.375 8.12665 11.375 10.75C11.375 13.3734 13.5016 15.5 16.125 15.5Z" fill="white"/>
        <path d="M16.125 17.0835C12.1918 17.0879 9.00438 20.2753 9 24.2085C9 24.6457 9.35443 25.0002 9.79166 25.0002H22.4583C22.8955 25.0002 23.25 24.6457 23.25 24.2085C23.2456 20.2753 20.0582 17.0878 16.125 17.0835Z" fill="white"/>
    </symbol>

    <symbol id="saas-email" viewBox="0 0 32 32" fill="none" xmlns="http://www.w3.org/2000/svg">
        <path d="M15.9166 31.2785C24.3403 31.2785 31.1691 24.4497 31.1691 16.026C31.1691 7.60223 24.3403 0.773438 15.9166 0.773438C7.49286 0.773438 0.664062 7.60223 0.664062 16.026C0.664062 24.4497 7.49286 31.2785 15.9166 31.2785Z" fill="#364FCC"/>
        <path d="M23.6981 11.9934L18.1498 17.5417C17.5312 18.1587 16.6931 18.5053 15.8193 18.5053C14.9455 18.5053 14.1074 18.1587 13.4887 17.5417L7.94047 11.9934C7.93125 12.0975 7.91016 12.1918 7.91016 12.2953V20.2044C7.9112 21.0781 8.25874 21.9157 8.87653 22.5335C9.49432 23.1513 10.3319 23.4988 11.2056 23.4998H20.4329C21.3066 23.4988 22.1442 23.1513 22.762 22.5335C23.3798 21.9157 23.7273 21.0781 23.7284 20.2044V12.2953C23.7284 12.1918 23.7073 12.0975 23.6981 11.9934Z" fill="white"/>
        <path d="M17.2177 16.6099L23.2379 10.5891C22.9463 10.1055 22.5349 9.70525 22.0436 9.42691C21.5523 9.14857 20.9975 9.00154 20.4328 9H11.2055C10.6408 9.00154 10.086 9.14857 9.59468 9.42691C9.10335 9.70525 8.69202 10.1055 8.40039 10.5891L14.4205 16.6099C14.792 16.9798 15.2949 17.1876 15.8191 17.1876C16.3434 17.1876 16.8463 16.9798 17.2177 16.6099Z" fill="white"/>
    </symbol>

    <symbol id="saas-password" viewBox="0 0 32 31" fill="none" xmlns="http://www.w3.org/2000/svg">
        <path d="M15.9166 30.7975C24.3403 30.7975 31.1691 23.9687 31.1691 15.545C31.1691 7.12126 24.3403 0.29248 15.9166 0.29248C7.49286 0.29248 0.664062 7.12126 0.664062 15.545C0.664062 23.9687 7.49286 30.7975 15.9166 30.7975Z" fill="#364FCC"/>
        <path d="M21.325 13.1074V12.075C21.325 9.27217 19.0529 7 16.25 7C13.4471 7 11.175 9.27217 11.175 12.075V13.1074C9.85552 13.6833 9.0019 14.9854 9 16.425V20.775C9.00238 22.7761 10.6239 24.3977 12.625 24.4H19.875C21.876 24.3977 23.4976 22.7761 23.5 20.775V16.425C23.4981 14.9854 22.6445 13.6833 21.325 13.1074ZM16.975 19.325C16.975 19.7254 16.6504 20.05 16.25 20.05C15.8496 20.05 15.525 19.7254 15.525 19.325V17.875C15.525 17.4746 15.8496 17.15 16.25 17.15C16.6504 17.15 16.975 17.4746 16.975 17.875V19.325ZM19.875 12.8H12.625V12.075C12.625 10.073 14.2479 8.45001 16.25 8.45001C18.2521 8.45001 19.875 10.073 19.875 12.075V12.8Z" fill="white"/>
    </symbol>

    <symbol id="saas-phone" viewBox="0 0 32 31" fill="none" xmlns="http://www.w3.org/2000/svg">
        <path d="M15.9166 30.8354C24.3403 30.8354 31.1691 24.0066 31.1691 15.5828C31.1691 7.1591 24.3403 0.330322 15.9166 0.330322C7.49286 0.330322 0.664062 7.1591 0.664062 15.5828C0.664062 24.0066 7.49286 30.8354 15.9166 30.8354Z" fill="#364FCC"/>
        <path d="M23.3324 15.3329C23.1553 15.3329 22.9855 15.2627 22.8603 15.1377C22.7351 15.0127 22.6647 14.8432 22.6647 14.6664C22.6633 13.2526 22.1001 11.8972 21.0988 10.8975C20.0975 9.89786 18.7397 9.33563 17.3236 9.33422C17.1466 9.33422 16.9768 9.26399 16.8515 9.139C16.7263 9.014 16.656 8.84447 16.656 8.66769C16.656 8.49092 16.7263 8.32139 16.8515 8.19639C16.9768 8.0714 17.1466 8.00117 17.3236 8.00117C19.0937 8.00311 20.7908 8.70596 22.0424 9.95551C23.294 11.2051 23.9981 12.8993 24 14.6664C24 14.8432 23.9297 15.0127 23.8045 15.1377C23.6792 15.2627 23.5094 15.3329 23.3324 15.3329ZM21.3295 14.6664C21.3295 13.6058 20.9074 12.5886 20.1562 11.8386C19.4049 11.0886 18.386 10.6673 17.3236 10.6673C17.1466 10.6673 16.9768 10.7375 16.8515 10.8625C16.7263 10.9875 16.656 11.157 16.656 11.3338C16.656 11.5106 16.7263 11.6801 16.8515 11.8051C16.9768 11.9301 17.1466 12.0003 17.3236 12.0003C18.0319 12.0003 18.7112 12.2812 19.212 12.7812C19.7128 13.2812 19.9942 13.9593 19.9942 14.6664C19.9942 14.8432 20.0645 15.0127 20.1897 15.1377C20.3149 15.2627 20.4847 15.3329 20.6618 15.3329C20.8389 15.3329 21.0087 15.2627 21.1339 15.1377C21.2591 15.0127 21.3295 14.8432 21.3295 14.6664ZM22.7869 22.774L23.3945 22.0748C23.7812 21.6875 23.9983 21.1629 23.9983 20.6161C23.9983 20.0692 23.7812 19.5447 23.3945 19.1574C23.3738 19.1367 21.7674 17.903 21.7674 17.903C21.3819 17.5366 20.8698 17.3326 20.3375 17.3334C19.8053 17.3341 19.2938 17.5396 18.9093 17.907L17.6368 18.9774C16.598 18.5483 15.6545 17.9185 14.8602 17.1242C14.066 16.3299 13.4368 15.3869 13.0087 14.3491L14.0769 13.0827C14.4453 12.6989 14.6513 12.1882 14.6522 11.6566C14.653 11.1251 14.4487 10.6137 14.0816 10.2287C14.0816 10.2287 12.8445 8.62704 12.8238 8.60637C12.4428 8.22362 11.9264 8.00585 11.386 8.00012C10.8455 7.99438 10.3246 8.20114 9.93557 8.57571L9.16779 9.24224C4.63187 14.4958 14.3994 24.1716 19.8353 23.9977C20.3842 24.0009 20.9282 23.8942 21.4351 23.684C21.9421 23.4739 22.4017 23.1644 22.7869 22.774Z" fill="white"/>
    </symbol>

    <symbol id="saas-check" viewBox="0 0 100 100" fill="none" xmlns="http://www.w3.org/2000/svg">
        <path d="M50 99.0259C77.6143 99.0259 100 76.8582 100 49.513C100 22.1677 77.6143 0 50 0C22.3858 0 0 22.1677 0 49.513C0 76.8582 22.3858 99.0259 50 99.0259Z" fill="#69DEA2"/>
        <path d="M44.5841 73.5371C43.1738 73.5394 41.8009 73.0841 40.6726 72.2398L40.6026 72.1874L25.87 60.9408C25.1867 60.4191 24.6131 59.7682 24.182 59.0251C23.7509 58.2821 23.4707 57.4616 23.3576 56.6104C23.2445 55.7593 23.3006 54.8943 23.5227 54.0648C23.7448 53.2353 24.1285 52.4577 24.652 51.7763C25.1754 51.0949 25.8284 50.5232 26.5734 50.0937C27.3184 49.6643 28.1409 49.3857 28.994 49.2737C29.847 49.1617 30.7137 49.2186 31.5447 49.4411C32.3757 49.6637 33.1545 50.0474 33.8368 50.5705L43.3793 57.8731L65.929 28.5154C66.985 27.1408 68.5449 26.2412 70.2657 26.0144C71.9864 25.7876 73.7269 26.2522 75.1044 27.306L75.1063 27.3074L74.9664 27.5013L75.1102 27.3074C76.4862 28.3627 77.3865 29.9197 77.6134 31.6367C77.8404 33.3537 77.3754 35.0904 76.3207 36.4657L49.7974 70.9814C49.1838 71.7766 48.3948 72.4202 47.4917 72.862C46.5886 73.3039 45.5957 73.5322 44.5899 73.5293L44.5841 73.5371Z" fill="white"/>
    </symbol>

    <symbol id="saas-cross" viewBox="0 0 100 101" fill="none" xmlns="http://www.w3.org/2000/svg">
        <path d="M50.0805 100.064C77.6503 100.064 99.9639 77.6637 99.9195 50.0319C99.875 22.4 77.4893 0 49.9195 0C22.3497 0 0.0360473 22.4 0.080514 50.0319C0.124981 77.6637 22.5107 100.064 50.0805 100.064Z" fill="#D75B56"/>
        <path d="M63.1134 29.7541L49.9701 42.7694L36.8268 29.7541C34.6992 27.6472 31.2496 27.6472 29.1221 29.7541C26.9945 31.861 26.9945 35.2769 29.1221 37.3838L42.2654 50.3991L29.1221 63.4144C26.9964 65.5232 26.9997 68.9391 29.1293 71.0441C31.256 73.1461 34.7 73.1461 36.8268 71.044L49.9701 58.0287L63.1134 71.044C65.243 73.1489 68.6925 73.1457 70.8181 71.0369C72.9409 68.9308 72.9409 65.5204 70.8181 63.4144L57.6749 50.3991L70.8181 37.3838C72.9457 35.2769 72.9457 31.861 70.8181 29.7541C68.6906 27.6472 65.241 27.6472 63.1134 29.7541Z" fill="white"/>
    </symbol>

    <symbol id="saas-header-search" viewBox="0 0 20 20" fill="none" xmlns="http://www.w3.org/2000/svg">
        <path d="M10.1702 19.4472C15.3093 19.4472 19.4753 15.2812 19.4753 10.1421C19.4753 5.00311 15.3093 0.837097 10.1702 0.837097C5.03121 0.837097 0.865234 5.00311 0.865234 10.1421C0.865234 15.2812 5.03121 19.4472 10.1702 19.4472Z" stroke="#545E66" stroke-width="0.75" stroke-linecap="round" stroke-linejoin="round"/>
        <path d="M17.041 16.4278L24.1276 23.5144" stroke="#545E66" stroke-width="0.75" stroke-linecap="round" stroke-linejoin="round"/>
    </symbol>
    
    <symbol id="saas-header-menu" viewBox="0 0 78 71" fill="none" xmlns="http://www.w3.org/2000/svg">
        <path d="M53.033 53.033C62.7962 43.2699 62.7961 27.4408 53.033 17.6777C43.2699 7.91458 27.4408 7.91456 17.6777 17.6777C7.91455 27.4408 7.91457 43.2699 17.6777 53.033C27.4408 62.7961 43.2699 62.7962 53.033 53.033Z" fill="#364FCC"/>
        <mask id="mask0_105_167" style="mask-type:alpha" maskUnits="userSpaceOnUse" x="11" y="11" width="49" height="49">
        <path d="M52.3982 52.2928C61.8409 42.8501 61.8409 27.5404 52.3982 18.0976C42.9554 8.65491 27.6458 8.65489 18.203 18.0976C8.7603 27.5404 8.76032 42.85 18.203 52.2928C27.6458 61.7355 42.9555 61.7355 52.3982 52.2928Z" fill="#545E66"/>
        </mask>
        <g mask="url(#mask0_105_167)">
            <path d="M50.4438 59.3856L49.4973 52.136C49.3252 50.8883 48.5077 49.7912 47.3246 49.2534L39.0424 45.4672H32.8254L24.5432 49.2534C23.3601 49.7912 22.5426 50.8668 22.3705 52.136L21.3164 59.3856" fill="#F0F3F4"/>
            <path d="M50.4438 59.3856L49.4973 52.136C49.3252 50.8883 48.5077 49.7912 47.3246 49.2534L39.0424 45.4672H32.8254L24.5432 49.2534C23.3601 49.7912 22.5426 50.8668 22.3705 52.136L21.3164 59.3856" stroke="#364FCC" stroke-width="0.5" stroke-miterlimit="10"/>
            <path d="M38.8485 45.2737C38.9776 45.5964 39.0421 45.9621 39.0421 46.3278C39.0421 48.0272 37.6653 49.404 35.9659 49.404C34.2664 49.404 32.8896 48.0272 32.8896 46.3278C32.8896 46.0266 32.9327 45.7254 33.0187 45.4673L38.87 45.2737H38.8485Z" fill="#F0F3F4" stroke="#364FCC" stroke-width="0.5" stroke-miterlimit="10"/>
            <path d="M26.6719 32.1511L27.7045 39.917C27.9196 41.595 28.8877 43.0578 30.2644 43.8753L33.3406 45.6823C34.8465 46.5643 36.675 46.5643 38.1809 45.6823L41.2571 43.8753C42.6339 43.0578 43.6019 41.595 43.817 39.917L45.2584 29.9784L39.9664 28.7307L26.6934 32.1727L26.6719 32.1511Z" fill="#F0F3F4" stroke="#364FCC" stroke-width="0.5" stroke-miterlimit="10"/>
            <path d="M44.7642 33.3129C41.2792 32.517 39.8164 29.5483 39.8164 29.5483C33.2552 33.8077 24.4998 32.517 24.4998 32.517C26.0702 31.7641 26.2207 29.9785 26.2207 29.9785C22.8218 31.0542 20.8212 29.075 20.8212 29.075C24.8439 28.8384 25.0591 26.9884 25.0591 26.9884C25.0591 26.9884 22.241 27.8704 20.1543 25.9343C20.1543 25.9343 22.5207 26.2785 23.9405 24.579C23.9405 24.579 21.9398 23.8691 21.6386 22.5138C21.6386 22.5138 24.6719 24.493 28.7807 20.965C33.3197 17.0928 44.7427 17.1358 45.7322 26.5796L44.7857 33.3344L44.7642 33.3129Z" fill="#F0F3F4" stroke="#364FCC" stroke-width="0.5" stroke-linecap="round" stroke-linejoin="round"/>
            <path d="M44.0332 38.2391C46.2705 38.2176 46.7438 34.496 45.6681 34.3885C44.9367 34.3024 44.4635 35.249 44.4635 35.249L44.0332 38.2606V38.2391Z" fill="#F0F3F4" stroke="#364FCC" stroke-width="0.5" stroke-miterlimit="10"/>
            <path d="M27.469 38.2176C25.2318 38.1961 24.7585 34.496 25.8126 34.3885C26.544 34.3024 27.0603 35.249 27.0603 35.249L27.469 38.2391V38.2176Z" fill="#F0F3F4" stroke="#364FCC" stroke-width="0.5" stroke-miterlimit="10"/>
        </g>
        <path d="M68.6631 34.3453H77.9993L73.3312 41.4443L68.6631 34.3453Z" fill="#364FCC"/>
    </symbol>


    <symbol id="saas-sidebar-menu" viewBox="0 0 40 23" fill="none" xmlns="http://www.w3.org/2000/svg">
        <path d="M38.3333 9.73267H1.66667C0.746192 9.73267 0 10.4789 0 11.3993C0 12.3198 0.746192 13.066 1.66667 13.066H38.3333C39.2538 13.066 40 12.3198 40 11.3993C40 10.4789 39.2538 9.73267 38.3333 9.73267Z" fill="white"/>
        <path d="M38.3333 0H1.66667C0.746192 0 0 0.746192 0 1.66667C0 2.58714 0.746192 3.33333 1.66667 3.33333H38.3333C39.2538 3.33333 40 2.58714 40 1.66667C40 0.746192 39.2538 0 38.3333 0Z" fill="white"/>
        <path d="M38.3333 19H1.66667C0.746192 19 0 19.7462 0 20.6667C0 21.5871 0.746192 22.3333 1.66667 22.3333H38.3333C39.2538 22.3333 40 21.5871 40 20.6667C40 19.7462 39.2538 19 38.3333 19Z" fill="white"/>
    </symbol>

    <symbol id="saas-sidebar-home" viewBox="0 0 32 32" fill="inherit" xmlns="http://www.w3.org/2000/svg">
        <path d="M30.828 12.0707L20.7147 1.95C19.463 0.70124 17.7675 0 16 0C14.2325 0 12.537 0.70124 11.2853 1.95L1.17201 12.0707C0.799249 12.4413 0.503709 12.8823 0.302526 13.368C0.101343 13.8538 -0.00148053 14.3746 1.6106e-05 14.9004V27.9976C1.6106e-05 29.0591 0.421443 30.0771 1.17159 30.8277C1.92173 31.5783 2.93915 32 4.00001 32H28C29.0609 32 30.0783 31.5783 30.8284 30.8277C31.5786 30.0771 32 29.0591 32 27.9976V14.9004C32.0015 14.3746 31.8987 13.8538 31.6975 13.368C31.4963 12.8823 31.2007 12.4413 30.828 12.0707V12.0707ZM20 29.3317H12V24.0833C12 23.0218 12.4214 22.0037 13.1716 21.2531C13.9217 20.5025 14.9391 20.0809 16 20.0809C17.0609 20.0809 18.0783 20.5025 18.8284 21.2531C19.5786 22.0037 20 23.0218 20 24.0833V29.3317ZM29.3333 27.9976C29.3333 28.3514 29.1928 28.6908 28.9428 28.941C28.6927 29.1912 28.3536 29.3317 28 29.3317H22.6667V24.0833C22.6667 22.3141 21.9643 20.6174 20.714 19.3664C19.4638 18.1154 17.7681 17.4126 16 17.4126C14.2319 17.4126 12.5362 18.1154 11.286 19.3664C10.0357 20.6174 9.33334 22.3141 9.33334 24.0833V29.3317H4.00001C3.64639 29.3317 3.30725 29.1912 3.0572 28.941C2.80716 28.6908 2.66668 28.3514 2.66668 27.9976V14.9004C2.66792 14.5469 2.80827 14.208 3.05735 13.9572L13.1707 3.84047C13.9223 3.09193 14.9396 2.67169 16 2.67169C17.0604 2.67169 18.0777 3.09193 18.8293 3.84047L28.9427 13.9612C29.1908 14.211 29.331 14.5482 29.3333 14.9004V27.9976Z" fill="inherit"/>
    </symbol>

    <symbol id="saas-sidebar-upload" viewBox="0 0 39 32" fill="inherit" xmlns="http://www.w3.org/2000/svg">
        <path d="M28.5741 8.22786C28.0478 8.12224 27.617 7.79099 27.3945 7.3173C24.9304 2.08279 19.2184 -0.844117 13.5096 0.215268C8.308 1.17543 4.23031 5.35536 3.36072 10.6187C3.10318 12.1725 3.12226 13.728 3.41318 15.2435C3.50856 15.738 3.29713 16.2885 2.86313 16.6853C1.04287 18.3512 0 20.7244 0 23.1985C0 28.0505 3.9219 32 8.74359 32H26.2308C32.8059 32 38.1538 26.6167 38.1538 19.9979C38.1538 14.2929 34.1254 9.34326 28.5741 8.22946V8.22786ZM26.2308 28.7978H8.74359C5.67538 28.7978 3.17949 26.2854 3.17949 23.1969C3.17949 21.6238 3.844 20.1115 5.00133 19.0521C6.25087 17.9079 6.83749 16.2149 6.53226 14.6306C6.31287 13.4912 6.30015 12.3182 6.4941 11.1404C7.13477 7.26449 10.2538 4.06554 14.0788 3.35982C14.6908 3.2478 15.2997 3.19339 15.9006 3.19339C19.5761 3.19339 22.9034 5.25614 24.5202 8.68874C25.1768 10.0842 26.4279 11.0604 27.9509 11.366C32.0206 12.1838 34.9728 15.8132 34.9728 19.9979C34.9728 24.85 31.0493 28.7994 26.2292 28.7994L26.2308 28.7978ZM24.0385 16.4645C24.6601 17.0902 24.6601 18.1016 24.0385 18.7273C23.7285 19.0393 23.3215 19.1962 22.9146 19.1962C22.5076 19.1962 22.1006 19.0393 21.7906 18.7273L19.0769 15.9956V23.997C19.0769 24.882 18.3647 25.5973 17.4872 25.5973C16.6096 25.5973 15.8974 24.882 15.8974 23.997V15.9956L13.1837 18.7273C12.5622 19.353 11.5574 19.353 10.9358 18.7273C10.3143 18.1016 10.3143 17.0902 10.9358 16.4645L15.2393 12.1325C15.8529 11.5148 16.6589 11.2044 17.4649 11.1996L17.4872 11.1948L17.5094 11.1996C18.317 11.2044 19.1214 11.5148 19.7351 12.1325L24.0385 16.4645V16.4645Z" fill="inherit"/>
    </symbol>

    <symbol id="saas-sidebar-relay" viewBox="0 0 38 38" fill="inherit" xmlns="http://www.w3.org/2000/svg">
        <path d="M12.6667 0H6.33333C4.65363 0 3.04272 0.66726 1.85499 1.85499C0.66726 3.04272 0 4.65363 0 6.33333L0 7.91667C0 9.59637 0.66726 11.2073 1.85499 12.395C3.04272 13.5827 4.65363 14.25 6.33333 14.25H7.91667V17.4167H4.75C4.33007 17.4167 3.92735 17.5835 3.63041 17.8804C3.33348 18.1773 3.16667 18.5801 3.16667 19C3.16667 19.4199 3.33348 19.8227 3.63041 20.1196C3.92735 20.4165 4.33007 20.5833 4.75 20.5833H14.25C14.6699 20.5833 15.0727 20.4165 15.3696 20.1196C15.6665 19.8227 15.8333 19.4199 15.8333 19C15.8333 18.5801 15.6665 18.1773 15.3696 17.8804C15.0727 17.5835 14.6699 17.4167 14.25 17.4167H11.0833V14.25H12.6667C14.3464 14.25 15.9573 13.5827 17.145 12.395C18.3327 11.2073 19 9.59637 19 7.91667V6.33333C19 4.65363 18.3327 3.04272 17.145 1.85499C15.9573 0.66726 14.3464 0 12.6667 0V0ZM15.8333 7.91667C15.8333 8.75652 15.4997 9.56197 14.9058 10.1558C14.312 10.7497 13.5065 11.0833 12.6667 11.0833H6.33333C5.49348 11.0833 4.68803 10.7497 4.09416 10.1558C3.5003 9.56197 3.16667 8.75652 3.16667 7.91667V6.33333C3.16667 5.49348 3.5003 4.68803 4.09416 4.09416C4.68803 3.5003 5.49348 3.16667 6.33333 3.16667H12.6667C13.5065 3.16667 14.312 3.5003 14.9058 4.09416C15.4997 4.68803 15.8333 5.49348 15.8333 6.33333V7.91667ZM31.6667 17.4167H28.5C26.8203 17.4167 25.2094 18.0839 24.0217 19.2717C22.8339 20.4594 22.1667 22.0703 22.1667 23.75V31.6667C22.1667 33.3464 22.8339 34.9573 24.0217 36.145C25.2094 37.3327 26.8203 38 28.5 38H31.6667C33.3464 38 34.9573 37.3327 36.145 36.145C37.3327 34.9573 38 33.3464 38 31.6667V23.75C38 22.0703 37.3327 20.4594 36.145 19.2717C34.9573 18.0839 33.3464 17.4167 31.6667 17.4167V17.4167ZM34.8333 31.6667C34.8333 32.5065 34.4997 33.312 33.9058 33.9058C33.312 34.4997 32.5065 34.8333 31.6667 34.8333H28.5C27.6601 34.8333 26.8547 34.4997 26.2608 33.9058C25.667 33.312 25.3333 32.5065 25.3333 31.6667V23.75C25.3333 22.9101 25.667 22.1047 26.2608 21.5108C26.8547 20.917 27.6601 20.5833 28.5 20.5833H31.6667C32.5065 20.5833 33.312 20.917 33.9058 21.5108C34.4997 22.1047 34.8333 22.9101 34.8333 23.75V31.6667ZM22.1667 6.33333C22.1667 5.91341 22.3335 5.51068 22.6304 5.21375C22.9273 4.91682 23.3301 4.75 23.75 4.75H26.9167C28.1764 4.75 29.3846 5.25045 30.2754 6.14124C31.1662 7.03204 31.6667 8.24022 31.6667 9.5V12.6667C31.6667 13.0866 31.4999 13.4893 31.2029 13.7863C30.906 14.0832 30.5033 14.25 30.0833 14.25C29.6634 14.25 29.2607 14.0832 28.9637 13.7863C28.6668 13.4893 28.5 13.0866 28.5 12.6667V9.5C28.5 9.08007 28.3332 8.67735 28.0363 8.38041C27.7393 8.08348 27.3366 7.91667 26.9167 7.91667H23.75C23.3301 7.91667 22.9273 7.74985 22.6304 7.45292C22.3335 7.15599 22.1667 6.75326 22.1667 6.33333ZM19 31.6667C19 32.0866 18.8332 32.4893 18.5363 32.7863C18.2393 33.0832 17.8366 33.25 17.4167 33.25H12.6667C11.4069 33.25 10.1987 32.7496 9.30791 31.8588C8.41711 30.968 7.91667 29.7598 7.91667 28.5V25.3333C7.91667 24.9134 8.08348 24.5107 8.38041 24.2137C8.67735 23.9168 9.08007 23.75 9.5 23.75C9.91993 23.75 10.3227 23.9168 10.6196 24.2137C10.9165 24.5107 11.0833 24.9134 11.0833 25.3333V28.5C11.0833 28.9199 11.2501 29.3227 11.5471 29.6196C11.844 29.9165 12.2467 30.0833 12.6667 30.0833H17.4167C17.8366 30.0833 18.2393 30.2501 18.5363 30.5471C18.8332 30.844 19 31.2467 19 31.6667ZM31.6667 31.6667C31.6667 31.9798 31.5738 32.2859 31.3998 32.5463C31.2259 32.8067 30.9786 33.0096 30.6892 33.1295C30.3999 33.2493 30.0816 33.2807 29.7744 33.2196C29.4673 33.1585 29.1852 33.0077 28.9637 32.7863C28.7423 32.5648 28.5915 32.2827 28.5304 31.9756C28.4693 31.6684 28.5007 31.3501 28.6205 31.0608C28.7404 30.7714 28.9433 30.5242 29.2037 30.3502C29.4641 30.1762 29.7702 30.0833 30.0833 30.0833C30.5033 30.0833 30.906 30.2501 31.2029 30.5471C31.4999 30.844 31.6667 31.2467 31.6667 31.6667Z" fill="inherit"/>
    </symbol>

    <symbol id="saas-sidebar-cameras" viewBox="0 0 32 32" fill="inherit" xmlns="http://www.w3.org/2000/svg">
        <path d="M30.6667 26.6656H19.7547C19.5555 26.108 19.2349 25.6015 18.8162 25.1828C18.3975 24.7641 17.891 24.4436 17.3333 24.2444V18.6659H25.3333C26.1422 18.6689 26.9329 18.4256 27.6002 17.9685C28.2675 17.5113 28.7799 16.8619 29.0693 16.1066C29.3588 15.3513 29.4115 14.5258 29.2204 13.7398C29.0294 12.9538 28.6038 12.2445 28 11.7062V5.33312C28 3.91869 27.4381 2.56219 26.4379 1.56204C25.4377 0.561881 24.0812 0 22.6667 0L9.33333 0C7.91885 0 6.56229 0.561881 5.5621 1.56204C4.5619 2.56219 4 3.91869 4 5.33312V11.7062C3.39623 12.2445 2.97056 12.9538 2.77955 13.7398C2.58854 14.5258 2.64125 15.3513 2.93066 16.1066C3.22007 16.8619 3.73248 17.5113 4.3998 17.9685C5.06713 18.4256 5.85777 18.6689 6.66667 18.6659H14.6667V24.2444C14.109 24.4436 13.6025 24.7641 13.1838 25.1828C12.7651 25.6015 12.4445 26.108 12.2453 26.6656H1.33333C0.979711 26.6656 0.640573 26.8061 0.390524 27.0561C0.140476 27.3062 0 27.6453 0 27.9989C0 28.3525 0.140476 28.6916 0.390524 28.9417C0.640573 29.1917 0.979711 29.3322 1.33333 29.3322H12.2453C12.5169 30.1115 13.0242 30.7871 13.697 31.2651C14.3698 31.7432 15.1747 32 16 32C16.8253 32 17.6302 31.7432 18.303 31.2651C18.9758 30.7871 19.4831 30.1115 19.7547 29.3322H30.6667C31.0203 29.3322 31.3594 29.1917 31.6095 28.9417C31.8595 28.6916 32 28.3525 32 27.9989C32 27.6453 31.8595 27.3062 31.6095 27.0561C31.3594 26.8061 31.0203 26.6656 30.6667 26.6656ZM6.66667 5.33312C6.66667 4.62591 6.94762 3.94766 7.44772 3.44758C7.94781 2.9475 8.62609 2.66656 9.33333 2.66656H22.6667C23.3739 2.66656 24.0522 2.9475 24.5523 3.44758C25.0524 3.94766 25.3333 4.62591 25.3333 5.33312V10.6662H20.552C20.2017 10.6653 19.8547 10.7339 19.531 10.868C19.2074 11.0021 18.9136 11.1991 18.6667 11.4475L18.1147 11.9995H13.8853L13.3333 11.4475C13.0864 11.1991 12.7926 11.0021 12.469 10.868C12.1453 10.7339 11.7983 10.6653 11.448 10.6662H6.66667V5.33312ZM5.33333 14.6661C5.33333 14.3125 5.47381 13.9734 5.72386 13.7233C5.97391 13.4733 6.31304 13.3328 6.66667 13.3328H11.448L12 13.8848C12.2469 14.1332 12.5407 14.3302 12.8644 14.4644C13.188 14.5985 13.535 14.667 13.8853 14.6661H18.1147C18.465 14.667 18.812 14.5985 19.1356 14.4644C19.4593 14.3302 19.7531 14.1332 20 13.8848L20.552 13.3328H25.3333C25.687 13.3328 26.0261 13.4733 26.2761 13.7233C26.5262 13.9734 26.6667 14.3125 26.6667 14.6661C26.6667 15.0197 26.5262 15.3588 26.2761 15.6089C26.0261 15.8589 25.687 15.9994 25.3333 15.9994H6.66667C6.31304 15.9994 5.97391 15.8589 5.72386 15.6089C5.47381 15.3588 5.33333 15.0197 5.33333 14.6661ZM16 29.3322C15.7363 29.3322 15.4785 29.254 15.2592 29.1075C15.04 28.961 14.8691 28.7527 14.7682 28.5091C14.6672 28.2655 14.6408 27.9974 14.6923 27.7388C14.7437 27.4802 14.8707 27.2426 15.0572 27.0561C15.2437 26.8697 15.4812 26.7427 15.7399 26.6912C15.9985 26.6398 16.2666 26.6662 16.5102 26.7671C16.7539 26.868 16.9621 27.0389 17.1086 27.2582C17.2551 27.4774 17.3333 27.7352 17.3333 27.9989C17.3333 28.3525 17.1929 28.6916 16.9428 28.9417C16.6928 29.1917 16.3536 29.3322 16 29.3322Z" fill="inherit"/>
    </symbol>
    <symbol id="saas-sidebar-results" viewBox="0 0 39 32" fill="inherit" xmlns="http://www.w3.org/2000/svg">
        <path d="M28.765 8.22786C28.2337 8.12224 27.8 7.79099 27.5776 7.3173C25.094 2.08279 19.3474 -0.844117 13.5992 0.215268C8.36306 1.17543 4.25834 5.35536 3.38299 10.6187C3.12374 12.1725 3.14295 13.728 3.4358 15.2435C3.53181 15.738 3.31898 16.2885 2.8821 16.6853C1.04978 18.3512 0 20.7244 0 23.1985C0 28.0505 3.94789 32 8.80153 32H26.4046C33.0233 32 38.4067 26.6167 38.4067 19.9979C38.4067 14.2929 34.3516 9.34326 28.7634 8.22946L28.765 8.22786ZM26.4062 28.7978H8.80313C5.71459 28.7978 3.20216 26.2854 3.20216 23.1969C3.20216 21.6238 3.87107 20.1115 5.03608 19.0521C6.2939 17.9079 6.8844 16.2149 6.57714 14.6306C6.35631 13.4912 6.3435 12.3182 6.53874 11.1404C7.18365 7.26449 10.3234 4.06554 14.1737 3.35982C14.7898 3.2478 15.4027 3.19339 16.006 3.19339C19.7058 3.19339 23.0568 5.25614 24.6827 8.68874C25.3452 10.0842 26.603 11.0588 28.1361 11.366C32.2312 12.1838 35.2045 15.8116 35.2045 19.9979C35.2045 24.85 31.2566 28.7994 26.403 28.7994L26.4062 28.7978ZM24.1994 18.0648C24.8251 18.6905 24.8251 19.7019 24.1994 20.3276L19.8675 24.6595C19.2481 25.2788 18.4336 25.5909 17.6191 25.5941L17.6047 25.5973L17.5903 25.5941C16.7757 25.5909 15.9612 25.2788 15.3419 24.6595L11.0099 20.3276C10.3842 19.7019 10.3842 18.6905 11.0099 18.0648C11.6356 17.4391 12.647 17.4391 13.2727 18.0648L16.0044 20.7964V12.7951C16.0044 11.9101 16.7213 11.1948 17.6047 11.1948C18.488 11.1948 19.2049 11.9101 19.2049 12.7951V20.7964L21.9366 18.0648C22.5623 17.4391 23.5737 17.4391 24.1994 18.0648V18.0648Z" fill="inherit"/>
    </symbol>

    <symbol id="saas-sidebar-live" viewBox="0 0 35 32" fill="inherit" xmlns="http://www.w3.org/2000/svg">
        <path d="M27.7083 0H7.29167C5.35851 0.00230961 3.50519 0.769283 2.13824 2.13268C0.771286 3.49608 0.00231563 5.34459 0 7.27273L0 18.9091C0.00231563 20.8372 0.771286 22.6857 2.13824 24.0491C3.50519 25.4125 5.35851 26.1795 7.29167 26.1818H16.0417V29.0909H10.2083C9.82156 29.0909 9.45063 29.2442 9.17714 29.5169C8.90365 29.7897 8.75 30.1597 8.75 30.5455C8.75 30.9312 8.90365 31.3012 9.17714 31.574C9.45063 31.8468 9.82156 32 10.2083 32H24.7917C25.1784 32 25.5494 31.8468 25.8229 31.574C26.0964 31.3012 26.25 30.9312 26.25 30.5455C26.25 30.1597 26.0964 29.7897 25.8229 29.5169C25.5494 29.2442 25.1784 29.0909 24.7917 29.0909H18.9583V26.1818H27.7083C29.6415 26.1795 31.4948 25.4125 32.8618 24.0491C34.2287 22.6857 34.9977 20.8372 35 18.9091V7.27273C34.9977 5.34459 34.2287 3.49608 32.8618 2.13268C31.4948 0.769283 29.6415 0.00230961 27.7083 0V0ZM7.29167 2.90909H27.7083C28.8687 2.90909 29.9815 3.36883 30.8019 4.18717C31.6224 5.00551 32.0833 6.11542 32.0833 7.27273V17.4545H2.91667V7.27273C2.91667 6.11542 3.3776 5.00551 4.19807 4.18717C5.01855 3.36883 6.13134 2.90909 7.29167 2.90909V2.90909ZM27.7083 23.2727H7.29167C6.39004 23.269 5.51158 22.9875 4.77648 22.4668C4.04138 21.946 3.48554 21.2115 3.185 20.3636H31.815C31.5145 21.2115 30.9586 21.946 30.2235 22.4668C29.4884 22.9875 28.61 23.269 27.7083 23.2727Z" fill="inherit"/>
    </symbol>

    <symbol id="saas-sidebar-account" viewBox="0 0 24 32" fill="inherit" xmlns="http://www.w3.org/2000/svg">
        <path d="M12 16C13.5822 16 15.129 15.5308 16.4446 14.6518C17.7602 13.7727 18.7855 12.5233 19.391 11.0615C19.9965 9.59966 20.155 7.99113 19.8463 6.43928C19.5376 4.88743 18.7757 3.46197 17.6569 2.34315C16.538 1.22433 15.1126 0.462403 13.5607 0.153721C12.0089 -0.15496 10.4003 0.00346629 8.93853 0.608967C7.47672 1.21447 6.22729 2.23985 5.34824 3.55544C4.46919 4.87103 4 6.41775 4 8C4.00212 10.1211 4.84565 12.1547 6.34548 13.6545C7.84532 15.1543 9.87892 15.9979 12 16ZM12 2.66667C13.0548 2.66667 14.086 2.97946 14.963 3.5655C15.8401 4.15153 16.5237 4.98449 16.9274 5.95902C17.331 6.93356 17.4366 8.00592 17.2309 9.04048C17.0251 10.075 16.5171 11.0254 15.7712 11.7712C15.0254 12.5171 14.075 13.0251 13.0405 13.2309C12.0059 13.4366 10.9336 13.331 9.95902 12.9274C8.98448 12.5237 8.15153 11.8401 7.56549 10.963C6.97946 10.086 6.66667 9.05484 6.66667 8C6.66667 6.58551 7.22857 5.22896 8.22876 4.22877C9.22896 3.22857 10.5855 2.66667 12 2.66667V2.66667Z" fill="inherit"/>
        <path d="M12 18.6667C8.81848 18.6702 5.76829 19.9356 3.51862 22.1853C1.26894 24.435 0.00352914 27.4852 0 30.6667C0 31.0203 0.140476 31.3595 0.390524 31.6095C0.640573 31.8596 0.979711 32 1.33333 32C1.68696 32 2.02609 31.8596 2.27614 31.6095C2.52619 31.3595 2.66667 31.0203 2.66667 30.6667C2.66667 28.1913 3.65 25.8174 5.40034 24.067C7.15068 22.3167 9.52465 21.3334 12 21.3334C14.4754 21.3334 16.8493 22.3167 18.5997 24.067C20.35 25.8174 21.3333 28.1913 21.3333 30.6667C21.3333 31.0203 21.4738 31.3595 21.7239 31.6095C21.9739 31.8596 22.313 32 22.6667 32C23.0203 32 23.3594 31.8596 23.6095 31.6095C23.8595 31.3595 24 31.0203 24 30.6667C23.9965 27.4852 22.7311 24.435 20.4814 22.1853C18.2317 19.9356 15.1815 18.6702 12 18.6667V18.6667Z" fill="inherit"/>
    </symbol>

    <symbol id="saas-sidebar-logout" viewBox="0 0 32 32" fill="inherit" xmlns="http://www.w3.org/2000/svg">
        <path d="M15.3013 20C14.9477 20 14.6086 20.1405 14.3585 20.3905C14.1085 20.6406 13.968 20.9797 13.968 21.3333V25.3333C13.968 26.3942 13.5466 27.4116 12.7964 28.1618C12.0463 28.9119 11.0289 29.3333 9.968 29.3333H6.66667C5.6058 29.3333 4.58839 28.9119 3.83824 28.1618C3.08809 27.4116 2.66667 26.3942 2.66667 25.3333V6.66667C2.66667 5.6058 3.08809 4.58839 3.83824 3.83824C4.58839 3.08809 5.6058 2.66667 6.66667 2.66667H9.968C11.0289 2.66667 12.0463 3.08809 12.7964 3.83824C13.5466 4.58839 13.968 5.6058 13.968 6.66667V10.6667C13.968 11.0203 14.1085 11.3594 14.3585 11.6095C14.6086 11.8595 14.9477 12 15.3013 12C15.655 12 15.9941 11.8595 16.2441 11.6095C16.4942 11.3594 16.6347 11.0203 16.6347 10.6667V6.66667C16.6325 4.89921 15.9295 3.20474 14.6797 1.95496C13.4299 0.705176 11.7355 0.00211714 9.968 0H6.66667C4.89921 0.00211714 3.20474 0.705176 1.95496 1.95496C0.705176 3.20474 0.00211714 4.89921 0 6.66667L0 25.3333C0.00211714 27.1008 0.705176 28.7953 1.95496 30.045C3.20474 31.2948 4.89921 31.9979 6.66667 32H9.968C11.7355 31.9979 13.4299 31.2948 14.6797 30.045C15.9295 28.7953 16.6325 27.1008 16.6347 25.3333V21.3333C16.6347 20.9797 16.4942 20.6406 16.2441 20.3905C15.9941 20.1405 15.655 20 15.3013 20Z" fill="white"/>
        <path d="M30.4892 13.172L24.3745 7.05732C24.2515 6.92997 24.1044 6.8284 23.9417 6.75852C23.779 6.68864 23.6041 6.65186 23.427 6.65032C23.25 6.64878 23.0744 6.68252 22.9106 6.74956C22.7467 6.8166 22.5978 6.9156 22.4726 7.04079C22.3475 7.16598 22.2485 7.31485 22.1814 7.47871C22.1144 7.64258 22.0806 7.81815 22.0822 7.99519C22.0837 8.17223 22.1205 8.34719 22.1904 8.50986C22.2602 8.67253 22.3618 8.81966 22.4892 8.94265L28.1718 14.6267L7.99984 14.6667C7.64622 14.6667 7.30708 14.8071 7.05703 15.0572C6.80698 15.3072 6.6665 15.6464 6.6665 16C6.6665 16.3536 6.80698 16.6927 7.05703 16.9428C7.30708 17.1928 7.64622 17.3333 7.99984 17.3333L28.2505 17.292L22.4865 23.0573C22.3592 23.1803 22.2576 23.3274 22.1877 23.4901C22.1178 23.6528 22.081 23.8277 22.0795 24.0048C22.078 24.1818 22.1117 24.3574 22.1787 24.5213C22.2458 24.6851 22.3448 24.834 22.47 24.9592C22.5952 25.0844 22.744 25.1834 22.9079 25.2504C23.0718 25.3175 23.2473 25.3512 23.4244 25.3497C23.6014 25.3481 23.7764 25.3113 23.939 25.2415C24.1017 25.1716 24.2488 25.07 24.3718 24.9427L30.4865 18.828C31.2367 18.0782 31.6585 17.0612 31.659 16.0005C31.6595 14.9399 31.2387 13.9225 30.4892 13.172Z" fill="white"/>
    </symbol>

    <symbol id="saas-sidebar-more" viewBox="0 0 56 37" fill="none" xmlns="http://www.w3.org/2000/svg">
        <rect width="56" height="37" rx="5" fill="#243FC2"/>
        <path d="M44 12.3287C44.001 12.5026 43.9674 12.6749 43.901 12.8358C43.8347 12.9968 43.7369 13.1432 43.6134 13.2666L32.7219 24.0595C32.1027 24.6746 31.3672 25.1626 30.5574 25.4956C29.7476 25.8286 28.8795 26 28.0027 26C27.126 26 26.2578 25.8286 25.448 25.4956C24.6382 25.1626 23.9027 24.6746 23.2835 24.0595L12.3921 13.2666C12.2678 13.1435 12.1692 12.9972 12.1019 12.8363C12.0346 12.6754 12 12.5029 12 12.3287C12 12.1545 12.0346 11.982 12.1019 11.8211C12.1692 11.6602 12.2678 11.5139 12.3921 11.3908C12.5164 11.2676 12.6639 11.1699 12.8263 11.1032C12.9887 11.0366 13.1628 11.0023 13.3386 11.0023C13.5143 11.0023 13.6884 11.0366 13.8508 11.1032C14.0132 11.1699 14.1608 11.2676 14.2851 11.3908L25.1765 22.1836C25.9264 22.9258 26.9429 23.3426 28.0027 23.3426C29.0625 23.3426 30.079 22.9258 30.8289 22.1836L41.7204 11.3908C41.8443 11.2669 41.9917 11.1687 42.1542 11.1016C42.3166 11.0345 42.4909 11 42.6669 11C42.8429 11 43.0171 11.0345 43.1796 11.1016C43.342 11.1687 43.4894 11.2669 43.6134 11.3908C43.7369 11.5142 43.8347 11.6606 43.901 11.8215C43.9674 11.9825 44.001 12.1548 44 12.3287Z" fill="white"/>
    </symbol>

    <symbol id="saas-download" viewBox="0 0 24 21" fill="none" xmlns="http://www.w3.org/2000/svg">
        <path d="M9.64185 17.5157C10.7739 18.6485 12.6098 18.6491 13.7426 17.517C13.743 17.5166 13.7434 17.5162 13.7439 17.5157L16.8474 14.4122C17.2054 14.0162 17.1747 13.405 16.7788 13.047C16.4101 12.7137 15.8487 12.7143 15.4808 13.0483L12.6527 15.8774L12.6594 0.966575C12.6594 0.432725 12.2266 0 11.6928 0C11.159 0 10.7263 0.432725 10.7263 0.966529L10.7176 15.859L7.90497 13.0483C7.52729 12.6709 6.91519 12.6712 6.53779 13.0488C6.16038 13.4265 6.16061 14.0386 6.53829 14.416L9.64185 17.5157Z" fill="#364FCC"/>
        <path d="M22.3243 12.6846C21.7905 12.6846 21.3578 13.1173 21.3578 13.6511V17.5173C21.3578 18.0511 20.925 18.4838 20.3912 18.4838H2.99338C2.45958 18.4838 2.02685 18.0511 2.02685 17.5173V13.6511C2.02685 13.1173 1.59413 12.6846 1.06032 12.6846C0.526475 12.6846 0.09375 13.1173 0.09375 13.6511V17.5173C0.09375 19.1187 1.39197 20.4169 2.99338 20.4169H20.3912C21.9926 20.4169 23.2908 19.1187 23.2908 17.5173V13.6511C23.2908 13.1173 22.8581 12.6846 22.3243 12.6846Z" fill="#364FCC"/>
    </symbol>

    <symbol id="saas-download-white" viewBox="0 0 53 41" fill="none" xmlns="http://www.w3.org/2000/svg">
        <path d="M34.6857 29.2728C36.1899 30.7779 38.6292 30.7787 40.1343 29.2746C40.1349 29.274 40.1354 29.2734 40.136 29.2728L44.2597 25.1492C44.7354 24.6231 44.6945 23.811 44.1684 23.3353C43.6786 22.8924 42.9327 22.8932 42.4438 23.3371L38.6862 27.0961L38.6951 7.28427C38.6951 6.57495 38.1201 6 37.4109 6C36.7016 6 36.1267 6.57495 36.1267 7.28421L36.1151 27.0716L32.378 23.3371C31.8762 22.8357 31.0629 22.836 30.5614 23.3378C30.06 23.8396 30.0603 24.6529 30.5621 25.1543L34.6857 29.2728Z" fill="white"/>
        <path d="M51.5373 22.854C50.8281 22.854 50.2531 23.429 50.2531 24.1382V29.2752C50.2531 29.9844 49.6781 30.5594 48.9689 30.5594H25.8527C25.1434 30.5594 24.5685 29.9844 24.5685 29.2752V24.1383C24.5685 23.429 23.9935 22.8541 23.2843 22.8541C22.575 22.854 22 23.429 22 24.1383V29.2752C22 31.4029 23.7249 33.1279 25.8527 33.1279H48.9688C51.0966 33.1279 52.8215 31.4029 52.8215 29.2752V24.1383C52.8215 23.429 52.2466 22.854 51.5373 22.854Z" fill="white"/>
        <path d="M1 0L1 41" stroke="white" stroke-width="2" stroke-linejoin="round"/>
    </symbol>

    <symbol id="saas-enlarge" viewBox="0 0 26 26" fill="none" xmlns="http://www.w3.org/2000/svg">
        <path d="M1.88597 7.5126L3.55168 5.84581L7.00531 9.29944C7.31131 9.59499 7.72114 9.75852 8.14654 9.75482C8.57194 9.75112 8.97887 9.58049 9.27968 9.27968C9.58049 8.97887 9.75112 8.57194 9.75482 8.14654C9.75852 7.72114 9.59499 7.31131 9.29944 7.00531L5.84581 3.55168L7.5126 1.88597C7.66395 1.73458 7.76697 1.54167 7.80862 1.33168C7.85027 1.1217 7.82866 0.904075 7.74655 0.706372C7.66443 0.508671 7.5255 0.339783 7.34734 0.221093C7.16917 0.102404 6.9598 0.0392523 6.74572 0.0396357L1.59285 0.0396357C1.18091 0.0396357 0.785846 0.203277 0.494561 0.494561C0.203277 0.785846 0.0396357 1.18091 0.0396357 1.59285L0.0396357 6.74572C0.0392523 6.9598 0.102404 7.16917 0.221093 7.34734C0.339783 7.5255 0.508671 7.66443 0.706372 7.74655C0.904075 7.82866 1.1217 7.85027 1.33168 7.80862C1.54167 7.76697 1.73458 7.66395 1.88597 7.5126Z" fill="#3550CC"/>
        <path d="M24.1537 18.527L22.488 20.1938L19.0343 16.7402C18.8847 16.5852 18.7056 16.4616 18.5077 16.3766C18.3097 16.2916 18.0968 16.2468 17.8814 16.2449C17.666 16.2431 17.4523 16.2841 17.253 16.3657C17.0536 16.4473 16.8724 16.5677 16.7201 16.7201C16.5677 16.8724 16.4473 17.0536 16.3657 17.253C16.2841 17.4523 16.2431 17.666 16.2449 17.8814C16.2468 18.0968 16.2916 18.3097 16.3766 18.5077C16.4616 18.7056 16.5852 18.8847 16.7402 19.0343L20.1938 22.488L18.527 24.1537C18.3757 24.3051 18.2727 24.498 18.231 24.708C18.1894 24.9179 18.211 25.1356 18.2931 25.3333C18.3752 25.531 18.5141 25.6999 18.6923 25.8185C18.8705 25.9372 19.0798 26.0004 19.2939 26H24.4468C24.8587 26 25.2538 25.8364 25.5451 25.5451C25.8364 25.2538 26 24.8587 26 24.4468V19.2939C26.0004 19.0798 25.9372 18.8705 25.8185 18.6923C25.6999 18.5141 25.531 18.3752 25.3333 18.2931C25.1356 18.211 24.9179 18.1894 24.708 18.231C24.498 18.2727 24.3051 18.3757 24.1537 18.527Z" fill="#3550CC"/>
        <path d="M7.47272 24.1537L5.80594 22.488L9.25957 19.0343C9.41453 18.8847 9.53813 18.7056 9.62316 18.5077C9.70819 18.3097 9.75295 18.0968 9.75482 17.8814C9.75669 17.666 9.71564 17.4523 9.63407 17.253C9.55249 17.0536 9.43202 16.8724 9.27968 16.7201C9.12735 16.5677 8.9462 16.4473 8.7468 16.3657C8.54741 16.2841 8.33377 16.2431 8.11834 16.2449C7.90292 16.2468 7.69002 16.2916 7.49208 16.3766C7.29413 16.4616 7.1151 16.5852 6.96544 16.7402L3.51181 20.1938L1.8461 18.527C1.6947 18.3757 1.5018 18.2727 1.29181 18.231C1.08182 18.1894 0.864201 18.211 0.666499 18.2931C0.468798 18.3752 0.299909 18.5141 0.18122 18.6923C0.0625305 18.8705 -0.000620842 19.0798 -0.000238419 19.2939V24.4468C-0.000238419 24.8587 0.163404 25.2538 0.454688 25.5451C0.745973 25.8364 1.14104 26 1.55298 26H6.70585C6.91993 26.0004 7.1293 25.9372 7.30746 25.8185C7.48563 25.6999 7.62456 25.531 7.70668 25.3333C7.78879 25.1356 7.81039 24.9179 7.76875 24.708C7.7271 24.498 7.62408 24.3051 7.47272 24.1537Z" fill="#3550CC"/>
        <path d="M18.527 1.8461L20.1938 3.51181L16.7402 6.96544C16.5852 7.1151 16.4616 7.29413 16.3766 7.49208C16.2916 7.69002 16.2468 7.90292 16.2449 8.11834C16.2431 8.33377 16.2841 8.54741 16.3657 8.7468C16.4473 8.9462 16.5677 9.12735 16.7201 9.27968C16.8724 9.43202 17.0536 9.55249 17.253 9.63407C17.4523 9.71564 17.666 9.75669 17.8814 9.75482C18.0968 9.75295 18.3097 9.70819 18.5077 9.62316C18.7056 9.53813 18.8847 9.41453 19.0343 9.25957L22.488 5.80594L24.1537 7.47272C24.3051 7.62408 24.498 7.7271 24.708 7.76875C24.9179 7.81039 25.1356 7.78879 25.3333 7.70668C25.531 7.62456 25.6999 7.48563 25.8185 7.30746C25.9372 7.1293 26.0004 6.91993 26 6.70585V1.55298C26 1.14104 25.8364 0.745973 25.5451 0.454688C25.2538 0.163404 24.8587 -0.000238419 24.4468 -0.000238419H19.2939C19.0798 -0.000620842 18.8705 0.0625305 18.6923 0.18122C18.5141 0.299909 18.3752 0.468798 18.2931 0.666499C18.211 0.864201 18.1894 1.08182 18.231 1.29181C18.2727 1.5018 18.3757 1.6947 18.527 1.8461Z" fill="#3550CC"/>
    </symbol>
    
    <symbol id="saas-reduce" viewBox="0 0 42 42" fill="none" xmlns="http://www.w3.org/2000/svg">
        <path d="M12.7758 3.68661L10.085 6.37911L4.50606 0.800161C4.01176 0.322749 3.34973 0.0585808 2.66254 0.0645522C1.97536 0.0705236 1.31802 0.346157 0.832087 0.832087C0.346157 1.31802 0.0705236 1.97536 0.0645522 2.66254C0.0585808 3.34973 0.322749 4.01176 0.800161 4.50606L6.37911 10.085L3.68661 12.7758C3.44212 13.0203 3.27569 13.3319 3.20842 13.6712C3.14114 14.0104 3.17604 14.3619 3.30868 14.6813C3.44133 15.0006 3.66577 15.2735 3.95357 15.4652C4.24137 15.6569 4.57959 15.7589 4.9254 15.7583H13.2493C13.9147 15.7583 14.5529 15.494 15.0234 15.0234C15.494 14.5529 15.7583 13.9147 15.7583 13.2493V4.9254C15.7589 4.57959 15.6569 4.24137 15.4652 3.95357C15.2735 3.66577 15.0006 3.44133 14.6813 3.30868C14.3619 3.17604 14.0104 3.14114 13.6712 3.20842C13.3319 3.27569 13.0203 3.44212 12.7758 3.68661Z" fill="#3550CC"/>
        <path d="M29.2238 38.3134L31.9145 35.6209L37.4935 41.1999C37.7352 41.4502 38.0244 41.6498 38.3442 41.7872C38.6639 41.9246 39.0078 41.9969 39.3558 41.9999C39.7038 42.0029 40.049 41.9366 40.3711 41.8048C40.6931 41.673 40.9858 41.4784 41.2319 41.2323C41.4779 40.9863 41.6725 40.6936 41.8043 40.3715C41.9361 40.0494 42.0024 39.7043 41.9994 39.3563C41.9964 39.0083 41.9241 38.6644 41.7867 38.3447C41.6493 38.0249 41.4497 37.7357 41.1994 37.494L35.6204 31.915L38.3129 29.2242C38.5574 28.9797 38.7238 28.6681 38.7911 28.3289C38.8584 27.9896 38.8235 27.6381 38.6908 27.3187C38.5582 26.9994 38.3338 26.7266 38.046 26.5348C37.7582 26.3431 37.4199 26.2411 37.0741 26.2417H28.7503C28.0848 26.2417 27.4466 26.506 26.9761 26.9766C26.5056 27.4471 26.2412 28.0853 26.2412 28.7507V37.0746C26.2406 37.4204 26.3426 37.7587 26.5343 38.0465C26.7261 38.3343 26.9989 38.5587 27.3183 38.6913C27.6376 38.824 27.9892 38.8589 28.3284 38.7916C28.6676 38.7243 28.9792 38.5579 29.2238 38.3134Z" fill="#3550CC"/>
        <path d="M3.68657 29.2242L6.37907 31.915L0.800119 37.494C0.5498 37.7357 0.350137 38.0249 0.21278 38.3447C0.0754227 38.6644 0.00312295 39.0083 9.89554e-05 39.3563C-0.00292504 39.7043 0.0633873 40.0494 0.195167 40.3715C0.326946 40.6936 0.521554 40.9863 0.767634 41.2323C1.01371 41.4784 1.30634 41.673 1.62843 41.8048C1.95053 41.9366 2.29564 42.0029 2.64364 41.9999C2.99164 41.9969 3.33555 41.9246 3.6553 41.7872C3.97506 41.6498 4.26426 41.4502 4.50602 41.1999L10.085 35.6209L12.7757 38.3134C13.0203 38.5579 13.3319 38.7243 13.6711 38.7916C14.0103 38.8589 14.3619 38.824 14.6812 38.6913C15.0006 38.5587 15.2734 38.3343 15.4651 38.0465C15.6569 37.7587 15.7589 37.4204 15.7583 37.0746V28.7507C15.7583 28.0853 15.4939 27.4471 15.0234 26.9766C14.5529 26.506 13.9147 26.2417 13.2492 26.2417H4.92536C4.57955 26.2411 4.24132 26.3431 3.95352 26.5348C3.66572 26.7266 3.44129 26.9994 3.30864 27.3187C3.176 27.6381 3.1411 27.9896 3.20838 28.3289C3.27565 28.6681 3.44207 28.9797 3.68657 29.2242Z" fill="#3550CC"/>
        <path d="M38.3129 12.7757L35.6204 10.085L41.1994 4.50602C41.4497 4.26426 41.6493 3.97506 41.7867 3.6553C41.9241 3.33555 41.9964 2.99164 41.9994 2.64364C42.0024 2.29564 41.9361 1.95053 41.8043 1.62843C41.6725 1.30634 41.4779 1.01371 41.2319 0.767634C40.9858 0.521554 40.6931 0.326946 40.3711 0.195167C40.049 0.0633873 39.7038 -0.00292504 39.3558 9.89554e-05C39.0078 0.00312295 38.6639 0.0754227 38.3442 0.21278C38.0244 0.350137 37.7352 0.5498 37.4935 0.800119L31.9145 6.37907L29.2238 3.68657C28.9792 3.44207 28.6676 3.27565 28.3284 3.20838C27.9892 3.1411 27.6376 3.176 27.3183 3.30864C26.9989 3.44129 26.7261 3.66572 26.5343 3.95352C26.3426 4.24132 26.2406 4.57955 26.2412 4.92536V13.2492C26.2412 13.9147 26.5056 14.5529 26.9761 15.0234C27.4466 15.4939 28.0848 15.7583 28.7503 15.7583H37.0741C37.4199 15.7589 37.7582 15.6569 38.046 15.4651C38.3338 15.2734 38.5582 15.0006 38.6908 14.6812C38.8235 14.3619 38.8584 14.0103 38.7911 13.6711C38.7238 13.3319 38.5574 13.0203 38.3129 12.7757Z" fill="#3550CC"/>
    </symbol>
    <symbol id="saas-question" viewBox="0 0 12 20" fill="none" xmlns="http://www.w3.org/2000/svg">
        <path d="M3.6799 12.4882H7.39884C7.09804 9.31617 11.1451 8.33174 11.1451 4.99563C11.1451 1.68687 8.87547 0.264926 5.89485 0.264926C3.76193 0.264926 1.92981 1.30404 0.617244 2.78068L2.94158 4.9136C3.6799 4.17528 4.39087 3.68307 5.3753 3.68307C6.35972 3.68307 7.09804 4.20262 7.09804 5.29643C7.09804 7.26528 3.133 8.79661 3.6799 12.4882ZM5.53937 19.2424C6.98866 19.2424 8.05512 18.094 8.05512 16.6173C8.05512 15.1407 6.98866 13.9922 5.53937 13.9922C4.09008 13.9922 2.99627 15.1407 2.99627 16.6173C2.99627 18.094 4.09008 19.2424 5.53937 19.2424Z" fill="white"/>
    </symbol>
    <symbol id="saas-refresh" viewBox="0 0 30 32" fill="none" xmlns="http://www.w3.org/2000/svg">
        <path d="M1 0L1 32" stroke="white" stroke-width="1.5" stroke-linejoin="round"/>
        <path d="M20.6432 8.4524C21.6023 8.45556 22.5512 8.64971 23.4351 9.02362C24.319 9.39752 25.1202 9.94375 25.7925 10.6307H23.5353C23.3435 10.6307 23.1596 10.7072 23.024 10.8434C22.8884 10.9795 22.8122 11.1642 22.8122 11.3568C22.8122 11.5494 22.8884 11.7341 23.024 11.8702C23.1596 12.0064 23.3435 12.0829 23.5353 12.0829H26.5307C26.8868 12.0827 27.2282 11.9406 27.4799 11.6878C27.7317 11.4349 27.8732 11.0921 27.8734 10.7345V7.7263C27.8734 7.53373 27.7972 7.34904 27.6616 7.21287C27.526 7.0767 27.3421 7.0002 27.1504 7.0002C26.9586 7.0002 26.7747 7.0767 26.6391 7.21287C26.5035 7.34904 26.4273 7.53373 26.4273 7.7263V9.23514C25.2323 8.1543 23.7613 7.4289 22.1789 7.14016C20.5966 6.85141 18.9655 7.01074 17.4683 7.60028C15.971 8.18983 14.6667 9.18632 13.7015 10.4782C12.7363 11.77 12.1482 13.3062 12.0031 14.9147C11.9938 15.0158 12.0055 15.1178 12.0376 15.2141C12.0696 15.3104 12.1213 15.3989 12.1893 15.4741C12.2574 15.5492 12.3402 15.6093 12.4326 15.6505C12.5251 15.6917 12.625 15.7131 12.7261 15.7134C12.903 15.7157 13.0743 15.6516 13.2065 15.5337C13.3388 15.4157 13.4225 15.2525 13.4412 15.0759C13.6021 13.2684 14.4303 11.5868 15.7629 10.3612C17.0955 9.13564 18.8362 8.45479 20.6432 8.4524Z" fill="white"/>
        <path d="M28.5659 15.7134C28.3891 15.7112 28.2178 15.7748 28.0855 15.8918C27.9533 16.0088 27.8696 16.1708 27.8509 16.346C27.7313 17.7172 27.2196 19.0255 26.3764 20.1157C25.5331 21.2058 24.3938 22.032 23.0935 22.4964C21.7932 22.9607 20.3866 23.0436 19.0404 22.7352C17.6943 22.4269 16.4651 21.7402 15.4988 20.7567H17.7561C17.9478 20.7567 18.1317 20.6808 18.2673 20.5457C18.4029 20.4106 18.4791 20.2273 18.4791 20.0363C18.4791 19.8452 18.4029 19.6619 18.2673 19.5268C18.1317 19.3917 17.9478 19.3158 17.7561 19.3158H14.7606C14.5843 19.3157 14.4096 19.3502 14.2467 19.4174C14.0838 19.4846 13.9357 19.5832 13.811 19.7075C13.6863 19.8317 13.5874 19.9792 13.52 20.1416C13.4525 20.304 13.4179 20.478 13.418 20.6537V23.6386C13.418 23.8297 13.4941 24.013 13.6297 24.1481C13.7653 24.2832 13.9492 24.3591 14.141 24.3591C14.3327 24.3591 14.5166 24.2832 14.6522 24.1481C14.7878 24.013 14.864 23.8297 14.864 23.6386V22.1415C16.059 23.2139 17.5301 23.9337 19.1124 24.2202C20.6947 24.5067 22.3258 24.3486 23.8231 23.7637C25.3203 23.1787 26.6246 22.1899 27.5898 20.9081C28.5551 19.6263 29.1432 18.102 29.2882 16.506C29.2976 16.4056 29.2858 16.3045 29.2538 16.2089C29.2217 16.1133 29.17 16.0255 29.102 15.9509C29.034 15.8764 28.9511 15.8167 28.8587 15.7758C28.7663 15.735 28.6663 15.7137 28.5652 15.7134H28.5659Z" fill="white"/>
    </symbol>
    <symbol id="saas-more" viewBox="0 0 33 26" fill="none" xmlns="http://www.w3.org/2000/svg">
        <path d="M2.9348 6.31113C2.75696 6.31113 2.58641 6.38178 2.46065 6.50753C2.3349 6.63328 2.26426 6.80384 2.26426 6.98167V8.12275C2.26426 8.30059 2.3349 8.47115 2.46065 8.5969C2.58641 8.72265 2.75696 8.7933 2.9348 8.7933H4.07588C4.25372 8.7933 4.42427 8.72265 4.55002 8.5969C4.67577 8.47115 4.74642 8.30059 4.74642 8.12275V6.98167C4.74642 6.80383 4.67577 6.63328 4.55002 6.50753C4.42427 6.38178 4.25372 6.31113 4.07588 6.31113H2.9348ZM3.0348 8.02275V7.08167H3.97588V8.02275H3.0348Z" fill="white" stroke="white" stroke-width="0.2"/>
        <path d="M6.45431 16.2065L6.52481 16.277L6.45431 16.2065C6.32856 16.3322 6.25791 16.5028 6.25791 16.6806C6.25791 16.8585 6.32856 17.029 6.45431 17.1548C6.58006 17.2805 6.75061 17.3512 6.92845 17.3512H17.1982C17.376 17.3512 17.5466 17.2805 17.6723 17.1548C17.7981 17.029 17.8687 16.8585 17.8687 16.6806C17.8687 16.5028 17.7981 16.3322 17.6723 16.2065C17.5466 16.0807 17.376 16.0101 17.1982 16.0101H6.92845C6.75061 16.0101 6.58006 16.0807 6.45431 16.2065ZM6.45431 7.07784C6.32856 7.20359 6.25791 7.37415 6.25791 7.55199C6.25791 7.72982 6.32856 7.90038 6.45431 8.02613C6.58006 8.15188 6.75061 8.22253 6.92845 8.22253H17.1982C17.376 8.22253 17.5466 8.15188 17.6723 8.02613C17.7981 7.90038 17.8687 7.72982 17.8687 7.55199C17.8687 7.37415 17.7981 7.20359 17.6723 7.07784C17.5466 6.95209 17.376 6.88145 17.1982 6.88145H6.92845C6.75061 6.88145 6.58006 6.95209 6.45431 7.07784ZM6.92845 11.4458C6.75061 11.4458 6.58006 11.5164 6.45431 11.6422C6.32856 11.7679 6.25791 11.9385 6.25791 12.1163C6.25791 12.2941 6.32856 12.4647 6.45431 12.5905C6.58006 12.7162 6.75061 12.7869 6.92845 12.7869H17.1982C17.376 12.7869 17.5466 12.7162 17.6723 12.5905C17.7981 12.4647 17.8687 12.2941 17.8687 12.1163C17.8687 11.9385 17.7981 11.7679 17.6723 11.6422C17.5466 11.5164 17.376 11.4458 17.1982 11.4458H6.92845Z" fill="white" stroke="white" stroke-width="0.2"/>
        <path d="M2.46065 11.072C2.3349 11.1977 2.26426 11.3683 2.26426 11.5461V12.6872C2.26426 12.865 2.3349 13.0356 2.46065 13.1614C2.58641 13.2871 2.75696 13.3577 2.9348 13.3577H4.07588C4.25372 13.3577 4.42427 13.2871 4.55002 13.1614C4.67577 13.0356 4.74642 12.865 4.74642 12.6872V11.5461C4.74642 11.3683 4.67577 11.1977 4.55002 11.072C4.42427 10.9462 4.25372 10.8756 4.07588 10.8756H2.9348C2.75696 10.8756 2.58641 10.9462 2.46065 11.072ZM3.0348 11.6461H3.97588V12.5872H3.0348V11.6461ZM2.9348 15.4399C2.75696 15.4399 2.58641 15.5106 2.46065 15.6363C2.3349 15.7621 2.26426 15.9326 2.26426 16.1105V17.2515C2.26426 17.4294 2.3349 17.5999 2.46065 17.7257C2.58641 17.8514 2.75696 17.9221 2.9348 17.9221H4.07588C4.25372 17.9221 4.42427 17.8514 4.55002 17.7257C4.67577 17.5999 4.74642 17.4294 4.74642 17.2515V16.1105C4.74642 15.9326 4.67577 15.7621 4.55002 15.6363C4.42427 15.5106 4.25372 15.4399 4.07588 15.4399H2.9348ZM3.0348 17.1515V16.2105H3.97588V17.1515H3.0348Z" fill="white" stroke="white" stroke-width="0.2"/>
        <line x1="31.813" y1="0.244141" x2="31.813" y2="25.1034" stroke="white"/>
    </symbol>
    <symbol id="saas-feedback" viewBox="0 0 27 25" fill="none" xmlns="http://www.w3.org/2000/svg">
        <path d="M23.9467 10.1553C23.8494 10.115 23.7424 10.1044 23.6391 10.125C23.5357 10.1455 23.4409 10.1963 23.3664 10.2708L20.0775 13.5581C19.8548 13.7814 19.5709 13.9335 19.2616 13.9951L16.5981 14.5278C16.3402 14.5795 16.0735 14.5666 15.8217 14.4905C15.57 14.4143 15.341 14.2771 15.155 14.0911C14.969 13.9051 14.8318 13.6761 14.7556 13.4243C14.6795 13.1726 14.6666 12.9059 14.7183 12.648L15.1884 10.2977H6.69819C6.55691 10.2977 6.42141 10.2416 6.32151 10.1417C6.22161 10.0418 6.16549 9.90627 6.16549 9.76499C6.16549 9.6237 6.22161 9.48821 6.32151 9.38831C6.42141 9.2884 6.55691 9.23228 6.69819 9.23228H15.6393C15.6579 9.21157 15.6688 9.18569 15.6885 9.16602L17.7536 7.10145H6.69716C6.55588 7.10145 6.42038 7.04532 6.32048 6.94542C6.22058 6.84552 6.16445 6.71002 6.16445 6.56874C6.16445 6.42746 6.22058 6.29196 6.32048 6.19206C6.42038 6.09216 6.55588 6.03603 6.69716 6.03603H18.4162C18.5243 6.03845 18.629 6.07466 18.7154 6.13957L22.1721 2.68344C22.4713 2.38658 22.8283 2.15434 23.2209 2.00112C23.3112 1.96492 23.3899 1.9047 23.4484 1.82699C23.5069 1.74929 23.5431 1.65705 23.553 1.56027C23.5628 1.4635 23.546 1.36586 23.5044 1.27795C23.4627 1.19003 23.3978 1.11518 23.3167 1.06151C22.9691 0.831956 22.5617 0.709547 22.1452 0.709473H2.96872C2.4038 0.710158 1.86221 0.934875 1.46275 1.33434C1.06329 1.7338 0.838576 2.27538 0.837891 2.8403V23.6149C0.837848 23.7202 0.869058 23.8233 0.927574 23.9109C0.98609 23.9985 1.06928 24.0669 1.16663 24.1072C1.23126 24.1341 1.3006 24.1478 1.3706 24.1476C1.51185 24.1478 1.64741 24.092 1.74748 23.9923L6.91821 18.8215H22.1452C22.7101 18.821 23.2518 18.5963 23.6513 18.1968C24.0508 17.7973 24.2754 17.2557 24.276 16.6907V10.6477C24.2759 10.5422 24.2446 10.4392 24.186 10.3516C24.1274 10.2639 24.0441 10.1957 23.9467 10.1553ZM13.0897 13.4939H6.69716C6.55588 13.4939 6.42038 13.4378 6.32048 13.3379C6.22058 13.238 6.16445 13.1025 6.16445 12.9612C6.16445 12.82 6.22058 12.6845 6.32048 12.5846C6.42038 12.4847 6.55588 12.4285 6.69716 12.4285H13.0897C13.2309 12.4285 13.3664 12.4847 13.4663 12.5846C13.5662 12.6845 13.6224 12.82 13.6224 12.9612C13.6224 13.1025 13.5662 13.238 13.4663 13.3379C13.3664 13.4378 13.2309 13.4939 13.0897 13.4939Z" fill="white"/>
        <path d="M24.3653 2.84034C23.8248 2.84177 23.3067 3.05646 22.9235 3.43775L16.4415 9.92033C16.367 9.99466 16.3164 10.0894 16.296 10.1926L15.7633 12.8572C15.7478 12.9345 15.7497 13.0143 15.7688 13.0907C15.7879 13.1672 15.8237 13.2385 15.8736 13.2995C15.9236 13.3604 15.9865 13.4096 16.0577 13.4433C16.129 13.477 16.2068 13.4945 16.2856 13.4945C16.3204 13.4944 16.3551 13.4909 16.3892 13.4841L19.0517 12.9514C19.1549 12.9311 19.2497 12.8804 19.324 12.806L25.8087 6.32235C26.0945 6.03722 26.2892 5.67365 26.3682 5.27772C26.4471 4.88178 26.4068 4.47132 26.2522 4.09837C26.0976 3.72541 25.8357 3.40675 25.4998 3.18279C25.1639 2.95882 24.769 2.83963 24.3653 2.84034ZM23.5204 7.10148L22.1428 5.72389L22.8961 4.97065L24.2737 6.34823L23.5204 7.10148Z" fill="white"/>
    </symbol>

</svg>