<svg width="19" height="19" viewBox="0 0 19 19" fill="none" xmlns="http://www.w3.org/2000/svg">
<circle cx="9.75" cy="9.75" r="8.5" fill="#161617" stroke="#161617"/>
<path d="M8.54173 12.483V12.4148C8.5493 11.6913 8.62506 11.1156 8.769 10.6876C8.91294 10.2595 9.11748 9.91293 9.38263 9.64778C9.64779 9.38263 9.96597 9.13831 10.3372 8.91483C10.5607 8.77846 10.7614 8.61748 10.9395 8.43187C11.1175 8.24248 11.2576 8.02468 11.3599 7.77846C11.466 7.53225 11.519 7.25952 11.519 6.96028C11.519 6.58907 11.4319 6.2671 11.2576 5.99437C11.0834 5.72165 10.8504 5.51142 10.5588 5.36369C10.2671 5.21596 9.94324 5.1421 9.58718 5.1421C9.27657 5.1421 8.97733 5.20649 8.68945 5.33528C8.40157 5.46407 8.16104 5.66672 7.96786 5.94324C7.77468 6.21975 7.66294 6.58149 7.63263 7.02846H6.20082C6.23112 6.38452 6.39779 5.83339 6.70082 5.37506C7.00763 4.91672 7.41104 4.56634 7.91104 4.32392C8.41483 4.08149 8.97354 3.96028 9.58718 3.96028C10.2538 3.96028 10.8334 4.09286 11.3258 4.35801C11.822 4.62316 12.2046 4.9868 12.4735 5.44892C12.7463 5.91104 12.8826 6.43755 12.8826 7.02846C12.8826 7.44513 12.8182 7.82202 12.6895 8.15915C12.5645 8.49627 12.3826 8.7974 12.144 9.06255C11.9091 9.32771 11.6251 9.56255 11.2917 9.7671C10.9584 9.97543 10.6913 10.1951 10.4906 10.4262C10.2898 10.6535 10.144 10.9243 10.0531 11.2387C9.96218 11.5531 9.91294 11.9451 9.90536 12.4148V12.483H8.54173ZM9.269 15.8466C8.9887 15.8466 8.74817 15.7463 8.54741 15.5455C8.34665 15.3448 8.24627 15.1042 8.24627 14.8239C8.24627 14.5436 8.34665 14.3031 8.54741 14.1023C8.74817 13.9016 8.9887 13.8012 9.269 13.8012C9.5493 13.8012 9.78983 13.9016 9.99059 14.1023C10.1913 14.3031 10.2917 14.5436 10.2917 14.8239C10.2917 15.0095 10.2444 15.18 10.1497 15.3353C10.0588 15.4906 9.93567 15.6156 9.78036 15.7103C9.62885 15.8012 9.45839 15.8466 9.269 15.8466Z" fill="#EEEEF3"/>
</svg>
