<svg width="23" height="24" viewBox="0 0 23 24" fill="none" xmlns="http://www.w3.org/2000/svg">
<g opacity="0.45">
<path d="M19.4062 6.96875H5.03125C4.84063 6.96875 4.65781 6.89302 4.52302 6.75823C4.38823 6.62344 4.3125 6.44062 4.3125 6.25C4.3125 6.05938 4.38823 5.87656 4.52302 5.74177C4.65781 5.60698 4.84063 5.53125 5.03125 5.53125H17.25C17.4406 5.53125 17.6234 5.45552 17.7582 5.32073C17.893 5.18594 17.9688 5.00312 17.9688 4.8125C17.9688 4.62188 17.893 4.43906 17.7582 4.30427C17.6234 4.16948 17.4406 4.09375 17.25 4.09375H5.03125C4.45938 4.09375 3.91093 4.32093 3.50655 4.7253C3.10218 5.12968 2.875 5.67813 2.875 6.25V17.75C2.875 18.3219 3.10218 18.8703 3.50655 19.2747C3.91093 19.6791 4.45938 19.9062 5.03125 19.9062H19.4062C19.7875 19.9062 20.1531 19.7548 20.4227 19.4852C20.6923 19.2156 20.8438 18.85 20.8438 18.4688V8.40625C20.8438 8.025 20.6923 7.65937 20.4227 7.38978C20.1531 7.1202 19.7875 6.96875 19.4062 6.96875ZM16.1719 14.1562C15.9586 14.1562 15.7502 14.093 15.5729 13.9746C15.3956 13.8561 15.2574 13.6877 15.1758 13.4907C15.0942 13.2937 15.0729 13.0769 15.1145 12.8678C15.1561 12.6587 15.2587 12.4666 15.4095 12.3158C15.5603 12.165 15.7524 12.0623 15.9615 12.0207C16.1707 11.9791 16.3875 12.0005 16.5845 12.0821C16.7815 12.1637 16.9498 12.3019 17.0683 12.4792C17.1868 12.6564 17.25 12.8649 17.25 13.0781C17.25 13.3641 17.1364 13.6383 16.9342 13.8405C16.732 14.0427 16.4578 14.1562 16.1719 14.1562Z" fill="#F8F8F8"/>
</g>
</svg>
