<svg width="30" height="34" viewBox="0 0 30 34" fill="none" xmlns="http://www.w3.org/2000/svg">
<g opacity="0.75">
<g clip-path="url(#clip0_177_1147)">
<g clip-path="url(#clip1_177_1147)">
<path d="M13.5126 0.196497C1.12116 3.60664 14.5346 10.4629 9.92847 12.9232C7.59505 14.1693 3.80748 13.985 5.32816 7.71078C-2.26265 13.8297 -0.0553735 27.7712 8.74995 32.3703C6.81803 30.5589 5.61048 27.9951 5.61048 25.1559C5.61048 19.679 10.102 15.2251 15.6248 15.2251C21.1478 15.2251 25.6391 19.6792 25.6391 25.1559C25.6391 27.8053 24.5882 30.2154 22.8778 31.9978C33.6004 26.5677 31.6223 11.644 24.4786 7.82981C26.1834 11.7933 25.3006 14.8403 23.1823 16.5393C24.2238 3.01298 9.2009 8.46362 13.5126 0.196497ZM15.6247 16.5435C10.8205 16.5435 6.94019 20.3916 6.94019 25.1559C6.94019 29.9202 10.8207 33.7682 15.6247 33.7682C20.4289 33.7682 24.3095 29.9202 24.3095 25.1559C24.3095 20.3918 20.429 16.5436 15.6248 16.5436L15.6247 16.5435ZM15.6247 20.3382C18.9675 20.3382 21.6926 23.0405 21.6926 26.3554C21.6926 29.6703 18.9675 32.3703 15.6248 32.3703C12.2822 32.3703 9.55928 29.6703 9.55928 26.3554C9.55928 23.0405 12.2822 20.3383 15.6248 20.3383L15.6247 20.3382ZM15.6247 21.6567C13.0007 21.6567 10.889 23.7531 10.889 26.3554C10.889 28.9575 13.0007 31.0518 15.6247 31.0518C18.2488 31.0518 20.3629 28.9576 20.3629 26.3554C20.3629 23.7532 18.2489 21.6567 15.6248 21.6567H15.6247ZM15.6247 22.973C17.5066 22.973 19.0311 24.487 19.0311 26.3531C19.0311 28.2193 17.5066 29.731 15.6248 29.731C13.7431 29.731 12.2164 28.2193 12.2164 26.3531C12.2164 25.7597 12.3722 25.202 12.6433 24.7171C12.7742 25.5874 13.5302 26.2562 14.4443 26.2562C15.4503 26.2562 16.2652 25.4458 16.2652 24.4482C16.2652 23.84 15.9628 23.3026 15.4982 22.9753C15.5402 22.9737 15.5825 22.973 15.6249 22.973H15.6247Z" fill="#E72323"/>
</g>
</g>
</g>
<defs>
<clipPath id="clip0_177_1147">
<rect width="30" height="34" rx="5" fill="white"/>
</clipPath>
<clipPath id="clip1_177_1147">
<rect width="30" height="34" fill="white"/>
</clipPath>
</defs>
</svg>
