<svg width="36" height="38" viewBox="0 0 36 38" fill="none" xmlns="http://www.w3.org/2000/svg">
<g clip-path="url(#clip0_209_653)">
<path d="M8.96733 18.1379C8.09815 14.3507 10.3685 10.5119 14.134 9.48841C15.6122 9.08318 17.1817 9.16672 18.6085 9.72658L19.7535 7.58186C17.7826 6.74055 15.5849 6.59109 13.5181 7.1578C8.47336 8.52753 5.44048 13.6917 6.64841 18.7687L3.85965 19.5254L9.26614 23.0534L12.6636 17.1338L8.96733 18.1379ZM22.6973 9.90963L19.2999 15.8292L22.9955 14.8261C23.8636 18.6154 21.5932 22.4542 17.8288 23.4757C16.3507 23.8812 14.7811 23.7977 13.3544 23.2375L12.2099 25.3812C14.1811 26.2222 16.3786 26.3722 18.4458 25.8068C23.4907 24.4345 26.5236 19.2703 25.3145 14.1954L28.1044 13.4367L22.6973 9.90963Z" fill="#80401C"/>
</g>
<g clip-path="url(#clip1_209_653)">
<path d="M34.3125 24H20.6775C20.5146 24.0315 20.3468 24.0266 20.1861 23.9857C20.0254 23.9447 19.8756 23.8688 19.7477 23.7632C19.6198 23.6576 19.5168 23.525 19.4461 23.375C19.3754 23.2249 19.3387 23.0611 19.3388 22.8952V22.8739L33.75 22.3125V20.9737C33.7735 20.774 33.7513 20.5715 33.6851 20.3816C33.6189 20.1917 33.5104 20.0193 33.3678 19.8775C33.2252 19.7357 33.0522 19.6281 32.862 19.5629C32.6717 19.4977 32.4691 19.4766 32.2695 19.5011L19.4737 21.5812C19.0419 21.7407 18.6692 22.0285 18.4057 22.4059C18.1423 22.7834 18.0007 23.2325 18 23.6929V35.8114C18 36.2589 18.1778 36.6881 18.4943 37.0046C18.8107 37.3211 19.2399 37.4989 19.6875 37.4989H34.3125C34.7601 37.4989 35.1893 37.3211 35.5057 37.0046C35.8222 36.6881 36 36.2589 36 35.8114V25.6751L36.0011 25.629C36.0011 25.1964 35.8293 24.7814 35.5233 24.4755C35.2174 24.1696 34.8025 23.9977 34.3699 23.9977L34.3103 23.9989L34.3125 24ZM32.625 31.875C32.1773 31.8748 31.748 31.6968 31.4315 31.3802C31.1151 31.0635 30.9374 30.6341 30.9375 30.1864C30.9376 29.7387 31.1156 29.3094 31.4323 28.9929C31.749 28.6764 32.1784 28.4987 32.6261 28.4989C32.8478 28.4989 33.0673 28.5427 33.2721 28.6276C33.4769 28.7125 33.6629 28.8369 33.8196 28.9937C33.9763 29.1505 34.1006 29.3366 34.1853 29.5415C34.2701 29.7463 34.3137 29.9658 34.3136 30.1875C34.3136 30.4092 34.2698 30.6287 34.1849 30.8334C34.1 31.0382 33.9756 31.2243 33.8188 31.381C33.662 31.5377 33.4759 31.6619 33.271 31.7467C33.0662 31.8315 32.8467 31.8751 32.625 31.875Z" fill="#D5713A"/>
</g>
<defs>
<clipPath id="clip0_209_653">
<rect width="23.3981" height="23.3981" fill="white" transform="translate(11.6991 0.5) rotate(30)"/>
</clipPath>
<clipPath id="clip1_209_653">
<rect width="18" height="18" fill="white" transform="translate(18 19.5)"/>
</clipPath>
</defs>
</svg>
