<svg width="34" height="34" viewBox="0 0 34 34" fill="none" xmlns="http://www.w3.org/2000/svg">
<g clip-path="url(#clip0_177_587)">
<path d="M22.6667 17C26.5767 17 29.75 13.8267 29.75 9.91667C29.75 6.00667 26.5767 2.83333 22.6667 2.83333C18.7567 2.83333 15.5834 6.00667 15.5834 9.91667C15.5834 13.8267 18.7567 17 22.6667 17ZM30.3875 24.9333C29.835 24.3667 29.1409 24.0833 28.3334 24.0833H18.4167L15.47 23.0492L15.9375 21.7175L18.4167 22.6667H22.3834C22.8792 22.6667 23.2759 22.4683 23.6017 22.1425C23.9275 21.8167 24.0834 21.42 24.0834 20.9808C24.0834 20.2158 23.715 19.6917 22.9784 19.3942L12.6792 15.5833H9.91671V28.3333L19.8334 31.1667L31.2092 26.9167C31.2234 26.1658 30.94 25.5 30.3875 24.9333ZM7.08338 15.5833H1.39404V31.1667H7.08338V15.5833Z" fill="#24C19E"/>
</g>
<defs>
<clipPath id="clip0_177_587">
<rect width="34" height="34" rx="5" fill="white"/>
</clipPath>
</defs>
</svg>
