<svg width="34" height="34" viewBox="0 0 34 34" fill="none" xmlns="http://www.w3.org/2000/svg">
<g clip-path="url(#clip0_209_764)">
<path d="M23.4826 24.3333H30.6876C30.0826 16.3492 26.6451 11.39 22.236 8.45666L24.2435 4.07499C24.3041 3.93595 24.3294 3.78403 24.3169 3.63284C24.3044 3.48165 24.2546 3.33593 24.1719 3.20873C24.0892 3.08154 23.9763 2.97685 23.8432 2.90406C23.7101 2.83126 23.561 2.79264 23.4093 2.79166H10.8418C10.6901 2.79264 10.541 2.83126 10.4079 2.90406C10.2748 2.97685 10.1619 3.08154 10.0792 3.20873C9.99651 3.33593 9.94669 3.48165 9.9342 3.63284C9.92171 3.78403 9.94694 3.93595 10.0076 4.07499L11.1076 6.45832H20.3843L19.5593 8.29166H17.8635C18.3814 9.6843 18.7621 11.1242 19.0001 12.5908C19.1543 13.5006 19.2523 14.419 19.2935 15.3408L17.8451 16.3583C17.8491 15.1726 17.7509 13.9888 17.5518 12.82C17.2985 11.2644 16.8616 9.74432 16.2501 8.29166H15.3335C14.4875 9.36055 13.7274 10.4946 13.0601 11.6833C12.5221 12.703 12.0654 13.7635 11.6943 14.855L10.4385 14.0208C10.805 12.9659 11.2556 11.942 11.786 10.9592C12.3218 10.0375 12.9094 9.14689 13.546 8.29166H11.9418L12.0151 8.44749C7.15679 11.6833 3.46263 17.3667 3.46263 26.8542C3.45024 27.0536 3.47749 27.2535 3.54281 27.4423C3.60813 27.6312 3.71022 27.8052 3.84319 27.9544C3.97615 28.1035 4.13735 28.2249 4.31748 28.3114C4.4976 28.3979 4.69308 28.4478 4.89263 28.4583H12.226C11.9111 28.1306 11.6937 27.7217 11.5981 27.2774C11.5025 26.833 11.5325 26.3709 11.6848 25.9427C11.837 25.5144 12.1055 25.1371 12.4601 24.8528C12.8148 24.5686 13.2415 24.3887 13.6926 24.3333C13.4731 23.961 13.3561 23.5372 13.3535 23.105C13.3535 22.4486 13.6142 21.8191 14.0784 21.3549C14.5425 20.8907 15.172 20.63 15.8285 20.63H21.3285C21.9849 20.63 22.6144 20.8907 23.0785 21.3549C23.5427 21.8191 23.8035 22.4486 23.8035 23.105C23.8082 23.5357 23.6974 23.9599 23.4826 24.3333Z" fill="#D17B2B"/>
<path d="M20.4668 26.625C20.4668 26.3819 20.3702 26.1487 20.1983 25.9768C20.0264 25.8049 19.7932 25.7083 19.5501 25.7083H14.0501C13.807 25.7083 13.5738 25.8049 13.4019 25.9768C13.23 26.1487 13.1334 26.3819 13.1334 26.625C13.1334 26.8681 13.23 27.1013 13.4019 27.2732C13.5738 27.4451 13.807 27.5417 14.0501 27.5417H19.5501C19.7932 27.5417 20.0264 27.4451 20.1983 27.2732C20.3702 27.1013 20.4668 26.8681 20.4668 26.625Z" fill="#D17B2B"/>
<path d="M21.3284 22.0417H15.8284C15.5853 22.0417 15.3521 22.1382 15.1802 22.3101C15.0083 22.482 14.9117 22.7152 14.9117 22.9583C14.9117 23.2014 15.0083 23.4346 15.1802 23.6065C15.3521 23.7784 15.5853 23.875 15.8284 23.875H21.3284C21.5715 23.875 21.8047 23.7784 21.9766 23.6065C22.1485 23.4346 22.2451 23.2014 22.2451 22.9583C22.2451 22.7152 22.1485 22.482 21.9766 22.3101C21.8047 22.1382 21.5715 22.0417 21.3284 22.0417Z" fill="#D17B2B"/>
<path d="M20.8334 29.375H15.3334C15.0903 29.375 14.8571 29.4716 14.6852 29.6435C14.5133 29.8154 14.4167 30.0486 14.4167 30.2917C14.4167 30.5348 14.5133 30.7679 14.6852 30.9398C14.8571 31.1118 15.0903 31.2083 15.3334 31.2083H20.8334C21.0765 31.2083 21.3097 31.1118 21.4816 30.9398C21.6535 30.7679 21.7501 30.5348 21.7501 30.2917C21.7501 30.0486 21.6535 29.8154 21.4816 29.6435C21.3097 29.4716 21.0765 29.375 20.8334 29.375Z" fill="#D17B2B"/>
<path d="M30.6418 29.375H24.2251C23.982 29.375 23.7489 29.4716 23.577 29.6435C23.405 29.8154 23.3085 30.0486 23.3085 30.2917C23.3085 30.5348 23.405 30.7679 23.577 30.9398C23.7489 31.1118 23.982 31.2083 24.2251 31.2083H30.6418C30.8849 31.2083 31.1181 31.1118 31.29 30.9398C31.4619 30.7679 31.5585 30.5348 31.5585 30.2917C31.5585 30.0486 31.4619 29.8154 31.29 29.6435C31.1181 29.4716 30.8849 29.375 30.6418 29.375Z" fill="#D17B2B"/>
<path d="M31.5584 25.7083H25.1418C24.8986 25.7083 24.6655 25.8049 24.4936 25.9768C24.3217 26.1487 24.2251 26.3819 24.2251 26.625C24.2251 26.8681 24.3217 27.1013 24.4936 27.2732C24.6655 27.4451 24.8986 27.5417 25.1418 27.5417H31.5584C31.8015 27.5417 32.0347 27.4451 32.2066 27.2732C32.3785 27.1013 32.4751 26.8681 32.4751 26.625C32.4751 26.3819 32.3785 26.1487 32.2066 25.9768C32.0347 25.8049 31.8015 25.7083 31.5584 25.7083Z" fill="#D17B2B"/>
</g>
<defs>
<clipPath id="clip0_209_764">
<rect width="33" height="33" fill="white" transform="translate(0.666748 0.5)"/>
</clipPath>
</defs>
</svg>
