<svg width="46" height="46" viewBox="0 0 46 46" fill="none" xmlns="http://www.w3.org/2000/svg">
<g clip-path="url(#clip0_209_733)">
<mask id="mask0_209_733" style="mask-type:luminance" maskUnits="userSpaceOnUse" x="3" y="3" width="34" height="40">
<path d="M18.6548 28.9542L14.3913 31.4157L18.9041 39.2321C19.2305 39.7975 19.7682 40.2101 20.3988 40.379C21.0293 40.548 21.7012 40.4595 22.2666 40.1331C22.832 39.8067 23.2445 39.2691 23.4135 38.6385C23.5825 38.0079 23.494 37.336 23.1676 36.7706L18.6548 28.9542Z" fill="white" stroke="white" stroke-width="4"/>
<path d="M14.2225 16.3541L7.1167 20.4567C6.55132 20.7831 6.13877 21.3207 5.96981 21.9513C5.80084 22.5819 5.88929 23.2538 6.21571 23.8192L10.3183 30.925C10.6447 31.4904 11.1823 31.9029 11.8129 32.0719C12.4435 32.2409 13.1154 32.1524 13.6808 31.826L21.4972 27.3132" stroke="white" stroke-width="4" stroke-linecap="round"/>
<path d="M25.7017 11.6215L27.1229 10.8009C28.2536 10.1481 29.5974 9.9712 30.8586 10.3091C32.1198 10.6471 33.195 11.4722 33.8479 12.6029C34.5007 13.7337 34.6776 15.0774 34.3397 16.3386C34.0018 17.5998 33.1767 18.6751 32.0459 19.3279L30.6248 20.1484" stroke="white" stroke-width="4" stroke-linejoin="round"/>
<path d="M33.3559 25.2038C33.3932 25.1822 33.4204 25.1467 33.4316 25.1051C33.4427 25.0635 33.4369 25.0191 33.4153 24.9818L22.5009 6.07749C22.4558 5.99933 22.3564 5.97331 22.279 6.01803L19.9326 7.37269C14.6345 10.4316 12.8194 17.2059 15.8782 22.504C18.9371 27.8021 25.7114 29.6173 31.0095 26.5584L33.3559 25.2038Z" fill="white" stroke="white" stroke-width="4"/>
</mask>
<g mask="url(#mask0_209_733)">
<path d="M29.9064 -4.07028L-4.20159 15.622L15.4906 49.7299L49.5986 30.0377L29.9064 -4.07028Z" fill="#D17B2B"/>
</g>
</g>
<defs>
<clipPath id="clip0_209_733">
<rect width="33" height="32.8234" fill="white" transform="matrix(-0.866025 0.5 0.5 0.866025 28.9121 0.537048)"/>
</clipPath>
</defs>
</svg>
