<svg width="32" height="32" viewBox="0 0 32 32" fill="none" xmlns="http://www.w3.org/2000/svg">
<g opacity="0.75">
<g clip-path="url(#clip0_177_494)">
<path d="M20.0066 2.67067C20.943 2.67056 21.8629 2.91698 22.6739 3.38515C23.4848 3.85333 24.1582 4.52676 24.6263 5.33773C25.0944 6.1487 25.3408 7.06862 25.3406 8.005C25.3404 8.94138 25.0937 9.86121 24.6253 10.672L30.6733 10.6707V13.3373H28.0066V26.6707C28.0066 27.0243 27.8662 27.3634 27.6161 27.6135C27.3661 27.8635 27.0269 28.004 26.6733 28.004H5.33997C4.98634 28.004 4.64721 27.8635 4.39716 27.6135C4.14711 27.3634 4.00663 27.0243 4.00663 26.6707V13.3373H1.33997V10.6707L7.38797 10.672C6.72488 9.52633 6.51155 8.17501 6.78944 6.88079C7.06732 5.58657 7.81658 4.44193 8.89152 3.66944C9.96645 2.89695 11.2903 2.5518 12.6055 2.70112C13.9208 2.85044 15.1335 3.48354 16.008 4.47734C16.5073 3.90868 17.1224 3.4533 17.812 3.14171C18.5016 2.83013 19.2499 2.66952 20.0066 2.67067ZM17.34 13.3373H14.6733V26.6707H17.34V13.3373ZM12.0066 5.33733C11.3178 5.33896 10.6563 5.60708 10.1608 6.08551C9.66521 6.56394 9.374 7.21557 9.34815 7.90391C9.3223 8.59225 9.56381 9.2639 10.0221 9.77815C10.4804 10.2924 11.1199 10.6094 11.8066 10.6627L12.0066 10.6707H14.6733V8.004C14.6733 7.36675 14.4451 6.75056 14.0301 6.26701C13.615 5.78347 13.0405 5.46455 12.4106 5.368L12.2053 5.344L12.0053 5.33733H12.0066ZM20.0066 5.33733C19.3339 5.33712 18.6859 5.59121 18.1926 6.04866C17.6993 6.50612 17.3971 7.13313 17.3466 7.804L17.34 8.004V10.6707H20.0066C20.6792 10.6705 21.3268 10.4163 21.8199 9.95889C22.3129 9.50147 22.6149 8.87465 22.6653 8.204L22.6733 8.004C22.6733 7.29676 22.3923 6.61848 21.8923 6.11838C21.3922 5.61829 20.7139 5.33733 20.0066 5.33733Z" fill="#D8DB42"/>
</g>
</g>
<defs>
<clipPath id="clip0_177_494">
<rect width="32" height="32" rx="5" fill="white"/>
</clipPath>
</defs>
</svg>
