<svg width="32" height="32" viewBox="0 0 32 32" fill="none" xmlns="http://www.w3.org/2000/svg">
<g opacity="0.75">
<g clip-path="url(#clip0_177_43)">
<path d="M11.9 19.52V11.88H13.56V19.52H11.9ZM15.21 19.52V11.88H16.9V19.52H15.21ZM18.56 19.52V11.88H20.18V19.52H18.56Z" fill="#2FFFCD"/>
<path d="M16 27C22.075 27 27 22.075 27 16C27 9.925 22.075 5 16 5C9.925 5 5 9.925 5 16C5 22.075 9.925 27 16 27ZM22.73 21.14C22.84 21.49 22.58 21.84 22.23 21.85H9.78C9.43 21.85 9.17 21.51 9.27 21.17L9.62 19.92C9.68 19.69 9.89 19.53 10.13 19.53H10.24V11.76C9.82 11.48 9.74 10.79 10.26 10.48L15.66 7.22C15.9 7.07 16.2 7.07 16.44 7.22L21.83 10.48C22.35 10.79 22.27 11.48 21.84 11.76V19.52H21.81C22.04 19.52 22.25 19.67 22.32 19.89L22.73 21.14Z" fill="#2FFFCD"/>
<path d="M16 1C7.716 1 1 7.716 1 16C1 24.284 7.716 31 16 31C24.284 31 31 24.284 31 16C31 7.716 24.284 1 16 1ZM3 16C3 8.82 8.82 3 16 3C23.18 3 29 8.82 29 16C29 23.18 23.18 29 16 29C8.82 29 3 23.18 3 16Z" fill="#2FFFCD"/>
</g>
</g>
<defs>
<clipPath id="clip0_177_43">
<rect width="32" height="32" rx="5" fill="white"/>
</clipPath>
</defs>
</svg>
