<svg width="1141" height="1141" viewBox="0 0 1141 1141" fill="none" xmlns="http://www.w3.org/2000/svg">
<g opacity="0.12" clip-path="url(#clip0_1_4074)">
<g clip-path="url(#clip1_1_4074)">
<path fill-rule="evenodd" clip-rule="evenodd" d="M172 891L172 969H250V891H172ZM250 970H251H330H331H410H411H490H491L570 970H571H650H651H730H731H810H811H890H891H970H971L971 969V891V890V811V810V731V730V651V650V571V570L971 491V490V411V410V331V330V251V250V171V170H970L891 170H890L811 170H810L731 170H730H651H650L571 170H570H491H490L411 170H410L331 170H330L251 170H250H172H171V171V250V251L171 330V331V410V411L171 490V491V570V571L171 650V651V730V731L171 810V811V890V891L171 969L171 970H172H250ZM172 171L172 250H250V171H172ZM251 171V250L330 250V171L251 171ZM331 171V250L410 250V171H331ZM411 171V250H490V171L411 171ZM491 171V250H570V171H491ZM571 171V250H650V171L571 171ZM651 171V250L730 250V171H651ZM731 171V250L810 250V171L731 171ZM811 171V250H890V171H811ZM891 171V250H970V171L891 171ZM970 969H891V891H970V969ZM890 969V891H811V969H890ZM970 890H891V811H970V890ZM890 890V811H811V890H890ZM970 810H891V731H970V810ZM890 810V731H811V810H890ZM970 730H891V651H970V730ZM890 730V651H811V730H890ZM970 650H891V571H970V650ZM890 650V571H811V650H890ZM970 570H891L891 491H970L970 570ZM890 570L890 491H811L811 570H890ZM970 490H891V411H970V490ZM890 490V411H811V490H890ZM970 410H891V331H970V410ZM890 410V331H811V410H890ZM970 330H891V251H970V330ZM890 330V251H811V330H890ZM172 251L172 330H250L250 251H172ZM251 251L251 330H330V251L251 251ZM331 251V330H410V251L331 251ZM411 251V330L490 330V251H411ZM491 251V330H570V251H491ZM571 251V330L650 330V251H571ZM651 251V330H730V251L651 251ZM731 251V330H810V251L731 251ZM810 969V891H731V969H810ZM810 890V811H731V890H810ZM810 810V731H731V810H810ZM810 730V651H731V730H810ZM810 650V571H731V650H810ZM810 570L810 491H731L731 570H810ZM810 490V411H731V490H810ZM810 410V331H731V410H810ZM172 331L172 410H250L250 331H172ZM251 331L251 410H330L330 331H251ZM331 331L331 410H410V331H331ZM411 331V410L490 410L490 331L411 331ZM491 331L491 410H570V331H491ZM571 331V410L650 410V331L571 331ZM651 331V410H730V331H651ZM730 969V891H651V969H730ZM730 890V811H651V890H730ZM730 810V731H651V810H730ZM730 730V651L651 651L651 730H730ZM730 650V571L651 571V650L730 650ZM730 570L730 491L651 491V570L730 570ZM730 490V411H651V490L730 490ZM172 411L172 490H250V411H172ZM251 411V490H330L330 411H251ZM331 411L331 490L410 490L410 411H331ZM411 411L411 490H490V411L411 411ZM491 411V490H570V411H491ZM571 411V490H650V411L571 411ZM650 969V891H571V969H650ZM650 890V811H571V890H650ZM650 810V731H571V810H650ZM650 730L650 651H571L571 730H650ZM650 650V571H571V650H650ZM650 570V491H571V570H650ZM172 491L172 570H250V491H172ZM251 491V570H330V491H251ZM331 491V570H410V491L331 491ZM411 491V570H490V491H411ZM491 491V570H570V491H491ZM570 969V891L491 891V969L570 969ZM570 890V811L491 811V890L570 890ZM570 810V731L491 731V810L570 810ZM570 730L570 651H491L491 730L570 730ZM570 650V571H491V650H570ZM172 571L172 650H250V571H172ZM251 571V650H330L330 571H251ZM331 571L331 650H410L410 571H331ZM411 571L411 650H490V571H411ZM490 969V891H411V969H490ZM490 890V811H411V890H490ZM490 810V731H411L411 810H490ZM490 730L490 651H411V730H490ZM172 651L172 730H250L250 651H172ZM251 651L251 730H330V651H251ZM331 651V730H410V651H331ZM410 969V891H331V969H410ZM410 890V811H331V890H410ZM410 810L410 731H331V810H410ZM172 731L172 810H250L250 731H172ZM251 731L251 810H330V731H251ZM330 969V891H251V969H330ZM330 890V811H251V890H330ZM172 811L172 890H250V811H172Z" fill="url(#paint0_radial_1_4074)"/>
</g>
</g>
<g opacity="0.25" filter="url(#filter0_f_1_4074)">
<circle cx="570.5" cy="570.5" r="270.5" transform="rotate(-90 570.5 570.5)" fill="url(#paint1_linear_1_4074)"/>
</g>
<defs>
<filter id="filter0_f_1_4074" x="0" y="0" width="1141" height="1141" filterUnits="userSpaceOnUse" color-interpolation-filters="sRGB">
<feFlood flood-opacity="0" result="BackgroundImageFix"/>
<feBlend mode="normal" in="SourceGraphic" in2="BackgroundImageFix" result="shape"/>
<feGaussianBlur stdDeviation="150" result="effect1_foregroundBlur_1_4074"/>
</filter>
<radialGradient id="paint0_radial_1_4074" cx="0" cy="0" r="1" gradientUnits="userSpaceOnUse" gradientTransform="translate(571 570) rotate(90) scale(400)">
<stop stop-color="white"/>
<stop offset="1" stop-color="white" stop-opacity="0"/>
</radialGradient>
<linearGradient id="paint1_linear_1_4074" x1="841" y1="570" x2="300" y2="570" gradientUnits="userSpaceOnUse">
<stop stop-color="#0066FF"/>
<stop offset="1" stop-color="#00FFFF"/>
</linearGradient>
<clipPath id="clip0_1_4074">
<rect width="800" height="800" fill="white" transform="translate(171 170)"/>
</clipPath>
<clipPath id="clip1_1_4074">
<rect width="800" height="800" fill="white" transform="translate(171 170)"/>
</clipPath>
</defs>
</svg>
