<svg height="28" viewBox="0 0 28 28" width="28" xmlns="http://www.w3.org/2000/svg"><g fill="none"><path d="m10.073875 12.0091563c-.20261719-.4052344-.0383359-.8979141.3668438-1.100586l6.3848203-3.1923828c.4051797-.20261719.897914-.03839063 1.1005859.36684375.2026172.40523437.0383359.89791406-.3668438 1.10058594l-6.3848203 3.19238281c-.4038671.2019609-.8973125.0397031-1.1005859-.3668437z" fill="#25201c"/><path d="m16.8255391 20.2838125-6.3848204-3.1923828c-.4052343-.2026172-.56946089-.6953516-.3668437-1.1005859.2026172-.4052344.6954062-.5695157 1.1005859-.3668438l6.3848203 3.1923828c.4052344.2026172.569461.6953516.3668438 1.100586-.2028906.4057812-.6958984.5691875-1.1005859.3668437z" fill="#25201c"/><path d="m1.81507813 18.3338203h8.55421877c1.1198359-1.1053437 1.8150781-2.6398203 1.8150781-4.333875 0-3.3592344-2.73295313-6.09218749-6.0921875-6.09218749-3.35923438 0-6.0921875 2.73295309-6.0921875 6.09224219 0 1.694.69524219 3.2285313 1.81507813 4.3338203z" fill="#00e0e2"/><path d="m10.3692969 18.3338203c1.1198359-1.1053437 1.8150781-2.6398203 1.8150781-4.333875 0-3.3592344-2.73295312-6.09218749-6.0921875-6.09218749v10.42606249z" fill="#00bccf"/><circle cx="6.092188" cy="14" fill="#c35e48" r="2.577586"/><path d="m1.81507813 18.3338203c1.10080468 1.0865313 2.611875 1.7583672 4.27710937 1.7583672 1.66523438 0 3.17630469-.6718359 4.2771094-1.7583672-1.1362969-1.1202187-2.67438284-1.7562344-4.2771094-1.7562344-1.60272656.0000547-3.1408125.6360157-4.27710937 1.7562344z" fill="#ffcc74"/><path d="m6.0921875 11.4223594c1.42127344 0 2.57758594 1.1563125 2.57758594 2.5775859 0 1.4213281-1.1563125 2.5776406-2.57758594 2.5776406z" fill="#954735"/><path d="m6.0921875 20.0921875c1.66523438 0 3.17630469-.6718359 4.2771094-1.7583672-1.1362969-1.1202187-2.67438284-1.7562344-4.2771094-1.7562344z" fill="#ffa659"/><path d="m17.6307031 10.4260078h8.5542188c1.1198359-1.10528905 1.8150781-2.6398203 1.8150781-4.3338203 0-3.35923437-2.7329531-6.0921875-6.0921875-6.0921875s-6.0921875 2.73295313-6.0921875 6.0921875c0 1.694.6952422 3.22853125 1.8150781 4.3338203z" fill="#ff6b61"/><path d="m26.1849219 10.4260078c1.1198359-1.10528905 1.8150781-2.6398203 1.8150781-4.3338203 0-3.35923437-2.7329531-6.0921875-6.0921875-6.0921875v10.4260078z" fill="#ee3368"/><circle cx="21.907813" cy="6.092188" fill="#ffd6d8" r="2.577586"/><path d="m17.6307031 10.4260078c1.1008047 1.0865313 2.611875 1.7583672 4.2771094 1.7583672s3.1763047-.6718359 4.2771094-1.7583672c-1.1362969-1.12021874-2.6743828-1.75623436-4.2771094-1.75623436-1.6027266.00005469-3.1407578.63607031-4.2771094 1.75623436z" fill="#00e0e2"/><path d="m21.9078125 3.51460156c1.4212734 0 2.5775859 1.1563125 2.5775859 2.57758594 0 1.42132813-1.1563125 2.57764063-2.5775859 2.57764063z" fill="#ffb7be"/><path d="m21.9078125 12.184375c1.6652344 0 3.1763047-.6718359 4.2771094-1.7583672-1.1362969-1.12021874-2.6743828-1.75623436-4.2771094-1.75623436z" fill="#00bccf"/><path d="m17.6307031 26.2416328h8.5542188c1.1198359-1.1053437 1.8150781-2.6398203 1.8150781-4.3338203 0-3.3592344-2.7329531-6.0921875-6.0921875-6.0921875s-6.0921875 2.7329531-6.0921875 6.0921875c0 1.694.6952422 3.2284766 1.8150781 4.3338203z" fill="#ffcc74"/><path d="m26.1849219 26.2416328c1.1198359-1.1053437 1.8150781-2.6398203 1.8150781-4.3338203 0-3.3592344-2.7329531-6.0921875-6.0921875-6.0921875v10.4260078z" fill="#ffa659"/><circle cx="21.907813" cy="21.907813" fill="#f49e99" r="2.577586"/><path d="m17.6307031 26.2416328c1.1008047 1.0865313 2.611875 1.7583672 4.2771094 1.7583672s3.1763047-.6718359 4.2771094-1.7583672c-1.1362969-1.1202187-2.6743828-1.7562344-4.2771094-1.7562344s-3.1407578.6360157-4.2771094 1.7562344z" fill="#ff6b61"/><path d="m21.9078125 19.3301719c1.4212734 0 2.5775859 1.1563125 2.5775859 2.5775859 0 1.4213281-1.1563125 2.5776406-2.5775859 2.5776406z" fill="#e58783"/><path d="m21.9078125 28c1.6652344 0 3.1763047-.6718359 4.2771094-1.7583672-1.1362969-1.1202187-2.6743828-1.7562344-4.2771094-1.7562344z" fill="#ee3368"/></g></svg>