<svg height="25" width="30" xmlns="http://www.w3.org/2000/svg"><path d="M9.435 24.39c11.321 0 17.512-9.382 17.512-17.519 0-.266-.005-.531-.017-.796A12.519 12.519 0 0 0 30 2.887c-1.103.49-2.29.82-3.535.97A6.18 6.18 0 0 0 29.172.45a12.343 12.343 0 0 1-3.908 1.494A6.157 6.157 0 0 0 14.776 7.56 17.475 17.475 0 0 1 2.087 1.127a6.143 6.143 0 0 0-.834 3.095 6.153 6.153 0 0 0 2.74 5.125 6.108 6.108 0 0 1-2.788-.77l-.001.079a6.158 6.158 0 0 0 4.938 6.036 6.16 6.16 0 0 1-2.78.105 6.161 6.161 0 0 0 5.75 4.277 12.345 12.345 0 0 1-7.645 2.635c-.49 0-.98-.028-1.468-.085a17.418 17.418 0 0 0 9.435 2.766" fill="#35aeff"/></svg>