<svg width="606" height="175" viewBox="0 0 606 175" fill="none" xmlns="http://www.w3.org/2000/svg">
<g clip-path="url(#clip0_409_2)">
<path d="M0 79.7651C0.989125 77.7722 0.757955 75.5558 1.10661 73.453C4.44664 53.7311 13.4284 37.0517 28.0517 23.4146C39.8265 12.4271 53.6439 5.16022 69.4472 1.97765C95.3349 -3.23193 119.138 1.80336 140.403 17.5116C156.24 29.2228 166.863 44.6924 172.297 63.6439C177.493 81.83 176.951 99.9252 170.289 117.573C161.057 142.011 144.139 159.212 119.775 168.987C112.121 172.06 104.046 173.956 95.8238 174.613C95.5207 174.636 95.1834 174.613 95.0659 174.992H80.2859C80.2466 174.875 80.1695 174.774 80.0665 174.706C79.9636 174.637 79.8408 174.605 79.7174 174.613C76.2086 174.343 72.7234 173.824 69.288 173.06C53.534 169.65 39.6825 162.505 27.9267 151.498C13.3841 137.886 4.44412 121.25 1.10661 101.588C0.750376 99.4857 0.989125 97.2655 0 95.2726V79.7651ZM74.2147 98.8492C74.2147 112.705 74.2336 126.56 74.1806 140.416C74.1806 141.712 74.4572 142.223 75.8215 142.454C83.7898 143.809 91.9296 143.809 99.8978 142.454C101.414 142.2 101.584 141.545 101.584 140.249C101.549 112.97 101.54 85.6996 101.558 58.4381C101.558 55.57 101.558 55.57 104.419 55.57C111.612 55.57 118.812 55.57 126.021 55.57C126.695 55.57 127.483 55.8882 127.688 54.6569C128.901 47.3445 129.143 40.0549 127.745 32.7274C127.525 31.5642 127.067 31.4847 126.157 31.4847C100.665 31.4847 75.1684 31.4847 49.6685 31.4847C48.5315 31.4847 48.1943 31.8636 47.9858 32.9244C46.6077 39.9297 46.6077 47.1363 47.9858 54.1416C48.2094 55.301 48.6073 55.6571 49.7935 55.6571C57.3048 55.6003 64.8161 55.6571 72.3236 55.5889C73.8774 55.57 74.2943 55.9223 74.2867 57.5174C74.1844 71.2782 74.2147 85.058 74.2147 98.8492V98.8492Z" fill="#E5E5E5"/>
<path d="M383.307 76.7114C383.307 71.5473 383.345 66.387 383.28 61.2229C383.28 60.0446 383.61 59.7415 384.77 59.7566C389.749 59.8173 394.737 59.7263 399.716 59.7945C412.427 59.9764 420.393 74.0214 414.034 85.0202C413.522 85.9068 413.428 86.369 414.322 87.1723C419.681 91.9802 421.644 99.3949 419.207 105.881C416.52 113.034 411.29 117.02 403.616 117.626C398.42 118.043 398.413 118.005 398.42 112.849C398.42 111.276 397.886 109.318 398.625 108.238C399.432 107.056 401.535 107.916 403.067 107.764C406.667 107.412 409.395 104.597 409.433 101.07C409.475 97.3224 406.928 94.227 403.207 94.0944C397.219 93.8784 391.224 93.9163 385.236 93.9845C383.644 93.9845 383.239 93.5601 383.269 92.003C383.386 86.9108 383.307 81.8073 383.307 76.7114ZM393.778 76.0067C393.778 77.8329 393.82 79.6553 393.778 81.4777C393.751 82.3643 394.013 82.7129 394.945 82.656C396.578 82.5575 398.235 82.6977 399.849 82.4969C401.164 82.3112 402.39 81.7255 403.361 80.8193C404.332 79.9131 405.001 78.7303 405.276 77.4313C405.803 74.5064 404.689 71.9414 402.244 70.5092C399.743 69.0429 396.976 69.6075 394.286 69.5431C393.588 69.5431 393.789 70.1455 393.785 70.5395C393.77 72.3619 393.778 74.1843 393.778 76.0067V76.0067Z" fill="#E5E5E5"/>
<path d="M335.256 87.1154C335.256 77.4199 335.294 67.7282 335.218 58.0365C335.218 56.5892 335.597 56.2331 336.996 56.2975C339.579 56.4301 342.167 56.4301 344.75 56.2975C346.266 56.2141 346.47 56.7559 346.463 58.0971C346.398 66.2127 346.44 74.3321 346.417 82.4514C346.417 83.7017 346.33 84.3458 347.952 83.4289C360.125 76.6281 375.333 85.077 375.913 99.0008C376.155 104.843 375.958 110.704 376.026 116.558C376.026 117.695 375.587 117.907 374.579 117.888C371.926 117.831 369.273 117.797 366.62 117.888C365.332 117.937 364.904 117.619 364.926 116.255C365.01 111.034 364.983 105.809 364.953 100.585C364.922 95.8448 362.508 92.2227 358.586 90.9118C352.814 88.9795 346.69 93.0714 346.497 99.1713C346.326 104.767 346.391 110.375 346.447 115.975C346.447 117.373 346.228 117.994 344.625 117.899C342.042 117.767 339.454 117.767 336.871 117.899C335.491 117.96 335.211 117.479 335.218 116.194C335.256 106.514 335.256 96.8071 335.256 87.1154Z" fill="#E5E5E5"/>
<path d="M223.656 94.7006C223.656 87.5246 223.618 80.3487 223.686 73.1727C223.686 71.8163 223.455 71.3427 221.966 71.3806C217.679 71.4981 213.386 71.3806 209.099 71.4488C207.913 71.4678 207.443 71.2177 207.489 69.9333C207.591 66.978 207.557 64.0152 207.489 61.0562C207.489 60.0673 207.773 59.7756 208.77 59.7756C222.587 59.8059 236.403 59.8059 250.218 59.7756C251.253 59.7756 251.476 60.1317 251.461 61.0827C251.412 64.1137 251.393 67.1258 251.461 70.1455C251.492 71.2821 251.033 71.4678 250.033 71.4602C245.807 71.4147 241.578 71.5473 237.356 71.3882C235.586 71.32 235.359 71.9224 235.362 73.4758C235.423 87.5776 235.362 101.679 235.446 115.781C235.446 117.57 234.93 118.002 233.244 117.914C230.591 117.774 227.938 117.808 225.286 117.914C223.97 117.964 223.58 117.592 223.591 116.255C223.69 109.056 223.652 101.877 223.656 94.7006Z" fill="#E5E5E5"/>
<path d="M263.854 103.21C265.961 109.272 272.191 111.292 277.167 107.715C278.028 107.097 278.581 107.052 279.441 107.666C281.222 108.954 283.045 110.197 284.925 111.333C286.028 112 285.914 112.451 285.073 113.25C279.551 118.49 273.033 120.07 265.881 117.797C258.874 115.581 254.429 110.598 253.038 103.331C251.598 95.7993 254.088 89.472 260.113 84.8346C266.355 80.0342 273.343 79.428 280.358 83.0008C287.244 86.513 290.526 92.4727 290.754 100.137C290.754 100.448 290.754 100.763 290.731 101.077C290.731 102.593 290.227 103.282 288.419 103.252C280.279 103.138 272.15 103.21 263.854 103.21ZM272.036 96.8867C274.367 96.8867 276.701 96.8033 279.028 96.917C280.631 96.9928 280.51 96.3487 279.968 95.303C278.293 92.0863 275.723 90.1919 272.009 90.2184C268.295 90.2449 265.741 92.0863 264.142 95.3901C263.63 96.4434 263.608 96.9587 265.032 96.9056C267.375 96.8298 269.694 96.8867 272.036 96.8867V96.8867Z" fill="#E5E5E5"/>
<path d="M542.832 118.695C529.89 118.695 520.943 108.465 523.023 96.4017C524.562 87.4867 533.692 80.4889 543.136 81.0004C551.943 81.4702 559.39 87.0283 561.55 94.7385C564.389 104.896 558.518 115.164 548.286 117.967C546.518 118.497 544.677 118.743 542.832 118.695V118.695ZM551.776 99.895C551.818 94.64 547.763 90.3359 542.715 90.2753C537.667 90.2147 533.157 94.7877 533.203 99.967C533.248 105.146 537.629 109.67 542.586 109.636C547.714 109.598 551.738 105.336 551.776 99.895Z" fill="#E5E5E5"/>
<path d="M568.049 99.9518C568.049 94.477 568.083 89.0022 568.019 83.5274C568.019 82.3491 568.337 81.9816 569.505 82.0763C570.766 82.1773 572.033 82.1773 573.294 82.0763C575.341 81.9172 577.126 81.9665 577.865 84.4481C578.244 85.7704 578.937 84.6337 579.381 84.3231C584.084 80.9132 589.17 80.0683 594.54 82.3529C601.494 85.3082 605.238 90.8625 605.788 98.2014C606.246 104.335 605.89 110.53 605.962 116.694C605.962 117.805 605.477 117.888 604.601 117.873C602.142 117.831 599.675 117.793 597.223 117.873C596.037 117.918 595.737 117.536 595.749 116.384C595.805 111.098 595.749 105.813 595.775 100.528C595.775 97.9248 595.131 95.5227 593.456 93.5109C591.406 91.0482 588.734 90.0138 585.55 90.6806C582.037 91.4157 580.093 93.8367 579.062 97.0913C578.682 98.4298 578.512 99.8191 578.558 101.21C578.558 106.245 578.52 111.28 578.592 116.312C578.592 117.558 578.255 117.937 577.004 117.888C574.549 117.797 572.078 117.774 569.63 117.888C568.227 117.956 567.996 117.433 568.011 116.179C568.083 110.776 568.049 105.377 568.049 99.9518Z" fill="#E5E5E5"/>
<path d="M427.378 93.0259C427.378 89.3849 427.416 86.4221 427.359 83.4668C427.336 82.4249 427.609 82.0384 428.723 82.0725C431.376 82.1521 434.029 82.1673 436.681 82.0725C437.917 82.0271 438.129 82.4893 438.122 83.5881C438.072 89.0022 438.057 94.4202 438.122 99.8343C438.152 104.998 441.748 108.787 446.406 108.643C450.575 108.514 454.035 104.817 454.111 100.172C454.198 94.693 454.183 89.2144 454.111 83.7396C454.111 82.3984 454.49 82.0157 455.801 82.0688C458.385 82.1711 460.974 82.0991 463.562 82.0991C464.256 82.0991 464.983 81.9627 464.949 83.0728C464.748 89.6084 465.48 96.1782 464.597 102.68C463.46 110.954 455.808 118.047 448.039 118.687C437.72 119.536 430.133 112.197 428.105 104.926C426.919 100.778 427.586 96.5381 427.378 93.0259Z" fill="#E5E5E5"/>
<path d="M471.581 86.926C471.581 77.3025 471.616 67.679 471.547 58.0555C471.547 56.646 471.862 56.2217 473.298 56.2975C475.815 56.4263 478.342 56.4036 480.878 56.2975C482.147 56.2444 482.424 56.6574 482.42 57.8698C482.371 68.6906 482.39 79.5075 482.39 90.3283C482.39 98.944 482.367 107.563 482.42 116.179C482.42 117.456 482.159 117.956 480.772 117.892C478.255 117.778 475.727 117.778 473.211 117.892C471.816 117.956 471.566 117.433 471.57 116.168C471.604 106.427 471.581 96.6631 471.581 86.926Z" fill="#E5E5E5"/>
<path d="M488.882 87.1381C488.882 77.4389 488.912 67.7396 488.844 58.0403C488.844 56.6233 489.17 56.2293 490.591 56.3013C493.107 56.4263 495.639 56.3808 498.17 56.3013C499.182 56.2747 499.561 56.4831 499.557 57.6122C499.525 77.1951 499.525 96.7819 499.557 116.372C499.557 117.482 499.349 117.926 498.121 117.888C495.601 117.789 493.066 117.748 490.542 117.888C488.969 117.983 488.848 117.312 488.855 116.031C488.901 106.408 488.882 96.773 488.882 87.1381Z" fill="#E5E5E5"/>
<path d="M316.577 118.695C307.19 118.665 299.451 112.724 297.325 103.919C295.051 94.4657 301.217 84.3686 310.923 81.7543C316.732 80.1895 322.25 80.8526 327.469 83.9745C328.606 84.6489 328.606 85.1112 327.954 86.1C326.745 87.9944 325.627 89.976 324.6 91.9878C324.054 93.0525 323.743 93.151 322.743 92.3667C317.96 88.6196 310.119 90.6807 307.69 96.235C304.832 102.767 310.422 110.075 317.801 109.496C319.696 109.348 321.405 108.825 322.845 107.62C323.603 106.984 323.982 106.923 324.497 107.901C325.596 110.02 326.764 112.102 327.999 114.148C328.492 114.971 328.264 115.285 327.541 115.74C324.471 117.668 320.772 118.706 316.577 118.695Z" fill="#E5E5E5"/>
<path d="M516.948 100.179C516.948 105.525 516.907 110.875 516.979 116.221C516.979 117.539 516.641 117.949 515.307 117.896C512.727 117.789 510.138 117.831 507.554 117.896C506.572 117.918 506.083 117.763 506.087 116.592C506.125 105.521 506.125 94.448 506.087 83.3721C506.087 82.3871 506.39 82.0688 507.383 82.0915C510.093 82.1522 512.806 82.1749 515.516 82.0915C516.725 82.0499 516.979 82.4704 516.971 83.6071C516.918 89.1046 516.948 94.6438 516.948 100.179Z" fill="#E5E5E5"/>
<path d="M516.948 65.6217C516.948 67.1372 516.903 68.6527 516.967 70.1682C517.009 71.1192 516.759 71.4943 515.724 71.4678C512.954 71.4034 510.18 71.4109 507.41 71.4678C506.458 71.4867 506.068 71.2594 506.087 70.2288C506.144 67.1486 506.129 64.0683 506.087 60.988C506.087 60.1279 506.303 59.7604 507.251 59.7794C510.081 59.8362 512.935 59.8476 515.751 59.7794C516.839 59.7529 516.99 60.2265 516.956 61.1244C516.911 62.6058 516.948 64.1137 516.948 65.6217Z" fill="#E5E5E5"/>
</g>
<defs>
<clipPath id="clip0_409_2">
<rect width="606" height="175" fill="white"/>
</clipPath>
</defs>
</svg>
