<svg width="12" height="7" viewBox="0 0 12 7" fill="none" xmlns="http://www.w3.org/2000/svg">
<path fill-rule="evenodd" clip-rule="evenodd" d="M6.82842 6.03438C6.82552 6.03728 6.82552 6.04199 6.82842 6.04489C6.83133 6.0478 6.83133 6.0525 6.82842 6.05541L6.2976 6.58623C6.00153 6.8823 5.52151 6.8823 5.22545 6.58623L0.222051 1.58283C-0.0740169 1.28676 -0.0740168 0.806745 0.222051 0.510677C0.518118 0.214609 0.998139 0.214609 1.29421 0.510677L5.0439 4.26037C5.43443 4.6509 6.06759 4.6509 6.45812 4.26037L10.4964 0.222051C10.7925 -0.0740166 11.2725 -0.0740173 11.5686 0.222051C11.8647 0.518118 11.8647 0.998139 11.5686 1.29421L6.82842 6.03438Z" fill="white"/>
</svg>
