<svg width="39" height="54" viewBox="0 0 39 54" fill="none" xmlns="http://www.w3.org/2000/svg">
<path d="M16.5782 22.5226C19.4845 24.7831 22.7882 26.4722 25.4709 29.0555C29.7681 33.2037 31.8298 38.7926 29.172 44.5554C26.3899 50.5666 19.4845 55.2613 11.5855 53.3735C4.87876 51.7589 0.23374 46.021 0.0101827 39.0907C-0.089176 35.9361 0.531816 32.9801 2.17123 30.2726C2.46931 29.8007 2.44447 29.5274 1.92284 29.2542C1.5254 29.0555 0.879571 28.8816 0.904411 28.4593C0.929251 28.0371 1.59992 27.9625 2.0222 27.739C4.03421 26.6957 6.04622 25.6524 8.05824 24.634C8.33147 24.485 8.57987 24.2863 9.00215 24.2863C8.87795 27.2919 8.75375 30.2726 8.60471 33.3279C7.95888 33.1292 7.48693 32.7566 6.99013 32.4088C6.56786 32.1108 6.3443 32.0859 6.04622 32.5827C2.61835 38.5442 5.152 47.3126 12.8523 48.9769C17.7457 50.045 22.1423 47.3126 24.2537 44.0338C26.688 40.2333 26.2409 36.4329 23.0366 33.005C22.3659 32.2846 21.6455 31.5891 20.9252 30.8936C20.4532 29.279 19.4348 27.9377 18.6896 26.4473C17.9941 25.1557 17.0999 23.9385 16.5782 22.5226Z" fill="#8D8EF9"/>
<path d="M16.5782 22.5227C17.0999 23.9385 17.9941 25.1557 18.6648 26.5218C19.41 28.0122 20.4284 29.3536 20.9003 30.9681C18.938 29.6268 16.926 28.3103 15.0133 26.8944C12.8026 25.2799 10.9893 23.2927 9.69764 20.8584C7.83467 17.3063 7.58627 13.5804 9.25053 9.90411C11.5855 4.66293 15.6095 1.23506 21.2729 0.216631C27.3587 -0.901155 33.4692 2.40252 36.3009 7.91693C38.8843 12.9345 38.6607 17.9025 35.9283 22.7711C35.4067 23.6901 35.5309 24.1124 36.4251 24.485C36.7977 24.634 37.0958 24.9073 37.6174 25.2302C34.8106 26.6709 32.103 28.0619 29.2465 29.5523C29.3707 26.3976 29.4949 23.392 29.6439 20.2126C30.1904 20.5603 30.6375 20.8087 31.0598 21.1068C31.482 21.4049 31.7304 21.3552 32.0037 20.9081C35.1335 15.9401 33.7921 9.30795 28.9484 6.05396C24.9989 3.39611 19.9316 3.94258 16.305 7.3953C14.914 8.7118 13.7465 10.1773 13.0758 12.0155C11.7842 15.5924 12.9516 18.5732 15.3114 21.2558C15.7088 21.703 16.156 22.1004 16.5782 22.5227Z" fill="#51559C"/>
</svg>
