<svg width="11" height="18" viewBox="0 0 11 18" fill="none" xmlns="http://www.w3.org/2000/svg">
<path fill-rule="evenodd" clip-rule="evenodd" d="M8.91034 7.33551C8.91462 7.33979 8.92155 7.33979 8.92583 7.33551C8.93011 7.33124 8.93704 7.33124 8.94132 7.33551L9.80125 8.19545C10.1918 8.58597 10.1918 9.21914 9.80125 9.60966L2.2917 17.1192C1.90117 17.5097 1.26801 17.5097 0.877482 17.1192L0.716913 16.9586C0.326389 16.5681 0.326388 15.935 0.716913 15.5444L6.63619 9.62515C7.02672 9.23463 7.02672 8.60146 6.63619 8.21094L0.292892 1.86764C-0.097632 1.47711 -0.0976315 0.843948 0.292893 0.453423L0.453463 0.292852C0.843987 -0.0976715 1.47715 -0.0976716 1.86768 0.292854L8.91034 7.33551Z" fill="white"/>
</svg>
