<svg width="24" height="22" viewBox="0 0 24 22" fill="none" xmlns="http://www.w3.org/2000/svg">
<path fill-rule="evenodd" clip-rule="evenodd" d="M17.0941 0.0588617C17.5853 -0.0334439 18.0909 -0.0170264 18.575 0.10699C19.0616 0.231591 19.5144 0.461738 19.9015 0.781008C20.2884 1.10028 20.6001 1.5008 20.8141 1.954C21.0279 2.4072 21.1389 2.90192 21.1391 3.40284V4.3648C22.7544 4.58087 24 5.9608 24 7.63089V18.0378C24 19.8579 22.5206 21.3333 20.6957 21.3333H3.30435C1.4794 21.3333 4.96793e-07 19.8579 4.96793e-07 18.0378V8.49811V7.63089V5.84239C-0.000428025 5.04995 0.27638 4.28196 0.782712 3.67124C1.28914 3.0604 1.99343 2.64497 2.77412 2.49659L2.78728 2.49408L17.0941 0.0588617ZM19.7478 3.40328V4.33537H3.30435C2.73032 4.33537 2.19047 4.48136 1.72011 4.73812C1.76141 4.67502 1.8064 4.61402 1.85494 4.55545C2.15361 4.19521 2.56846 3.9497 3.02848 3.86081L17.3344 1.42573L17.3476 1.42324C17.6399 1.36769 17.9409 1.37716 18.229 1.45096C18.5171 1.52478 18.7854 1.6611 19.0147 1.85022C19.244 2.03935 19.4285 2.2766 19.5552 2.54506C19.6819 2.81345 19.7478 3.10663 19.7478 3.40328ZM1.3913 18.0378V8.49811V7.62957C1.39201 6.57646 2.24824 5.72296 3.30435 5.72296H20.6957C21.7522 5.72296 22.6087 6.57717 22.6087 7.63089V18.0378C22.6087 19.0915 21.7522 19.9457 20.6957 19.9457H3.30435C2.24781 19.9457 1.3913 19.0915 1.3913 18.0378ZM17.1207 14.2766C17.4067 14.4671 17.743 14.5688 18.087 14.5688C18.5482 14.5688 18.9906 14.3861 19.3167 14.0608C19.6429 13.7355 19.8261 13.2944 19.8261 12.8344C19.8261 12.4913 19.7241 12.156 19.5331 11.8707C19.3419 11.5855 19.0703 11.3632 18.7526 11.2319C18.4348 11.1006 18.085 11.0663 17.7476 11.1332C17.4104 11.2001 17.1004 11.3653 16.8572 11.6079C16.614 11.8505 16.4484 12.1595 16.3812 12.496C16.3142 12.8324 16.3485 13.1812 16.4803 13.4981C16.6119 13.8151 16.8348 14.086 17.1207 14.2766Z" fill="white"/>
</svg>
