<svg width="15" height="15" viewBox="0 0 15 15" fill="none" xmlns="http://www.w3.org/2000/svg">
<path fill-rule="evenodd" clip-rule="evenodd" d="M4.21875 6.5625V3.75C4.21875 3.49112 4.42862 3.28125 4.6875 3.28125H10.3125C10.5714 3.28125 10.7812 3.49112 10.7812 3.75V6.5625C10.7812 6.82138 10.5714 7.03125 10.3125 7.03125H4.6875C4.42862 7.03125 4.21875 6.82138 4.21875 6.5625ZM9.84375 6.09375H5.15625V4.21875H9.84375V6.09375Z" fill="#009517"/>
<path fill-rule="evenodd" clip-rule="evenodd" d="M11.7188 1.40625C11.7188 1.40625 12.1071 1.40625 12.3817 1.68084C12.3817 1.68084 12.6562 1.95542 12.6562 2.34375V12.6562C12.6562 12.6562 12.6562 13.0446 12.3817 13.3192C12.3817 13.3192 12.1071 13.5938 11.7188 13.5938H3.28125C3.28125 13.5938 2.89292 13.5938 2.61834 13.3192C2.61834 13.3192 2.34375 13.0446 2.34375 12.6562V2.34375C2.34375 2.34375 2.34375 1.95542 2.61834 1.68084C2.61834 1.68084 2.89292 1.40625 3.28125 1.40625H11.7188ZM11.7188 2.34375H3.28125V12.6562H11.7188V2.34375Z" fill="#009517"/>
<path d="M5.85938 8.67188C5.85938 9.06017 5.54455 9.375 5.15625 9.375C4.76795 9.375 4.45312 9.06017 4.45312 8.67188C4.45312 8.28358 4.76795 7.96875 5.15625 7.96875C5.54455 7.96875 5.85938 8.28358 5.85938 8.67188Z" fill="#009517"/>
<path d="M8.20312 8.67188C8.20312 9.06017 7.8883 9.375 7.5 9.375C7.1117 9.375 6.79688 9.06017 6.79688 8.67188C6.79688 8.28358 7.1117 7.96875 7.5 7.96875C7.8883 7.96875 8.20312 8.28358 8.20312 8.67188Z" fill="#009517"/>
<path d="M10.5469 8.67188C10.5469 9.06017 10.232 9.375 9.84375 9.375C9.45545 9.375 9.14062 9.06017 9.14062 8.67188C9.14062 8.28358 9.45545 7.96875 9.84375 7.96875C10.232 7.96875 10.5469 8.28358 10.5469 8.67188Z" fill="#009517"/>
<path d="M5.85938 11.0156C5.85938 11.4039 5.54455 11.7188 5.15625 11.7188C4.76795 11.7188 4.45312 11.4039 4.45312 11.0156C4.45312 10.6273 4.76795 10.3125 5.15625 10.3125C5.54455 10.3125 5.85938 10.6273 5.85938 11.0156Z" fill="#009517"/>
<path d="M8.20312 11.0156C8.20312 11.4039 7.8883 11.7188 7.5 11.7188C7.1117 11.7188 6.79688 11.4039 6.79688 11.0156C6.79688 10.6273 7.1117 10.3125 7.5 10.3125C7.8883 10.3125 8.20312 10.6273 8.20312 11.0156Z" fill="#009517"/>
<path d="M10.5469 11.0156C10.5469 11.4039 10.232 11.7188 9.84375 11.7188C9.45545 11.7188 9.14062 11.4039 9.14062 11.0156C9.14062 10.6273 9.45545 10.3125 9.84375 10.3125C10.232 10.3125 10.5469 10.6273 10.5469 11.0156Z" fill="#009517"/>
</svg>
