<svg width="146" height="141" viewBox="0 0 146 141" fill="none" xmlns="http://www.w3.org/2000/svg">
<path d="M24.875 13C24.875 10.2386 27.1136 8 29.875 8H94.2917L119.083 32.7917V122C119.083 124.761 116.845 127 114.083 127H29.875C27.1136 127 24.875 124.761 24.875 122V13Z" fill="#39A0FD"/>
<path d="M119.083 33.2917C119.285 33.2917 119.468 33.1699 119.545 32.983C119.623 32.7962 119.58 32.5811 119.437 32.4381L94.6451 7.64647C94.5021 7.50347 94.2871 7.46069 94.1002 7.53808C93.9134 7.61547 93.7916 7.79779 93.7916 8.00002V29.7917C93.7916 31.7247 95.3586 33.2917 97.2916 33.2917H119.083Z" fill="#C0DFFA" stroke="white" stroke-linejoin="round"/>
<path d="M12.9313 45.1387C11.3954 45.3516 10.1436 46.5232 9.97671 48.1053C9.42228 53.3606 8.56501 67.0929 12.6334 80.9802C16.7068 94.8846 25.7351 108.985 44.9593 114.833C45.5926 115.026 46.3032 115.026 46.9365 114.833C66.1607 108.985 75.189 94.8846 79.2624 80.9802C83.3308 67.0929 82.4736 53.3606 81.9191 48.1053C81.7522 46.5232 80.5005 45.3516 78.9645 45.1387C75.4487 44.6513 68.5759 43.5834 63.6901 42.104C58.321 40.4783 50.5558 36.9043 47.4781 35.4486C46.508 34.9898 45.3878 34.9898 44.4177 35.4486C41.34 36.9043 33.5748 40.4783 28.2058 42.104C23.32 43.5834 16.4471 44.6513 12.9313 45.1387Z" fill="#C0DFFA" stroke="white"/>
<path fill-rule="evenodd" clip-rule="evenodd" d="M41.2205 102.932C39.652 102.221 38.1963 101.422 36.8455 100.546L49.9147 47.096C51.2644 47.7216 52.8283 48.4222 54.3905 49.0695L41.2205 102.932ZM45.3201 45.6086L32.6757 97.3212C29.4651 94.3793 27.0378 90.9357 25.2112 87.2923L34.2504 50.3241C37.8351 49.0731 42.3674 46.9378 44.5913 45.8568C44.8256 45.7429 45.0704 45.6602 45.3201 45.6086Z" fill="white"/>
<path d="M20.2058 55.4121C20.3288 54.0751 21.3805 53.0671 22.7085 52.8693C25.3847 52.4707 29.9075 51.7055 33.2052 50.6713C36.9042 49.5112 42.1447 47.0459 44.5914 45.8567C45.4484 45.4401 46.4476 45.4401 47.3046 45.8567C49.7513 47.0459 54.9918 49.5112 58.6908 50.6713C61.9885 51.7055 66.5113 52.4707 69.1875 52.8693C70.5155 53.0671 71.5672 54.0751 71.6902 55.4121C72.492 64.1282 73.4818 95.8125 46.8152 104.419C46.2613 104.597 45.6347 104.597 45.0808 104.419C18.4142 95.8125 19.404 64.1282 20.2058 55.4121Z" stroke="#161617" stroke-width="2"/>
</svg>
