<svg width="26" height="27" viewBox="0 0 26 27" fill="none" xmlns="http://www.w3.org/2000/svg">
<path fill-rule="evenodd" clip-rule="evenodd" d="M1 14C0.734783 14 0.48043 13.8946 0.292894 13.7071C0.105357 13.5196 0 13.2652 0 13C0 13 0 10.4141 0.989566 8.02512C0.989566 8.02512 1.97913 5.63609 3.80761 3.80761C3.80761 3.80761 5.63609 1.97913 8.02512 0.989566C8.02512 0.989566 10.4141 2.98023e-08 13 2.98023e-08C13 2.98023e-08 15.5859 0 17.9749 0.989566C17.9749 0.989566 20.3639 1.97913 22.1924 3.80761C22.1924 3.80761 24.0209 5.63609 25.0104 8.02512C25.0104 8.02512 26 10.4141 26 13C26 13.5523 25.5523 14 25 14H1ZM23.1627 8.79048C23.1627 8.79048 23.807 10.3459 23.9555 12H2.0445C2.0445 12 2.19304 10.3459 2.83733 8.79048C2.83733 8.79048 3.67465 6.769 5.22182 5.22182C5.22182 5.22182 6.769 3.67465 8.79048 2.83732C8.79048 2.83732 10.812 2 13 2C13 2 15.188 2 17.2095 2.83733C17.2095 2.83733 19.231 3.67465 20.7782 5.22182C20.7782 5.22182 22.3254 6.769 23.1627 8.79048Z" fill="#FFFFFF"/>
<path d="M13 20.75L1.6 12.2C1.4269 12.0702 1.21637 12 1 12L0.991198 12C0.946818 12.0004 0.902514 12.0038 0.858579 12.0101C0.596028 12.0476 0.35913 12.1878 0.2 12.4C0.0701779 12.5731 0 12.7836 0 13L3.8743e-05 13.0088C0.000429451 13.0532 0.00377411 13.0975 0.0100505 13.1414C0.0475578 13.404 0.187827 13.6409 0.4 13.8L12.4 22.8C12.7556 23.0667 13.2444 23.0667 13.6 22.8L25.6 13.8C25.8518 13.6111 26 13.3148 26 13L25.9999 12.9869C25.9971 12.775 25.9271 12.5695 25.8 12.4C25.6409 12.1878 25.404 12.0476 25.1414 12.01C25.0946 12.0034 25.0473 12 25 12L24.9966 12C24.7814 12.0007 24.5722 12.0709 24.4 12.2L13 20.75Z" fill="#FFFFFF"/>
<path d="M12 22V26C12 26.5523 12.4477 27 13 27C13.5523 27 14 26.5523 14 26V22C14 21.4477 13.5523 21 13 21C12.4477 21 12 21.4477 12 22Z" fill="#FFFFFF"/>
<path d="M11 27H15C15.5523 27 16 26.5523 16 26C16 25.4477 15.5523 25 15 25H11C10.4477 25 10 25.4477 10 26C10 26.5523 10.4477 27 11 27Z" fill="#FFFFFF"/>
<path fill-rule="evenodd" clip-rule="evenodd" d="M18.8742 13.4856L13.8742 22.4856C13.7454 22.7175 13.5297 22.8887 13.2747 22.9615C13.0197 23.0344 12.7462 23.003 12.5144 22.8742C12.3511 22.7835 12.2165 22.6489 12.1258 22.4856L7.12584 13.4856C7.04331 13.3371 7 13.1699 7 13C7 13 7 7.07222 9.66795 3.0703C9.66795 3.0703 10.5189 1.79388 11.5498 0.866081C11.5498 0.866081 12.0903 0.379654 12.4855 0.142507C12.8022 -0.0475024 13.1978 -0.0475024 13.5145 0.142507C13.5145 0.142507 13.9097 0.379653 14.4502 0.866081C14.4502 0.866081 15.4811 1.79388 16.3321 3.0703C16.3321 3.0703 19 7.07223 19 13C19 13.1699 18.9567 13.3371 18.8742 13.4856ZM13 19.9409L16.9986 12.7433C16.9986 12.7433 16.9435 7.59307 14.6679 4.1797C14.6679 4.1797 13.9564 3.11237 13.1123 2.35267C13.1123 2.35267 13.0544 2.30054 13 2.25308C13 2.25308 12.9456 2.30054 12.8877 2.35267C12.8877 2.35267 12.0436 3.11237 11.3321 4.1797C11.3321 4.1797 9.05647 7.59308 9.00137 12.7433L13 19.9409Z" fill="#FFFFFF"/>
</svg>
