<svg xmlns="http://www.w3.org/2000/svg" xmlns:xlink="http://www.w3.org/1999/xlink" width="1000" zoomAndPan="magnify" viewBox="0 0 750 149.999998" height="200" preserveAspectRatio="xMidYMid meet" version="1.0"><defs><g/><clipPath id="45b0033e07"><path d="M 7.171875 20.253906 L 105 20.253906 L 105 83 L 7.171875 83 Z M 7.171875 20.253906 " clip-rule="nonzero"/></clipPath><clipPath id="ba9b1f8116"><path d="M 8.1875 40.800781 L 123.414062 40.800781 L 123.414062 129.703125 L 8.1875 129.703125 Z M 8.1875 40.800781 " clip-rule="nonzero"/></clipPath></defs><g clip-path="url(#45b0033e07)"><path fill="#5fcd4c" d="M 63.867188 50.914062 C 78.363281 45.902344 92.464844 42.757812 104.992188 41.4375 C 94.992188 28.578125 79.378906 20.304688 61.832031 20.304688 C 31.644531 20.304688 7.171875 44.792969 7.171875 75.003906 C 7.171875 77.609375 7.351562 80.167969 7.703125 82.675781 C 19.574219 71.035156 39.683594 59.269531 63.867188 50.914062 " fill-opacity="1" fill-rule="nonzero"/></g><path fill="#5fcd4c" d="M 24.554688 120.949219 C 24.921875 121.050781 25.285156 121.152344 25.65625 121.253906 C 25.460938 121.164062 25.265625 121.070312 25.074219 120.980469 C 24.898438 120.96875 24.726562 120.957031 24.554688 120.949219 " fill-opacity="1" fill-rule="nonzero"/><g clip-path="url(#ba9b1f8116)"><path fill="#f8c34e" d="M 123.414062 40.867188 C 110.578125 42.574219 96.253906 45.96875 81.515625 51.0625 C 72.371094 54.222656 63.761719 57.796875 55.878906 61.628906 L 55.878906 119.226562 L 43.800781 119.226562 L 43.800781 68.019531 C 19.355469 82.117188 4.972656 98.257812 8.933594 109.742188 C 10.78125 115.085938 16.378906 118.769531 24.652344 120.777344 C 17.035156 117.0625 12.375 112.289062 11.707031 106.691406 C 11.421875 104.324219 11.871094 101.933594 12.972656 99.550781 C 16.789062 107.148438 22.328125 113.734375 29.074219 118.796875 L 29.074219 85.171875 C 31.410156 83.304688 33.953125 81.4375 36.6875 79.585938 L 36.6875 119.226562 L 29.65625 119.226562 C 38.683594 125.816406 49.804688 129.703125 61.832031 129.703125 C 92.019531 129.703125 116.492188 105.214844 116.492188 75.003906 C 116.492188 64.128906 113.320312 53.992188 107.851562 45.472656 C 113.199219 43.652344 118.410156 42.113281 123.414062 40.867188 " fill-opacity="1" fill-rule="nonzero"/></g><g fill="#f8c34e" fill-opacity="1"><g transform="translate(131.436488, 122.623486)"><g><path d="M 73.03125 -91.09375 L 73.03125 -75.953125 L 46.734375 -75.953125 L 46.734375 0 L 28.78125 0 L 28.78125 -75.953125 L 2.5 -75.953125 L 2.5 -91.09375 Z M 73.03125 -91.09375 "/></g></g></g><g fill="#f8c34e" fill-opacity="1"><g transform="translate(206.944424, 122.623486)"><g><path d="M 9.90625 0 L 9.90625 -68.734375 L 26.671875 -68.734375 L 26.671875 -58.515625 L 27.984375 -58.265625 C 29.640625 -62.078125 31.816406 -64.875 34.515625 -66.65625 C 37.210938 -68.445312 40.492188 -69.34375 44.359375 -69.34375 C 48.265625 -69.34375 51.238281 -68.679688 53.28125 -67.359375 L 50.34375 -52.46875 L 49.03125 -52.21875 C 47.914062 -52.675781 46.835938 -53.007812 45.796875 -53.21875 C 44.753906 -53.425781 43.488281 -53.53125 42 -53.53125 C 37.175781 -53.53125 33.5 -51.835938 30.96875 -48.453125 C 28.4375 -45.066406 27.171875 -39.632812 27.171875 -32.15625 L 27.171875 0 Z M 9.90625 0 "/></g></g></g><g fill="#f8c34e" fill-opacity="1"><g transform="translate(260.834163, 122.623486)"><g><path d="M 31.46875 1.3125 C 23.738281 1.3125 18.035156 -0.796875 14.359375 -5.015625 C 10.679688 -9.234375 8.84375 -15.285156 8.84375 -23.171875 L 8.84375 -68.734375 L 26.109375 -68.734375 L 26.109375 -25.359375 C 26.109375 -21.160156 27.007812 -18.09375 28.8125 -16.15625 C 30.625 -14.226562 33.421875 -13.265625 37.203125 -13.265625 C 41.972656 -13.265625 45.6875 -14.832031 48.34375 -17.96875 C 51.007812 -21.113281 52.34375 -26.050781 52.34375 -32.78125 L 52.34375 -68.734375 L 69.59375 -68.734375 L 69.59375 0 L 53.03125 0 L 53.03125 -10.09375 L 51.71875 -10.40625 C 49.519531 -6.457031 46.828125 -3.515625 43.640625 -1.578125 C 40.460938 0.347656 36.40625 1.3125 31.46875 1.3125 Z M 31.46875 1.3125 "/></g></g></g><g fill="#f8c34e" fill-opacity="1"><g transform="translate(340.329317, 122.623486)"><g><path d="M 32.15625 1.3125 C 27.457031 1.3125 23.15625 0.757812 19.25 -0.34375 C 15.34375 -1.445312 12.007812 -2.960938 9.25 -4.890625 C 6.488281 -6.816406 4.441406 -9.03125 3.109375 -11.53125 L 12.71875 -21.875 L 14.015625 -21.875 C 16.304688 -18.800781 19.007812 -16.492188 22.125 -14.953125 C 25.238281 -13.421875 28.625 -12.65625 32.28125 -12.65625 C 35.644531 -12.65625 38.175781 -13.253906 39.875 -14.453125 C 41.582031 -15.660156 42.4375 -17.382812 42.4375 -19.625 C 42.4375 -21.375 41.820312 -22.835938 40.59375 -24.015625 C 39.363281 -25.203125 37.378906 -26.128906 34.640625 -26.796875 L 25.546875 -28.96875 C 18.734375 -30.59375 13.757812 -33.078125 10.625 -36.421875 C 7.488281 -39.765625 5.921875 -44.007812 5.921875 -49.15625 C 5.921875 -53.4375 7.007812 -57.15625 9.1875 -60.3125 C 11.375 -63.46875 14.445312 -65.875 18.40625 -67.53125 C 22.375 -69.195312 27 -70.03125 32.28125 -70.03125 C 38.46875 -70.03125 43.59375 -69.132812 47.65625 -67.34375 C 51.726562 -65.5625 54.910156 -63.175781 57.203125 -60.1875 L 47.984375 -50.21875 L 46.734375 -50.21875 C 44.816406 -52.382812 42.664062 -53.960938 40.28125 -54.953125 C 37.894531 -55.953125 35.226562 -56.453125 32.28125 -56.453125 C 25.46875 -56.453125 22.0625 -54.332031 22.0625 -50.09375 C 22.0625 -48.3125 22.691406 -46.859375 23.953125 -45.734375 C 25.222656 -44.609375 27.457031 -43.695312 30.65625 -43 L 39.125 -41.125 C 46.101562 -39.625 51.203125 -37.222656 54.421875 -33.921875 C 57.640625 -30.617188 59.25 -26.1875 59.25 -20.625 C 59.25 -16.257812 58.171875 -12.414062 56.015625 -9.09375 C 53.859375 -5.769531 50.742188 -3.203125 46.671875 -1.390625 C 42.597656 0.410156 37.757812 1.3125 32.15625 1.3125 Z M 32.15625 1.3125 "/></g></g></g><g fill="#f8c34e" fill-opacity="1"><g transform="translate(403.688698, 122.623486)"><g><path d="M 47.421875 -16.390625 L 51.90625 -3.609375 C 50.03125 -2.078125 47.679688 -0.875 44.859375 0 C 42.035156 0.875 38.835938 1.3125 35.265625 1.3125 C 27.828125 1.3125 22.175781 -0.710938 18.3125 -4.765625 C 14.457031 -8.816406 12.53125 -14.707031 12.53125 -22.4375 L 12.53125 -55.078125 L 2.0625 -55.078125 L 2.0625 -68.796875 L 12.53125 -68.796875 L 12.53125 -82.1875 L 29.78125 -84.984375 L 29.78125 -68.796875 L 49.28125 -68.796875 L 49.28125 -55.078125 L 29.78125 -55.078125 L 29.78125 -23.671875 C 29.78125 -20.265625 30.484375 -17.78125 31.890625 -16.21875 C 33.304688 -14.664062 35.367188 -13.890625 38.078125 -13.890625 C 41.148438 -13.890625 43.828125 -14.722656 46.109375 -16.390625 Z M 47.421875 -16.390625 "/></g></g></g><g fill="#5fcd4c" fill-opacity="1"><g transform="translate(465.024651, 117.352007)"><g><path d="M 29.828125 -39.96875 L 29.828125 -15.0625 L 73.28125 -15.0625 L 73.28125 0 L 11.828125 0 L 11.828125 -91.03125 L 72.28125 -91.03125 L 72.28125 -75.96875 L 29.828125 -75.96875 L 29.828125 -54.671875 L 66.9375 -54.671875 L 66.9375 -39.96875 Z M 29.828125 -39.96875 "/></g></g><g transform="translate(543.28856, 117.352007)"><g><path d="M 26.765625 1.3125 C 22.367188 1.3125 18.550781 0.503906 15.3125 -1.109375 C 12.070312 -2.734375 9.582031 -5.113281 7.84375 -8.25 C 6.101562 -11.382812 5.234375 -15.148438 5.234375 -19.546875 C 5.234375 -23.617188 6.101562 -27.035156 7.84375 -29.796875 C 9.582031 -32.554688 12.28125 -34.816406 15.9375 -36.578125 C 19.59375 -38.335938 24.367188 -39.695312 30.265625 -40.65625 C 34.367188 -41.320312 37.488281 -42.046875 39.625 -42.828125 C 41.769531 -43.617188 43.210938 -44.515625 43.953125 -45.515625 C 44.703125 -46.515625 45.078125 -47.78125 45.078125 -49.3125 C 45.078125 -51.507812 44.304688 -53.1875 42.765625 -54.34375 C 41.234375 -55.507812 38.679688 -56.09375 35.109375 -56.09375 C 31.296875 -56.09375 27.664062 -55.242188 24.21875 -53.546875 C 20.769531 -51.847656 17.78125 -49.609375 15.25 -46.828125 L 14.015625 -46.828125 L 6.78125 -57.71875 C 10.269531 -61.582031 14.523438 -64.59375 19.546875 -66.75 C 24.566406 -68.90625 30.046875 -69.984375 35.984375 -69.984375 C 45.078125 -69.984375 51.65625 -68.050781 55.71875 -64.1875 C 59.789062 -60.332031 61.828125 -54.851562 61.828125 -47.75 L 61.828125 -17.9375 C 61.828125 -14.863281 63.175781 -13.328125 65.875 -13.328125 C 66.914062 -13.328125 67.929688 -13.515625 68.921875 -13.890625 L 69.796875 -13.640625 L 71.046875 -1.625 C 70.085938 -1 68.753906 -0.488281 67.046875 -0.09375 C 65.347656 0.300781 63.484375 0.5 61.453125 0.5 C 57.347656 0.5 54.140625 -0.285156 51.828125 -1.859375 C 49.523438 -3.441406 47.878906 -5.914062 46.890625 -9.28125 L 45.578125 -9.40625 C 42.210938 -2.257812 35.941406 1.3125 26.765625 1.3125 Z M 32.25 -11.578125 C 36.238281 -11.578125 39.425781 -12.914062 41.8125 -15.59375 C 44.195312 -18.269531 45.390625 -21.992188 45.390625 -26.765625 L 45.390625 -33.75 L 44.203125 -34 C 43.171875 -33.164062 41.8125 -32.46875 40.125 -31.90625 C 38.445312 -31.34375 36.03125 -30.796875 32.875 -30.265625 C 29.132812 -29.640625 26.445312 -28.566406 24.8125 -27.046875 C 23.175781 -25.535156 22.359375 -23.390625 22.359375 -20.609375 C 22.359375 -17.660156 23.226562 -15.414062 24.96875 -13.875 C 26.707031 -12.34375 29.132812 -11.578125 32.25 -11.578125 Z M 32.25 -11.578125 "/></g></g><g transform="translate(615.699798, 117.352007)"><g><path d="M 9.90625 0 L 9.90625 -68.671875 L 26.65625 -68.671875 L 26.65625 -58.46875 L 27.953125 -58.21875 C 29.617188 -62.03125 31.800781 -64.828125 34.5 -66.609375 C 37.195312 -68.398438 40.472656 -69.296875 44.328125 -69.296875 C 48.234375 -69.296875 51.203125 -68.632812 53.234375 -67.3125 L 50.3125 -52.421875 L 49 -52.171875 C 47.875 -52.628906 46.789062 -52.960938 45.75 -53.171875 C 44.71875 -53.378906 43.457031 -53.484375 41.96875 -53.484375 C 37.15625 -53.484375 33.476562 -51.789062 30.9375 -48.40625 C 28.40625 -45.019531 27.140625 -39.59375 27.140625 -32.125 L 27.140625 0 Z M 9.90625 0 "/></g></g><g transform="translate(669.556824, 117.352007)"><g><path d="M 9.90625 0 L 9.90625 -68.671875 L 26.46875 -68.671875 L 26.46875 -58.59375 L 27.765625 -58.28125 C 32.046875 -66.082031 38.976562 -69.984375 48.5625 -69.984375 C 56.488281 -69.984375 62.3125 -67.820312 66.03125 -63.5 C 69.75 -59.1875 71.609375 -52.898438 71.609375 -44.640625 L 71.609375 0 L 54.359375 0 L 54.359375 -42.53125 C 54.359375 -47.09375 53.441406 -50.378906 51.609375 -52.390625 C 49.785156 -54.410156 46.863281 -55.421875 42.84375 -55.421875 C 37.894531 -55.421875 34.039062 -53.820312 31.28125 -50.625 C 28.519531 -47.425781 27.140625 -42.398438 27.140625 -35.546875 L 27.140625 0 Z M 9.90625 0 "/></g></g></g></svg>