<svg width="30" height="30" viewBox="0 0 30 30" fill="none" xmlns="http://www.w3.org/2000/svg">
<path d="M6.28826 14.3374L6.28791 14.3371C6.1121 14.1613 5.87364 14.0625 5.625 14.0625C5.37636 14.0625 5.1379 14.1613 4.96209 14.3371C4.78627 14.5129 4.6875 14.7514 4.6875 15C4.6875 15.015 4.68786 15.03 4.68858 15.045C4.69978 15.2778 4.79729 15.4981 4.96209 15.6629L4.96244 15.6633L11.5246 22.2254C11.8907 22.5915 12.4843 22.5915 12.8504 22.2254L25.9754 9.10041C26.1512 8.9246 26.25 8.68614 26.25 8.4375C26.25 8.18886 26.1512 7.9504 25.9754 7.77459C25.7996 7.59877 25.5611 7.5 25.3125 7.5C25.0639 7.5 24.8254 7.59877 24.6496 7.77459L12.1875 20.2367L6.28826 14.3374Z" fill="#32CC4A"/>
</svg>
