<svg width="44" height="69" viewBox="0 0 44 69" fill="none" xmlns="http://www.w3.org/2000/svg">
<path d="M15.742 29.1711L18.2403 19.8475L38.6621 25.3195L42.6042 10.6076L-14.0831 -4.58177L-18.0252 10.1302L2.45393 15.6176L-0.0443062 24.9411C-17.4309 21.201 -31.2696 21.3271 -32.4179 25.6125C-33.5662 29.8979 -21.6528 36.9003 -4.71725 42.3808L-12.9628 73.1538L2.82351 77.3837L11.0691 46.6107C28.4536 50.3583 42.2924 50.2322 43.4427 45.9393C44.5929 41.6465 32.6836 34.6292 15.742 29.1711ZM3.9228 41.7084C-14.6549 36.7305 -28.9177 29.7136 -27.9551 26.1213C-27.1264 23.0283 -15.4599 23.3747 -0.513904 26.6366L-3.33563 37.1674C-0.827416 37.9673 1.79524 38.7419 4.50762 39.4687C7.22 40.1955 9.89295 40.8398 12.4507 41.3974L15.2724 30.8665C29.847 35.5146 40.1235 41.0479 39.2948 44.1408C38.351 47.7781 22.5005 46.6863 3.9228 41.7084Z" fill="#4490FE"/>
</svg>
