<svg width="60" height="69" viewBox="0 0 60 69" fill="none" xmlns="http://www.w3.org/2000/svg">
<path d="M52.9714 0H7.02857C3.15429 0 0 3.16936 0 7.0966V53.6724C0 57.5996 3.15429 60.769 7.02857 60.769H45.9086L44.0914 54.3958L48.48 58.4953L52.6286 62.3537L60 68.8991V7.0966C60 3.16936 56.8457 0 52.9714 0ZM39.7371 44.9911C39.7371 44.9911 38.5029 43.5098 37.4743 42.2007C41.9657 40.926 43.68 38.1012 43.68 38.1012C42.2743 39.0313 40.9371 39.6859 39.7371 40.1337C38.0229 40.8572 36.3771 41.3394 34.7657 41.615C31.4743 42.2351 28.4571 42.0629 25.8857 41.5806C23.9314 41.2016 22.2514 40.6505 20.8457 40.0993C20.0571 39.7892 19.2 39.4103 18.3429 38.928C18.24 38.8591 18.1371 38.8246 18.0343 38.7557C17.9657 38.7213 17.9314 38.6868 17.8971 38.6524C17.28 38.3079 16.9371 38.0667 16.9371 38.0667C16.9371 38.0667 18.5829 40.8227 22.9371 42.1318C21.9086 43.4409 20.64 44.9911 20.64 44.9911C13.0629 44.75 10.1829 39.7548 10.1829 39.7548C10.1829 28.662 15.12 19.6707 15.12 19.6707C20.0571 15.9501 24.7543 16.0535 24.7543 16.0535L25.0971 16.4669C18.9257 18.2583 16.08 20.9798 16.08 20.9798C16.08 20.9798 16.8343 20.5664 18.1029 19.9807C21.7714 18.3616 24.6857 17.9138 25.8857 17.8104C26.0914 17.776 26.2629 17.7415 26.4686 17.7415C28.56 17.4659 30.9257 17.397 33.3943 17.6726C36.6514 18.0516 40.1486 19.0161 43.7143 20.9798C43.7143 20.9798 41.0057 18.3961 35.1771 16.6047L35.6571 16.0535C35.6571 16.0535 40.3543 15.9501 45.2914 19.6707C45.2914 19.6707 50.2286 28.662 50.2286 39.7548C50.2286 39.7548 47.3143 44.75 39.7371 44.9911ZM23.7943 28.9032C21.84 28.9032 20.2971 30.6256 20.2971 32.7271C20.2971 34.8285 21.8743 36.551 23.7943 36.551C25.7486 36.551 27.2914 34.8285 27.2914 32.7271C27.3257 30.6256 25.7486 28.9032 23.7943 28.9032ZM36.3086 28.9032C34.3543 28.9032 32.8114 30.6256 32.8114 32.7271C32.8114 34.8285 34.3886 36.551 36.3086 36.551C38.2629 36.551 39.8057 34.8285 39.8057 32.7271C39.8057 30.6256 38.2629 28.9032 36.3086 28.9032Z" fill="#7289DA"/>
</svg>
