<svg version="1.2" xmlns="http://www.w3.org/2000/svg" viewBox="0 0 26 26" width="26" height="26"><style>.s0{fill:none;stroke:#ffffff;stroke-width:.5}.s1{fill:#fdfdfd}</style><path class="s0" d="m13.3 25.1c-6.7 0-12.1-5.4-12.1-12.1c0-6.7 5.4-12.1 12.1-12.1c6.7 0 12.1 5.4 12.1 12.1c0 6.7-5.4 12.1-12.1 12.1z" /><path fill-rule="evenodd" class="s1" d="m19 8q2.6 4 2.4 8.7c-0.1 0.3-0.2 0.5-0.4 0.7q-1.7 1.1-3.6 1.7c-0.1 0.1-0.2 0.1-0.3-0.1q-0.3-0.5-0.6-1c-0.1-0.1-0.2-0.2 0.1-0.3c0.4-0.2 0.7-0.3 1.1-0.6c-0.2-0.2-0.4-0.2-0.6-0.1q-3.9 1.6-7.7-0.1c-0.1 0-0.2-0.1-0.2 0c-0.1 0-0.3 0.1-0.3 0.2c0 0.1 0.1 0.1 0.2 0.2q0.5 0.2 1 0.4c0.1 0 0.1 0.1 0.1 0.2q-0.4 0.6-0.8 1.2q0 0.1-0.2 0q-2.1-0.6-3.9-1.9q-0.1-0.1-0.1-0.2c-0.2-3.3 0.6-6.3 2.4-9q0.1-0.1 0.2-0.2q1.4-0.6 3-0.9q0.2-0.1 0.3 0.1c0.2 0.6 0.5 0.8 1.1 0.7c0.9-0.2 1.8-0.1 2.7 0c0.2 0 0.2 0 0.3-0.2c0.4-0.8 0.2-0.7 1.1-0.5q1.2 0.3 2.4 0.8q0.2 0.1 0.3 0.2zm-8.5 4q-0.3 0-0.6 0.2c-0.9 0.5-1 1.8-0.3 2.6c0.5 0.6 1.3 0.6 1.9 0.1c0.3-0.3 0.5-0.6 0.5-1.1c0.2-0.9-0.5-1.8-1.5-1.8zm5.4 0q-0.1 0-0.3 0.1c-1.1 0.3-1.4 1.7-0.7 2.6c0.5 0.7 1.4 0.7 2 0.2c0.3-0.3 0.5-0.6 0.5-1.1c0.1-0.9-0.5-1.8-1.5-1.8z" /></svg>