<svg version="1.2" xmlns="http://www.w3.org/2000/svg" viewBox="0 0 43 960" width="43" height="960"><defs><linearGradient id="P" gradientUnits="userSpaceOnUse"/><linearGradient id="g1" x1="25.3" y1="50" x2="25.3" y2="909.6" href="#P"><stop offset="0" stop-color="#f3c17d"/><stop offset=".2" stop-color="#e5b87b"/><stop offset=".6" stop-color="#ca822a"/><stop offset=".9" stop-color="#f2be80"/><stop offset="1" stop-color="#f2dfc7"/></linearGradient></defs><style>.s0{fill:#fdcf77}.s1{fill:url(#g1)}</style><path class="s0" d="m39.6 926.4c0.2-0.2 0.5-0.1 0.6 0.1c0.1 0.2 0.1 0.5-0.2 0.6l-12 7.2q-0.1-0.4-0.4-0.8z" /><path class="s0" d="m37.5 923.3c0.2-0.2 0.5-0.2 0.6 0c0.2 0.2 0.1 0.5 0 0.7l-10.7 9.2q-0.2-0.4-0.5-0.7z" /><path class="s0" d="m41.2 929.8c0.2-0.1 0.4 0 0.5 0.2c0.1 0.3 0 0.5-0.2 0.6l-13.1 4.9q-0.1-0.4-0.2-0.8z" /><path class="s0" d="m21.4 915.6c0-0.2 0.2-0.4 0.4-0.4c0.3 0 0.5 0.2 0.5 0.4v14.4q-0.4-0.1-0.8-0.1q-0.1 0-0.1 0z" /><path class="s0" d="m42.1 933.4c0.3 0 0.5 0.1 0.5 0.4c0.1 0.2-0.1 0.5-0.3 0.5l-13.7 2.5q0-0.5-0.1-0.9z" /><path class="s0" d="m34.9 920.6c0.1-0.2 0.4-0.2 0.6 0c0.2 0.1 0.2 0.4 0.1 0.6l-8.9 11q-0.4-0.4-0.7-0.6z" /><path class="s0" d="m25.5 915.6c0.3 0 0.4 0.2 0.4 0.5l-2.4 14.1q-0.4-0.1-0.9-0.2l2.4-14.1c0.1-0.2 0.3-0.4 0.5-0.3z" /><path class="s0" d="m32.5 918.3c0.2 0.1 0.3 0.4 0.1 0.6l-6.9 12.4q-0.3-0.2-0.7-0.5l6.9-12.3c0.1-0.2 0.4-0.3 0.6-0.2z" /><path class="s0" d="m29.1 916.6c0.3 0.1 0.4 0.4 0.3 0.6l-4.8 13.5q-0.3-0.2-0.8-0.4l4.8-13.4c0-0.2 0.3-0.4 0.5-0.3z" /><path class="s0" d="m25.2 943.7l6.9 12.3c0.1 0.2 0 0.5-0.2 0.6c-0.2 0.2-0.5 0.1-0.6-0.1l-6.9-12.4q0.4-0.2 0.8-0.4z" /><path class="s0" d="m24.1 944.2l4.7 13.4c0.1 0.3-0.1 0.5-0.3 0.6c-0.2 0.1-0.5 0-0.5-0.3l-4.8-13.4q0.4-0.1 0.9-0.3z" /><path class="s0" d="m26.2 942.9l8.9 10.9c0.1 0.2 0.1 0.5-0.1 0.7c-0.2 0.1-0.4 0.1-0.6-0.1l-8.9-11q0.4-0.2 0.7-0.5z" /><path class="s0" d="m22.9 944.6l2.4 14c0 0.3-0.2 0.5-0.4 0.6c-0.2 0-0.5-0.2-0.5-0.4l-2.4-14.1q0.4 0 0.9-0.1z" /><path class="s0" d="m28.6 937.2h13.9c0.2 0 0.4 0.2 0.4 0.4c0 0.3-0.2 0.5-0.4 0.5h-13.9q0.1-0.4 0.1-0.8q0-0.1-0.1-0.1z" /><path class="s0" d="m27.1 942l10.5 9.1c0.2 0.2 0.2 0.5 0.1 0.7c-0.2 0.2-0.4 0.2-0.6 0l-10.6-9.2q0.3-0.3 0.6-0.6z" /><path class="s0" d="m28.6 938.5l13.6 2.5c0.2 0 0.4 0.2 0.3 0.5c0 0.2-0.2 0.4-0.5 0.3l-13.6-2.4q0.1-0.5 0.2-0.9z" /><path class="s0" d="m27.8 940.9l11.9 7.1c0.2 0.2 0.3 0.4 0.2 0.7c-0.1 0.2-0.4 0.3-0.6 0.1l-12-7.1q0.2-0.4 0.5-0.8z" /><path class="s0" d="m28.3 939.7l12.9 4.9c0.3 0.1 0.4 0.4 0.3 0.6c-0.1 0.2-0.3 0.3-0.6 0.3l-13-4.9q0.2-0.4 0.4-0.9z" /><path class="s0" d="m3.4 948.2c-0.2 0.2-0.5 0.1-0.6-0.1q-0.1-0.1-0.1-0.2c0-0.2 0.1-0.4 0.3-0.4l12-7.2q0.1 0.4 0.4 0.8z" /><path class="s0" d="m5.5 951.3c-0.2 0.2-0.5 0.2-0.6 0q-0.1-0.2-0.1-0.3q0-0.2 0.1-0.4l10.7-9.2q0.2 0.4 0.5 0.7z" /><path class="s0" d="m1.8 944.8c-0.2 0.1-0.4 0-0.5-0.2q-0.1-0.1-0.1-0.2c0-0.2 0.2-0.4 0.3-0.4l13.1-4.9q0.1 0.4 0.2 0.8z" /><path class="s0" d="m8.1 954c-0.2 0.2-0.4 0.2-0.6 0q-0.2-0.1-0.2-0.3q0-0.2 0.1-0.3l8.9-11q0.3 0.4 0.7 0.6z" /><path class="s0" d="m13.9 958c-0.2-0.1-0.3-0.3-0.3-0.4q0-0.1 0-0.2l4.8-13.5q0.3 0.2 0.8 0.4l-4.8 13.4c0 0.3-0.3 0.4-0.5 0.3z" /><path class="s0" d="m17.5 959c-0.2 0-0.4-0.2-0.4-0.4q0 0 0-0.1l2.4-14.1q0.4 0.1 0.9 0.2l-2.4 14.1c-0.1 0.2-0.3 0.4-0.5 0.3z" /><path class="s0" d="m10.5 956.3c-0.1-0.1-0.2-0.2-0.2-0.4q0-0.1 0.1-0.2l6.9-12.4q0.3 0.2 0.7 0.5l-6.9 12.3c-0.1 0.3-0.4 0.3-0.6 0.2z" /><path class="s0" d="m20.1 930l-2.4-14q0-0.1 0-0.1c0-0.2 0.2-0.4 0.4-0.5c0.2 0 0.5 0.2 0.5 0.4l2.4 14.1q-0.4 0.1-0.9 0.1z" /><path class="s0" d="m0.9 941.2c-0.3 0-0.5-0.1-0.5-0.4q0 0-0.1-0.1c0-0.2 0.2-0.4 0.4-0.4l13.7-2.5q0 0.5 0.1 0.9z" /><path class="s0" d="m21.2 959.4c-0.3 0-0.5-0.2-0.5-0.4v-14.3q0.4 0 0.8 0q0.1 0 0.1 0v14.3c0 0.2-0.2 0.4-0.4 0.4z" /><path class="s0" d="m16.8 931.7l-8.9-10.9q-0.1-0.2-0.1-0.3q0-0.2 0.2-0.4c0.2-0.1 0.4-0.1 0.6 0.1l8.9 11q-0.4 0.2-0.7 0.5z" /><path class="s0" d="m14.3 937.4h-13.8c-0.2 0-0.4-0.2-0.4-0.4c0-0.3 0.2-0.5 0.4-0.5h13.9q-0.1 0.4-0.1 0.8q0 0.1 0 0.1z" /><path class="s0" d="m15.9 932.6l-10.5-9.1q-0.2-0.2-0.2-0.4q0-0.1 0.1-0.3c0.2-0.2 0.4-0.2 0.6 0l10.6 9.2q-0.3 0.3-0.6 0.6z" /><path class="s0" d="m18.9 930.4l-4.7-13.4q0-0.1 0-0.2c0-0.2 0.1-0.3 0.3-0.4c0.2-0.1 0.5 0 0.5 0.3l4.8 13.4q-0.4 0.1-0.9 0.3z" /><path class="s0" d="m17.8 931l-6.9-12.4q0-0.1 0-0.2c0-0.2 0-0.3 0.2-0.4c0.2-0.2 0.5-0.1 0.6 0.1l6.9 12.4q-0.4 0.2-0.8 0.5z" /><path class="s0" d="m14.4 936.1l-13.6-2.4c-0.2-0.1-0.3-0.3-0.3-0.5q0 0 0-0.1c0-0.2 0.2-0.4 0.5-0.3l13.6 2.5q-0.1 0.4-0.2 0.8z" /><path class="s0" d="m14.7 934.9l-12.9-4.9c-0.2-0.1-0.3-0.2-0.3-0.4q0-0.1 0-0.2c0.1-0.2 0.3-0.3 0.5-0.3l13.1 5q-0.2 0.4-0.4 0.8z" /><path class="s0" d="m15.2 933.7l-11.9-7.1c-0.2-0.1-0.2-0.3-0.2-0.4q0-0.1 0-0.3c0.1-0.2 0.4-0.2 0.6-0.1l12 7.1q-0.2 0.4-0.5 0.8z" /><path class="s0" d="m39.6 11.3c0.2-0.2 0.5-0.1 0.6 0.1c0.1 0.2 0.1 0.5-0.2 0.6l-12 7.2q-0.1-0.4-0.4-0.8z" /><path class="s0" d="m37.5 8.2c0.2-0.2 0.5-0.2 0.6 0c0.2 0.2 0.1 0.5 0 0.7l-10.7 9.2q-0.2-0.4-0.5-0.7z" /><path class="s0" d="m41.2 14.7c0.2-0.1 0.4 0 0.5 0.2c0.1 0.3 0 0.5-0.2 0.6l-13.1 4.9q-0.1-0.4-0.2-0.8z" /><path class="s0" d="m21.4 0.5c0-0.2 0.2-0.4 0.4-0.4c0.3 0 0.5 0.2 0.5 0.4v14.3q-0.4 0-0.8 0q-0.1 0-0.1 0z" /><path class="s0" d="m42.1 18.3c0.3 0 0.5 0.1 0.5 0.4c0.1 0.2-0.1 0.5-0.3 0.5l-13.7 2.5q0-0.5-0.1-0.9z" /><path class="s0" d="m34.9 5.5c0.1-0.2 0.4-0.2 0.6 0c0.2 0.1 0.2 0.4 0.1 0.6l-8.9 11q-0.4-0.4-0.7-0.6z" /><path class="s0" d="m25.5 0.5c0.3 0 0.4 0.2 0.4 0.5l-2.4 14.1q-0.4-0.1-0.9-0.2l2.4-14.1c0.1-0.2 0.3-0.4 0.5-0.3z" /><path class="s0" d="m32.5 3.2c0.2 0.1 0.3 0.4 0.1 0.6l-6.9 12.4q-0.3-0.2-0.7-0.5l6.9-12.3c0.1-0.3 0.4-0.3 0.6-0.2z" /><path class="s0" d="m29.1 1.5c0.3 0.1 0.4 0.4 0.3 0.6l-4.8 13.5q-0.3-0.2-0.8-0.4l4.8-13.4c0-0.2 0.3-0.4 0.5-0.3z" /><path class="s0" d="m25.2 28.5l6.9 12.4c0.1 0.2 0 0.5-0.2 0.6c-0.2 0.2-0.5 0.1-0.6-0.1l-6.9-12.4q0.4-0.2 0.8-0.5z" /><path class="s0" d="m24.1 29.1l4.7 13.4c0.1 0.3-0.1 0.5-0.3 0.6c-0.2 0.1-0.5 0-0.5-0.3l-4.8-13.4q0.4-0.1 0.9-0.3z" /><path class="s0" d="m26.2 27.8l8.9 10.9c0.1 0.2 0.1 0.5-0.1 0.7c-0.2 0.1-0.4 0.1-0.6-0.1l-8.9-11q0.4-0.2 0.7-0.5z" /><path class="s0" d="m22.9 29.5l2.4 14c0 0.3-0.2 0.5-0.4 0.6c-0.2 0-0.5-0.2-0.5-0.4l-2.4-14.1q0.4-0.1 0.9-0.1z" /><path class="s0" d="m28.6 22.1h13.9c0.2 0 0.4 0.2 0.4 0.4c0 0.3-0.2 0.5-0.4 0.5h-13.9q0.1-0.4 0.1-0.8q0-0.1-0.1-0.1z" /><path class="s0" d="m27.1 26.9l10.5 9.1c0.2 0.2 0.2 0.5 0.1 0.7c-0.2 0.2-0.4 0.2-0.6 0l-10.6-9.2q0.3-0.3 0.6-0.6z" /><path class="s0" d="m28.6 23.4l13.6 2.5c0.2 0 0.4 0.2 0.3 0.5c0 0.2-0.2 0.4-0.5 0.3l-13.6-2.4q0.1-0.5 0.2-0.9z" /><path class="s0" d="m27.8 25.8l11.9 7.1c0.2 0.2 0.3 0.4 0.2 0.7c-0.1 0.2-0.4 0.2-0.6 0.1l-12-7.1q0.2-0.4 0.5-0.8z" /><path class="s0" d="m28.3 24.6l12.9 4.9c0.3 0.1 0.4 0.3 0.3 0.6c-0.1 0.2-0.3 0.3-0.6 0.3l-13-4.9q0.2-0.5 0.4-0.9z" /><path class="s0" d="m3.4 33.1c-0.2 0.2-0.5 0.1-0.6-0.1q-0.1-0.1-0.1-0.2c0-0.2 0.1-0.4 0.3-0.4l12-7.2q0.1 0.4 0.4 0.8z" /><path class="s0" d="m5.5 36.2c-0.2 0.2-0.5 0.2-0.6 0q-0.1-0.2-0.1-0.3q0-0.2 0.1-0.4l10.7-9.2q0.2 0.4 0.5 0.7z" /><path class="s0" d="m1.8 29.7c-0.2 0.1-0.4 0-0.5-0.2q-0.1-0.1-0.1-0.2c0-0.2 0.2-0.4 0.3-0.4l13.1-4.9q0.1 0.4 0.2 0.8z" /><path class="s0" d="m8.1 38.9c-0.2 0.2-0.4 0.2-0.6 0q-0.2-0.1-0.2-0.3q0-0.2 0.1-0.3l8.9-11q0.3 0.4 0.7 0.6z" /><path class="s0" d="m13.9 42.9c-0.2-0.1-0.3-0.3-0.3-0.4q0-0.1 0-0.2l4.8-13.5q0.3 0.2 0.8 0.4l-4.8 13.4c0 0.3-0.3 0.4-0.5 0.3z" /><path class="s0" d="m17.5 43.9c-0.2 0-0.4-0.2-0.4-0.4q0 0 0-0.1l2.4-14.1q0.4 0.1 0.9 0.2l-2.4 14.1c-0.1 0.2-0.3 0.4-0.5 0.3z" /><path class="s0" d="m10.5 41.2c-0.1-0.1-0.2-0.2-0.2-0.4q0-0.1 0.1-0.2l6.9-12.4q0.3 0.2 0.7 0.5l-6.9 12.3c-0.1 0.3-0.4 0.3-0.6 0.2z" /><path class="s0" d="m20.1 14.9l-2.4-14q0-0.1 0-0.1c0-0.2 0.2-0.4 0.4-0.5c0.2 0 0.5 0.2 0.5 0.4l2.4 14.1q-0.4 0.1-0.9 0.1z" /><path class="s0" d="m0.9 26.1c-0.3 0-0.5-0.1-0.5-0.4q0 0-0.1-0.1c0-0.2 0.2-0.4 0.4-0.4l13.7-2.5q0 0.5 0.1 0.9z" /><path class="s0" d="m21.2 44.3c-0.3 0-0.5-0.2-0.5-0.4v-14.3q0.4 0 0.8 0q0.1 0 0.1 0v14.3c0 0.2-0.2 0.4-0.4 0.4z" /><path class="s0" d="m16.8 16.6l-8.9-10.9q-0.1-0.2-0.1-0.3q0-0.2 0.2-0.4c0.2-0.1 0.4-0.1 0.6 0.1l8.9 11q-0.4 0.2-0.7 0.5z" /><path class="s0" d="m14.3 22.3h-13.8c-0.2 0-0.4-0.2-0.4-0.4c0-0.3 0.2-0.5 0.4-0.5h13.9q-0.1 0.4-0.1 0.8q0 0.1 0 0.1z" /><path class="s0" d="m15.9 17.5l-10.5-9.1q-0.2-0.2-0.2-0.4q0-0.2 0.1-0.3c0.2-0.2 0.4-0.2 0.6 0l10.6 9.2q-0.3 0.3-0.6 0.6z" /><path class="s0" d="m18.9 15.3l-4.7-13.4q0-0.1 0-0.2c0-0.2 0.1-0.3 0.3-0.4c0.2-0.1 0.5 0 0.5 0.3l4.8 13.4q-0.4 0.1-0.9 0.3z" /><path class="s0" d="m17.8 15.9l-6.9-12.4q0-0.1 0-0.2c0-0.2 0-0.4 0.2-0.4c0.2-0.2 0.5-0.1 0.6 0.1l6.9 12.4q-0.4 0.2-0.8 0.5z" /><path class="s0" d="m14.4 21l-13.6-2.4c-0.2-0.1-0.3-0.3-0.3-0.5q0 0 0-0.1c0-0.2 0.2-0.4 0.5-0.3l13.6 2.5q-0.1 0.4-0.2 0.8z" /><path class="s0" d="m14.7 19.8l-12.9-4.9c-0.2-0.1-0.3-0.2-0.3-0.4q0-0.1 0-0.2c0.1-0.2 0.3-0.3 0.5-0.3l13.1 4.9q-0.2 0.5-0.4 0.9z" /><path class="s0" d="m15.2 18.6l-11.9-7.1c-0.2-0.1-0.2-0.3-0.2-0.4q0-0.1 0-0.3c0.1-0.2 0.4-0.2 0.6-0.1l12 7.1q-0.2 0.4-0.5 0.8z" /><path class="s1" d="m22 909.6c-1.2 0-2.2-192.5-2.2-429.8c0-237.4 1-429.8 2.2-429.8c1.3 0 2.3 192.4 2.3 429.8c0 237.3-1 429.8-2.3 429.8z" /></svg>