<svg version="1.2" xmlns="http://www.w3.org/2000/svg" viewBox="0 0 28 28" width="28" height="28"><style>.s0{fill:none;stroke:#ffffff;stroke-width:.5}.s1{fill:#fcfdfe}</style><path class="s0" d="m26.8 14c0 7.2-5.8 13-13 13c-7.1 0-12.9-5.8-12.9-13c0-7.2 5.8-13 12.9-13c7.2 0 13 5.8 13 13z" /><path class="s1" d="m10.9 7.6c0.6 0.1 1.2 0.3 1.7 0.4c0.3 0.1 0.4 0.1 0.4-0.3q0-0.2 0-0.5c0-0.4 0.4-0.7 0.8-0.7c0.4 0 0.8 0.3 0.7 0.7c-0.2 1 0.3 1.6 1.1 2.2c0.8 0.6 1.4 1.4 1.9 2.3c0.7 1.1 0.7 2.2-0.1 3.3c-0.3 0.5-0.7 0.9-1 1.4c-0.4 0.4-0.8 0.6-1.4 0.5c-0.4 0-0.5 0.1-0.5 0.5c0 1 0 1 1 1c0.8 0.1 1.4-0.2 1.9-0.7c0.3-0.4 0.7-0.6 1.2-0.7q1.6-0.5 3.2-1c0.3-0.1 0.4 0 0.4 0.4c0 0.5-0.1 0.7-0.6 0.9c-0.6 0.3-1 0.7-1.4 1.3q-0.5 0.9-1.1 1.7c-0.6 0.8-1.4 1.3-2.4 1.2c-2.2 0-4.5 0-6.7 0c-2.3 0-4.2-1.7-4.5-4.1c-0.1-0.6-0.1-0.6 0.6-0.6q1.6 0 3.1 0c0.3 0 0.5 0 0.5 0.3c0 0.8 0.6 1.3 1.4 1.3q0.8 0 1.6 0c0.2 0 0.3 0 0.3-0.3c0-1.2 0-1.2-1.1-1.2c-0.3 0-0.7 0.2-0.9-0.1c-0.1-0.2 0.2-0.5 0.4-0.7c1.3-1.8 1.4-3.7 0.7-5.7q-0.5-1.2-1-2.4c-0.1-0.1-0.2-0.2-0.2-0.4z" /><path class="s1" d="m8.4 15.3q-0.8-0.1-1.6 0c-0.3 0-0.4-0.1-0.2-0.4q1.7-2.6 3.3-5.3c0.1-0.1 0.3-0.3 0.4 0c0.5 1 0.8 2 0.9 3.2c0 0.9-0.4 1.6-0.8 2.3c-0.1 0.2-0.3 0.2-0.4 0.2q-0.8 0-1.6 0z" /></svg>