<svg version="1.2" xmlns="http://www.w3.org/2000/svg" viewBox="0 0 27 26" width="27" height="26"><style>.s0{fill:none;stroke:#ffffff;stroke-width:.5}.s1{fill:#ffffff}</style><path class="s0" d="m13.7 25.4c-6.8 0-12.4-5.5-12.4-12.4c0-6.9 5.6-12.4 12.4-12.4c6.9 0 12.5 5.5 12.5 12.4c0 6.9-5.6 12.4-12.5 12.4z" /><path class="s1" d="m21.7 9q-0.7 0.9-1.6 1.5q0 0.3 0 0.5q0 0.9-0.2 1.9c-0.4 1.9-1.4 3.7-3 5.1c-1.5 1.3-3.6 2.2-6.2 2.2c-1.8 0-3.6-0.5-5-1.4q0.4 0 0.8 0c1.5 0 2.9-0.5 4-1.4q0 0 0 0c-1.4 0-2.6-1-3-2.2q0 0 0 0q0.3 0 0.6 0q0.4 0 0.9-0.1c-1.1-0.2-2-1-2.5-2c-0.1-0.4-0.2-1.1-0.2-1.2q0 0 0 0q0.7 0.3 1.4 0.4q0.1 0 0.1-0.1c-0.9-0.6-1.5-1.5-1.5-2.6q0.1-0.9 0.5-1.7q0 0 0 0c1.6 2 4.1 3.3 6.8 3.4q-0.1-0.3-0.1-0.7c0-1.8 1.5-3.3 3.3-3.3c1 0 1.8 0.4 2.4 1.1q1.1-0.3 2-0.8c0.1 0 0.1 0.1 0.1 0.1c-0.3 0.7-0.8 1.3-1.4 1.7q0.9-0.1 1.7-0.5c0.1 0 0.1 0.1 0.1 0.1z" /></svg>