<svg width="1728" height="1117" viewBox="0 0 1728 1117" fill="none" xmlns="http://www.w3.org/2000/svg">
<g clip-path="url(#clip0_14_724)">
<rect width="1728" height="1117" fill="white"/>
<rect width="1728" height="1117" fill="#364FCC"/>
<g opacity="0.05">
<path d="M237.016 1181.66C235.433 1150.87 257.035 1122.77 283.214 1106.52C309.392 1090.26 340.146 1083.13 369.602 1073.94C399.059 1064.74 428.999 1052.36 449.084 1028.84C468.42 1006.12 475.988 975.889 490.067 949.645C519.567 894.516 580.482 857.668 643.002 857.14C674.394 856.876 705.126 865.016 735.814 871.66C766.502 878.303 798.334 883.451 829.11 877.247C895.106 864.048 924.233 790.44 950.433 736.456C973.773 688.279 1006.27 637.66 1058.23 624.593C1111.93 611.063 1163.09 637.792 1216.13 637.11C1267.04 636.45 1318.16 615.221 1352.24 576.966C1391.84 532.462 1411.22 467.544 1463.84 439.54C1496.84 421.941 1536.1 423.063 1573.43 421.655C1610.77 420.247 1651.29 414.439 1677.33 387.645C1691.46 373.104 1699.66 353.965 1707.78 335.376C1715.9 316.787 1724.61 297.803 1739.41 283.965C1754.22 270.128 1776.81 262.561 1795.29 270.766V1153.13L237.016 1181.66Z" fill="#F8F9F9"/>
<path d="M309.921 1164.84C322.328 1121.85 369.163 1081.11 413.799 1078.36C458.434 1075.61 509.317 1104.08 550.19 1085.99C587.588 1069.52 597.201 996.634 636.843 986.999C677.914 977.121 739.291 1035.09 781.044 1028.8C840.594 1019.86 878.168 961.26 904.237 906.968C930.305 852.675 957.737 791.761 1013.17 768.266C1054.97 750.535 1103.37 759.027 1146.16 774.492C1188.94 789.957 1229.42 812.109 1273.75 822.031C1318.08 831.952 1369.38 827.156 1401.56 795.06C1446.72 750.029 1438.72 652.751 1496.64 626.045C1550.78 601.076 1609.21 655.743 1673.42 642.61C1721.82 632.71 1728.57 519.417 1774.39 476.322C1800.04 452.233 1852.31 451.133 1883.79 466.884" stroke="#ABB1B1" stroke-width="0.35" stroke-miterlimit="10"/>
<path d="M328.201 1171.17C340.476 1128.56 386.894 1088.19 431.155 1085.38C475.416 1082.56 525.749 1110.85 566.359 1092.92C603.338 1076.6 612.952 1004.36 652.153 994.896C692.851 985.107 753.677 1042.55 795.145 1036.34C854.145 1027.54 891.389 969.4 917.193 915.613C942.998 861.826 970.21 801.418 1025.14 778.121C1066.63 760.522 1114.59 768.97 1156.93 784.303C1199.28 799.636 1239.45 821.591 1283.4 831.402C1327.36 841.214 1378.15 836.572 1410.12 804.806C1454.88 760.17 1446.94 663.75 1504.34 637.286C1557.99 612.538 1615.89 666.72 1679.53 653.697C1727.43 643.908 1734.2 531.538 1779.61 488.905C1805.04 465.036 1856.84 463.959 1888.02 479.556" stroke="#ABB1B1" stroke-width="0.35" stroke-miterlimit="10"/>
<path d="M346.416 1177.48C358.581 1135.27 404.58 1095.25 448.424 1092.57C492.267 1089.89 542.248 1117.8 582.44 1100.05C619.067 1083.86 628.637 1012.27 667.53 1002.9C707.854 993.18 768.13 1050.11 809.158 1043.97C867.652 1035.18 904.544 977.649 930.15 924.324C955.757 871 982.727 811.163 1037.17 788.087C1078.27 770.664 1125.78 779.023 1167.76 794.202C1209.73 809.381 1249.53 831.16 1293.15 840.883C1336.77 850.607 1387.06 845.921 1418.67 814.485C1463.05 770.268 1455.17 674.728 1512.06 648.483C1565.23 623.977 1622.6 677.653 1685.69 664.762C1733.12 655.061 1739.85 543.77 1784.84 501.444C1810.05 477.796 1861.38 476.718 1892.28 492.183" stroke="#ABB1B1" stroke-width="0.35" stroke-miterlimit="10"/>
<path d="M364.741 1183.82C376.796 1142.02 422.378 1102.43 465.935 1099.65C509.492 1096.88 558.879 1124.69 598.719 1107.09C635.017 1091.05 644.454 1020.11 683.04 1010.82C722.989 1001.19 782.738 1057.61 823.391 1051.52C881.336 1042.83 917.985 985.789 943.218 932.948C968.45 880.107 995.289 820.755 1049.25 797.964C1089.97 780.695 1137.07 788.967 1178.65 804.014C1220.22 819.061 1259.69 840.642 1302.85 850.211C1346.01 859.781 1395.93 855.205 1427.25 823.967C1471.25 780.145 1463.42 685.375 1519.78 659.461C1572.47 635.262 1629.33 688.389 1691.83 675.586C1738.84 665.972 1745.51 555.627 1790.1 513.764C1815.07 490.335 1865.93 489.257 1896.55 504.59" stroke="#ABB1B1" stroke-width="0.35" stroke-miterlimit="10"/>
<path d="M383.021 1190.16C394.967 1148.69 440.218 1109.4 483.181 1106.76C526.145 1104.12 575.202 1131.55 614.799 1114.11C650.767 1098.22 660.117 1027.94 698.394 1018.72C737.992 1009.2 797.168 1065.09 837.448 1059.04C894.864 1050.44 931.096 993.928 956.24 941.572C981.385 889.215 1007.83 830.478 1061.28 807.82C1101.63 790.727 1148.29 798.91 1189.51 813.825C1230.74 828.74 1269.79 850.101 1312.57 859.648C1355.36 869.196 1404.77 864.598 1435.77 833.668C1479.32 790.243 1471.6 696.418 1527.46 670.68C1579.66 646.592 1636 699.278 1697.93 686.651C1744.5 677.126 1751.12 567.858 1795.29 526.303C1820.02 503.094 1870.42 502.104 1900.77 517.217" stroke="#ABB1B1" stroke-width="0.35" stroke-miterlimit="10"/>
<path d="M401.414 1196.38C413.249 1155.33 457.995 1116.39 500.65 1113.78C543.305 1111.16 591.9 1138.33 630.992 1121.06C666.608 1105.31 675.891 1035.68 713.773 1026.46C752.997 1017.03 811.645 1072.4 851.529 1066.41C908.417 1057.88 944.319 1001.89 969.177 950.041C994.036 898.19 1020.3 840.047 1073.25 817.521C1113.22 800.56 1159.47 808.721 1200.3 823.46C1241.12 838.2 1279.84 859.406 1322.21 868.866C1364.58 878.325 1413.57 873.771 1444.33 843.127C1487.47 800.098 1479.83 707.154 1535.16 681.635C1586.88 657.789 1642.69 710.013 1704.04 697.452C1750.24 688.015 1756.73 579.693 1800.51 538.6C1825.01 515.589 1874.95 514.555 1905.02 529.58" stroke="#ABB1B1" stroke-width="0.35" stroke-miterlimit="10"/>
<path d="M419.562 1202.81C431.288 1162.13 475.615 1123.61 517.874 1120.95C560.134 1118.29 608.289 1145.28 647.007 1128.19C682.204 1112.59 691.488 1043.6 729.018 1034.56C767.867 1025.19 825.966 1080.05 865.409 1074.16C921.77 1065.71 957.32 1010.23 982.002 958.863C1006.68 907.496 1032.6 849.815 1085.09 827.575C1124.69 810.79 1170.51 818.775 1210.94 833.47C1251.38 848.165 1289.74 869.086 1331.71 878.457C1373.69 887.829 1422.24 883.319 1452.71 852.939C1495.47 810.328 1487.91 718.241 1542.7 692.965C1593.94 669.338 1649.22 721.079 1710.03 708.65C1755.74 699.3 1762.21 592.057 1805.57 551.271C1829.76 528.481 1879.33 527.447 1909.11 542.34" stroke="#ABB1B1" stroke-width="0.35" stroke-miterlimit="10"/>
<path d="M437.843 1209.14C449.458 1168.84 493.367 1130.63 535.231 1128.05C577.094 1125.48 624.765 1152.25 663.131 1135.2C698.087 1119.8 707.128 1051.43 744.372 1042.48C782.848 1033.2 840.396 1087.55 879.554 1081.68C935.386 1073.3 970.606 1018.37 995.003 967.464C1019.4 916.559 1045.16 859.451 1097.14 837.43C1136.37 820.799 1181.73 828.762 1221.79 843.26C1261.85 857.757 1299.86 878.457 1341.44 887.829C1383.02 897.2 1431.08 892.625 1461.26 862.552C1503.61 820.337 1496.09 729.131 1550.4 704.162C1601.15 680.777 1656 732.012 1716.14 719.693C1761.41 710.432 1767.84 604.134 1810.73 563.811C1834.78 541.24 1883.77 540.206 1913.27 555.011" stroke="#ABB1B1" stroke-width="0.35" stroke-miterlimit="10"/>
<path d="M456.124 1215.45C467.607 1175.55 511.121 1137.71 552.566 1135.16C594.012 1132.61 641.199 1158.98 679.256 1142.24C713.882 1126.84 722.902 1059.26 759.727 1050.4C797.851 1041.2 854.85 1095.03 893.633 1089.23C948.916 1080.93 983.828 1026.51 1008.03 976.087C1032.22 925.666 1057.7 869.108 1109.22 847.285C1148.07 830.83 1193.01 838.706 1232.7 853.071C1272.38 867.436 1309.96 888.005 1351.1 897.2C1392.23 906.396 1439.9 901.974 1469.78 872.166C1511.73 830.368 1504.29 740.02 1558.08 715.227C1608.35 692.041 1662.6 742.814 1722.23 730.626C1767.09 721.453 1773.45 616.233 1815.99 576.218C1839.82 553.867 1888.35 552.833 1917.56 567.418" stroke="#ABB1B1" stroke-width="0.35" stroke-miterlimit="10"/>
<path d="M474.383 1221.79C485.778 1182.19 528.851 1144.79 569.923 1142.27C610.994 1139.74 657.764 1165.89 695.315 1149.26C729.611 1134.1 738.543 1067.1 774.994 1058.3C812.766 1049.21 869.215 1102.51 907.624 1096.75C962.379 1088.54 996.939 1034.65 1020.87 984.711C1044.81 934.774 1070.08 878.765 1121.06 857.118C1159.53 840.795 1204.03 848.627 1243.35 862.838C1282.66 877.049 1319.92 897.442 1360.71 906.549C1401.49 915.657 1448.7 911.279 1478.25 881.757C1519.78 840.356 1512.41 750.887 1565.69 726.314C1615.47 703.348 1669.2 753.637 1728.26 741.56C1772.7 732.452 1778.99 628.178 1821.12 588.625C1844.72 566.494 1892.79 565.482 1921.72 579.957" stroke="#ABB1B1" stroke-width="0.35" stroke-miterlimit="10"/>
<path d="M492.663 1228.1C503.948 1188.97 546.604 1151.86 587.257 1149.35C627.911 1146.84 674.196 1172.78 711.594 1156.3C745.56 1141.3 754.403 1074.91 790.503 1066.22C827.901 1057.22 883.799 1109.99 921.835 1104.3C976.062 1096.18 1010.29 1042.7 1034.03 993.356C1057.76 944.013 1082.76 888.423 1133.24 867.018C1171.37 850.871 1215.43 858.614 1254.23 872.693C1293.04 886.773 1330.06 906.967 1370.45 915.987C1410.84 925.006 1457.55 920.651 1486.87 891.436C1528.01 850.431 1520.7 761.82 1573.46 737.446C1622.76 714.721 1675.97 764.504 1734.44 752.537C1778.44 743.539 1784.69 640.344 1826.4 601.098C1849.76 579.099 1897.37 578.175 1926.03 592.519" stroke="#ABB1B1" stroke-width="0.35" stroke-miterlimit="10"/>
<path d="M510.924 1234.44C522.099 1195.68 564.337 1158.94 604.616 1156.45C644.896 1153.97 690.741 1179.64 727.655 1163.34C761.269 1148.47 770.024 1082.74 805.772 1074.14C842.796 1065.2 898.166 1117.49 935.828 1111.84C989.527 1103.79 1023.4 1050.93 1046.88 1001.98C1070.35 953.032 1095.12 898.08 1145.12 876.895C1182.85 860.902 1226.52 868.558 1265.02 882.505C1303.51 896.452 1340.1 916.449 1380.11 925.358C1420.13 934.268 1466.35 930 1495.36 901.05C1536.11 860.462 1528.87 772.709 1581.16 748.643C1629.97 726.116 1682.66 775.415 1740.58 763.58C1784.14 754.671 1790.3 652.421 1831.64 613.615C1854.76 591.903 1901.9 590.913 1930.28 605.124" stroke="#ABB1B1" stroke-width="0.35" stroke-miterlimit="10"/>
<path d="M529.204 1240.78C540.203 1202.39 582.001 1165.98 621.95 1163.56C661.9 1161.14 707.239 1186.5 743.779 1170.36C777.063 1155.64 785.73 1090.57 821.126 1082.05C857.798 1073.26 912.597 1124.97 949.884 1119.45C1003.06 1111.47 1036.6 1059.15 1059.88 1010.67C1083.15 962.184 1107.66 907.804 1157.16 886.817C1194.55 870.978 1237.71 878.589 1275.95 892.382C1314.18 906.176 1350.28 925.974 1389.88 934.818C1429.48 943.661 1475.26 939.394 1504.01 910.751C1544.33 870.56 1537.18 783.687 1588.9 759.841C1637.3 737.556 1689.39 786.349 1746.74 774.624C1789.86 765.824 1795.97 664.63 1836.94 626.177C1859.84 604.662 1906.5 603.694 1934.61 617.751" stroke="#ABB1B1" stroke-width="0.35" stroke-miterlimit="10"/>
<path d="M547.482 1247.09C558.482 1209.1 599.817 1173.09 639.305 1170.64C678.792 1168.2 723.736 1193.37 759.901 1177.4C792.899 1162.83 801.457 1098.4 836.479 1089.95C872.777 1081.15 927.025 1132.45 964.071 1126.93C1016.69 1119.03 1049.87 1067.23 1072.92 1019.14C1095.97 971.05 1120.22 917.307 1169.21 896.54C1206.19 880.855 1248.98 888.379 1286.75 902.04C1324.52 915.701 1360.33 935.302 1399.56 944.057C1438.78 952.813 1483.97 948.677 1512.34 920.321C1552.27 880.503 1545.19 794.51 1596.4 770.906C1644.25 748.907 1695.88 797.172 1752.59 785.557C1795.29 776.757 1801.34 676.598 1841.84 638.584C1864.52 617.289 1910.72 616.321 1938.52 630.224" stroke="#ABB1B1" stroke-width="0.35" stroke-miterlimit="10"/>
<path d="M565.744 1253.42C576.589 1215.81 617.573 1180.15 656.643 1177.75C695.712 1175.35 740.238 1200.25 776.029 1184.35C808.653 1169.98 817.189 1106.19 851.837 1097.87C887.761 1089.23 941.481 1139.93 978.021 1134.46C1030.11 1126.65 1063 1075.37 1085.81 1027.87C1108.63 980.377 1132.63 927.052 1181.13 906.506C1217.74 890.975 1260.09 898.41 1297.49 911.939C1334.88 925.468 1370.35 944.937 1409.15 953.539C1447.96 962.14 1492.75 957.938 1520.99 929.934C1560.59 890.535 1553.51 805.422 1604.19 782.037C1651.55 760.193 1702.68 808.04 1758.86 796.534C1801.14 787.889 1807.13 688.741 1847.21 651.057C1869.67 629.982 1915.41 629.059 1942.93 642.786" stroke="#ABB1B1" stroke-width="0.35" stroke-miterlimit="10"/>
<path d="M584.002 1259.74C594.737 1222.52 635.303 1187.14 673.954 1184.94C712.606 1182.74 756.691 1207.21 792.131 1191.54C824.425 1177.27 832.851 1114.15 867.169 1105.88C902.74 1097.3 955.889 1147.52 992.055 1142.09C1043.64 1134.37 1076.18 1083.59 1098.73 1036.5C1121.28 989.397 1145.06 936.71 1193.06 916.361C1229.31 900.962 1271.22 908.375 1308.22 921.751C1345.22 935.126 1380.35 954.397 1418.76 962.91C1457.17 971.424 1501.59 967.31 1529.46 939.57C1568.6 900.566 1561.64 816.377 1611.82 793.19C1658.7 771.566 1709.3 818.907 1764.93 807.534C1806.73 798.976 1812.69 700.774 1852.38 663.53C1874.6 642.654 1919.85 641.708 1947.1 655.347" stroke="#ABB1B1" stroke-width="0.35" stroke-miterlimit="10"/>
<path d="M602.306 1266.07C612.909 1229.23 653.057 1194.31 691.334 1191.96C729.612 1189.61 773.191 1213.98 808.389 1198.58C840.353 1184.46 848.691 1121.98 882.657 1113.8C917.854 1105.31 970.453 1155 1006.27 1149.63C1057.3 1141.98 1089.51 1091.73 1111.86 1045.21C1134.21 998.68 1157.73 946.455 1205.24 926.414C1241.1 911.191 1282.57 918.495 1319.2 931.738C1355.83 944.981 1390.58 963.988 1428.6 972.48C1466.61 980.971 1510.56 976.879 1538.15 949.381C1576.87 910.773 1570 827.398 1619.55 804.498C1665.96 783.093 1716.03 829.95 1771.09 818.687C1812.5 810.217 1818.37 713.093 1857.64 676.18C1879.64 655.523 1924.42 654.599 1951.4 668.084" stroke="#ABB1B1" stroke-width="0.35" stroke-miterlimit="10"/>
<path d="M620.563 1272.41C631.079 1235.94 670.808 1201.38 708.668 1199.04C746.528 1196.71 789.689 1220.87 824.403 1205.51C856.037 1191.54 864.287 1129.73 897.901 1121.61C932.724 1113.23 984.795 1162.39 1020.21 1157.09C1070.81 1149.5 1102.6 1099.9 1124.66 1053.7C1146.73 1007.5 1170.05 955.98 1217.06 936.05C1252.54 921.003 1293.59 928.218 1329.84 941.329C1366.1 954.44 1400.46 973.249 1438.08 981.653C1475.7 990.056 1519.19 986.053 1546.51 958.774C1584.81 920.585 1578.01 838.068 1627.13 815.409C1673.07 794.246 1722.63 840.619 1777.1 829.466C1818.06 821.085 1823.87 724.907 1862.74 688.433C1884.5 667.996 1928.74 667.072 1955.53 680.425" stroke="#ABB1B1" stroke-width="0.35" stroke-miterlimit="10"/>
<path d="M638.844 1278.72C649.249 1242.64 688.539 1208.46 726.024 1206.13C763.51 1203.8 806.188 1227.71 840.527 1212.53C871.831 1198.69 879.993 1137.54 913.255 1129.51C947.705 1121.21 999.226 1169.85 1034.25 1164.7C1084.21 1157.2 1115.75 1108.01 1137.64 1062.45C1159.53 1016.89 1182.54 965.66 1229.07 946.037C1264.27 931.144 1304.81 938.272 1340.67 951.251C1376.52 964.23 1410.53 982.841 1447.78 991.156C1485.02 999.472 1528.03 995.446 1555.04 968.52C1592.95 930.726 1586.24 849.067 1634.83 826.65C1680.28 805.708 1729.43 851.597 1783.21 840.554C1823.76 832.26 1829.41 737.16 1867.95 701.016C1889.49 680.799 1933.35 679.875 1959.78 693.097" stroke="#ABB1B1" stroke-width="0.35" stroke-miterlimit="10"/>
<path d="M657.126 1285.06C667.399 1249.35 706.293 1215.52 743.361 1213.25C780.428 1210.99 822.688 1234.59 856.654 1219.59C887.628 1205.91 895.701 1145.37 928.611 1137.45C962.709 1129.24 1013.66 1177.37 1048.35 1172.16C1097.8 1164.75 1129 1116.09 1150.6 1070.97C1172.2 1025.85 1195.04 975.295 1241.06 955.783C1275.82 941.065 1315.99 948.127 1351.47 960.952C1386.95 973.777 1420.61 992.234 1457.35 1000.46C1494.09 1008.69 1536.76 1004.73 1563.49 978.089C1601 940.691 1594.29 859.912 1642.42 837.738C1687.39 816.993 1735.9 862.398 1789.22 851.487C1829.35 843.281 1835.02 749.127 1873.06 713.423C1894.37 693.427 1937.78 692.503 1963.91 705.592" stroke="#ABB1B1" stroke-width="0.35" stroke-miterlimit="10"/>
<path d="M675.385 1291.39C685.57 1256.06 724.046 1222.6 760.718 1220.34C797.389 1218.07 839.187 1241.46 872.779 1226.61C903.423 1213.08 911.408 1153.2 943.966 1145.37C977.69 1137.23 1028.11 1184.96 1062.41 1179.71C1111.33 1172.38 1142.2 1124.23 1163.6 1079.64C1185.01 1035.04 1207.6 985.041 1253.07 965.704C1287.45 951.119 1327.2 958.115 1362.29 970.83C1397.38 983.545 1430.69 1001.63 1467.14 1009.86C1503.59 1018.08 1545.67 1014.08 1572.12 987.703C1609.14 950.723 1602.54 870.802 1650.19 848.803C1694.67 828.301 1742.58 873.2 1795.38 862.42C1834.98 854.303 1840.68 761.227 1878.32 725.831C1899.39 706.032 1942.31 705.152 1968.16 718.065" stroke="#ABB1B1" stroke-width="0.35" stroke-miterlimit="10"/>
<path d="M693.665 1297.71C703.718 1262.8 741.776 1229.69 778.052 1227.44C814.328 1225.2 855.663 1248.34 888.925 1233.65C919.217 1220.25 927.115 1161.05 959.321 1153.29C992.671 1145.23 1042.54 1192.33 1076.49 1187.25C1124.88 1179.99 1155.37 1132.39 1176.54 1088.26C1197.7 1044.13 1220 994.654 1265.06 975.559C1299.05 961.15 1338.36 968.058 1373.09 980.641C1407.83 993.224 1440.74 1011.2 1476.77 1019.25C1512.81 1027.3 1554.47 1023.41 1580.63 997.25C1617.32 960.666 1610.81 881.625 1657.87 859.912C1701.86 839.63 1749.34 884.111 1801.52 873.376C1840.76 865.346 1846.33 773.216 1883.55 738.282C1904.38 718.703 1946.86 717.823 1972.42 730.604" stroke="#ABB1B1" stroke-width="0.35" stroke-miterlimit="10"/>
<path d="M711.946 1304.04C721.89 1269.51 759.529 1236.75 795.409 1234.55C831.289 1232.35 872.162 1255.21 905.05 1240.67C935.013 1227.47 942.822 1168.86 974.676 1161.18C1007.67 1153.24 1057 1199.81 1090.54 1194.8C1138.39 1187.63 1168.57 1140.53 1189.54 1096.9C1210.5 1053.28 1232.54 1004.31 1277.09 985.437C1310.71 971.181 1349.69 978.023 1383.94 990.452C1418.19 1002.88 1450.84 1020.68 1486.47 1028.62C1522.11 1036.56 1563.34 1032.76 1589.19 1006.97C1625.48 970.786 1619.06 892.58 1665.59 871.154C1709.1 851.091 1756.05 895.022 1807.66 884.353C1846.46 876.411 1851.98 785.359 1888.79 750.733C1909.4 731.374 1951.39 730.494 1976.78 743.143" stroke="#ABB1B1" stroke-width="0.35" stroke-miterlimit="10"/>
<path d="M730.205 1310.36C740.06 1276.22 777.26 1243.83 812.744 1241.66C848.228 1239.48 888.661 1262.07 921.175 1247.7C950.808 1234.51 958.573 1176.69 990.031 1169.1C1022.66 1161.25 1071.43 1207.32 1104.62 1202.32C1151.94 1195.24 1181.77 1148.67 1202.47 1105.53C1223.17 1062.39 1245 1013.97 1289.04 995.292C1322.28 981.213 1360.73 987.967 1394.63 1000.26C1428.53 1012.56 1460.8 1030.14 1496.04 1038.01C1531.29 1045.89 1572.03 1042.08 1597.61 1016.59C1633.51 980.817 1627.13 903.514 1673.16 882.395C1716.18 862.596 1762.6 906 1813.64 895.594C1852.03 887.741 1857.46 797.656 1893.87 763.47C1914.26 744.332 1955.79 743.452 1980.81 755.969" stroke="#ABB1B1" stroke-width="0.35" stroke-miterlimit="10"/>
<path d="M748.485 1316.69C758.209 1282.92 795.013 1250.89 830.1 1248.74C865.188 1246.58 905.182 1268.98 937.3 1254.74C966.602 1241.79 974.236 1184.52 1005.36 1177.02C1037.64 1169.24 1085.86 1214.79 1118.68 1209.87C1165.47 1202.85 1194.97 1156.81 1215.47 1114.15C1235.98 1071.5 1257.51 1023.63 1301.07 1005.17C1333.96 991.222 1371.97 997.91 1405.54 1010.08C1439.11 1022.24 1470.97 1039.62 1505.81 1047.47C1540.66 1055.33 1580.96 1051.5 1606.23 1026.29C1641.74 990.914 1635.45 914.469 1681.03 893.482C1723.58 873.859 1769.49 916.823 1819.93 906.506C1857.9 898.74 1863.27 809.711 1899.28 775.855C1919.43 756.937 1960.5 756.057 1985.23 768.442" stroke="#ABB1B1" stroke-width="0.35" stroke-miterlimit="10"/>
<path d="M766.746 1323.03C776.382 1289.63 812.789 1257.98 847.437 1255.78C882.085 1253.58 921.639 1275.75 953.427 1261.7C982.399 1248.89 989.944 1192.29 1020.72 1184.88C1052.62 1177.18 1100.31 1222.27 1132.74 1217.35C1178.93 1210.42 1208.17 1164.88 1228.41 1122.75C1248.65 1080.62 1269.97 1033.26 1313.02 1014.96C1345.53 1001.19 1383.13 1007.79 1416.41 1019.82C1449.69 1031.85 1481.09 1049.03 1515.54 1056.73C1549.99 1064.43 1589.8 1060.72 1614.82 1035.79C1650.01 1000.81 1643.68 925.226 1688.67 904.482C1730.73 885.101 1776.11 927.558 1826 917.351C1863.51 909.673 1868.83 821.613 1904.43 788.197C1924.36 769.498 1964.95 768.64 1989.41 780.871" stroke="#ABB1B1" stroke-width="0.35" stroke-miterlimit="10"/>
<path d="M785.025 1329.34C794.529 1296.34 830.497 1265.06 864.793 1262.95C899.088 1260.84 938.136 1282.75 969.55 1268.8C998.148 1256.15 1005.65 1200.19 1036.07 1192.84C1067.62 1185.25 1114.74 1229.75 1146.82 1224.96C1192.53 1218.09 1221.37 1173.11 1241.41 1131.42C1261.45 1089.73 1282.5 1042.94 1325 1024.9C1357.12 1011.29 1394.28 1017.82 1427.1 1029.7C1459.92 1041.58 1491.03 1058.58 1525.08 1066.17C1559.14 1073.76 1598.51 1070.11 1623.24 1045.47C1657.91 1010.91 1651.84 936.204 1696.23 915.679C1737.81 896.496 1782.66 938.47 1831.99 928.394C1869.08 920.805 1874.33 833.8 1909.51 800.802C1929.31 782.301 1969.34 781.465 1993.5 793.565" stroke="#ABB1B1" stroke-width="0.35" stroke-miterlimit="10"/>
<path d="M803.305 1335.68C812.698 1303.05 848.248 1272.12 882.126 1270.03C916.004 1267.94 954.721 1289.55 985.674 1275.84C1013.99 1263.32 1021.36 1208.02 1051.43 1200.76C1082.6 1193.26 1129.17 1237.26 1160.87 1232.5C1206.06 1225.73 1234.57 1181.25 1254.34 1140.11C1274.12 1098.97 1294.93 1052.66 1337.01 1034.85C1368.76 1021.38 1405.5 1027.83 1437.92 1039.58C1470.35 1051.32 1501.1 1068.17 1534.72 1075.63C1568.33 1083.09 1607.31 1079.52 1631.71 1055.17C1665.98 1021.01 1659.91 947.159 1703.86 926.898C1744.96 907.957 1789.28 949.447 1838.06 939.459C1874.73 931.958 1879.85 845.921 1914.68 813.275C1934.15 794.994 1973.83 794.158 1997.7 806.104" stroke="#ABB1B1" stroke-width="0.35" stroke-miterlimit="10"/>
<path d="M821.588 1341.99C830.893 1309.76 866.003 1279.21 899.507 1277.14C933.011 1275.07 971.135 1296.43 1001.82 1282.86C1029.81 1270.5 1037.02 1215.83 1066.81 1208.68C1097.61 1201.27 1143.65 1244.73 1174.97 1240.03C1219.63 1233.43 1247.79 1189.43 1267.37 1148.67C1286.95 1107.9 1307.43 1062.19 1349.01 1044.59C1380.4 1031.39 1416.67 1037.66 1448.73 1049.28C1480.78 1060.89 1511.18 1077.48 1544.44 1084.91C1577.7 1092.35 1616.16 1088.76 1640.31 1064.7C1674.19 1030.93 1668.18 957.96 1711.61 937.92C1752.13 919.199 1796.13 960.248 1844.2 950.393C1880.43 942.979 1885.58 857.998 1919.94 825.682C1939.16 807.621 1978.37 806.808 2001.97 818.599" stroke="#ABB1B1" stroke-width="0.35" stroke-miterlimit="10"/>
<path d="M839.846 1348.33C849.019 1316.47 883.733 1286.27 916.841 1284.24C949.949 1282.22 987.633 1303.3 1018.03 1289.9C1045.69 1277.69 1052.88 1223.66 1082.25 1216.6C1112.67 1209.25 1158.17 1252.21 1189.12 1247.57C1233.25 1240.97 1261.08 1197.53 1280.37 1157.38C1299.66 1117.23 1319.97 1072 1361.1 1054.6C1392.12 1041.4 1427.98 1047.76 1459.66 1059.22C1491.34 1070.68 1521.25 1087.09 1554.25 1094.42C1587.25 1101.74 1625.11 1098.22 1648.85 1074.44C1682.33 1041.09 1676.39 968.982 1719.24 949.183C1759.37 930.682 1802.66 971.182 1850.27 961.458C1886.06 954.155 1891.12 870.12 1925.06 838.266C1944.07 820.425 1982.81 819.611 2006.13 831.27" stroke="#ABB1B1" stroke-width="0.35" stroke-miterlimit="10"/>
<path d="M858.126 1354.77C867.189 1323.29 901.485 1293.46 934.175 1291.46C966.865 1289.46 1004.11 1310.27 1034.05 1297.03C1061.37 1284.97 1068.48 1231.6 1097.49 1224.61C1127.57 1217.37 1172.49 1259.8 1203.09 1255.23C1246.69 1248.63 1274.19 1205.78 1293.28 1166.05C1312.38 1126.32 1332.46 1081.68 1373.03 1064.48C1403.67 1051.5 1439.02 1057.72 1470.39 1069.05C1501.76 1080.38 1531.35 1096.6 1563.82 1103.83C1596.29 1111.07 1633.84 1107.6 1657.4 1084.03C1690.4 1051.04 1684.59 979.849 1727.01 960.292C1766.6 942.011 1809.41 982.027 1856.45 972.414C1891.8 965.176 1896.81 882.219 1930.36 850.673C1949.15 833.074 1987.4 832.238 2010.46 843.765" stroke="#ABB1B1" stroke-width="0.35" stroke-miterlimit="10"/>
<path d="M876.387 1360.98C885.362 1329.89 919.218 1300.44 951.512 1298.43C983.806 1296.43 1020.59 1317.02 1050.2 1303.96C1077.17 1292.03 1084.19 1239.32 1112.85 1232.42C1142.55 1225.27 1186.94 1267.2 1217.15 1262.66C1260.2 1256.2 1287.37 1213.83 1306.2 1174.67C1325.03 1135.51 1344.89 1091.34 1385 1074.36C1415.24 1061.53 1450.24 1067.76 1481.15 1078.76C1512.06 1089.75 1541.36 1105.95 1573.44 1113.12C1605.51 1120.29 1642.6 1116.83 1665.83 1093.63C1698.5 1061.05 1692.71 990.695 1734.6 971.38C1773.76 953.319 1815.99 992.872 1862.45 983.369C1897.39 976.219 1902.34 894.208 1935.47 863.102C1954.03 845.679 1991.83 844.887 2014.66 856.283" stroke="#ABB1B1" stroke-width="0.35" stroke-miterlimit="10"/>
<path d="M894.666 1367.31C903.465 1336.51 936.969 1307.5 968.868 1305.54C1000.77 1303.58 1037.06 1323.91 1066.32 1310.99C1092.96 1299.23 1099.89 1247.2 1128.2 1240.34C1157.53 1233.27 1201.37 1274.68 1231.2 1270.21C1273.75 1263.83 1300.56 1221.97 1319.2 1183.18C1337.83 1144.4 1357.41 1100.89 1397.01 1084.19C1426.88 1071.52 1461.46 1077.59 1491.97 1088.59C1522.49 1099.59 1551.37 1115.45 1583.14 1122.53C1614.9 1129.62 1651.44 1126.18 1674.43 1103.26C1706.7 1071.1 1700.96 1001.61 1742.34 982.533C1781.01 964.714 1822.75 1003.76 1868.61 994.368C1903.13 987.307 1908.01 906.374 1940.75 875.576C1959.07 858.373 1996.4 857.603 2018.86 868.844" stroke="#ABB1B1" stroke-width="0.35" stroke-miterlimit="10"/>
<path d="M912.948 1373.65C921.748 1343.31 954.746 1314.58 986.204 1312.64C1017.66 1310.71 1053.59 1330.77 1082.45 1318.01C1108.85 1306.4 1115.6 1254.99 1143.56 1248.25C1172.51 1241.28 1215.8 1282.18 1245.28 1277.78C1287.28 1271.49 1313.76 1230.15 1332.13 1191.85C1350.5 1153.55 1369.88 1110.59 1408.95 1093.98C1438.47 1081.46 1472.59 1087.38 1502.73 1098.38C1532.87 1109.38 1561.47 1124.91 1592.75 1131.88C1624.03 1138.86 1660.22 1135.51 1682.95 1112.88C1714.73 1081.11 1709.15 1012.5 1749.93 993.642C1788.12 976.043 1829.32 1014.61 1874.62 1005.35C1908.7 998.372 1913.54 918.385 1945.85 888.049C1963.93 871.066 2000.85 870.296 2023 881.449" stroke="#ABB1B1" stroke-width="0.35" stroke-miterlimit="10"/>
<path d="M1292.16 8.45459C1285.39 48.8881 1247.04 90.9275 1206.68 98.1211C1166.31 105.315 1116.99 84.7679 1081.64 105.535C1049.41 124.454 1048.22 191.857 1013.13 204.705C976.789 218.036 914.797 171.707 877.422 181.804C824.141 196.213 796.026 253.52 778.12 305.7C760.213 357.881 741.514 416.222 693.513 443.456C657.281 464.025 612.316 461.363 571.772 451.772C531.229 442.18 492.005 426.297 450.582 422.029C409.158 417.762 362.961 427.419 337.025 460.021C300.639 505.778 318.172 593.531 268.235 623.933C221.554 652.377 162.641 608.732 105.445 627.453C62.6353 641.444 68.267 745.41 31.0672 789.407C10.2345 814.023 -37.1286 820.513 -67.5527 809.492" stroke="#ABB1B1" stroke-width="0.35" stroke-miterlimit="10"/>
<path d="M1273.73 4.38477C1267.13 44.4443 1229.05 86.0658 1189.05 93.2153C1149.06 100.365 1100.22 80.0162 1065.2 100.541C1033.28 119.284 1032.2 186.05 997.38 198.787C961.368 211.986 899.97 166.097 862.946 176.106C810.149 190.361 782.409 247.118 764.59 298.815C746.771 350.512 728.336 408.28 680.775 435.207C644.895 455.577 600.37 452.959 560.2 443.456C520.031 433.953 481.181 418.202 440.154 413.89C399.126 409.578 353.369 419.235 327.675 451.53C291.641 496.847 308.998 583.741 259.479 613.88C213.282 642.038 154.853 598.811 98.3168 617.355C55.8374 631.347 61.469 734.41 24.6433 777.88C4.00855 802.276 -43.0246 808.678 -73.0527 797.788" stroke="#ABB1B1" stroke-width="0.35" stroke-miterlimit="10"/>
<path d="M1255.31 0.292969C1248.71 39.8905 1211.05 81.204 1171.45 88.2876C1131.86 95.3712 1083.46 75.0884 1048.79 95.5471C1017.18 114.114 1016.01 180.242 981.606 192.847C945.946 206.046 885.141 160.487 848.47 170.387C796.201 184.51 768.703 240.782 751.038 291.907C733.373 343.032 715.136 400.361 668.059 427.067C632.509 447.218 588.402 444.666 548.628 435.206C508.854 425.747 470.379 410.216 429.835 405.948C389.292 401.68 343.887 411.228 318.456 443.214C282.62 488.025 299.845 574.15 250.854 603.98C205.075 631.874 147.241 589.065 91.232 607.434C49.1045 621.249 54.6922 723.235 18.1964 766.374C-2.24032 790.573 -48.8115 796.908 -78.5977 786.173" stroke="#ABB1B1" stroke-width="0.35" stroke-miterlimit="10"/>
<path d="M1236.9 -3.79883C1230.32 35.5128 1193.06 76.3423 1153.77 83.2499C1114.48 90.1574 1066.65 70.2926 1032.31 90.4654C1000.99 108.856 999.865 174.324 965.767 186.82C930.525 199.843 870.292 154.811 833.995 164.645C782.232 178.636 754.998 234.315 737.509 285C720.02 335.684 701.959 392.397 655.322 418.839C620.124 438.814 576.434 436.24 537.057 426.913C497.679 417.585 459.556 402.23 419.298 397.831C379.04 393.431 334.185 403.066 308.997 434.744C273.645 479.182 290.672 564.426 242.165 593.971C196.826 621.667 139.629 579.276 84.0825 597.468C42.373 611.218 47.8947 712.147 11.7729 754.869C-8.46587 778.803 -54.597 785.117 -84.0312 774.404" stroke="#ABB1B1" stroke-width="0.35" stroke-miterlimit="10"/>
<path d="M1218.47 -7.86865C1211.98 31.025 1175.06 71.4585 1136.17 78.3881C1097.27 85.3177 1049.96 65.6509 1015.95 85.4496C984.949 103.665 983.828 168.495 949.95 180.858C914.994 193.683 855.355 149.114 819.41 158.859C768.153 172.696 741.182 227.847 723.869 278.026C706.556 328.205 688.672 384.367 642.474 410.546C607.628 430.345 564.379 427.771 525.376 418.553C486.372 409.336 448.622 394.025 408.783 389.845C368.943 385.665 324.484 395.015 299.537 426.385C264.537 470.382 281.41 554.813 233.365 584.071C188.466 611.416 131.754 569.442 76.8449 587.459C35.6415 601.032 41.1191 701.038 5.4373 743.363C-14.6035 767.056 -60.2727 773.304 -89.4209 762.7" stroke="#ABB1B1" stroke-width="0.35" stroke-miterlimit="10"/>
<path d="M1199.96 -11.96C1193.52 26.5597 1156.98 66.5972 1118.57 73.4388C1080.16 80.2804 1033.15 60.7236 999.468 80.5004C968.78 98.5393 967.658 162.731 934.22 175.095C899.617 187.788 840.572 143.659 804.978 153.272C754.227 166.977 727.521 221.578 710.384 271.273C693.247 320.968 675.516 376.558 629.781 402.495C595.287 422.074 552.456 419.544 513.848 410.414C475.24 401.285 437.865 386.216 398.399 381.97C358.934 377.724 314.936 387.118 290.254 418.158C255.584 461.737 272.281 545.31 224.72 574.348C180.283 601.429 124.12 559.873 69.7392 577.692C28.9097 590.935 34.3214 689.951 -1.16242 731.859C-20.9612 755.309 -66.2344 761.491 -95.0967 750.997" stroke="#ABB1B1" stroke-width="0.35" stroke-miterlimit="10"/>
<path d="M1181.62 -16.052C1175.26 22.0937 1139.09 61.7133 1100.97 68.5108C1062.85 75.3084 1016.41 55.9056 983.058 75.5064C952.678 93.3473 951.578 156.901 918.492 169.023C884.218 181.584 825.745 137.917 790.503 147.42C740.281 160.993 713.838 215.044 696.855 264.255C679.872 313.466 662.339 368.485 617.088 394.157C582.924 413.538 540.511 411.03 502.299 401.988C464.087 392.947 427.064 377.944 387.906 373.852C348.748 369.76 305.301 378.934 280.839 409.666C246.521 452.827 263.042 535.564 215.965 564.251C171.967 591.045 116.377 549.907 62.5239 567.55C22.0244 580.75 27.3261 678.864 -7.67379 720.331C-27.3186 743.562 -72.0859 749.699 -100.662 739.294" stroke="#ABB1B1" stroke-width="0.35" stroke-miterlimit="10"/>
<path d="M1163.21 -20.1436C1156.89 17.6281 1121.1 56.8517 1083.37 63.5613C1045.64 70.2709 999.777 51.1101 966.779 70.4909C936.707 88.0898 935.607 151.072 902.851 163.061C868.907 175.512 811.051 132.263 776.161 141.701C726.422 155.12 700.265 208.642 683.458 257.325C666.651 306.009 649.294 360.521 604.483 385.93C570.649 405.112 528.698 402.649 490.86 393.695C453.022 384.742 416.395 369.893 377.721 365.823C339.047 361.753 295.82 370.861 271.622 401.307C237.656 444.028 254.023 525.907 207.407 554.307C163.85 580.838 108.831 540.118 55.6167 557.585C15.5132 570.784 20.8368 667.776 -13.877 708.826C-33.3238 731.814 -77.6731 737.886 -105.941 727.591" stroke="#ABB1B1" stroke-width="0.35" stroke-miterlimit="10"/>
<path d="M1144.79 -24.2136C1138.55 13.1401 1103.17 51.9897 1065.77 58.6333C1028.38 65.2769 982.926 46.2921 950.258 65.4749C920.472 83.0738 919.46 145.242 886.968 157.121C853.376 169.441 796.114 126.631 761.576 135.959C712.343 149.158 686.429 202.219 669.82 250.352C653.211 298.485 636.008 352.491 591.636 377.636C558.154 396.643 516.621 394.179 479.157 385.335C441.693 376.492 405.462 361.775 367.184 357.749C328.906 353.723 286.229 362.721 262.272 392.947C228.636 435.206 244.827 516.293 198.696 544.386C155.579 570.652 101.11 530.329 48.3575 547.641C8.75989 560.643 13.9296 656.711 -20.4323 697.232C-39.6812 720.001 -83.5465 725.985 -111.551 715.799" stroke="#ABB1B1" stroke-width="0.35" stroke-miterlimit="10"/>
<path d="M1126.36 -28.3054C1120.2 8.67432 1085.11 47.106 1048.17 53.6836C1011.24 60.2612 966.184 41.4523 933.78 60.4592C904.324 77.7721 903.246 139.412 871.15 151.16C837.91 163.347 781.219 120.999 747.056 130.217C698.328 143.416 672.678 195.795 656.223 243.51C639.768 291.225 622.763 344.704 578.876 369.496C545.724 388.283 504.63 385.863 467.541 377.086C430.451 368.308 394.593 353.767 356.711 349.807C318.83 345.848 276.592 354.735 252.878 384.543C219.594 426.341 235.631 506.614 189.962 534.442C147.284 560.423 93.3874 520.517 41.1626 537.654C1.89501 550.523 7.1087 645.601 -26.9012 685.815C-45.9521 708.342 -89.3774 714.281 -117.096 704.206" stroke="#ABB1B1" stroke-width="0.35" stroke-miterlimit="10"/>
<path d="M1107.94 -32.397C1101.83 4.20879 1067.11 42.2445 1030.57 48.7561C994.034 55.2677 949.42 36.6568 917.434 55.4657C888.264 72.5806 887.208 133.583 855.442 145.22C822.554 157.275 766.458 115.346 732.646 124.497C684.425 137.521 659.038 189.393 642.759 236.691C626.48 283.988 609.761 336.718 566.204 361.357C533.404 379.968 492.728 377.548 456.035 368.881C419.341 360.213 383.813 345.716 346.415 341.778C309.017 337.84 267.22 346.662 243.659 376.162C210.661 417.63 226.522 496.979 181.425 524.499C139.122 550.215 85.7751 510.728 34.0342 527.623C-4.83739 540.382 0.310289 634.448 -33.3477 674.266C-52.1785 696.551 -95.1639 702.424 -122.574 692.459" stroke="#ABB1B1" stroke-width="0.35" stroke-miterlimit="10"/>
<path d="M1089.53 -36.489C1083.48 -0.345222 1049.12 37.3605 1012.98 43.8061C976.833 50.2517 932.682 31.8608 901.004 50.4057C872.164 67.3446 871.108 127.709 839.694 139.214C807.136 151.16 751.699 109.67 718.151 118.712C670.458 131.647 645.335 182.97 629.232 229.695C613.129 276.42 596.454 328.689 553.469 353.041C521.021 371.454 480.763 369.078 444.466 360.499C408.168 351.919 373.036 337.664 335.946 333.77C298.857 329.877 257.477 338.588 234.225 367.78C201.667 408.83 217.374 487.321 172.628 514.555C130.831 540.008 78.0341 500.938 26.9312 517.701C-11.5225 530.306 -6.41878 623.405 -39.7247 662.892C-58.3796 684.891 -100.881 690.765 -128.027 680.887" stroke="#ABB1B1" stroke-width="0.35" stroke-miterlimit="10"/>
<path d="M1071.1 -40.5586C1065.11 -4.74478 1031.13 32.4989 995.378 38.8786C959.63 45.2582 915.919 27.0433 884.593 45.4782C855.995 62.2631 855.005 121.967 823.921 133.363C791.715 145.154 736.784 104.127 703.676 113.058C656.489 125.817 631.63 176.59 615.681 222.809C599.732 269.028 583.255 320.747 540.71 344.88C508.614 363.073 468.796 360.741 432.917 352.227C397.037 343.714 362.235 329.657 325.541 325.829C288.847 322.001 247.908 330.603 224.941 359.487C192.691 400.03 208.222 477.774 163.983 504.678C122.626 529.823 70.4007 491.149 19.8038 507.824C-18.2319 520.297 -13.1942 612.406 -46.1922 651.365C-64.627 673.188 -106.688 678.951 -133.549 669.184" stroke="#ABB1B1" stroke-width="0.35" stroke-miterlimit="10"/>
<path d="M1052.68 -44.6504C1046.77 -9.14456 1013.13 27.6372 977.778 33.9288C942.426 40.2204 899.177 22.2255 868.203 40.5284C839.956 57.1154 838.922 116.182 808.168 127.445C776.314 139.126 721.978 98.5169 689.222 107.382C642.518 119.988 617.946 170.232 602.173 215.946C586.4 261.659 570.099 312.74 528.037 336.696C496.271 354.713 456.872 352.381 421.344 343.978C385.816 335.574 351.432 321.627 315.112 317.822C278.793 314.016 238.315 322.551 215.59 351.127C183.626 391.231 199.025 468.028 155.292 494.625C114.375 519.615 62.6338 481.426 12.6749 497.771C-24.9648 510.112 -19.9711 601.164 -52.5731 639.772C-70.832 661.375 -112.431 667.05 -139.006 657.371" stroke="#ABB1B1" stroke-width="0.35" stroke-miterlimit="10"/>
<path d="M1034.27 -48.7419C1028.38 -13.6761 995.158 22.7537 960.181 29.0013C925.203 35.2489 882.437 17.408 851.771 35.4249C823.833 51.8359 822.821 110.22 792.375 121.418C760.873 132.967 707.13 92.8194 674.726 101.619C628.529 114.092 604.22 163.787 588.623 209.016C573.026 254.246 556.901 304.842 515.28 328.447C483.866 346.266 444.884 343.978 409.686 335.663C374.488 327.347 340.588 313.488 304.621 309.836C268.653 306.184 228.681 314.5 206.199 342.834C174.631 382.432 189.832 458.569 146.56 484.923C106.083 509.584 54.9799 471.724 5.48297 487.981C-31.7388 500.191 -26.811 590.319 -59.0611 628.443C-77.1 649.803 -118.259 655.435 -144.548 645.866" stroke="#ABB1B1" stroke-width="0.35" stroke-miterlimit="10"/>
<path d="M1015.83 -52.8337C1010.05 -18.1419 977.161 17.8919 942.535 24.1616C907.909 30.4312 865.583 12.6123 835.335 30.4532C807.705 46.6882 806.737 104.457 776.599 115.5C745.449 126.917 692.278 87.2097 660.248 95.8552C614.557 108.152 590.6 157.297 575.201 202.043C559.802 246.788 543.809 296.813 502.606 320.153C471.544 337.752 433.002 335.553 398.244 327.281C363.486 319.01 329.828 305.436 294.322 301.697C258.817 297.957 219.131 306.316 196.824 334.277C165.608 373.5 180.655 448.67 137.846 474.826C97.8304 499.201 47.3436 461.781 -1.62545 477.84C-38.4292 489.895 -33.5455 579.034 -65.4215 616.761C-83.2845 637.88 -123.982 643.446 -149.984 633.986" stroke="#ABB1B1" stroke-width="0.35" stroke-miterlimit="10"/>
<path d="M997.422 -56.9258C991.68 -22.6299 959.166 13.0079 924.98 19.1236C890.795 25.2392 848.887 7.79427 818.903 25.3932C791.581 41.4522 790.591 98.6487 760.827 109.494C730.028 120.801 677.452 81.5118 645.774 90.0912C600.588 102.278 576.808 150.896 561.563 195.135C546.318 239.374 530.523 288.849 489.825 311.948C459.027 329.371 420.969 327.127 386.607 318.987C352.246 310.848 318.962 297.363 283.83 293.689C248.698 290.015 209.54 298.243 187.542 325.895C156.743 364.7 171.549 439.1 129.223 464.882C89.6256 489.081 39.6666 451.991 -8.75239 467.852C-45.1822 479.797 -40.3424 567.946 -71.8885 605.256C-89.4874 626.133 -129.789 631.654 -155.483 622.305" stroke="#ABB1B1" stroke-width="0.35" stroke-miterlimit="10"/>
<path d="M979.008 -60.9951C973.377 -27.0952 941.171 8.14665 907.381 14.1743C873.591 20.2019 832.145 2.97697 802.491 20.3999C775.477 36.2609 774.487 92.7535 745.075 103.555C714.585 114.73 662.624 75.8805 631.276 84.35C586.618 96.4053 563.08 144.472 548.011 188.206C532.942 231.939 517.323 280.886 477.087 303.721C446.707 320.946 409.023 318.724 375.013 310.694C341.003 302.665 308.137 289.311 273.402 285.66C238.666 282.008 199.948 290.191 178.213 317.514C147.701 355.879 162.396 429.443 120.533 455.027C81.3973 478.874 31.9663 442.29 -15.8588 457.975C-51.8706 469.788 -47.0969 556.969 -78.269 593.839C-95.7359 614.474 -135.465 619.929 -160.962 610.69" stroke="#ABB1B1" stroke-width="0.35" stroke-miterlimit="10"/>
<path d="M960.574 -65.0872C954.986 -31.5612 923.176 3.28467 889.716 9.2463C856.256 15.2079 815.383 -1.75302 786.081 15.3839C759.352 31.069 758.384 86.9235 729.302 97.5929C699.164 108.592 647.797 70.2486 616.801 78.6081C572.65 90.5533 549.397 138.004 534.482 181.298C519.567 224.591 504.146 272.922 464.35 295.493C434.322 312.542 397.057 310.342 363.443 302.4C329.829 294.459 297.315 281.26 262.975 277.652C228.635 274.044 190.379 282.052 168.864 309.132C138.704 347.058 153.223 419.829 111.844 445.018C73.1483 468.578 24.2893 432.412 -23.0518 447.922C-58.6456 459.603 -53.8499 545.771 -84.648 582.113C-101.895 602.528 -141.251 607.918 -166.373 598.788" stroke="#ABB1B1" stroke-width="0.35" stroke-miterlimit="10"/>
<path d="M942.161 -69.1787C936.617 -36.0267 905.181 -1.59884 872.183 4.2968C839.185 10.1924 798.685 -6.70253 769.713 10.3684C743.315 25.8775 742.347 81.0941 713.594 91.7635C683.808 102.763 633.013 64.7271 602.391 72.9986C558.68 84.6799 535.603 131.647 520.952 174.39C506.301 217.134 490.968 264.959 451.635 287.288C421.936 304.116 385.089 301.939 351.871 294.085C318.653 286.232 286.513 273.208 252.569 269.623C218.625 266.037 180.765 274.022 159.514 300.773C129.706 338.17 144.115 410.15 103.154 435.074C64.8321 458.371 16.6111 422.623 -30.1801 437.956C-65.3779 449.484 -60.7142 534.75 -91.1823 570.718C-108.253 590.913 -147.147 596.237 -171.983 587.195" stroke="#ABB1B1" stroke-width="0.35" stroke-miterlimit="10"/>
<path d="M923.726 -73.2708C918.381 -40.5148 887.187 -6.46083 854.585 -0.63119C821.983 5.19845 781.989 -11.4545 753.391 5.37444C727.278 20.7735 726.332 75.2642 697.91 85.6915C668.476 96.4929 618.275 58.9632 587.917 67.1467C544.756 78.806 522.053 125.223 507.49 167.483C492.927 209.742 477.77 257.039 438.81 279.038C409.464 295.691 373.056 293.535 340.212 285.769C307.368 278.004 275.602 265.113 242.054 261.571C208.506 258.029 171.086 265.971 150.078 292.369C120.621 329.415 134.811 400.492 94.3771 425.109C56.5834 448.141 8.82431 412.812 -37.4169 427.969C-72.1967 439.364 -67.577 523.575 -97.7152 559.191C-114.566 579.143 -153.02 584.401 -177.57 575.47" stroke="#ABB1B1" stroke-width="0.35" stroke-miterlimit="10"/>
<path d="M905.313 -77.3401C899.901 -44.9801 869.213 -11.3441 836.985 -5.58048C804.757 0.183173 765.204 -16.2718 736.891 0.359164C711.109 15.5162 710.163 69.435 682.071 79.7523C652.988 90.3997 603.382 53.3539 573.463 61.4054C530.72 72.9327 508.281 118.8 493.806 160.575C479.331 202.351 464.526 249.032 426.094 270.833C397.1 287.288 361.11 285.154 328.662 277.432C296.214 269.711 264.866 257.017 231.648 253.542C198.43 250.066 161.517 257.941 140.772 283.944C111.646 320.572 125.659 390.791 85.7752 415.144C48.3774 437.89 1.23433 402.957 -44.4789 417.96C-78.8408 429.223 -74.2871 512.422 -104.051 547.642C-120.726 567.441 -158.718 572.544 -182.982 563.723" stroke="#ABB1B1" stroke-width="0.35" stroke-miterlimit="10"/>
<path d="M886.901 -81.4319C881.555 -49.4458 851.219 -16.2059 819.387 -10.5082C787.555 -4.81056 748.353 -21.0896 720.393 -4.74457C694.896 10.2365 693.995 63.4513 666.232 73.7026C637.48 84.24 588.445 47.6122 558.901 55.5977C516.751 67.059 494.577 112.398 480.344 153.646C466.11 194.893 451.393 241.046 413.424 262.583C384.825 278.84 349.21 276.75 317.158 269.183C285.106 261.615 254.021 249.032 221.287 245.578C188.553 242.124 151.992 249.846 131.489 275.628C102.715 311.816 116.574 381.222 77.0863 405.266C40.1726 427.749 -6.50858 393.233 -51.6058 408.038C-85.5717 419.192 -81.062 501.401 -110.496 536.202C-126.951 555.671 -164.503 560.819 -188.481 552.085" stroke="#ABB1B1" stroke-width="0.35" stroke-miterlimit="10"/>
<path d="M868.466 -85.5239C863.186 -53.9119 833.268 -21.0679 801.678 -15.4582C770.088 -9.84854 731.59 -25.8856 703.982 -9.67255C678.794 5.13254 677.87 57.7753 650.459 67.8507C622.059 78.2561 573.618 42.0463 544.404 49.9438C502.782 61.1851 480.872 105.974 466.815 146.738C452.757 187.501 438.216 233.105 400.819 254.399C372.506 270.458 337.374 268.39 305.696 260.999C274.018 253.607 243.352 241.068 211.102 237.68C178.852 234.293 142.642 241.882 122.36 267.357C93.9374 303.104 107.621 371.674 68.6169 395.433C31.8352 417.629 -14.142 383.443 -58.7553 398.073C-92.3032 409.072 -87.8595 490.313 -116.92 524.675C-133.199 543.924 -170.288 549.005 -193.915 540.382" stroke="#ABB1B1" stroke-width="0.35" stroke-miterlimit="10"/>
<path d="M850.053 -89.6155C844.84 -58.3994 815.23 -25.9514 784.057 -20.3857C752.885 -14.82 714.828 -30.7031 687.527 -14.6661C662.669 -0.0589517 661.745 51.9459 634.731 61.8893C606.682 72.1846 558.835 36.4148 529.973 44.2903C488.857 55.3997 467.211 99.639 453.33 139.918C439.448 180.198 425.061 225.251 388.016 246.26C360.055 262.121 325.341 260.075 294.059 252.684C262.777 245.292 232.463 232.885 200.499 229.629C168.535 226.373 132.875 233.787 112.856 258.953C84.6322 294.195 98.2493 361.929 59.7077 385.402C23.6739 407.4 -21.8193 373.654 -65.8826 388.107C-99.0346 398.975 -94.6569 479.226 -123.365 513.17C-139.424 532.199 -176.162 537.192 -199.48 528.701" stroke="#ABB1B1" stroke-width="0.35" stroke-miterlimit="10"/>
<path d="M831.64 -93.6855C826.493 -62.8874 797.234 -30.8134 766.458 -25.3357C735.682 -19.8581 698.086 -35.5431 671.138 -19.6821C646.565 -5.25095 645.598 46.1159 618.913 55.9273C591.217 66.0907 543.942 30.7829 515.519 38.4824C474.91 49.4817 453.527 93.149 439.8 132.923C426.073 172.696 411.906 217.199 375.3 237.944C347.692 253.629 313.418 251.605 282.51 244.28C251.602 236.954 221.683 224.855 190.115 221.533C158.547 218.211 123.239 225.647 103.463 250.439C75.8324 285.373 89.0316 352.271 51.0179 375.458C15.4461 397.126 -29.4972 363.865 -73.0325 378.142C-105.767 388.877 -101.433 468.138 -129.789 501.664C-145.672 520.451 -181.86 525.401 -204.98 517.063" stroke="#ABB1B1" stroke-width="0.35" stroke-miterlimit="10"/>
<path d="M813.205 -97.7769C808.123 -67.3307 779.239 -35.6966 748.859 -30.263C718.479 -24.8293 681.323 -40.3164 654.705 -24.6973C630.506 -10.4422 629.56 40.2867 603.14 50.0981C575.795 60.0195 529.114 25.1296 500.978 32.6532C460.875 43.4985 439.756 86.6379 426.183 125.928C412.609 165.217 398.618 209.148 362.387 229.651C335.108 245.05 301.252 243.114 270.718 235.899C240.184 228.683 210.794 216.782 179.6 213.526C148.406 210.27 113.604 217.574 94.1129 242.124C66.7246 276.574 79.9238 342.636 42.3281 365.515C7.13023 386.92 -37.197 354.076 -80.1824 368.177C-112.498 378.78 -108.231 457.051 -136.235 490.159C-151.898 508.704 -187.646 513.588 -210.48 505.294" stroke="#ABB1B1" stroke-width="0.35" stroke-miterlimit="10"/>
<path d="M794.793 -101.869C789.778 -71.7967 761.245 -40.5586 731.239 -35.213C701.233 -29.8673 664.583 -45.1344 638.295 -29.6913C614.338 -15.6342 613.458 34.4568 587.39 44.0262C560.354 53.9476 514.288 19.4537 486.504 26.9992C446.907 37.7126 426.052 80.302 412.677 119.108C399.301 157.913 385.464 201.273 349.782 221.511C322.834 236.778 289.418 234.821 259.28 227.693C229.142 220.565 199.994 208.642 169.195 205.496C138.397 202.351 104.057 209.5 84.7867 233.743C57.7283 267.753 70.7515 332.979 33.6398 355.593C-1.0521 376.712 -44.8734 344.286 -87.3528 358.211C-119.295 368.66 -115.049 445.942 -142.701 478.654C-158.1 496.957 -193.474 501.796 -216.001 493.591" stroke="#ABB1B1" stroke-width="0.35" stroke-miterlimit="10"/>
<path d="M776.379 -105.938C771.407 -76.2403 743.249 -45.3982 713.639 -40.1185C684.029 -34.8388 647.797 -49.9519 621.882 -34.7068C598.234 -20.8257 597.354 28.6273 571.616 38.0867C544.931 47.8541 499.438 13.8882 472.028 21.2798C432.914 31.8391 412.411 73.9005 399.212 112.178C386.013 150.456 372.352 193.309 337.11 213.372C310.513 228.463 277.538 226.571 247.773 219.466C218.009 212.36 189.235 200.767 158.833 197.577C128.431 194.387 94.4647 201.427 75.4358 225.361C48.7295 258.931 61.5987 323.343 24.9489 345.65C-9.30297 366.527 -52.5523 334.497 -94.4598 348.224C-125.984 358.563 -121.804 434.854 -149.104 467.149C-164.371 485.209 -199.217 489.983 -221.458 481.888" stroke="#ABB1B1" stroke-width="0.35" stroke-miterlimit="10"/>
<path d="M757.944 -110.03C753.06 -80.7501 725.276 -50.3039 696.018 -45.0902C666.759 -39.8766 631.056 -54.7696 605.449 -39.7226C582.109 -26.0174 581.251 22.7976 555.842 32.125C529.444 41.7825 484.611 8.21251 457.53 15.5381C419.011 26.0534 398.64 67.4769 385.595 105.249C372.549 143.02 359.086 185.346 324.416 205.056C298.172 219.95 265.614 218.036 236.246 211.084C206.877 204.133 178.345 192.627 148.427 189.459C118.509 186.292 84.8729 193.375 66.0861 216.98C39.6877 250.132 52.4249 313.774 16.2591 335.772C-17.5528 356.363 -60.2522 324.773 -101.61 338.302C-132.716 348.51 -128.58 423.811 -155.528 455.665C-170.619 473.506 -205.003 478.214 -226.958 470.228" stroke="#ABB1B1" stroke-width="0.35" stroke-miterlimit="10"/>
<path d="M739.532 -114.122C734.692 -85.2161 707.281 -55.1659 678.419 -50.0182C649.557 -44.8705 614.315 -59.5656 589.039 -44.7386C566.006 -31.1434 565.148 16.9677 540.004 26.1631C514.023 35.7105 469.718 2.58056 442.99 9.79612C404.91 20.0915 384.869 61.075 372 98.3627C359.131 135.65 345.844 177.382 311.526 196.851C285.611 211.546 253.471 209.632 224.499 202.79C195.527 195.949 167.478 184.553 137.846 181.452C108.214 178.35 75.282 185.301 56.7592 208.642C30.7348 241.31 43.274 304.05 7.63619 325.785C-25.7138 346.112 -67.8632 314.917 -108.671 328.293C-139.447 338.434 -135.355 412.679 -161.973 444.028C-176.845 461.627 -210.788 466.29 -232.369 458.393" stroke="#ABB1B1" stroke-width="0.35" stroke-miterlimit="10"/>
<path d="M721.119 -118.214C716.346 -89.6156 689.287 -60.0494 660.821 -54.9677C632.355 -49.886 597.553 -64.3832 572.606 -49.732C549.882 -36.3789 549.046 11.1382 524.209 20.2237C498.669 29.6171 454.936 -3.0509 428.581 4.05467C391.008 14.196 371.231 54.6516 358.538 91.4333C345.844 128.215 332.711 169.419 298.855 188.623C273.293 203.121 241.659 201.251 213.06 194.475C184.462 187.699 156.722 176.502 127.508 173.444C98.2935 170.387 65.6915 177.228 47.4106 200.239C21.7381 232.511 34.0354 294.437 -1.16246 315.842C-34.1604 335.904 -75.6499 305.128 -115.929 318.327C-146.222 328.249 -142.196 401.592 -168.44 432.61C-183.135 449.989 -216.617 454.609 -238 446.8" stroke="#ABB1B1" stroke-width="0.35" stroke-miterlimit="10"/>
<path d="M1244.14 -27.4473C1221.44 71.0627 1134.14 151.292 1034.05 165.613C974.39 174.17 914.07 161.213 854.366 153.074C794.661 144.934 730.953 142.338 677.123 169.463C618.166 199.183 580.725 259.657 525.596 295.999C436.875 354.515 335.792 270.503 234.554 337.994C181.427 373.412 167.678 461.935 128.322 501.224C93.2344 536.422 31.9461 536.642 -26.5703 531.561V-8.22044L1244.14 -27.4473Z" fill="#F8F9F9"/>
<path d="M-156.407 403.836C-60.4711 438.528 55.8798 405.75 119.566 326.049C158.614 277.168 182.504 210.512 239.789 185.39C281.344 167.153 329.037 176.458 374.112 181.738C420.574 187.172 455.375 179.318 491.321 147.662C517.148 125.047 540.334 97.747 571.88 84.0638C624.435 61.2732 685.481 82.9859 737.728 95.6571C783.661 106.81 833.18 111.056 874.802 84.6578C917.985 57.2035 943.878 9.86237 985.081 -20.0558C1037.17 -57.9155 1099.17 -75.9764 1163.14 -62.8652V-148H-136.52L-156.407 403.836Z" fill="white"/>
<path d="M1848.66 722.883C1761.88 691.491 1656.63 721.145 1599.02 793.279C1563.69 837.474 1542.07 897.794 1490.26 920.519C1452.66 937.018 1409.52 928.592 1368.74 923.819C1326.7 918.913 1295.22 926.019 1262.7 954.617C1239.36 975.164 1218.38 999.78 1189.82 1012.17C1142.28 1032.78 1087.07 1013.11 1039.79 1001.65C998.259 991.575 953.447 987.637 915.808 1011.57C876.738 1036.41 853.31 1079.17 816.044 1106.3C768.901 1140.59 712.826 1156.89 654.97 1145.06V1222.05H1830.67L1848.66 722.883Z" fill="white"/>
<path d="M155.842 559.411C144.228 559.415 132.874 555.975 123.216 549.526C113.558 543.077 106.029 533.909 101.581 523.181C97.1339 512.452 95.968 500.646 98.231 489.255C100.494 477.864 106.084 467.4 114.295 459.187C122.505 450.973 132.967 445.379 144.357 443.112C155.747 440.844 167.554 442.006 178.284 446.449C189.014 450.892 198.185 458.418 204.638 468.074C211.09 477.73 214.534 489.083 214.534 500.696C214.517 516.259 208.328 531.18 197.326 542.187C186.323 553.193 171.405 559.387 155.842 559.411ZM155.842 448.603C145.533 448.599 135.454 451.652 126.88 457.377C118.307 463.102 111.623 471.241 107.676 480.765C103.729 490.288 102.695 500.769 104.705 510.88C106.716 520.991 111.679 530.279 118.969 537.569C126.259 544.859 135.547 549.823 145.658 551.833C155.77 553.843 166.25 552.809 175.774 548.862C185.297 544.915 193.436 538.232 199.161 529.658C204.886 521.084 207.939 511.005 207.935 500.696C207.917 486.886 202.423 473.646 192.658 463.88C182.892 454.115 169.652 448.621 155.842 448.603Z" fill="#68CDDA"/>
<path d="M1436.12 50.7137C1420.56 50.6962 1405.64 44.507 1394.64 33.5038C1383.63 22.5006 1377.45 7.58213 1377.43 -7.97871C1377.44 -23.5434 1383.63 -38.4675 1394.63 -49.4754C1405.63 -60.4834 1420.56 -66.6756 1436.12 -66.6931C1451.67 -66.6524 1466.57 -60.4505 1477.56 -49.4458C1488.55 -38.441 1494.73 -23.5302 1494.75 -7.97871C1494.72 7.56893 1488.54 22.4741 1477.55 33.4741C1466.57 44.4742 1451.67 50.673 1436.12 50.7137ZM1436.12 -60.0935C1422.31 -60.076 1409.06 -54.5791 1399.3 -44.8088C1389.53 -35.0385 1384.04 -21.793 1384.03 -7.97871C1384.04 5.8336 1389.53 19.0768 1399.3 28.8436C1409.06 38.6104 1422.31 44.1025 1436.12 44.1141C1449.92 44.0792 1463.14 38.5776 1472.89 28.8139C1482.64 19.0503 1488.13 5.8204 1488.15 -7.97871C1488.13 -21.7798 1482.65 -35.012 1472.89 -44.7792C1463.14 -54.5463 1449.92 -60.0528 1436.12 -60.0935Z" fill="#68CDDA"/>
<path d="M1546.33 196.235C1546.33 197.158 1546.06 198.06 1545.55 198.828C1545.03 199.595 1544.3 200.193 1543.45 200.545C1542.6 200.898 1541.66 200.989 1540.75 200.807C1539.85 200.625 1539.02 200.179 1538.36 199.524C1537.71 198.87 1537.27 198.037 1537.09 197.131C1536.92 196.225 1537.01 195.286 1537.37 194.435C1537.72 193.583 1538.32 192.856 1539.09 192.346C1539.86 191.836 1540.77 191.566 1541.69 191.571C1542.3 191.571 1542.91 191.692 1543.47 191.926C1544.04 192.161 1544.55 192.505 1544.98 192.938C1545.41 193.371 1545.75 193.886 1545.99 194.452C1546.22 195.017 1546.34 195.623 1546.33 196.235ZM1579.66 191.571C1578.74 191.566 1577.83 191.836 1577.06 192.346C1576.29 192.856 1575.69 193.583 1575.34 194.435C1574.98 195.286 1574.89 196.225 1575.06 197.131C1575.24 198.037 1575.68 198.87 1576.33 199.524C1576.99 200.179 1577.82 200.625 1578.72 200.807C1579.63 200.989 1580.57 200.898 1581.42 200.545C1582.27 200.193 1583 199.595 1583.52 198.828C1584.03 198.06 1584.3 197.158 1584.3 196.235C1584.3 195.001 1583.81 193.819 1582.94 192.945C1582.07 192.071 1580.89 191.577 1579.66 191.571ZM1579.66 191.571C1578.74 191.566 1577.83 191.836 1577.06 192.346C1576.29 192.856 1575.69 193.583 1575.34 194.435C1574.98 195.286 1574.89 196.225 1575.06 197.131C1575.24 198.037 1575.68 198.87 1576.33 199.524C1576.99 200.179 1577.82 200.625 1578.72 200.807C1579.63 200.989 1580.57 200.898 1581.42 200.545C1582.27 200.193 1583 199.595 1583.52 198.828C1584.03 198.06 1584.3 197.158 1584.3 196.235C1584.3 195.001 1583.81 193.819 1582.94 192.945C1582.07 192.071 1580.89 191.577 1579.66 191.571ZM1537.03 158.265C1537.02 159.189 1537.29 160.095 1537.79 160.868C1538.3 161.641 1539.02 162.245 1539.88 162.605C1540.73 162.965 1541.67 163.063 1542.57 162.888C1543.48 162.713 1544.32 162.273 1544.97 161.622C1545.63 160.972 1546.08 160.141 1546.26 159.235C1546.45 158.329 1546.36 157.389 1546 156.534C1545.65 155.68 1545.05 154.949 1544.29 154.434C1543.52 153.92 1542.62 153.645 1541.69 153.645C1541.08 153.642 1540.48 153.759 1539.91 153.99C1539.35 154.221 1538.84 154.56 1538.4 154.989C1537.97 155.418 1537.63 155.928 1537.39 156.49C1537.15 157.052 1537.03 157.655 1537.03 158.265ZM1617.63 191.571C1616.71 191.58 1615.81 191.86 1615.05 192.378C1614.29 192.896 1613.7 193.627 1613.35 194.48C1613.01 195.333 1612.92 196.269 1613.11 197.171C1613.29 198.073 1613.74 198.9 1614.39 199.548C1615.05 200.195 1615.88 200.635 1616.78 200.812C1617.68 200.988 1618.62 200.893 1619.47 200.539C1620.32 200.185 1621.05 199.587 1621.56 198.821C1622.07 198.055 1622.34 197.155 1622.34 196.235C1622.34 195.618 1622.22 195.008 1621.98 194.44C1621.74 193.871 1621.39 193.355 1620.96 192.921C1620.52 192.488 1620 192.145 1619.43 191.913C1618.86 191.681 1618.25 191.565 1617.63 191.571ZM1537.03 120.295C1537.03 121.218 1537.3 122.119 1537.81 122.886C1538.33 123.653 1539.05 124.251 1539.91 124.604C1540.76 124.957 1541.7 125.049 1542.6 124.869C1543.51 124.689 1544.34 124.245 1544.99 123.593C1545.64 122.941 1546.09 122.11 1546.27 121.205C1546.45 120.3 1546.35 119.363 1546 118.51C1545.65 117.658 1545.05 116.93 1544.28 116.417C1543.52 115.905 1542.61 115.631 1541.69 115.631C1541.08 115.629 1540.47 115.747 1539.9 115.981C1539.34 116.214 1538.82 116.557 1538.39 116.991C1537.95 117.425 1537.61 117.94 1537.38 118.507C1537.14 119.074 1537.02 119.682 1537.03 120.295ZM1575 158.265C1574.99 159.189 1575.25 160.095 1575.76 160.868C1576.27 161.641 1576.99 162.245 1577.85 162.605C1578.7 162.965 1579.64 163.063 1580.54 162.888C1581.45 162.713 1582.29 162.273 1582.94 161.622C1583.6 160.972 1584.05 160.141 1584.23 159.235C1584.42 158.329 1584.33 157.389 1583.97 156.534C1583.62 155.68 1583.02 154.949 1582.26 154.434C1581.49 153.92 1580.59 153.645 1579.66 153.645C1579.05 153.642 1578.45 153.759 1577.88 153.99C1577.32 154.221 1576.81 154.56 1576.37 154.989C1575.94 155.418 1575.6 155.928 1575.36 156.49C1575.12 157.052 1575 157.655 1575 158.265ZM1575 120.295C1575 121.218 1575.27 122.119 1575.78 122.886C1576.3 123.653 1577.02 124.251 1577.88 124.604C1578.73 124.957 1579.67 125.049 1580.57 124.869C1581.48 124.689 1582.31 124.245 1582.96 123.593C1583.61 122.941 1584.06 122.11 1584.24 121.205C1584.42 120.3 1584.32 119.363 1583.97 118.51C1583.62 117.658 1583.02 116.93 1582.25 116.417C1581.49 115.905 1580.58 115.631 1579.66 115.631C1579.05 115.629 1578.44 115.747 1577.87 115.981C1577.31 116.214 1576.79 116.557 1576.36 116.991C1575.92 117.425 1575.58 117.94 1575.35 118.507C1575.11 119.074 1574.99 119.682 1575 120.295ZM1612.97 158.265C1612.96 159.189 1613.22 160.095 1613.73 160.868C1614.24 161.641 1614.96 162.245 1615.82 162.605C1616.67 162.965 1617.61 163.063 1618.51 162.888C1619.42 162.713 1620.26 162.273 1620.91 161.622C1621.57 160.972 1622.02 160.141 1622.2 159.235C1622.39 158.329 1622.3 157.389 1621.94 156.534C1621.59 155.68 1620.99 154.949 1620.23 154.434C1619.46 153.92 1618.56 153.645 1617.63 153.645C1617.02 153.642 1616.42 153.759 1615.85 153.99C1615.29 154.221 1614.78 154.56 1614.34 154.989C1613.91 155.418 1613.56 155.928 1613.33 156.49C1613.09 157.052 1612.97 157.655 1612.97 158.265ZM1612.97 120.295C1612.97 121.218 1613.24 122.119 1613.75 122.886C1614.27 123.653 1614.99 124.251 1615.85 124.604C1616.7 124.957 1617.64 125.049 1618.54 124.869C1619.45 124.689 1620.28 124.245 1620.93 123.593C1621.58 122.941 1622.03 122.11 1622.21 121.205C1622.39 120.3 1622.29 119.363 1621.94 118.51C1621.59 117.658 1620.99 116.93 1620.22 116.417C1619.45 115.905 1618.55 115.631 1617.63 115.631C1617.02 115.629 1616.41 115.747 1615.84 115.981C1615.28 116.214 1614.76 116.557 1614.33 116.991C1613.89 117.425 1613.55 117.94 1613.32 118.507C1613.08 119.074 1612.96 119.682 1612.97 120.295ZM1537.03 82.4135C1537.03 83.3359 1537.3 84.2376 1537.81 85.0045C1538.33 85.7715 1539.05 86.3692 1539.91 86.7222C1540.76 87.0752 1541.7 87.1676 1542.6 86.9876C1543.51 86.8077 1544.34 86.3635 1544.99 85.7113C1545.64 85.059 1546.09 84.228 1546.27 83.3234C1546.45 82.4187 1546.35 81.481 1546 80.6288C1545.65 79.7766 1545.05 79.0482 1544.28 78.5358C1543.52 78.0233 1542.61 77.7498 1541.69 77.7498C1541.08 77.7469 1540.47 77.8655 1539.9 78.0989C1539.34 78.3322 1538.82 78.6756 1538.39 79.1093C1537.95 79.5429 1537.61 80.0582 1537.38 80.6254C1537.14 81.1925 1537.02 81.8003 1537.03 82.4135ZM1575 82.4135C1575 83.3359 1575.27 84.2376 1575.78 85.0045C1576.3 85.7715 1577.02 86.3692 1577.88 86.7222C1578.73 87.0752 1579.67 87.1676 1580.57 86.9876C1581.48 86.8077 1582.31 86.3635 1582.96 85.7113C1583.61 85.059 1584.06 84.228 1584.24 83.3234C1584.42 82.4187 1584.32 81.481 1583.97 80.6288C1583.62 79.7766 1583.02 79.0482 1582.25 78.5358C1581.49 78.0233 1580.58 77.7498 1579.66 77.7498C1579.05 77.7469 1578.44 77.8655 1577.87 78.0989C1577.31 78.3322 1576.79 78.6756 1576.36 79.1093C1575.92 79.5429 1575.58 80.0582 1575.35 80.6254C1575.11 81.1925 1574.99 81.8003 1575 82.4135ZM1612.97 82.4135C1612.97 83.3359 1613.24 84.2376 1613.75 85.0045C1614.27 85.7715 1614.99 86.3692 1615.85 86.7222C1616.7 87.0752 1617.64 87.1676 1618.54 86.9876C1619.45 86.8077 1620.28 86.3635 1620.93 85.7113C1621.58 85.059 1622.03 84.228 1622.21 83.3234C1622.39 82.4187 1622.29 81.481 1621.94 80.6288C1621.59 79.7766 1620.99 79.0482 1620.22 78.5358C1619.45 78.0233 1618.55 77.7498 1617.63 77.7498C1617.02 77.7469 1616.41 77.8655 1615.84 78.0989C1615.28 78.3322 1614.76 78.6756 1614.33 79.1093C1613.89 79.5429 1613.55 80.0582 1613.32 80.6254C1613.08 81.1925 1612.96 81.8003 1612.97 82.4135Z" fill="#68CDDA"/>
<path d="M113.803 1047.63C113.807 1048.55 113.538 1049.45 113.028 1050.22C112.518 1050.99 111.791 1051.59 110.939 1051.95C110.088 1052.31 109.149 1052.4 108.243 1052.23C107.337 1052.05 106.504 1051.61 105.85 1050.95C105.195 1050.3 104.749 1049.47 104.567 1048.57C104.385 1047.66 104.476 1046.72 104.829 1045.87C105.181 1045.02 105.779 1044.29 106.546 1043.77C107.314 1043.26 108.216 1042.99 109.139 1042.99C110.372 1042.99 111.555 1043.47 112.429 1044.34C113.303 1045.21 113.797 1046.39 113.803 1047.63ZM147.109 1042.99C146.186 1042.99 145.283 1043.26 144.516 1043.77C143.748 1044.29 143.151 1045.02 142.798 1045.87C142.446 1046.72 142.355 1047.66 142.537 1048.57C142.718 1049.47 143.165 1050.3 143.819 1050.95C144.474 1051.61 145.307 1052.05 146.213 1052.23C147.119 1052.4 148.057 1052.31 148.909 1051.95C149.761 1051.59 150.488 1050.99 150.998 1050.22C151.507 1049.45 151.777 1048.55 151.773 1047.63C151.773 1047.02 151.652 1046.41 151.417 1045.85C151.183 1045.28 150.839 1044.77 150.406 1044.34C149.972 1043.91 149.458 1043.56 148.892 1043.33C148.326 1043.1 147.72 1042.98 147.109 1042.99ZM147.109 1042.99C146.186 1042.99 145.283 1043.26 144.516 1043.77C143.748 1044.29 143.151 1045.02 142.798 1045.87C142.446 1046.72 142.355 1047.66 142.537 1048.57C142.718 1049.47 143.165 1050.3 143.819 1050.95C144.474 1051.61 145.307 1052.05 146.213 1052.23C147.119 1052.4 148.057 1052.31 148.909 1051.95C149.761 1051.59 150.488 1050.99 150.998 1050.22C151.507 1049.45 151.777 1048.55 151.773 1047.63C151.773 1047.02 151.652 1046.41 151.417 1045.85C151.183 1045.28 150.839 1044.77 150.406 1044.34C149.972 1043.91 149.458 1043.56 148.892 1043.33C148.326 1043.1 147.72 1042.98 147.109 1042.99ZM104.432 1009.66C104.432 1010.58 104.704 1011.48 105.215 1012.24C105.725 1013.01 106.451 1013.61 107.301 1013.96C108.15 1014.32 109.086 1014.41 109.989 1014.23C110.893 1014.06 111.724 1013.62 112.378 1012.97C113.032 1012.32 113.479 1011.5 113.664 1010.59C113.849 1009.69 113.763 1008.76 113.417 1007.9C113.07 1007.05 112.479 1006.32 111.718 1005.8C110.957 1005.28 110.06 1005 109.139 1004.99C108.523 1004.99 107.912 1005.1 107.341 1005.34C106.77 1005.57 106.251 1005.91 105.813 1006.34C105.375 1006.78 105.028 1007.29 104.791 1007.86C104.554 1008.43 104.432 1009.04 104.432 1009.66ZM185.013 1042.99C184.089 1042.99 183.187 1043.26 182.419 1043.77C181.652 1044.29 181.054 1045.02 180.702 1045.87C180.35 1046.72 180.259 1047.66 180.44 1048.57C180.622 1049.47 181.068 1050.3 181.723 1050.95C182.377 1051.61 183.21 1052.05 184.116 1052.23C185.023 1052.4 185.961 1052.31 186.813 1051.95C187.665 1051.59 188.391 1050.99 188.901 1050.22C189.411 1049.45 189.681 1048.55 189.676 1047.63C189.677 1046.4 189.194 1045.23 188.333 1044.36C187.472 1043.49 186.302 1043 185.079 1042.99H185.013ZM104.432 971.687C104.427 972.612 104.698 973.516 105.208 974.287C105.719 975.057 106.447 975.658 107.3 976.014C108.154 976.37 109.093 976.464 110 976.285C110.907 976.105 111.74 975.661 112.393 975.007C113.047 974.354 113.491 973.521 113.671 972.614C113.85 971.707 113.756 970.768 113.4 969.915C113.044 969.062 112.443 968.333 111.673 967.823C110.902 967.312 109.998 967.041 109.073 967.046C107.844 967.052 106.667 967.542 105.798 968.412C104.928 969.281 104.437 970.458 104.432 971.687ZM142.401 1009.66C142.401 1010.58 142.674 1011.48 143.184 1012.24C143.695 1013.01 144.421 1013.61 145.27 1013.96C146.12 1014.32 147.055 1014.41 147.959 1014.23C148.862 1014.06 149.693 1013.62 150.347 1012.97C151.001 1012.32 151.449 1011.5 151.634 1010.59C151.819 1009.69 151.733 1008.76 151.386 1007.9C151.04 1007.05 150.449 1006.32 149.688 1005.8C148.927 1005.28 148.03 1005 147.109 1004.99C145.876 1005 144.695 1005.49 143.826 1006.37C142.956 1007.24 142.467 1008.42 142.467 1009.66H142.401ZM142.401 971.687C142.397 972.612 142.667 973.516 143.178 974.287C143.689 975.057 144.417 975.658 145.27 976.014C146.123 976.37 147.063 976.464 147.97 976.285C148.876 976.105 149.709 975.661 150.363 975.007C151.016 974.354 151.461 973.521 151.64 972.614C151.819 971.707 151.725 970.768 151.37 969.915C151.014 969.062 150.413 968.333 149.642 967.823C148.872 967.312 147.967 967.041 147.043 967.046C145.825 967.069 144.665 967.567 143.81 968.435C142.955 969.302 142.473 970.469 142.467 971.687H142.401ZM180.371 1009.66C180.371 1010.58 180.644 1011.48 181.154 1012.24C181.665 1013.01 182.39 1013.61 183.24 1013.96C184.09 1014.32 185.025 1014.41 185.929 1014.23C186.832 1014.06 187.663 1013.62 188.317 1012.97C188.971 1012.32 189.419 1011.5 189.603 1010.59C189.788 1009.69 189.702 1008.76 189.356 1007.9C189.01 1007.05 188.419 1006.32 187.658 1005.8C186.897 1005.28 185.999 1005 185.079 1004.99C183.846 1005 182.665 1005.49 181.795 1006.37C180.925 1007.24 180.437 1008.42 180.437 1009.66H180.371ZM180.371 971.687C180.367 972.612 180.637 973.516 181.148 974.287C181.659 975.057 182.387 975.658 183.24 976.014C184.093 976.37 185.032 976.464 185.939 976.285C186.846 976.105 187.679 975.661 188.332 975.007C188.986 974.354 189.431 973.521 189.61 972.614C189.789 971.707 189.695 970.768 189.339 969.915C188.984 969.062 188.382 968.333 187.612 967.823C186.842 967.312 185.937 967.041 185.013 967.046C183.795 967.069 182.635 967.567 181.779 968.435C180.924 969.302 180.443 970.469 180.437 971.687H180.371ZM104.432 933.806C104.427 934.73 104.698 935.635 105.208 936.405C105.719 937.175 106.447 937.777 107.3 938.132C108.154 938.488 109.093 938.582 110 938.403C110.907 938.224 111.74 937.779 112.393 937.126C113.047 936.472 113.491 935.639 113.671 934.732C113.85 933.826 113.756 932.886 113.4 932.033C113.044 931.18 112.443 930.452 111.673 929.941C110.902 929.43 109.998 929.16 109.073 929.164C107.844 929.17 106.667 929.661 105.798 930.53C104.928 931.399 104.437 932.577 104.432 933.806ZM142.401 933.806C142.397 934.73 142.667 935.635 143.178 936.405C143.689 937.175 144.417 937.777 145.27 938.132C146.123 938.488 147.063 938.582 147.97 938.403C148.876 938.224 149.709 937.779 150.363 937.126C151.016 936.472 151.461 935.639 151.64 934.732C151.819 933.826 151.725 932.886 151.37 932.033C151.014 931.18 150.413 930.452 149.642 929.941C148.872 929.43 147.967 929.16 147.043 929.164C145.825 929.187 144.665 929.686 143.81 930.553C142.955 931.42 142.473 932.588 142.467 933.806H142.401ZM180.371 933.806C180.367 934.73 180.637 935.635 181.148 936.405C181.659 937.175 182.387 937.777 183.24 938.132C184.093 938.488 185.032 938.582 185.939 938.403C186.846 938.224 187.679 937.779 188.332 937.126C188.986 936.472 189.431 935.639 189.61 934.732C189.789 933.826 189.695 932.886 189.339 932.033C188.984 931.18 188.382 930.452 187.612 929.941C186.842 929.43 185.937 929.16 185.013 929.164C183.795 929.187 182.635 929.686 181.779 930.553C180.924 931.42 180.443 932.588 180.437 933.806H180.371ZM104.432 895.924C104.427 896.848 104.698 897.753 105.208 898.523C105.719 899.294 106.447 899.895 107.3 900.251C108.154 900.606 109.093 900.701 110 900.521C110.907 900.342 111.74 899.897 112.393 899.244C113.047 898.59 113.491 897.757 113.671 896.851C113.85 895.944 113.756 895.004 113.4 894.151C113.044 893.298 112.443 892.57 111.673 892.059C110.902 891.548 109.998 891.278 109.073 891.282C107.844 891.288 106.667 891.779 105.798 892.648C104.928 893.518 104.437 894.695 104.432 895.924ZM142.401 895.924C142.397 896.848 142.667 897.753 143.178 898.523C143.689 899.294 144.417 899.895 145.27 900.251C146.123 900.606 147.063 900.701 147.97 900.521C148.876 900.342 149.709 899.897 150.363 899.244C151.016 898.59 151.461 897.757 151.64 896.851C151.819 895.944 151.725 895.004 151.37 894.151C151.014 893.298 150.413 892.57 149.642 892.059C148.872 891.548 147.967 891.278 147.043 891.282C145.825 891.305 144.665 891.804 143.81 892.671C142.955 893.539 142.473 894.706 142.467 895.924H142.401ZM180.371 895.924C180.367 896.848 180.637 897.753 181.148 898.523C181.659 899.294 182.387 899.895 183.24 900.251C184.093 900.606 185.032 900.701 185.939 900.521C186.846 900.342 187.679 899.897 188.332 899.244C188.986 898.59 189.431 897.757 189.61 896.851C189.789 895.944 189.695 895.004 189.339 894.151C188.984 893.298 188.382 892.57 187.612 892.059C186.842 891.548 185.937 891.278 185.013 891.282C183.795 891.305 182.635 891.804 181.779 892.671C180.924 893.539 180.443 894.706 180.437 895.924H180.371ZM104.432 858.042C104.427 858.967 104.698 859.871 105.208 860.642C105.719 861.412 106.447 862.013 107.3 862.369C108.154 862.725 109.093 862.819 110 862.64C110.907 862.46 111.74 862.016 112.393 861.362C113.047 860.709 113.491 859.876 113.671 858.969C113.85 858.062 113.756 857.123 113.4 856.27C113.044 855.416 112.443 854.688 111.673 854.178C110.902 853.667 109.998 853.396 109.073 853.401C107.844 853.407 106.667 853.897 105.798 854.767C104.928 855.636 104.437 856.813 104.432 858.042ZM142.401 858.042C142.397 858.967 142.667 859.871 143.178 860.642C143.689 861.412 144.417 862.013 145.27 862.369C146.123 862.725 147.063 862.819 147.97 862.64C148.876 862.46 149.709 862.016 150.363 861.362C151.016 860.709 151.461 859.876 151.64 858.969C151.819 858.062 151.725 857.123 151.37 856.27C151.014 855.416 150.413 854.688 149.642 854.178C148.872 853.667 147.967 853.396 147.043 853.401C145.825 853.424 144.665 853.922 143.81 854.79C142.955 855.657 142.473 856.824 142.467 858.042H142.401ZM180.371 858.042C180.367 858.967 180.637 859.871 181.148 860.642C181.659 861.412 182.387 862.013 183.24 862.369C184.093 862.725 185.032 862.819 185.939 862.64C186.846 862.46 187.679 862.016 188.332 861.362C188.986 860.709 189.431 859.876 189.61 858.969C189.789 858.062 189.695 857.123 189.339 856.27C188.984 855.416 188.382 854.688 187.612 854.178C186.842 853.667 185.937 853.396 185.013 853.401C183.795 853.424 182.635 853.922 181.779 854.79C180.924 855.657 180.443 856.824 180.437 858.042H180.371ZM104.432 820.205C104.432 821.128 104.706 822.031 105.219 822.798C105.733 823.565 106.462 824.163 107.316 824.516C108.169 824.868 109.108 824.959 110.013 824.777C110.919 824.595 111.75 824.149 112.401 823.495C113.052 822.84 113.495 822.007 113.672 821.101C113.85 820.195 113.754 819.257 113.398 818.405C113.041 817.553 112.44 816.826 111.67 816.316C110.901 815.807 109.997 815.537 109.073 815.541C107.84 815.547 106.66 816.041 105.79 816.915C104.92 817.789 104.432 818.972 104.432 820.205ZM142.401 820.205C142.401 821.128 142.675 822.031 143.189 822.798C143.702 823.565 144.432 824.163 145.285 824.516C146.139 824.868 147.078 824.959 147.983 824.777C148.888 824.595 149.719 824.149 150.371 823.495C151.022 822.84 151.464 822.007 151.642 821.101C151.819 820.195 151.724 819.257 151.367 818.405C151.011 817.553 150.41 816.826 149.64 816.316C148.87 815.807 147.966 815.537 147.043 815.541C145.822 815.564 144.658 816.066 143.802 816.938C142.946 817.81 142.467 818.983 142.467 820.205H142.401ZM180.371 820.205C180.371 821.128 180.645 822.031 181.159 822.798C181.672 823.565 182.402 824.163 183.255 824.516C184.109 824.868 185.047 824.959 185.953 824.777C186.858 824.595 187.689 824.149 188.34 823.495C188.992 822.84 189.434 822.007 189.612 821.101C189.789 820.195 189.693 819.257 189.337 818.405C188.981 817.553 188.38 816.826 187.61 816.316C186.84 815.807 185.936 815.537 185.013 815.541C183.791 815.564 182.627 816.066 181.772 816.938C180.916 817.81 180.437 818.983 180.437 820.205H180.371Z" fill="#68CDDA"/>
<path d="M376.092 51.2419H23.2773V59.0075H376.092V51.2419Z" fill="#68CDDA"/>
<path d="M252.241 264.893C258.401 264.893 263.395 259.899 263.395 253.739C263.395 247.58 258.401 242.586 252.241 242.586C246.081 242.586 241.088 247.58 241.088 253.739C241.088 259.899 246.081 264.893 252.241 264.893Z" fill="#E1E1E1"/>
<path d="M290.495 264.893C296.655 264.893 301.648 259.899 301.648 253.739C301.648 247.58 296.655 242.586 290.495 242.586C284.335 242.586 279.342 247.58 279.342 253.739C279.342 259.899 284.335 264.893 290.495 264.893Z" fill="#E1E1E1"/>
<path d="M328.773 264.893C334.933 264.893 339.927 259.899 339.927 253.739C339.927 247.58 334.933 242.586 328.773 242.586C322.614 242.586 317.62 247.58 317.62 253.739C317.62 259.899 322.614 264.893 328.773 264.893Z" fill="#E1E1E1"/>
<path d="M367.028 264.893C373.188 264.893 378.182 259.899 378.182 253.739C378.182 247.58 373.188 242.586 367.028 242.586C360.868 242.586 355.875 247.58 355.875 253.739C355.875 259.899 360.868 264.893 367.028 264.893Z" fill="#E1E1E1"/>
<path d="M416.438 253.739C416.438 255.945 415.783 258.102 414.558 259.936C413.332 261.77 411.59 263.2 409.552 264.044C407.514 264.888 405.272 265.109 403.108 264.679C400.945 264.248 398.957 263.186 397.398 261.626C395.838 260.066 394.776 258.079 394.345 255.915C393.915 253.752 394.136 251.509 394.98 249.471C395.824 247.433 397.254 245.691 399.088 244.466C400.922 243.24 403.078 242.586 405.284 242.586C408.242 242.586 411.079 243.761 413.171 245.853C415.262 247.945 416.438 250.781 416.438 253.739Z" fill="#E1E1E1"/>
<path d="M443.563 264.893C449.722 264.893 454.716 259.899 454.716 253.739C454.716 247.58 449.722 242.586 443.563 242.586C437.403 242.586 432.409 247.58 432.409 253.739C432.409 259.899 437.403 264.893 443.563 264.893Z" fill="#E1E1E1"/>
<path d="M1422.46 1051.81C1428.62 1051.81 1433.61 1046.81 1433.61 1040.65C1433.61 1034.49 1428.62 1029.5 1422.46 1029.5C1416.3 1029.5 1411.31 1034.49 1411.31 1040.65C1411.31 1046.81 1416.3 1051.81 1422.46 1051.81Z" fill="#E1E1E1"/>
<path d="M1460.74 1051.81C1466.9 1051.81 1471.89 1046.81 1471.89 1040.65C1471.89 1034.49 1466.9 1029.5 1460.74 1029.5C1454.58 1029.5 1449.58 1034.49 1449.58 1040.65C1449.58 1046.81 1454.58 1051.81 1460.74 1051.81Z" fill="#E1E1E1"/>
<path d="M1498.99 1051.81C1505.15 1051.81 1510.14 1046.81 1510.14 1040.65C1510.14 1034.49 1505.15 1029.5 1498.99 1029.5C1492.83 1029.5 1487.84 1034.49 1487.84 1040.65C1487.84 1046.81 1492.83 1051.81 1498.99 1051.81Z" fill="#E1E1E1"/>
<path d="M1537.25 1051.81C1543.41 1051.81 1548.4 1046.81 1548.4 1040.65C1548.4 1034.49 1543.41 1029.5 1537.25 1029.5C1531.09 1029.5 1526.09 1034.49 1526.09 1040.65C1526.09 1046.81 1531.09 1051.81 1537.25 1051.81Z" fill="#E1E1E1"/>
<path d="M1575.53 1051.81C1581.69 1051.81 1586.68 1046.81 1586.68 1040.65C1586.68 1034.49 1581.69 1029.5 1575.53 1029.5C1569.37 1029.5 1564.37 1034.49 1564.37 1040.65C1564.37 1046.81 1569.37 1051.81 1575.53 1051.81Z" fill="#E1E1E1"/>
<path d="M1613.78 1051.81C1619.94 1051.81 1624.93 1046.81 1624.93 1040.65C1624.93 1034.49 1619.94 1029.5 1613.78 1029.5C1607.62 1029.5 1602.63 1034.49 1602.63 1040.65C1602.63 1046.81 1607.62 1051.81 1613.78 1051.81Z" fill="#E1E1E1"/>
<path d="M1549.74 897.618C1532.53 897.618 1515.7 892.514 1501.39 882.951C1487.08 873.389 1475.93 859.797 1469.34 843.895C1462.75 827.993 1461.03 810.495 1464.39 793.613C1467.75 776.732 1476.03 761.225 1488.2 749.054C1500.38 736.883 1515.88 728.595 1532.76 725.237C1549.65 721.879 1567.14 723.602 1583.05 730.189C1598.95 736.776 1612.54 747.93 1622.1 762.242C1631.66 776.553 1636.77 793.379 1636.77 810.591C1636.74 833.665 1627.57 855.787 1611.25 872.103C1594.94 888.418 1572.82 897.595 1549.74 897.618ZM1549.74 730.164C1533.83 730.164 1518.28 734.881 1505.06 743.719C1491.83 752.556 1481.52 765.117 1475.44 779.813C1469.35 794.509 1467.76 810.681 1470.86 826.282C1473.96 841.883 1481.62 856.214 1492.87 867.462C1504.12 878.71 1518.45 886.37 1534.05 889.473C1549.65 892.576 1565.82 890.984 1580.52 884.896C1595.22 878.809 1607.78 868.5 1616.61 855.274C1625.45 842.048 1630.17 826.498 1630.17 810.591C1630.15 789.268 1621.66 768.824 1606.59 753.746C1591.51 738.668 1571.06 730.188 1549.74 730.164Z" fill="#68CDDA"/>
</g>
</g>
<defs>
<clipPath id="clip0_14_724">
<rect width="1728" height="1117" fill="white"/>
</clipPath>
</defs>
</svg>
