<svg width="579" height="119" viewBox="0 0 579 119" fill="none" xmlns="http://www.w3.org/2000/svg">
<g opacity="0.5">
<path opacity="0.5" d="M578.205 41.8407V109.295C578.205 114.277 574.162 118.32 569.18 118.32H307.252L578.205 41.8407Z" fill="url(#paint0_linear_101_221)"/>
<path opacity="0.5" d="M571.401 118.049C570.697 118.23 569.939 118.32 569.18 118.32H39.7285L477.07 0.415283L571.401 118.049Z" fill="url(#paint1_linear_101_221)"/>
<path opacity="0.5" d="M485.806 118.32H168.644L437.196 47.3462L485.806 118.32Z" fill="url(#paint2_linear_101_221)"/>
</g>
<g opacity="0.5">
<path opacity="0.5" d="M0 41.8407V109.295C0 114.277 4.04327 118.32 9.02516 118.32H270.953L0 41.8407Z" fill="url(#paint3_linear_101_221)"/>
<path opacity="0.5" d="M6.80518 118.049C7.50914 118.23 8.26725 118.32 9.02536 118.32H538.477L101.136 0.415283L6.80518 118.049Z" fill="url(#paint4_linear_101_221)"/>
<path opacity="0.5" d="M92.3994 118.32H409.562L141.009 47.3462L92.3994 118.32Z" fill="url(#paint5_linear_101_221)"/>
</g>
<defs>
<linearGradient id="paint0_linear_101_221" x1="442.738" y1="38.2306" x2="442.738" y2="118.952" gradientUnits="userSpaceOnUse">
<stop stop-color="#364FCC"/>
<stop offset="1" stop-color="#D8DEFF" stop-opacity="0"/>
</linearGradient>
<linearGradient id="paint1_linear_101_221" x1="305.556" y1="-5.16227" x2="305.556" y2="119.295" gradientUnits="userSpaceOnUse">
<stop stop-color="#364FCC"/>
<stop offset="1" stop-color="#D8DEFF" stop-opacity="0"/>
</linearGradient>
<linearGradient id="paint2_linear_101_221" x1="327.216" y1="43.9888" x2="327.216" y2="118.916" gradientUnits="userSpaceOnUse">
<stop stop-color="#364FCC"/>
<stop offset="1" stop-color="#D8DEFF" stop-opacity="0"/>
</linearGradient>
<linearGradient id="paint3_linear_101_221" x1="135.468" y1="38.2306" x2="135.468" y2="118.952" gradientUnits="userSpaceOnUse">
<stop stop-color="#364FCC"/>
<stop offset="1" stop-color="#D8DEFF" stop-opacity="0"/>
</linearGradient>
<linearGradient id="paint4_linear_101_221" x1="272.632" y1="-5.16227" x2="272.632" y2="119.295" gradientUnits="userSpaceOnUse">
<stop stop-color="#364FCC"/>
<stop offset="1" stop-color="#D8DEFF" stop-opacity="0"/>
</linearGradient>
<linearGradient id="paint5_linear_101_221" x1="250.99" y1="43.9888" x2="250.99" y2="118.916" gradientUnits="userSpaceOnUse">
<stop stop-color="#364FCC"/>
<stop offset="1" stop-color="#D8DEFF" stop-opacity="0"/>
</linearGradient>
</defs>
</svg>
