<svg width="239" height="76" viewBox="0 0 239 76" fill="none" xmlns="http://www.w3.org/2000/svg">
<path d="M31.0143 44H31.0123C29.4548 43.9993 27.9018 43.8339 26.3791 43.5066L26.1926 43.4689L25.8952 43.3942L25.6529 43.339L25.3924 43.2643L25.132 43.1896L24.8896 43.1155L24.5908 43.022L24.368 42.9473L24.051 42.8362L23.8646 42.7796L23.5294 42.6686L23.38 42.612L23.0078 42.482L22.8773 42.4261L22.4869 42.2585L22.3934 42.2215L21.9834 42.0344L21.9087 41.9974L21.4988 41.8116L21.4436 41.7733L21.0156 41.5693H20.922C17.5235 39.8022 14.6418 37.1831 12.5588 33.9682L14.5705 32.795C16.0442 35.049 17.9651 36.9763 20.214 38.4574C19.7667 36.5336 19.4078 34.8638 19.1156 33.4843L14.9247 32.5896L15.2222 32.422L19.3015 30.056L22.5234 28.1752C23.4924 29.5106 24.7638 30.5976 26.2336 31.3471C27.7033 32.0966 29.3297 32.4873 30.9795 32.4873C32.6292 32.4873 34.2556 32.0966 35.7254 31.3471C37.1951 30.5976 38.4665 29.5106 39.4355 28.1752L42.6769 30.0566L46.3463 32.1804L47.0544 32.5896L42.901 33.4843C42.6308 34.8319 42.2936 36.332 41.9367 37.9203L41.8201 38.4392C44.068 36.964 45.989 35.0429 47.4643 32.795L49.476 33.9682C47.4784 37.0466 44.7432 39.5769 41.519 41.3289C38.2948 43.0809 34.6838 43.9991 31.0145 44L31.0143 44ZM25.3359 34.6205C25.4989 36.0024 25.6747 37.531 25.8609 39.1494L25.8631 39.1684L25.8721 39.2464C25.9397 39.8339 26.0095 40.4403 26.0816 41.0658C29.3133 41.8951 32.7019 41.8951 35.9336 41.0658C36.1801 38.9524 36.4248 36.7836 36.6605 34.6205C34.7873 34.9128 32.8943 35.0598 30.9984 35.0602C29.1024 35.0598 27.2093 34.9128 25.3359 34.6205ZM11.9626 33.0568L11.9622 33.0562C10.0217 29.7016 8.99994 25.8945 9 22.019C9.00006 18.1435 10.0219 14.3365 11.9625 10.9819L14.1425 12.2286C12.4218 15.2009 11.5156 18.5747 11.5156 22.0093C11.5156 25.4439 12.4218 28.8177 14.1425 31.79L11.9632 33.0564L11.9626 33.0568ZM50.0344 33.0562L50.0338 33.0558L47.8545 31.7893C49.5729 28.8199 50.4778 25.4497 50.4778 22.0187C50.4778 18.5878 49.5729 15.2175 47.8545 12.2481L50.0344 10.9813C51.977 14.3352 52.9999 18.1424 53 22.0184C53.0001 25.8943 51.9772 29.7016 50.0348 33.0555L50.0344 33.0562ZM30.9981 31.3982C28.8263 31.3982 26.7217 30.645 25.0428 29.267C23.364 27.8891 22.2148 25.9715 21.7911 23.8411C21.3673 21.7107 21.6953 19.4993 22.7191 17.5836C23.7428 15.6679 25.399 14.1665 27.4055 13.3352C29.412 12.5039 31.6446 12.3942 33.723 13.0246C35.8013 13.6551 37.5968 14.9868 38.8034 16.7928C40.0101 18.5988 40.5534 20.7674 40.3406 22.9291C40.1278 25.0908 39.1722 27.1118 37.6366 28.6479C36.7669 29.5226 35.7324 30.2161 34.5929 30.6882C33.4534 31.1603 32.2315 31.4016 30.9981 31.3982ZM28.2627 17.2622C28.0104 17.2622 27.8598 17.4459 27.8598 17.7536C27.8598 17.8854 27.8734 19.9458 27.8866 21.9383C27.8993 23.8481 27.9136 26.0129 27.9136 26.1476C27.9136 26.3947 28.0515 26.5307 28.302 26.5307C28.4818 26.5307 28.712 26.4583 28.9676 26.3213C29.1846 26.2053 35.5845 22.4736 35.6489 22.436C35.6525 22.4333 36.0228 22.1643 36.001 21.8676C35.9893 21.7103 35.8709 21.5728 35.6489 21.4588C34.8871 21.0681 28.8676 17.5192 28.7454 17.4206C28.5639 17.3156 28.4014 17.2623 28.2627 17.2623V17.2622ZM46.3832 30.9317L46.3826 30.9313L44.2046 29.6648C45.5484 27.3404 46.256 24.7029 46.256 22.018C46.256 19.333 45.5484 16.6955 44.2046 14.3711L46.3832 13.1049C47.9454 15.8156 48.7677 18.8893 48.7678 22.0179C48.7678 25.1466 47.9456 28.2203 46.3836 30.931L46.3832 30.9317ZM15.632 30.9128L15.6316 30.9122C14.0673 28.2056 13.2437 25.1346 13.2438 22.0085C13.2439 18.8823 14.0676 15.8114 15.6319 13.1049L17.7937 14.3711L17.8112 14.3529C16.4671 16.6771 15.7593 19.3147 15.7593 21.9997C15.7593 24.6847 16.4671 27.3223 17.8112 29.6465L15.6326 30.9124L15.632 30.9128ZM19.2833 28.7897L19.2829 28.7891C18.091 26.7281 17.4635 24.3893 17.4636 22.0085C17.4636 19.6276 18.0913 17.2889 19.2833 15.228L21.4619 16.4767C20.4908 18.1553 19.9794 20.0604 19.9794 21.9998C19.9794 23.9392 20.4908 25.8443 21.4619 27.5229L19.2839 28.7893L19.2833 28.7897ZM42.7138 28.7897L42.7132 28.7893L40.5351 27.5418C41.5063 25.8631 42.0177 23.9579 42.0177 22.0184C42.0177 20.0789 41.5063 18.1737 40.5351 16.495L42.7138 15.2281C43.9058 17.289 44.5335 19.6278 44.5335 22.0086C44.5336 24.3895 43.906 26.7283 42.7142 28.7892L42.7138 28.7897ZM22.5424 15.8432L22.5418 15.8428L18.8915 13.7196L15.6333 11.8375L12.54 10.0497C14.6242 6.81942 17.5128 4.18713 20.9221 2.41146H20.9968L21.4255 2.20749L21.4807 2.16912L21.8906 1.98333L21.9653 1.94632L22.3752 1.76054L22.4681 1.72285L22.859 1.55457L22.9896 1.4987L23.3619 1.36887L23.5113 1.31233L23.8465 1.18242L24.033 1.12655L24.3493 1.05182L24.5727 0.977094L24.8702 0.884203L25.1125 0.809475L25.6341 0.661376L25.8764 0.604838L26.1745 0.531468L26.3609 0.492426C30.7237 -0.446221 35.2686 -0.036616 39.3933 1.66695C43.518 3.37051 47.0276 6.28757 49.457 10.0315L46.7749 11.5958L43.1055 13.7196L39.4548 15.8423C38.4856 14.5072 37.2142 13.4205 35.7444 12.6712C34.2747 11.922 32.6484 11.5313 30.9988 11.5314C29.3491 11.5314 27.7229 11.9221 26.2531 12.6714C24.7834 13.4208 23.512 14.5075 22.5428 15.8427L22.5424 15.8432ZM41.82 5.57862C42.1421 6.99521 42.4616 8.44919 42.7697 9.90016L47.24 10.9065C45.7966 8.79525 43.9556 6.98557 41.82 5.57867V5.57862ZM20.214 5.56045C18.0735 6.96008 16.2262 8.76337 14.7752 10.8696L19.2638 9.88206C19.5779 8.40543 19.8978 6.95126 20.214 5.56051V5.56045ZM30.9989 8.24693C32.7442 8.24693 34.5196 8.39345 36.5865 8.70803C36.4496 7.43671 36.2915 6.05976 36.124 4.60202C36.0626 4.06723 35.9995 3.51728 35.9349 2.95217C32.7029 2.12219 29.3136 2.12219 26.0816 2.95217C25.7988 5.27125 25.5853 7.10036 25.4107 8.70817C27.4792 8.39326 29.2551 8.24699 30.9988 8.24699L30.9989 8.24693Z" fill="white"/>
<path d="M83.4568 22.608C83.4568 24.592 83.0834 26.3093 82.3368 27.76C81.6114 29.1893 80.6408 30.3733 79.4248 31.312C78.2301 32.2293 76.8754 32.912 75.3608 33.36C73.8461 33.7867 72.3101 34 70.7528 34H62.3048V11.344H70.4968C72.0968 11.344 73.6754 11.536 75.2328 11.92C76.7901 12.2827 78.1768 12.9013 79.3928 13.776C80.6088 14.6293 81.5901 15.7813 82.3368 17.232C83.0834 18.6827 83.4568 20.4747 83.4568 22.608ZM77.7608 22.608C77.7608 21.328 77.5474 20.272 77.1208 19.44C76.7154 18.5867 76.1608 17.9147 75.4568 17.424C74.7741 16.912 73.9848 16.5493 73.0888 16.336C72.2141 16.1227 71.3074 16.016 70.3688 16.016H67.6488V29.264H70.2408C71.2221 29.264 72.1608 29.1573 73.0568 28.944C73.9741 28.7093 74.7741 28.336 75.4568 27.824C76.1608 27.312 76.7154 26.6293 77.1208 25.776C77.5474 24.9227 77.7608 23.8667 77.7608 22.608ZM101.665 34L99.9048 29.552H91.1368L89.4728 34H83.5207L93.0248 11.344H98.3368L107.745 34H101.665ZM95.5848 17.392L92.7048 25.168H98.4008L95.5848 17.392ZM121.745 34L116.849 25.008H114.993V34H109.617V11.344H118.257C119.345 11.344 120.401 11.4613 121.425 11.696C122.471 11.9093 123.399 12.2827 124.209 12.816C125.041 13.3493 125.703 14.0533 126.193 14.928C126.684 15.8027 126.929 16.8907 126.929 18.192C126.929 19.728 126.513 21.0187 125.681 22.064C124.849 23.1093 123.697 23.856 122.225 24.304L128.145 34H121.745ZM121.521 18.288C121.521 17.7547 121.404 17.328 121.169 17.008C120.956 16.6667 120.668 16.4107 120.305 16.24C119.964 16.048 119.569 15.92 119.121 15.856C118.695 15.792 118.279 15.76 117.873 15.76H114.961V21.04H117.553C118.001 21.04 118.46 21.008 118.929 20.944C119.399 20.8587 119.825 20.72 120.209 20.528C120.593 20.336 120.903 20.0587 121.137 19.696C121.393 19.3333 121.521 18.864 121.521 18.288ZM141.693 34H136.221L127.645 11.344H133.789L139.037 27.408H139.165L144.381 11.344H150.429L141.693 34ZM152.274 34V11.344H157.778V34H152.274ZM174.429 17.232C173.96 16.6347 173.341 16.1653 172.573 15.824C171.826 15.4613 171.101 15.28 170.397 15.28C170.034 15.28 169.661 15.312 169.277 15.376C168.914 15.44 168.584 15.568 168.285 15.76C167.986 15.9307 167.73 16.1653 167.517 16.464C167.325 16.7413 167.229 17.104 167.229 17.552C167.229 17.936 167.304 18.256 167.453 18.512C167.624 18.768 167.858 18.992 168.157 19.184C168.477 19.376 168.85 19.5573 169.277 19.728C169.704 19.8773 170.184 20.0373 170.717 20.208C171.485 20.464 172.285 20.752 173.117 21.072C173.949 21.3707 174.706 21.776 175.389 22.288C176.072 22.8 176.637 23.44 177.085 24.208C177.533 24.9547 177.757 25.8933 177.757 27.024C177.757 28.3253 177.512 29.456 177.021 30.416C176.552 31.3547 175.912 32.1333 175.101 32.752C174.29 33.3707 173.362 33.8293 172.317 34.128C171.272 34.4267 170.194 34.576 169.085 34.576C167.464 34.576 165.896 34.2987 164.381 33.744C162.866 33.168 161.608 32.3573 160.605 31.312L164.189 27.664C164.744 28.3467 165.469 28.9227 166.365 29.392C167.282 29.84 168.189 30.064 169.085 30.064C169.49 30.064 169.885 30.0213 170.269 29.936C170.653 29.8507 170.984 29.712 171.261 29.52C171.56 29.328 171.794 29.072 171.965 28.752C172.136 28.432 172.221 28.048 172.221 27.6C172.221 27.1733 172.114 26.8107 171.901 26.512C171.688 26.2133 171.378 25.9467 170.973 25.712C170.589 25.456 170.098 25.232 169.501 25.04C168.925 24.8267 168.264 24.6027 167.517 24.368C166.792 24.1333 166.077 23.856 165.373 23.536C164.69 23.216 164.072 22.8107 163.517 22.32C162.984 21.808 162.546 21.2 162.205 20.496C161.885 19.7707 161.725 18.896 161.725 17.872C161.725 16.6133 161.981 15.536 162.493 14.64C163.005 13.744 163.677 13.008 164.509 12.432C165.341 11.856 166.28 11.44 167.325 11.184C168.37 10.9067 169.426 10.768 170.493 10.768C171.773 10.768 173.074 11.0027 174.397 11.472C175.741 11.9413 176.914 12.6347 177.917 13.552L174.429 17.232Z" fill="white"/>
<path d="M10.17 57.38H12.06V68H10.17V57.38ZM14.6134 60.8H16.3234V61.955H16.3534C16.5134 61.595 16.7884 61.28 17.1784 61.01C17.5784 60.73 18.0484 60.59 18.5884 60.59C19.0584 60.59 19.4584 60.675 19.7884 60.845C20.1284 61.005 20.4034 61.22 20.6134 61.49C20.8334 61.76 20.9934 62.07 21.0934 62.42C21.1934 62.77 21.2434 63.13 21.2434 63.5V68H19.4434V64.01C19.4434 63.8 19.4284 63.58 19.3984 63.35C19.3684 63.12 19.3034 62.915 19.2034 62.735C19.1034 62.545 18.9634 62.39 18.7834 62.27C18.6134 62.15 18.3834 62.09 18.0934 62.09C17.8034 62.09 17.5534 62.15 17.3434 62.27C17.1334 62.38 16.9584 62.525 16.8184 62.705C16.6884 62.885 16.5884 63.095 16.5184 63.335C16.4484 63.565 16.4134 63.8 16.4134 64.04V68H14.6134V60.8ZM22.5639 60.8H24.5289L26.4189 66.05H26.4489L28.3539 60.8H30.2589L27.3939 68H25.4739L22.5639 60.8ZM36.7043 63.68C36.7043 63.45 36.6693 63.23 36.5993 63.02C36.5393 62.81 36.4393 62.625 36.2993 62.465C36.1593 62.305 35.9793 62.18 35.7593 62.09C35.5493 61.99 35.2993 61.94 35.0093 61.94C34.4693 61.94 34.0093 62.105 33.6293 62.435C33.2593 62.755 33.0543 63.17 33.0143 63.68H36.7043ZM38.5043 64.49C38.5043 64.57 38.5043 64.65 38.5043 64.73C38.5043 64.81 38.4993 64.89 38.4893 64.97H33.0143C33.0343 65.23 33.0993 65.47 33.2093 65.69C33.3293 65.9 33.4843 66.085 33.6743 66.245C33.8643 66.395 34.0793 66.515 34.3193 66.605C34.5593 66.695 34.8093 66.74 35.0693 66.74C35.5193 66.74 35.8993 66.66 36.2093 66.5C36.5193 66.33 36.7743 66.1 36.9743 65.81L38.1743 66.77C37.4643 67.73 36.4343 68.21 35.0843 68.21C34.5243 68.21 34.0093 68.125 33.5393 67.955C33.0693 67.775 32.6593 67.525 32.3093 67.205C31.9693 66.885 31.6993 66.495 31.4993 66.035C31.3093 65.565 31.2143 65.035 31.2143 64.445C31.2143 63.865 31.3093 63.34 31.4993 62.87C31.6993 62.39 31.9693 61.985 32.3093 61.655C32.6493 61.315 33.0493 61.055 33.5093 60.875C33.9793 60.685 34.4843 60.59 35.0243 60.59C35.5243 60.59 35.9843 60.675 36.4043 60.845C36.8343 61.005 37.2043 61.25 37.5143 61.58C37.8243 61.9 38.0643 62.305 38.2343 62.795C38.4143 63.275 38.5043 63.84 38.5043 64.49ZM40.5476 60.8H42.2576V61.955H42.2876C42.4476 61.595 42.7226 61.28 43.1126 61.01C43.5126 60.73 43.9826 60.59 44.5226 60.59C44.9926 60.59 45.3926 60.675 45.7226 60.845C46.0626 61.005 46.3376 61.22 46.5476 61.49C46.7676 61.76 46.9276 62.07 47.0276 62.42C47.1276 62.77 47.1776 63.13 47.1776 63.5V68H45.3776V64.01C45.3776 63.8 45.3626 63.58 45.3326 63.35C45.3026 63.12 45.2376 62.915 45.1376 62.735C45.0376 62.545 44.8976 62.39 44.7176 62.27C44.5476 62.15 44.3176 62.09 44.0276 62.09C43.7376 62.09 43.4876 62.15 43.2776 62.27C43.0676 62.38 42.8926 62.525 42.7526 62.705C42.6226 62.885 42.5226 63.095 42.4526 63.335C42.3826 63.565 42.3476 63.8 42.3476 64.04V68H40.5476V60.8ZM48.543 62.24V60.8H49.803V58.715H51.573V60.8H53.373V62.24H51.573V65.585C51.573 65.905 51.628 66.17 51.738 66.38C51.858 66.59 52.118 66.695 52.518 66.695C52.638 66.695 52.768 66.685 52.908 66.665C53.048 66.635 53.173 66.595 53.283 66.545L53.343 67.955C53.183 68.015 52.993 68.06 52.773 68.09C52.553 68.13 52.343 68.15 52.143 68.15C51.663 68.15 51.273 68.085 50.973 67.955C50.673 67.815 50.433 67.63 50.253 67.4C50.083 67.16 49.963 66.89 49.893 66.59C49.833 66.28 49.803 65.95 49.803 65.6V62.24H48.543ZM54.5557 64.37C54.5557 63.8 54.6557 63.285 54.8557 62.825C55.0657 62.355 55.3457 61.955 55.6957 61.625C56.0457 61.295 56.4607 61.04 56.9407 60.86C57.4207 60.68 57.9307 60.59 58.4707 60.59C59.0107 60.59 59.5207 60.68 60.0007 60.86C60.4807 61.04 60.8957 61.295 61.2457 61.625C61.5957 61.955 61.8707 62.355 62.0707 62.825C62.2807 63.285 62.3857 63.8 62.3857 64.37C62.3857 64.94 62.2807 65.46 62.0707 65.93C61.8707 66.4 61.5957 66.805 61.2457 67.145C60.8957 67.475 60.4807 67.735 60.0007 67.925C59.5207 68.115 59.0107 68.21 58.4707 68.21C57.9307 68.21 57.4207 68.115 56.9407 67.925C56.4607 67.735 56.0457 67.475 55.6957 67.145C55.3457 66.805 55.0657 66.4 54.8557 65.93C54.6557 65.46 54.5557 64.94 54.5557 64.37ZM56.3857 64.37C56.3857 64.65 56.4257 64.93 56.5057 65.21C56.5957 65.49 56.7257 65.74 56.8957 65.96C57.0657 66.18 57.2807 66.36 57.5407 66.5C57.8007 66.64 58.1107 66.71 58.4707 66.71C58.8307 66.71 59.1407 66.64 59.4007 66.5C59.6607 66.36 59.8757 66.18 60.0457 65.96C60.2157 65.74 60.3407 65.49 60.4207 65.21C60.5107 64.93 60.5557 64.65 60.5557 64.37C60.5557 64.09 60.5107 63.815 60.4207 63.545C60.3407 63.265 60.2157 63.015 60.0457 62.795C59.8757 62.575 59.6607 62.4 59.4007 62.27C59.1407 62.13 58.8307 62.06 58.4707 62.06C58.1107 62.06 57.8007 62.13 57.5407 62.27C57.2807 62.4 57.0657 62.575 56.8957 62.795C56.7257 63.015 56.5957 63.265 56.5057 63.545C56.4257 63.815 56.3857 64.09 56.3857 64.37ZM64.431 60.8H66.156V62H66.186C66.386 61.58 66.666 61.24 67.026 60.98C67.386 60.72 67.806 60.59 68.286 60.59C68.356 60.59 68.431 60.595 68.511 60.605C68.591 60.605 68.661 60.615 68.721 60.635V62.285C68.601 62.255 68.496 62.235 68.406 62.225C68.326 62.215 68.246 62.21 68.166 62.21C67.756 62.21 67.426 62.285 67.176 62.435C66.926 62.585 66.731 62.765 66.591 62.975C66.451 63.185 66.356 63.4 66.306 63.62C66.256 63.84 66.231 64.015 66.231 64.145V68H64.431V60.8ZM69.1148 60.8H71.1098L73.1198 66.035H73.1498L74.9348 60.8H76.8098L73.4048 69.545C73.2748 69.875 73.1348 70.165 72.9848 70.415C72.8348 70.675 72.6548 70.89 72.4448 71.06C72.2348 71.24 71.9848 71.375 71.6948 71.465C71.4148 71.555 71.0748 71.6 70.6748 71.6C70.5248 71.6 70.3698 71.59 70.2098 71.57C70.0598 71.56 69.9048 71.535 69.7448 71.495L69.8948 69.935C70.0148 69.975 70.1298 70 70.2398 70.01C70.3598 70.03 70.4698 70.04 70.5698 70.04C70.7598 70.04 70.9198 70.015 71.0498 69.965C71.1798 69.925 71.2898 69.855 71.3798 69.755C71.4698 69.665 71.5498 69.55 71.6198 69.41C71.6898 69.27 71.7648 69.105 71.8448 68.915L72.2048 68L69.1148 60.8ZM84.1041 59.03H80.8491V57.38H89.2491V59.03H85.9941V68H84.1041V59.03ZM89.3468 60.8H91.0718V62H91.1018C91.3018 61.58 91.5818 61.24 91.9418 60.98C92.3018 60.72 92.7218 60.59 93.2018 60.59C93.2718 60.59 93.3468 60.595 93.4268 60.605C93.5068 60.605 93.5768 60.615 93.6368 60.635V62.285C93.5168 62.255 93.4118 62.235 93.3218 62.225C93.2418 62.215 93.1618 62.21 93.0818 62.21C92.6718 62.21 92.3418 62.285 92.0918 62.435C91.8418 62.585 91.6468 62.765 91.5068 62.975C91.3668 63.185 91.2718 63.4 91.2218 63.62C91.1718 63.84 91.1468 64.015 91.1468 64.145V68H89.3468V60.8ZM99.3902 67.085H99.3452C99.1652 67.405 98.8752 67.67 98.4752 67.88C98.0752 68.08 97.6202 68.18 97.1102 68.18C96.8202 68.18 96.5152 68.14 96.1952 68.06C95.8852 67.99 95.5952 67.87 95.3252 67.7C95.0652 67.52 94.8452 67.29 94.6652 67.01C94.4952 66.72 94.4102 66.365 94.4102 65.945C94.4102 65.405 94.5602 64.975 94.8602 64.655C95.1702 64.335 95.5652 64.09 96.0452 63.92C96.5252 63.75 97.0552 63.64 97.6352 63.59C98.2252 63.53 98.8002 63.5 99.3602 63.5V63.32C99.3602 62.87 99.1952 62.54 98.8652 62.33C98.5452 62.11 98.1602 62 97.7102 62C97.3302 62 96.9652 62.08 96.6152 62.24C96.2652 62.4 95.9752 62.595 95.7452 62.825L94.8152 61.73C95.2252 61.35 95.6952 61.065 96.2252 60.875C96.7652 60.685 97.3102 60.59 97.8602 60.59C98.5002 60.59 99.0252 60.68 99.4352 60.86C99.8552 61.04 100.185 61.275 100.425 61.565C100.665 61.855 100.83 62.18 100.92 62.54C101.02 62.9 101.07 63.26 101.07 63.62V68H99.3902V67.085ZM99.3602 64.715H98.9552C98.6652 64.715 98.3602 64.73 98.0402 64.76C97.7202 64.78 97.4252 64.835 97.1552 64.925C96.8852 65.005 96.6602 65.125 96.4802 65.285C96.3002 65.435 96.2102 65.645 96.2102 65.915C96.2102 66.085 96.2452 66.23 96.3152 66.35C96.3952 66.46 96.4952 66.55 96.6152 66.62C96.7352 66.69 96.8702 66.74 97.0202 66.77C97.1702 66.8 97.3202 66.815 97.4702 66.815C98.0902 66.815 98.5602 66.65 98.8802 66.32C99.2002 65.99 99.3602 65.54 99.3602 64.97V64.715ZM108.387 62.795C108.247 62.595 108.037 62.43 107.757 62.3C107.477 62.16 107.192 62.09 106.902 62.09C106.572 62.09 106.282 62.16 106.032 62.3C105.782 62.43 105.572 62.605 105.402 62.825C105.242 63.045 105.122 63.295 105.042 63.575C104.962 63.845 104.922 64.12 104.922 64.4C104.922 64.68 104.962 64.96 105.042 65.24C105.132 65.51 105.262 65.755 105.432 65.975C105.602 66.195 105.812 66.375 106.062 66.515C106.322 66.645 106.622 66.71 106.962 66.71C107.242 66.71 107.522 66.655 107.802 66.545C108.082 66.435 108.307 66.275 108.477 66.065L109.602 67.205C109.302 67.525 108.917 67.775 108.447 67.955C107.987 68.125 107.487 68.21 106.947 68.21C106.417 68.21 105.912 68.125 105.432 67.955C104.962 67.785 104.547 67.535 104.187 67.205C103.837 66.875 103.557 66.475 103.347 66.005C103.147 65.535 103.047 65 103.047 64.4C103.047 63.82 103.147 63.295 103.347 62.825C103.557 62.355 103.837 61.955 104.187 61.625C104.537 61.295 104.942 61.04 105.402 60.86C105.872 60.68 106.372 60.59 106.902 60.59C107.432 60.59 107.942 60.69 108.432 60.89C108.932 61.09 109.327 61.365 109.617 61.715L108.387 62.795ZM111.122 56.66H112.922V63.83H112.967L115.697 60.8H118.007L114.887 64.055L118.202 68H115.817L112.967 64.31H112.922V68H111.122V56.66ZM124.342 63.68C124.342 63.45 124.307 63.23 124.237 63.02C124.177 62.81 124.077 62.625 123.937 62.465C123.797 62.305 123.617 62.18 123.397 62.09C123.187 61.99 122.937 61.94 122.647 61.94C122.107 61.94 121.647 62.105 121.267 62.435C120.897 62.755 120.692 63.17 120.652 63.68H124.342ZM126.142 64.49C126.142 64.57 126.142 64.65 126.142 64.73C126.142 64.81 126.137 64.89 126.127 64.97H120.652C120.672 65.23 120.737 65.47 120.847 65.69C120.967 65.9 121.122 66.085 121.312 66.245C121.502 66.395 121.717 66.515 121.957 66.605C122.197 66.695 122.447 66.74 122.707 66.74C123.157 66.74 123.537 66.66 123.847 66.5C124.157 66.33 124.412 66.1 124.612 65.81L125.812 66.77C125.102 67.73 124.072 68.21 122.722 68.21C122.162 68.21 121.647 68.125 121.177 67.955C120.707 67.775 120.297 67.525 119.947 67.205C119.607 66.885 119.337 66.495 119.137 66.035C118.947 65.565 118.852 65.035 118.852 64.445C118.852 63.865 118.947 63.34 119.137 62.87C119.337 62.39 119.607 61.985 119.947 61.655C120.287 61.315 120.687 61.055 121.147 60.875C121.617 60.685 122.122 60.59 122.662 60.59C123.162 60.59 123.622 60.675 124.042 60.845C124.472 61.005 124.842 61.25 125.152 61.58C125.462 61.9 125.702 62.305 125.872 62.795C126.052 63.275 126.142 63.84 126.142 64.49ZM128.186 60.8H129.911V62H129.941C130.141 61.58 130.421 61.24 130.781 60.98C131.141 60.72 131.561 60.59 132.041 60.59C132.111 60.59 132.186 60.595 132.266 60.605C132.346 60.605 132.416 60.615 132.476 60.635V62.285C132.356 62.255 132.251 62.235 132.161 62.225C132.081 62.215 132.001 62.21 131.921 62.21C131.511 62.21 131.181 62.285 130.931 62.435C130.681 62.585 130.486 62.765 130.346 62.975C130.206 63.185 130.111 63.4 130.061 63.62C130.011 63.84 129.986 64.015 129.986 64.145V68H128.186V60.8ZM138.09 57.38H141.555C142.165 57.38 142.715 57.435 143.205 57.545C143.695 57.655 144.115 57.835 144.465 58.085C144.815 58.335 145.085 58.655 145.275 59.045C145.465 59.435 145.56 59.905 145.56 60.455C145.56 61.045 145.45 61.54 145.23 61.94C145.01 62.34 144.71 62.665 144.33 62.915C143.96 63.155 143.525 63.33 143.025 63.44C142.525 63.55 141.995 63.605 141.435 63.605H139.98V68H138.09V57.38ZM141.3 62.015C141.61 62.015 141.905 61.995 142.185 61.955C142.465 61.905 142.715 61.825 142.935 61.715C143.155 61.595 143.33 61.435 143.46 61.235C143.59 61.035 143.655 60.775 143.655 60.455C143.655 60.145 143.59 59.895 143.46 59.705C143.33 59.505 143.155 59.35 142.935 59.24C142.725 59.13 142.48 59.06 142.2 59.03C141.93 58.99 141.65 58.97 141.36 58.97H139.98V62.015H141.3ZM146.053 64.37C146.053 63.8 146.153 63.285 146.353 62.825C146.563 62.355 146.843 61.955 147.193 61.625C147.543 61.295 147.958 61.04 148.438 60.86C148.918 60.68 149.428 60.59 149.968 60.59C150.508 60.59 151.018 60.68 151.498 60.86C151.978 61.04 152.393 61.295 152.743 61.625C153.093 61.955 153.368 62.355 153.568 62.825C153.778 63.285 153.883 63.8 153.883 64.37C153.883 64.94 153.778 65.46 153.568 65.93C153.368 66.4 153.093 66.805 152.743 67.145C152.393 67.475 151.978 67.735 151.498 67.925C151.018 68.115 150.508 68.21 149.968 68.21C149.428 68.21 148.918 68.115 148.438 67.925C147.958 67.735 147.543 67.475 147.193 67.145C146.843 66.805 146.563 66.4 146.353 65.93C146.153 65.46 146.053 64.94 146.053 64.37ZM147.883 64.37C147.883 64.65 147.923 64.93 148.003 65.21C148.093 65.49 148.223 65.74 148.393 65.96C148.563 66.18 148.778 66.36 149.038 66.5C149.298 66.64 149.608 66.71 149.968 66.71C150.328 66.71 150.638 66.64 150.898 66.5C151.158 66.36 151.373 66.18 151.543 65.96C151.713 65.74 151.838 65.49 151.918 65.21C152.008 64.93 152.053 64.65 152.053 64.37C152.053 64.09 152.008 63.815 151.918 63.545C151.838 63.265 151.713 63.015 151.543 62.795C151.373 62.575 151.158 62.4 150.898 62.27C150.638 62.13 150.328 62.06 149.968 62.06C149.608 62.06 149.298 62.13 149.038 62.27C148.778 62.4 148.563 62.575 148.393 62.795C148.223 63.015 148.093 63.265 148.003 63.545C147.923 63.815 147.883 64.09 147.883 64.37ZM155.929 60.8H157.654V62H157.684C157.884 61.58 158.164 61.24 158.524 60.98C158.884 60.72 159.304 60.59 159.784 60.59C159.854 60.59 159.929 60.595 160.009 60.605C160.089 60.605 160.159 60.615 160.219 60.635V62.285C160.099 62.255 159.994 62.235 159.904 62.225C159.824 62.215 159.744 62.21 159.664 62.21C159.254 62.21 158.924 62.285 158.674 62.435C158.424 62.585 158.229 62.765 158.089 62.975C157.949 63.185 157.854 63.4 157.804 63.62C157.754 63.84 157.729 64.015 157.729 64.145V68H155.929V60.8ZM160.482 62.24V60.8H161.742V58.715H163.512V60.8H165.312V62.24H163.512V65.585C163.512 65.905 163.567 66.17 163.677 66.38C163.797 66.59 164.057 66.695 164.457 66.695C164.577 66.695 164.707 66.685 164.847 66.665C164.987 66.635 165.112 66.595 165.222 66.545L165.282 67.955C165.122 68.015 164.932 68.06 164.712 68.09C164.492 68.13 164.282 68.15 164.082 68.15C163.602 68.15 163.212 68.085 162.912 67.955C162.612 67.815 162.372 67.63 162.192 67.4C162.022 67.16 161.902 66.89 161.832 66.59C161.772 66.28 161.742 65.95 161.742 65.6V62.24H160.482ZM171.384 67.085H171.339C171.159 67.405 170.869 67.67 170.469 67.88C170.069 68.08 169.614 68.18 169.104 68.18C168.814 68.18 168.509 68.14 168.189 68.06C167.879 67.99 167.589 67.87 167.319 67.7C167.059 67.52 166.839 67.29 166.659 67.01C166.489 66.72 166.404 66.365 166.404 65.945C166.404 65.405 166.554 64.975 166.854 64.655C167.164 64.335 167.559 64.09 168.039 63.92C168.519 63.75 169.049 63.64 169.629 63.59C170.219 63.53 170.794 63.5 171.354 63.5V63.32C171.354 62.87 171.189 62.54 170.859 62.33C170.539 62.11 170.154 62 169.704 62C169.324 62 168.959 62.08 168.609 62.24C168.259 62.4 167.969 62.595 167.739 62.825L166.809 61.73C167.219 61.35 167.689 61.065 168.219 60.875C168.759 60.685 169.304 60.59 169.854 60.59C170.494 60.59 171.019 60.68 171.429 60.86C171.849 61.04 172.179 61.275 172.419 61.565C172.659 61.855 172.824 62.18 172.914 62.54C173.014 62.9 173.064 63.26 173.064 63.62V68H171.384V67.085ZM171.354 64.715H170.949C170.659 64.715 170.354 64.73 170.034 64.76C169.714 64.78 169.419 64.835 169.149 64.925C168.879 65.005 168.654 65.125 168.474 65.285C168.294 65.435 168.204 65.645 168.204 65.915C168.204 66.085 168.239 66.23 168.309 66.35C168.389 66.46 168.489 66.55 168.609 66.62C168.729 66.69 168.864 66.74 169.014 66.77C169.164 66.8 169.314 66.815 169.464 66.815C170.084 66.815 170.554 66.65 170.874 66.32C171.194 65.99 171.354 65.54 171.354 64.97V64.715ZM175.491 56.66H177.291V68H175.491V56.66Z" fill="white"/>
</svg>
