<svg width="700" height="573" viewBox="0 0 700 573" fill="none" xmlns="http://www.w3.org/2000/svg">
<g filter="url(#filter0_d_37_1461)">
<rect x="15" y="15" width="670" height="543" rx="10" fill="white" fill-opacity="0.25" shape-rendering="crispEdges"/>
</g>
<path d="M186.662 186.121V325.115L232.674 387.741H486.376V186.121H391.158H186.662Z" stroke="#364FCC" stroke-width="3" stroke-linecap="round" stroke-dasharray="5 5"/>
<rect x="423.11" y="174.619" width="109.917" height="67.1002" fill="white"/>
<path d="M552.532 149.177C546.447 146.181 543.274 142.16 536.542 145.725L531.103 145.222L528.873 148.098C521.947 142.461 514.071 145.725 505.493 145.725C500.924 145.725 502.502 142.57 498.199 144.264L494.365 145.222L492.123 144.264C481.398 124.899 461.643 119.021 441.324 119.021C411.368 119.021 384.494 140.942 381.892 174.299L380.934 175.258L378.058 176.536C363.621 185.601 357.928 203.778 357.928 222.271C357.928 250.507 378.456 273.476 403.69 273.476C408.952 273.476 414.12 272.476 419.057 270.508L420.066 270.105L420.888 270.871C428.463 277.912 438.071 281.791 447.932 281.791C458.722 281.791 469.007 277.234 476.893 268.968L478.069 268.984H479.48C488.353 278.605 500.023 283.896 512.341 283.896C512.809 283.896 513.707 282.642 514.175 282.618C528.836 282.142 541.806 275.508 550.499 262.241L551.068 261.37L552.524 261.394C580.181 261.394 602.684 236.215 602.684 205.27C602.684 174.324 580.181 149.145 552.524 149.145L552.532 149.177ZM526.72 234.804C526.72 240.304 522.735 244.772 517.812 244.772H442.814C437.898 244.772 433.905 240.312 433.905 234.804C433.905 229.303 437.891 224.835 442.814 224.835H517.812C522.727 224.835 526.72 229.295 526.72 234.804ZM526.72 209.81C526.72 215.311 522.735 219.779 517.812 219.779H442.814C437.898 219.779 433.905 215.319 433.905 209.81C433.905 204.31 437.891 199.842 442.814 199.842H517.812C522.727 199.842 526.72 204.302 526.72 209.81ZM526.72 184.817C526.72 190.317 522.735 194.785 517.812 194.785H442.814C437.898 194.785 433.905 190.325 433.905 184.817C433.905 179.316 437.891 174.848 442.814 174.848H517.812C522.727 174.848 526.72 179.308 526.72 184.817Z" fill="white"/>
<path d="M544.076 159.831C537.436 159.831 531.046 161.262 525.077 164.087L524.182 164.509L523.384 163.927C517.242 159.46 509.976 157.096 502.372 157.096C498.32 157.096 494.332 157.773 490.517 159.115L489.258 159.556L488.555 158.418C479.046 143.075 462.616 133.911 444.602 133.911C418.043 133.911 395.44 154.616 393.133 181.047L393.056 181.923L392.289 182.351C379.489 189.534 371.539 203.094 371.539 217.748C371.539 240.121 389.739 258.321 412.112 258.321C416.777 258.321 421.359 257.529 425.737 255.969L426.632 255.65L427.36 256.257C434.076 261.836 442.595 264.91 451.337 264.91C460.904 264.91 470.023 261.299 477.014 254.749L478.171 253.662L479.308 254.762C487.175 262.385 497.521 266.578 508.443 266.578C508.858 266.578 509.273 266.578 509.689 266.558C522.687 266.181 534.567 259.931 542.274 249.419L542.779 248.729L544.07 248.748C568.59 248.748 588.541 228.797 588.541 204.277C588.541 179.756 568.59 159.805 544.07 159.805L544.076 159.831ZM521.192 227.679C521.192 232.037 517.658 235.577 513.293 235.577H446.8C442.442 235.577 438.901 232.043 438.901 227.679C438.901 223.32 442.435 219.78 446.8 219.78H513.293C517.651 219.78 521.192 223.314 521.192 227.679ZM521.192 207.874C521.192 212.233 517.658 215.773 513.293 215.773H446.8C442.442 215.773 438.901 212.239 438.901 207.874C438.901 203.516 442.435 199.976 446.8 199.976H513.293C517.651 199.976 521.192 203.51 521.192 207.874ZM521.192 188.07C521.192 192.429 517.658 195.969 513.293 195.969H446.8C442.442 195.969 438.901 192.435 438.901 188.07C438.901 183.712 442.435 180.172 446.8 180.172H513.293C517.651 180.172 521.192 183.706 521.192 188.07Z" fill="#364FCC"/>
<path d="M508.449 284.049C497.783 284.049 487.347 281.199 478.273 275.806L477.87 275.563L477.455 275.786C469.492 280.094 460.463 282.369 451.343 282.369C441.591 282.369 431.993 279.768 423.589 274.853L423.321 274.694L423.014 274.751C419.436 275.435 415.774 275.78 412.118 275.78C380.121 275.786 354.093 249.751 354.093 217.754C354.093 199.644 362.317 182.907 376.664 171.826L376.907 171.64L376.971 171.34C383.713 139.547 412.157 116.465 444.608 116.465C464.706 116.465 483.047 124.696 496.268 139.637L496.55 139.956L496.978 139.912C498.767 139.733 500.582 139.637 502.384 139.637C510.391 139.637 518.412 141.477 525.575 144.954L525.863 145.094L526.176 144.999C531.947 143.254 537.973 142.366 544.076 142.366C578.22 142.366 606 170.145 606 204.29C606 235.565 582.604 261.996 551.585 265.76L551.291 265.798L551.086 266.009C540.337 277.16 525.818 283.557 510.206 284.011C509.618 284.03 509.037 284.036 508.455 284.036L508.449 284.049ZM478.465 268.028C487.277 274.157 497.649 277.397 508.449 277.397C508.966 277.397 509.484 277.39 510.008 277.371C524.719 276.943 538.171 270.661 547.884 259.676L548.108 259.427L548.44 259.401C576.987 257.158 599.347 232.951 599.347 204.296C599.347 173.82 574.552 149.018 544.069 149.018C537.724 149.018 531.518 150.079 525.62 152.175L525.269 152.303L524.943 152.118C518.086 148.302 510.283 146.283 502.371 146.283C499.668 146.283 496.946 146.519 494.294 146.986L493.808 147.069L493.501 146.679C481.628 131.694 463.805 123.105 444.608 123.105C414.553 123.105 388.077 145.465 383.023 175.111L382.965 175.456L382.677 175.654C368.944 185.271 360.745 201.005 360.745 217.748C360.745 246.077 383.796 269.127 412.125 269.127C416.202 269.127 420.26 268.648 424.196 267.696L424.548 267.613L424.848 267.811C432.747 272.981 441.911 275.716 451.35 275.716C460.788 275.716 469.748 273.051 477.544 268.009L478.011 267.709L478.471 268.028H478.465Z" fill="#68CDDA"/>
<path d="M508.232 222.956C505.625 222.956 503.51 225.072 503.51 227.679C503.51 230.286 505.625 232.401 508.232 232.401C510.84 232.401 512.955 230.286 512.955 227.679C512.955 225.072 510.84 222.956 508.232 222.956ZM508.232 230.849C506.481 230.849 505.063 229.423 505.063 227.679C505.063 225.934 506.488 224.509 508.232 224.509C509.977 224.509 511.402 225.934 511.402 227.679C511.402 229.423 509.977 230.849 508.232 230.849Z" fill="#364FCC"/>
<path d="M449.612 191.617C449.612 192.077 449.241 192.454 448.794 192.454C448.34 192.454 447.976 192.077 447.976 191.617V184.536C447.976 184.076 448.346 183.699 448.794 183.699C449.247 183.699 449.612 184.076 449.612 184.536V191.617Z" fill="#364FCC"/>
<path d="M453.471 191.617C453.471 192.077 453.1 192.454 452.653 192.454C452.199 192.454 451.835 192.077 451.835 191.617V184.536C451.835 184.076 452.206 183.699 452.653 183.699C453.107 183.699 453.471 184.076 453.471 184.536V191.617Z" fill="#364FCC"/>
<path d="M457.414 191.617C457.414 192.077 457.044 192.454 456.596 192.454C456.143 192.454 455.778 192.077 455.778 191.617V184.536C455.778 184.076 456.149 183.699 456.596 183.699C457.05 183.699 457.414 184.076 457.414 184.536V191.617Z" fill="#364FCC"/>
<path d="M449.567 211.415C449.567 211.875 449.196 212.252 448.749 212.252C448.295 212.252 447.931 211.875 447.931 211.415V204.334C447.931 203.874 448.301 203.497 448.749 203.497C449.202 203.497 449.567 203.874 449.567 204.334V211.415Z" fill="#364FCC"/>
<path d="M453.433 211.415C453.433 211.875 453.062 212.252 452.615 212.252C452.161 212.252 451.797 211.875 451.797 211.415V204.334C451.797 203.874 452.168 203.497 452.615 203.497C453.069 203.497 453.433 203.874 453.433 204.334V211.415Z" fill="#364FCC"/>
<path d="M457.369 211.415C457.369 211.875 456.999 212.252 456.551 212.252C456.098 212.252 455.733 211.875 455.733 211.415V204.334C455.733 203.874 456.104 203.497 456.551 203.497C457.005 203.497 457.369 203.874 457.369 204.334V211.415Z" fill="#364FCC"/>
<path d="M449.529 231.219C449.529 231.679 449.158 232.056 448.711 232.056C448.257 232.056 447.893 231.679 447.893 231.219V224.139C447.893 223.678 448.263 223.301 448.711 223.301C449.164 223.301 449.529 223.678 449.529 224.139V231.219Z" fill="#364FCC"/>
<path d="M453.389 231.219C453.389 231.679 453.018 232.056 452.571 232.056C452.117 232.056 451.753 231.679 451.753 231.219V224.139C451.753 223.678 452.124 223.301 452.571 223.301C453.025 223.301 453.389 223.678 453.389 224.139V231.219Z" fill="#364FCC"/>
<path d="M457.331 231.219C457.331 231.679 456.961 232.056 456.513 232.056C456.06 232.056 455.695 231.679 455.695 231.219V224.139C455.695 223.678 456.066 223.301 456.513 223.301C456.967 223.301 457.331 223.678 457.331 224.139V231.219Z" fill="#364FCC"/>
<path d="M508.232 203.152C505.625 203.152 503.51 205.267 503.51 207.875C503.51 210.482 505.625 212.597 508.232 212.597C510.84 212.597 512.955 210.482 512.955 207.875C512.955 205.267 510.84 203.152 508.232 203.152ZM508.232 211.044C506.481 211.044 505.063 209.619 505.063 207.875C505.063 206.13 506.488 204.705 508.232 204.705C509.977 204.705 511.402 206.13 511.402 207.875C511.402 209.619 509.977 211.044 508.232 211.044Z" fill="#364FCC"/>
<path d="M508.232 183.348C505.625 183.348 503.51 185.463 503.51 188.071C503.51 190.678 505.625 192.793 508.232 192.793C510.84 192.793 512.955 190.678 512.955 188.071C512.955 185.463 510.84 183.348 508.232 183.348ZM508.232 191.24C506.481 191.24 505.063 189.815 505.063 188.071C505.063 186.326 506.488 184.901 508.232 184.901C509.977 184.901 511.402 186.326 511.402 188.071C511.402 189.815 509.977 191.24 508.232 191.24Z" fill="#364FCC"/>
<path d="M396.615 87.672H400.375C401.079 87.672 401.783 87.7893 402.487 88.024C403.202 88.2587 403.842 88.616 404.407 89.096C404.983 89.5653 405.447 90.1573 405.799 90.872C406.151 91.576 406.327 92.3973 406.327 93.336C406.327 94.2853 406.151 95.112 405.799 95.816C405.447 96.52 404.983 97.112 404.407 97.592C403.842 98.0613 403.202 98.4133 402.487 98.648C401.783 98.8827 401.079 99 400.375 99H396.615V87.672ZM397.767 97.976H400.055C400.908 97.976 401.65 97.8427 402.279 97.576C402.919 97.3093 403.447 96.9627 403.863 96.536C404.279 96.0987 404.588 95.6027 404.791 95.048C405.004 94.4933 405.111 93.9227 405.111 93.336C405.111 92.7493 405.004 92.1787 404.791 91.624C404.588 91.0693 404.279 90.5787 403.863 90.152C403.447 89.7147 402.919 89.3627 402.279 89.096C401.65 88.8293 400.908 88.696 400.055 88.696H397.767V97.976ZM413.38 94.168C413.38 93.5173 413.21 93.032 412.868 92.712C412.527 92.392 412.031 92.232 411.38 92.232C410.932 92.232 410.516 92.312 410.132 92.472C409.748 92.632 409.423 92.8453 409.156 93.112L408.548 92.392C408.858 92.0827 409.263 91.8267 409.764 91.624C410.276 91.4213 410.852 91.32 411.492 91.32C411.898 91.32 412.276 91.3787 412.628 91.496C412.98 91.6027 413.29 91.768 413.556 91.992C413.823 92.216 414.031 92.4987 414.18 92.84C414.33 93.1813 414.404 93.5813 414.404 94.04V97.32C414.404 97.608 414.415 97.9067 414.436 98.216C414.458 98.5253 414.49 98.7867 414.532 99H413.556C413.524 98.8187 413.498 98.6213 413.476 98.408C413.455 98.1947 413.444 97.9867 413.444 97.784H413.412C413.071 98.2853 412.682 98.648 412.244 98.872C411.818 99.0853 411.3 99.192 410.692 99.192C410.404 99.192 410.106 99.1493 409.796 99.064C409.498 98.9893 409.22 98.8613 408.964 98.68C408.719 98.4987 408.511 98.264 408.34 97.976C408.18 97.688 408.1 97.336 408.1 96.92C408.1 96.344 408.244 95.8907 408.532 95.56C408.831 95.2187 409.226 94.968 409.716 94.808C410.207 94.6373 410.767 94.5307 411.396 94.488C412.036 94.4347 412.698 94.408 413.38 94.408V94.168ZM413.06 95.256C412.612 95.256 412.159 95.2773 411.7 95.32C411.252 95.352 410.842 95.4267 410.468 95.544C410.106 95.6507 409.807 95.8107 409.572 96.024C409.338 96.2373 409.22 96.52 409.22 96.872C409.22 97.1387 409.268 97.3627 409.364 97.544C409.471 97.7253 409.61 97.8747 409.78 97.992C409.951 98.0987 410.138 98.1787 410.34 98.232C410.554 98.2747 410.767 98.296 410.98 98.296C411.364 98.296 411.706 98.232 412.004 98.104C412.303 97.9653 412.554 97.784 412.756 97.56C412.959 97.3253 413.114 97.0587 413.22 96.76C413.327 96.4613 413.38 96.1467 413.38 95.816V95.256H413.06ZM417.207 93.16C417.207 92.9573 417.202 92.696 417.191 92.376C417.18 92.056 417.164 91.768 417.143 91.512H418.183C418.204 91.7147 418.22 91.9387 418.231 92.184C418.242 92.4293 418.247 92.632 418.247 92.792H418.279C418.492 92.3547 418.812 92.0027 419.239 91.736C419.666 91.4587 420.146 91.32 420.679 91.32C420.818 91.32 420.94 91.3253 421.047 91.336C421.164 91.3467 421.282 91.368 421.399 91.4L421.255 92.424C421.191 92.4027 421.084 92.3813 420.935 92.36C420.786 92.3387 420.636 92.328 420.487 92.328C420.199 92.328 419.922 92.3813 419.655 92.488C419.388 92.5947 419.154 92.7653 418.951 93C418.759 93.224 418.599 93.5173 418.471 93.88C418.354 94.232 418.295 94.6587 418.295 95.16V99H417.207V93.16ZM426.045 99H424.845L421.789 91.512H423.005L425.437 97.848H425.469L427.917 91.512H429.085L426.045 99ZM431.889 99H430.801V91.512H431.889V99ZM432.113 88.632C432.113 88.856 432.033 89.0427 431.873 89.192C431.713 89.3307 431.537 89.4 431.345 89.4C431.153 89.4 430.977 89.3307 430.817 89.192C430.657 89.0427 430.577 88.856 430.577 88.632C430.577 88.408 430.657 88.2267 430.817 88.088C430.977 87.9387 431.153 87.864 431.345 87.864C431.537 87.864 431.713 87.9387 431.873 88.088C432.033 88.2267 432.113 88.408 432.113 88.632ZM438.769 93.288C438.609 92.9787 438.364 92.728 438.033 92.536C437.713 92.3333 437.345 92.232 436.929 92.232C436.737 92.232 436.545 92.2533 436.353 92.296C436.161 92.3387 435.991 92.408 435.841 92.504C435.692 92.6 435.569 92.7227 435.473 92.872C435.388 93.0213 435.345 93.1973 435.345 93.4C435.345 93.752 435.489 94.024 435.777 94.216C436.065 94.3973 436.519 94.552 437.137 94.68C438.023 94.8613 438.673 95.128 439.089 95.48C439.516 95.8213 439.729 96.2853 439.729 96.872C439.729 97.2987 439.644 97.6613 439.473 97.96C439.313 98.248 439.1 98.488 438.833 98.68C438.567 98.8613 438.263 98.9893 437.921 99.064C437.591 99.1493 437.255 99.192 436.913 99.192C436.348 99.192 435.799 99.0747 435.265 98.84C434.732 98.6053 434.295 98.2373 433.953 97.736L434.817 97.096C435.009 97.4267 435.292 97.704 435.665 97.928C436.039 98.152 436.449 98.264 436.897 98.264C437.132 98.264 437.356 98.2427 437.569 98.2C437.783 98.1573 437.969 98.0827 438.129 97.976C438.289 97.8693 438.417 97.736 438.513 97.576C438.609 97.4053 438.657 97.1973 438.657 96.952C438.657 96.5573 438.465 96.264 438.081 96.072C437.708 95.8693 437.164 95.6827 436.449 95.512C436.225 95.4587 435.985 95.3947 435.729 95.32C435.484 95.2347 435.255 95.1173 435.041 94.968C434.828 94.808 434.652 94.6107 434.513 94.376C434.375 94.1413 434.305 93.848 434.305 93.496C434.305 93.112 434.38 92.7867 434.529 92.52C434.679 92.2427 434.876 92.0187 435.121 91.848C435.377 91.6667 435.665 91.5333 435.985 91.448C436.305 91.3627 436.636 91.32 436.977 91.32C437.5 91.32 438.007 91.4373 438.497 91.672C438.988 91.9067 439.356 92.2373 439.601 92.664L438.769 93.288ZM447.111 99H445.959V87.672H447.111V99ZM451.027 91.512C451.048 91.7147 451.064 91.9387 451.075 92.184C451.086 92.4293 451.091 92.632 451.091 92.792H451.123C451.336 92.3547 451.683 92.0027 452.163 91.736C452.643 91.4587 453.15 91.32 453.683 91.32C454.632 91.32 455.342 91.6027 455.811 92.168C456.291 92.7333 456.531 93.48 456.531 94.408V99H455.443V94.856C455.443 94.4613 455.411 94.104 455.347 93.784C455.283 93.464 455.171 93.192 455.011 92.968C454.862 92.7333 454.654 92.552 454.387 92.424C454.131 92.296 453.806 92.232 453.411 92.232C453.123 92.232 452.84 92.2907 452.563 92.408C452.296 92.5253 452.056 92.7067 451.843 92.952C451.63 93.1867 451.459 93.4907 451.331 93.864C451.203 94.2267 451.139 94.6587 451.139 95.16V99H450.051V93.16C450.051 92.9573 450.046 92.696 450.035 92.376C450.024 92.056 450.008 91.768 449.987 91.512H451.027ZM462.42 99H461.22L458.164 91.512H459.38L461.812 97.848H461.844L464.292 91.512H465.46L462.42 99ZM472.872 94.68C472.84 93.976 472.611 93.3947 472.184 92.936C471.768 92.4667 471.171 92.232 470.392 92.232C470.03 92.232 469.694 92.3013 469.384 92.44C469.075 92.568 468.803 92.7493 468.568 92.984C468.334 93.208 468.147 93.4693 468.008 93.768C467.87 94.056 467.79 94.36 467.768 94.68H472.872ZM473.976 95.032C473.976 95.1067 473.976 95.1867 473.976 95.272C473.976 95.3573 473.971 95.448 473.96 95.544H467.752C467.763 95.9173 467.838 96.2693 467.976 96.6C468.115 96.9307 468.307 97.2187 468.552 97.464C468.798 97.7093 469.086 97.9067 469.416 98.056C469.747 98.1947 470.104 98.264 470.488 98.264C471.054 98.264 471.539 98.136 471.944 97.88C472.36 97.6133 472.675 97.3093 472.888 96.968L473.704 97.608C473.256 98.1733 472.76 98.5787 472.216 98.824C471.683 99.0693 471.107 99.192 470.488 99.192C469.934 99.192 469.416 99.096 468.936 98.904C468.467 98.7013 468.062 98.424 467.72 98.072C467.379 97.72 467.107 97.304 466.904 96.824C466.712 96.344 466.616 95.8213 466.616 95.256C466.616 94.6907 466.712 94.168 466.904 93.688C467.096 93.208 467.363 92.792 467.704 92.44C468.046 92.088 468.446 91.816 468.904 91.624C469.363 91.4213 469.859 91.32 470.392 91.32C470.979 91.32 471.496 91.4213 471.944 91.624C472.392 91.816 472.766 92.0827 473.064 92.424C473.363 92.7547 473.587 93.144 473.736 93.592C473.896 94.04 473.976 94.52 473.976 95.032ZM477.292 91.512C477.314 91.7147 477.33 91.9387 477.34 92.184C477.351 92.4293 477.356 92.632 477.356 92.792H477.388C477.602 92.3547 477.948 92.0027 478.428 91.736C478.908 91.4587 479.415 91.32 479.948 91.32C480.898 91.32 481.607 91.6027 482.076 92.168C482.556 92.7333 482.796 93.48 482.796 94.408V99H481.708V94.856C481.708 94.4613 481.676 94.104 481.612 93.784C481.548 93.464 481.436 93.192 481.276 92.968C481.127 92.7333 480.919 92.552 480.652 92.424C480.396 92.296 480.071 92.232 479.676 92.232C479.388 92.232 479.106 92.2907 478.828 92.408C478.562 92.5253 478.322 92.7067 478.108 92.952C477.895 93.1867 477.724 93.4907 477.596 93.864C477.468 94.2267 477.404 94.6587 477.404 95.16V99H476.316V93.16C476.316 92.9573 476.311 92.696 476.3 92.376C476.29 92.056 476.274 91.768 476.252 91.512H477.292ZM488.989 92.424H486.877V96.792C486.877 97.0693 486.904 97.2987 486.957 97.48C487.011 97.6613 487.085 97.8053 487.181 97.912C487.288 98.008 487.411 98.0773 487.549 98.12C487.688 98.152 487.837 98.168 487.997 98.168C488.147 98.168 488.301 98.1467 488.461 98.104C488.632 98.0613 488.792 98.0027 488.941 97.928L488.989 98.872C488.797 98.9467 488.595 99 488.381 99.032C488.179 99.0747 487.955 99.096 487.709 99.096C487.507 99.096 487.293 99.0693 487.069 99.016C486.845 98.9627 486.637 98.8613 486.445 98.712C486.253 98.5627 486.093 98.36 485.965 98.104C485.848 97.848 485.789 97.512 485.789 97.096V92.424H484.237V91.512H485.789V89.4H486.877V91.512H488.989V92.424ZM498.131 95.256C498.131 95.8213 498.03 96.344 497.827 96.824C497.635 97.304 497.363 97.72 497.011 98.072C496.659 98.424 496.238 98.7013 495.747 98.904C495.257 99.096 494.718 99.192 494.131 99.192C493.555 99.192 493.022 99.096 492.531 98.904C492.041 98.7013 491.619 98.424 491.267 98.072C490.915 97.72 490.638 97.304 490.435 96.824C490.243 96.344 490.147 95.8213 490.147 95.256C490.147 94.6907 490.243 94.168 490.435 93.688C490.638 93.208 490.915 92.792 491.267 92.44C491.619 92.088 492.041 91.816 492.531 91.624C493.022 91.4213 493.555 91.32 494.131 91.32C494.718 91.32 495.257 91.4213 495.747 91.624C496.238 91.816 496.659 92.088 497.011 92.44C497.363 92.792 497.635 93.208 497.827 93.688C498.03 94.168 498.131 94.6907 498.131 95.256ZM496.979 95.256C496.979 94.84 496.91 94.4507 496.771 94.088C496.643 93.7147 496.457 93.3947 496.211 93.128C495.966 92.8507 495.667 92.632 495.315 92.472C494.963 92.312 494.569 92.232 494.131 92.232C493.694 92.232 493.299 92.312 492.947 92.472C492.606 92.632 492.313 92.8507 492.067 93.128C491.822 93.3947 491.63 93.7147 491.491 94.088C491.363 94.4507 491.299 94.84 491.299 95.256C491.299 95.672 491.363 96.0667 491.491 96.44C491.63 96.8027 491.822 97.1227 492.067 97.4C492.313 97.6667 492.606 97.88 492.947 98.04C493.299 98.1893 493.694 98.264 494.131 98.264C494.569 98.264 494.963 98.1893 495.315 98.04C495.667 97.88 495.966 97.6667 496.211 97.4C496.457 97.1227 496.643 96.8027 496.771 96.44C496.91 96.0667 496.979 95.672 496.979 95.256ZM500.473 93.16C500.473 92.9573 500.467 92.696 500.457 92.376C500.446 92.056 500.43 91.768 500.409 91.512H501.449C501.47 91.7147 501.486 91.9387 501.497 92.184C501.507 92.4293 501.513 92.632 501.513 92.792H501.545C501.758 92.3547 502.078 92.0027 502.505 91.736C502.931 91.4587 503.411 91.32 503.945 91.32C504.083 91.32 504.206 91.3253 504.313 91.336C504.43 91.3467 504.547 91.368 504.665 91.4L504.521 92.424C504.457 92.4027 504.35 92.3813 504.201 92.36C504.051 92.3387 503.902 92.328 503.753 92.328C503.465 92.328 503.187 92.3813 502.921 92.488C502.654 92.5947 502.419 92.7653 502.217 93C502.025 93.224 501.865 93.5173 501.737 93.88C501.619 94.232 501.561 94.6587 501.561 95.16V99H500.473V93.16ZM508.814 97.832H508.846L511.166 91.512H512.35L508.622 100.936C508.398 101.512 508.11 101.971 507.758 102.312C507.417 102.664 506.921 102.84 506.27 102.84C505.94 102.84 505.614 102.808 505.294 102.744L505.406 101.752C505.662 101.837 505.929 101.88 506.206 101.88C506.58 101.88 506.873 101.763 507.086 101.528C507.3 101.304 507.486 100.979 507.646 100.552L508.254 98.984L505.054 91.512H506.27L508.814 97.832ZM521.356 99H520.204V88.696H516.412V87.672H525.148V88.696H521.356V99ZM525.348 93.16C525.348 92.9573 525.342 92.696 525.332 92.376C525.321 92.056 525.305 91.768 525.284 91.512H526.324C526.345 91.7147 526.361 91.9387 526.372 92.184C526.382 92.4293 526.388 92.632 526.388 92.792H526.42C526.633 92.3547 526.953 92.0027 527.38 91.736C527.806 91.4587 528.286 91.32 528.82 91.32C528.958 91.32 529.081 91.3253 529.188 91.336C529.305 91.3467 529.422 91.368 529.54 91.4L529.396 92.424C529.332 92.4027 529.225 92.3813 529.076 92.36C528.926 92.3387 528.777 92.328 528.628 92.328C528.34 92.328 528.062 92.3813 527.796 92.488C527.529 92.5947 527.294 92.7653 527.092 93C526.9 93.224 526.74 93.5173 526.612 93.88C526.494 94.232 526.436 94.6587 526.436 95.16V99H525.348V93.16ZM535.646 94.168C535.646 93.5173 535.475 93.032 535.134 92.712C534.793 92.392 534.297 92.232 533.646 92.232C533.198 92.232 532.782 92.312 532.398 92.472C532.014 92.632 531.689 92.8453 531.422 93.112L530.814 92.392C531.123 92.0827 531.529 91.8267 532.03 91.624C532.542 91.4213 533.118 91.32 533.758 91.32C534.163 91.32 534.542 91.3787 534.894 91.496C535.246 91.6027 535.555 91.768 535.822 91.992C536.089 92.216 536.297 92.4987 536.446 92.84C536.595 93.1813 536.67 93.5813 536.67 94.04V97.32C536.67 97.608 536.681 97.9067 536.702 98.216C536.723 98.5253 536.755 98.7867 536.798 99H535.822C535.79 98.8187 535.763 98.6213 535.742 98.408C535.721 98.1947 535.71 97.9867 535.71 97.784H535.678C535.337 98.2853 534.947 98.648 534.51 98.872C534.083 99.0853 533.566 99.192 532.958 99.192C532.67 99.192 532.371 99.1493 532.062 99.064C531.763 98.9893 531.486 98.8613 531.23 98.68C530.985 98.4987 530.777 98.264 530.606 97.976C530.446 97.688 530.366 97.336 530.366 96.92C530.366 96.344 530.51 95.8907 530.798 95.56C531.097 95.2187 531.491 94.968 531.982 94.808C532.473 94.6373 533.033 94.5307 533.662 94.488C534.302 94.4347 534.963 94.408 535.646 94.408V94.168ZM535.326 95.256C534.878 95.256 534.425 95.2773 533.966 95.32C533.518 95.352 533.107 95.4267 532.734 95.544C532.371 95.6507 532.073 95.8107 531.838 96.024C531.603 96.2373 531.486 96.52 531.486 96.872C531.486 97.1387 531.534 97.3627 531.63 97.544C531.737 97.7253 531.875 97.8747 532.046 97.992C532.217 98.0987 532.403 98.1787 532.606 98.232C532.819 98.2747 533.033 98.296 533.246 98.296C533.63 98.296 533.971 98.232 534.27 98.104C534.569 97.9653 534.819 97.784 535.022 97.56C535.225 97.3253 535.379 97.0587 535.486 96.76C535.593 96.4613 535.646 96.1467 535.646 95.816V95.256H535.326ZM544.865 93.224C544.683 92.936 544.417 92.7013 544.065 92.52C543.723 92.328 543.35 92.232 542.945 92.232C542.507 92.232 542.113 92.312 541.761 92.472C541.409 92.6213 541.105 92.8347 540.849 93.112C540.603 93.3787 540.411 93.6987 540.273 94.072C540.145 94.4347 540.081 94.8293 540.081 95.256C540.081 95.6827 540.145 96.0773 540.273 96.44C540.411 96.8027 540.603 97.1227 540.849 97.4C541.094 97.6667 541.393 97.88 541.745 98.04C542.097 98.1893 542.491 98.264 542.929 98.264C543.409 98.264 543.814 98.1733 544.145 97.992C544.475 97.8107 544.747 97.576 544.961 97.288L545.777 97.896C545.457 98.2907 545.062 98.6053 544.593 98.84C544.134 99.0747 543.579 99.192 542.929 99.192C542.321 99.192 541.771 99.096 541.281 98.904C540.79 98.7013 540.369 98.424 540.017 98.072C539.675 97.72 539.409 97.304 539.217 96.824C539.025 96.344 538.929 95.8213 538.929 95.256C538.929 94.6907 539.025 94.168 539.217 93.688C539.409 93.208 539.675 92.792 540.017 92.44C540.369 92.088 540.79 91.816 541.281 91.624C541.771 91.4213 542.321 91.32 542.929 91.32C543.43 91.32 543.937 91.432 544.449 91.656C544.971 91.8693 545.393 92.1893 545.713 92.616L544.865 93.224ZM548.593 94.888H548.641L552.097 91.512H553.665L549.889 94.936L554.049 99H552.449L548.641 95.064H548.593V99H547.505V86.904H548.593V94.888ZM561.06 94.68C561.028 93.976 560.798 93.3947 560.372 92.936C559.956 92.4667 559.358 92.232 558.58 92.232C558.217 92.232 557.881 92.3013 557.572 92.44C557.262 92.568 556.99 92.7493 556.756 92.984C556.521 93.208 556.334 93.4693 556.196 93.768C556.057 94.056 555.977 94.36 555.956 94.68H561.06ZM562.164 95.032C562.164 95.1067 562.164 95.1867 562.164 95.272C562.164 95.3573 562.158 95.448 562.148 95.544H555.94C555.95 95.9173 556.025 96.2693 556.164 96.6C556.302 96.9307 556.494 97.2187 556.74 97.464C556.985 97.7093 557.273 97.9067 557.604 98.056C557.934 98.1947 558.292 98.264 558.676 98.264C559.241 98.264 559.726 98.136 560.132 97.88C560.548 97.6133 560.862 97.3093 561.076 96.968L561.892 97.608C561.444 98.1733 560.948 98.5787 560.404 98.824C559.87 99.0693 559.294 99.192 558.676 99.192C558.121 99.192 557.604 99.096 557.124 98.904C556.654 98.7013 556.249 98.424 555.908 98.072C555.566 97.72 555.294 97.304 555.092 96.824C554.9 96.344 554.804 95.8213 554.804 95.256C554.804 94.6907 554.9 94.168 555.092 93.688C555.284 93.208 555.55 92.792 555.892 92.44C556.233 92.088 556.633 91.816 557.092 91.624C557.55 91.4213 558.046 91.32 558.58 91.32C559.166 91.32 559.684 91.4213 560.132 91.624C560.58 91.816 560.953 92.0827 561.252 92.424C561.55 92.7547 561.774 93.144 561.924 93.592C562.084 94.04 562.164 94.52 562.164 95.032ZM564.504 93.16C564.504 92.9573 564.499 92.696 564.488 92.376C564.477 92.056 564.461 91.768 564.44 91.512H565.48C565.501 91.7147 565.517 91.9387 565.528 92.184C565.539 92.4293 565.544 92.632 565.544 92.792H565.576C565.789 92.3547 566.109 92.0027 566.536 91.736C566.963 91.4587 567.443 91.32 567.976 91.32C568.115 91.32 568.237 91.3253 568.344 91.336C568.461 91.3467 568.579 91.368 568.696 91.4L568.552 92.424C568.488 92.4027 568.381 92.3813 568.232 92.36C568.083 92.3387 567.933 92.328 567.784 92.328C567.496 92.328 567.219 92.3813 566.952 92.488C566.685 92.5947 566.451 92.7653 566.248 93C566.056 93.224 565.896 93.5173 565.768 93.88C565.651 94.232 565.592 94.6587 565.592 95.16V99H564.504V93.16Z" fill="#364FCC"/>
<path d="M143.098 487.415C142.906 487.703 142.671 487.975 142.394 488.231C142.127 488.487 141.812 488.711 141.45 488.903C141.098 489.095 140.703 489.245 140.266 489.351C139.839 489.469 139.37 489.527 138.858 489.527C138.004 489.527 137.215 489.378 136.49 489.079C135.764 488.781 135.14 488.37 134.618 487.847C134.095 487.314 133.684 486.685 133.386 485.959C133.098 485.234 132.954 484.439 132.954 483.575C132.954 482.711 133.103 481.917 133.402 481.191C133.7 480.466 134.111 479.842 134.634 479.319C135.167 478.786 135.791 478.37 136.506 478.071C137.231 477.773 138.015 477.623 138.858 477.623C139.274 477.623 139.679 477.666 140.074 477.751C140.479 477.837 140.858 477.959 141.21 478.119C141.562 478.269 141.882 478.455 142.17 478.679C142.458 478.893 142.698 479.138 142.89 479.415L141.93 480.119C141.812 479.938 141.652 479.757 141.45 479.575C141.258 479.394 141.028 479.234 140.762 479.095C140.495 478.957 140.202 478.845 139.882 478.759C139.572 478.674 139.236 478.631 138.874 478.631C138.138 478.631 137.476 478.765 136.89 479.031C136.314 479.298 135.823 479.661 135.418 480.119C135.012 480.567 134.703 481.09 134.49 481.687C134.276 482.285 134.17 482.914 134.17 483.575C134.17 484.237 134.276 484.866 134.49 485.463C134.714 486.061 135.028 486.589 135.434 487.047C135.839 487.495 136.33 487.853 136.906 488.119C137.492 488.386 138.148 488.519 138.874 488.519C139.524 488.519 140.143 488.386 140.73 488.119C141.316 487.853 141.807 487.426 142.202 486.839L143.098 487.415ZM146.133 489.239H145.045V477.143H146.133V489.239ZM150.149 489.239H149.061V481.751H150.149V489.239ZM150.373 478.871C150.373 479.095 150.293 479.282 150.133 479.431C149.973 479.57 149.797 479.639 149.605 479.639C149.413 479.639 149.237 479.57 149.077 479.431C148.917 479.282 148.837 479.095 148.837 478.871C148.837 478.647 148.917 478.466 149.077 478.327C149.237 478.178 149.413 478.103 149.605 478.103C149.797 478.103 149.973 478.178 150.133 478.327C150.293 478.466 150.373 478.647 150.373 478.871ZM158.757 484.919C158.725 484.215 158.495 483.634 158.069 483.175C157.653 482.706 157.055 482.471 156.277 482.471C155.914 482.471 155.578 482.541 155.269 482.679C154.959 482.807 154.687 482.989 154.453 483.223C154.218 483.447 154.031 483.709 153.893 484.007C153.754 484.295 153.674 484.599 153.653 484.919H158.757ZM159.861 485.271C159.861 485.346 159.861 485.426 159.861 485.511C159.861 485.597 159.855 485.687 159.845 485.783H153.637C153.647 486.157 153.722 486.509 153.861 486.839C153.999 487.17 154.191 487.458 154.437 487.703C154.682 487.949 154.97 488.146 155.301 488.295C155.631 488.434 155.989 488.503 156.373 488.503C156.938 488.503 157.423 488.375 157.829 488.119C158.245 487.853 158.559 487.549 158.773 487.207L159.589 487.847C159.141 488.413 158.645 488.818 158.101 489.063C157.567 489.309 156.991 489.431 156.373 489.431C155.818 489.431 155.301 489.335 154.821 489.143C154.351 488.941 153.946 488.663 153.605 488.311C153.263 487.959 152.991 487.543 152.789 487.063C152.597 486.583 152.501 486.061 152.501 485.495C152.501 484.93 152.597 484.407 152.789 483.927C152.981 483.447 153.247 483.031 153.589 482.679C153.93 482.327 154.33 482.055 154.789 481.863C155.247 481.661 155.743 481.559 156.277 481.559C156.863 481.559 157.381 481.661 157.829 481.863C158.277 482.055 158.65 482.322 158.949 482.663C159.247 482.994 159.471 483.383 159.621 483.831C159.781 484.279 159.861 484.759 159.861 485.271ZM163.177 481.751C163.198 481.954 163.214 482.178 163.225 482.423C163.236 482.669 163.241 482.871 163.241 483.031H163.273C163.486 482.594 163.833 482.242 164.313 481.975C164.793 481.698 165.3 481.559 165.833 481.559C166.782 481.559 167.492 481.842 167.961 482.407C168.441 482.973 168.681 483.719 168.681 484.647V489.239H167.593V485.095C167.593 484.701 167.561 484.343 167.497 484.023C167.433 483.703 167.321 483.431 167.161 483.207C167.012 482.973 166.804 482.791 166.537 482.663C166.281 482.535 165.956 482.471 165.561 482.471C165.273 482.471 164.99 482.53 164.713 482.647C164.446 482.765 164.206 482.946 163.993 483.191C163.78 483.426 163.609 483.73 163.481 484.103C163.353 484.466 163.289 484.898 163.289 485.399V489.239H162.201V483.399C162.201 483.197 162.196 482.935 162.185 482.615C162.174 482.295 162.158 482.007 162.137 481.751H163.177ZM174.874 482.663H172.762V487.031C172.762 487.309 172.788 487.538 172.842 487.719C172.895 487.901 172.97 488.045 173.066 488.151C173.172 488.247 173.295 488.317 173.434 488.359C173.572 488.391 173.722 488.407 173.882 488.407C174.031 488.407 174.186 488.386 174.346 488.343C174.516 488.301 174.676 488.242 174.826 488.167L174.874 489.111C174.682 489.186 174.479 489.239 174.266 489.271C174.063 489.314 173.839 489.335 173.594 489.335C173.391 489.335 173.178 489.309 172.954 489.255C172.73 489.202 172.522 489.101 172.33 488.951C172.138 488.802 171.978 488.599 171.85 488.343C171.732 488.087 171.674 487.751 171.674 487.335V482.663H170.122V481.751H171.674V479.639H172.762V481.751H174.874V482.663ZM188.672 487.559H188.704V477.911H189.856V489.239H188.416L181.824 479.495H181.792V489.239H180.64V477.911H182.08L188.672 487.559ZM198.507 484.919C198.475 484.215 198.245 483.634 197.819 483.175C197.403 482.706 196.805 482.471 196.027 482.471C195.664 482.471 195.328 482.541 195.019 482.679C194.709 482.807 194.437 482.989 194.203 483.223C193.968 483.447 193.781 483.709 193.643 484.007C193.504 484.295 193.424 484.599 193.403 484.919H198.507ZM199.611 485.271C199.611 485.346 199.611 485.426 199.611 485.511C199.611 485.597 199.605 485.687 199.595 485.783H193.387C193.397 486.157 193.472 486.509 193.611 486.839C193.749 487.17 193.941 487.458 194.187 487.703C194.432 487.949 194.72 488.146 195.051 488.295C195.381 488.434 195.739 488.503 196.123 488.503C196.688 488.503 197.173 488.375 197.579 488.119C197.995 487.853 198.309 487.549 198.523 487.207L199.339 487.847C198.891 488.413 198.395 488.818 197.851 489.063C197.317 489.309 196.741 489.431 196.123 489.431C195.568 489.431 195.051 489.335 194.571 489.143C194.101 488.941 193.696 488.663 193.355 488.311C193.013 487.959 192.741 487.543 192.539 487.063C192.347 486.583 192.251 486.061 192.251 485.495C192.251 484.93 192.347 484.407 192.539 483.927C192.731 483.447 192.997 483.031 193.339 482.679C193.68 482.327 194.08 482.055 194.539 481.863C194.997 481.661 195.493 481.559 196.027 481.559C196.613 481.559 197.131 481.661 197.579 481.863C198.027 482.055 198.4 482.322 198.699 482.663C198.997 482.994 199.221 483.383 199.371 483.831C199.531 484.279 199.611 484.759 199.611 485.271ZM205.327 482.663H203.215V487.031C203.215 487.309 203.242 487.538 203.295 487.719C203.348 487.901 203.423 488.045 203.519 488.151C203.626 488.247 203.748 488.317 203.887 488.359C204.026 488.391 204.175 488.407 204.335 488.407C204.484 488.407 204.639 488.386 204.799 488.343C204.97 488.301 205.13 488.242 205.279 488.167L205.327 489.111C205.135 489.186 204.932 489.239 204.719 489.271C204.516 489.314 204.292 489.335 204.047 489.335C203.844 489.335 203.631 489.309 203.407 489.255C203.183 489.202 202.975 489.101 202.783 488.951C202.591 488.802 202.431 488.599 202.303 488.343C202.186 488.087 202.127 487.751 202.127 487.335V482.663H200.575V481.751H202.127V479.639H203.215V481.751H205.327V482.663ZM207.173 481.751L208.981 487.831H209.013L211.029 481.751H212.085L214.133 487.831H214.165L215.957 481.751H217.109L214.741 489.239H213.557L211.557 483.175H211.525L209.557 489.239H208.373L206.005 481.751H207.173ZM226.407 485.495C226.407 486.061 226.305 486.583 226.103 487.063C225.911 487.543 225.639 487.959 225.287 488.311C224.935 488.663 224.513 488.941 224.023 489.143C223.532 489.335 222.993 489.431 222.407 489.431C221.831 489.431 221.297 489.335 220.807 489.143C220.316 488.941 219.895 488.663 219.543 488.311C219.191 487.959 218.913 487.543 218.711 487.063C218.519 486.583 218.423 486.061 218.423 485.495C218.423 484.93 218.519 484.407 218.711 483.927C218.913 483.447 219.191 483.031 219.543 482.679C219.895 482.327 220.316 482.055 220.807 481.863C221.297 481.661 221.831 481.559 222.407 481.559C222.993 481.559 223.532 481.661 224.023 481.863C224.513 482.055 224.935 482.327 225.287 482.679C225.639 483.031 225.911 483.447 226.103 483.927C226.305 484.407 226.407 484.93 226.407 485.495ZM225.255 485.495C225.255 485.079 225.185 484.69 225.047 484.327C224.919 483.954 224.732 483.634 224.487 483.367C224.241 483.09 223.943 482.871 223.591 482.711C223.239 482.551 222.844 482.471 222.407 482.471C221.969 482.471 221.575 482.551 221.223 482.711C220.881 482.871 220.588 483.09 220.343 483.367C220.097 483.634 219.905 483.954 219.767 484.327C219.639 484.69 219.575 485.079 219.575 485.495C219.575 485.911 219.639 486.306 219.767 486.679C219.905 487.042 220.097 487.362 220.343 487.639C220.588 487.906 220.881 488.119 221.223 488.279C221.575 488.429 221.969 488.503 222.407 488.503C222.844 488.503 223.239 488.429 223.591 488.279C223.943 488.119 224.241 487.906 224.487 487.639C224.732 487.362 224.919 487.042 225.047 486.679C225.185 486.306 225.255 485.911 225.255 485.495ZM228.748 483.399C228.748 483.197 228.742 482.935 228.732 482.615C228.721 482.295 228.705 482.007 228.684 481.751H229.724C229.745 481.954 229.761 482.178 229.772 482.423C229.782 482.669 229.788 482.871 229.788 483.031H229.82C230.033 482.594 230.353 482.242 230.78 481.975C231.206 481.698 231.686 481.559 232.22 481.559C232.358 481.559 232.481 481.565 232.588 481.575C232.705 481.586 232.822 481.607 232.94 481.639L232.796 482.663C232.732 482.642 232.625 482.621 232.476 482.599C232.326 482.578 232.177 482.567 232.028 482.567C231.74 482.567 231.462 482.621 231.196 482.727C230.929 482.834 230.694 483.005 230.492 483.239C230.3 483.463 230.14 483.757 230.012 484.119C229.894 484.471 229.836 484.898 229.836 485.399V489.239H228.748V483.399ZM235.633 485.127H235.681L239.137 481.751H240.705L236.929 485.175L241.089 489.239H239.489L235.681 485.303H235.633V489.239H234.545V477.143H235.633V485.127Z" fill="#364FCC"/>
<rect x="109.503" y="304.511" width="154.319" height="154.319" rx="6" fill="white" stroke="#68CDDA" stroke-width="8"/>
<rect x="120.84" y="315.848" width="131.644" height="131.644" rx="10" fill="#364FCC"/>
<path d="M137.455 392.233C138.002 391.085 138.767 390.203 140.148 390.133C141.846 390.049 143.174 391.274 143.192 392.972C143.212 395.005 143.197 397.039 143.197 399.09C148.92 399.435 154.46 399.381 159.176 395.581C159.621 395.223 160.048 394.844 160.593 394.384C159.994 393.954 159.467 393.568 158.935 393.195C157.194 391.97 156.923 390.438 158.145 388.673C158.797 387.732 159.465 386.804 160.191 385.773C167.979 391.333 175.718 396.86 183.526 402.438C182.748 403.553 182.081 404.64 181.285 405.622C180.359 406.762 178.774 406.916 177.485 406.072C176.551 405.46 175.649 404.806 174.656 404.118C166.214 413.302 155.616 417.123 143.199 416.458C143.199 418.381 143.199 420.158 143.199 421.936C143.199 423.624 142.414 424.754 141.007 425.107C139.601 425.46 138.353 424.762 137.586 423.191C137.56 423.138 137.501 423.102 137.455 423.059C137.455 412.785 137.455 402.512 137.455 392.238V392.233Z" fill="white"/>
<path d="M147.246 366.546C147.318 365.149 147.768 363.919 148.637 362.84C154.653 355.359 160.65 347.866 166.683 340.401C168.737 337.858 172.026 337.503 174.803 339.498C181.764 344.503 188.711 349.531 195.662 354.551C206.902 362.669 218.142 370.789 229.38 378.909C231.474 380.423 231.564 382.451 229.564 384.054C220.503 391.31 211.434 398.553 202.36 405.793C200.874 406.979 199.721 406.995 198.194 405.905C182.133 394.44 166.077 382.965 150.008 371.51C148.272 370.272 147.341 368.65 147.249 366.548L147.246 366.546ZM209.447 384.228C211.035 384.223 212.329 382.934 212.303 381.382C212.278 379.814 210.981 378.581 209.38 378.602C207.843 378.622 206.58 379.88 206.569 381.4C206.559 382.952 207.861 384.231 209.447 384.228Z" fill="white"/>
<path d="M211.157 406.061C214.068 403.737 216.929 401.45 219.791 399.161C224.024 395.778 228.264 392.404 232.479 388.998C232.993 388.583 233.326 388.555 233.875 388.944C235.742 390.271 236.024 391.964 234.586 393.747C230.326 399.033 226.062 404.317 221.794 409.598C220.231 411.532 218.883 411.703 216.871 410.253C215.034 408.931 213.201 407.606 211.367 406.281C211.316 406.245 211.28 406.189 211.16 406.059L211.157 406.061Z" fill="white"/>
<path d="M209.446 384.228C207.86 384.233 206.556 382.952 206.568 381.399C206.579 379.878 207.842 378.622 209.379 378.602C210.98 378.581 212.277 379.811 212.302 381.382C212.328 382.934 211.034 384.225 209.446 384.228Z" fill="white"/>
<path d="M144.623 169.53L142.175 165.034H141.247V169.53H138.559V158.202H142.879C143.423 158.202 143.951 158.261 144.463 158.378C144.986 158.485 145.45 158.671 145.855 158.938C146.271 159.205 146.602 159.557 146.847 159.994C147.092 160.431 147.215 160.975 147.215 161.626C147.215 162.394 147.007 163.039 146.591 163.562C146.175 164.085 145.599 164.458 144.863 164.682L147.823 169.53H144.623ZM144.511 161.674C144.511 161.407 144.452 161.194 144.335 161.034C144.228 160.863 144.084 160.735 143.903 160.65C143.732 160.554 143.535 160.49 143.311 160.458C143.098 160.426 142.89 160.41 142.687 160.41H141.231V163.05H142.527C142.751 163.05 142.98 163.034 143.215 163.002C143.45 162.959 143.663 162.89 143.855 162.794C144.047 162.698 144.202 162.559 144.319 162.378C144.447 162.197 144.511 161.962 144.511 161.674ZM154.325 164.634C154.325 164.218 154.192 163.861 153.925 163.562C153.669 163.263 153.28 163.114 152.757 163.114C152.501 163.114 152.266 163.157 152.053 163.242C151.84 163.317 151.653 163.423 151.493 163.562C151.333 163.701 151.205 163.866 151.109 164.058C151.013 164.239 150.96 164.431 150.949 164.634H154.325ZM156.741 165.642C156.741 165.749 156.741 165.855 156.741 165.962C156.741 166.069 156.736 166.17 156.725 166.266H150.949C150.97 166.49 151.034 166.693 151.141 166.874C151.258 167.055 151.402 167.215 151.573 167.354C151.754 167.482 151.952 167.583 152.165 167.658C152.389 167.733 152.618 167.77 152.853 167.77C153.269 167.77 153.621 167.695 153.909 167.546C154.197 167.386 154.432 167.183 154.613 166.938L156.437 168.09C156.064 168.634 155.568 169.055 154.949 169.354C154.341 169.642 153.632 169.786 152.821 169.786C152.224 169.786 151.658 169.695 151.125 169.514C150.592 169.322 150.122 169.05 149.717 168.698C149.322 168.335 149.008 167.893 148.773 167.37C148.549 166.847 148.437 166.25 148.437 165.578C148.437 164.927 148.549 164.341 148.773 163.818C148.997 163.285 149.301 162.837 149.685 162.474C150.069 162.101 150.522 161.813 151.045 161.61C151.568 161.407 152.133 161.306 152.741 161.306C153.328 161.306 153.866 161.407 154.357 161.61C154.848 161.802 155.269 162.085 155.621 162.458C155.973 162.831 156.245 163.285 156.437 163.818C156.64 164.351 156.741 164.959 156.741 165.642ZM158.4 169.53V157.434H161.056V169.53H158.4ZM167.838 166.058H167.502C167.214 166.058 166.92 166.074 166.622 166.106C166.334 166.127 166.072 166.175 165.838 166.25C165.614 166.325 165.427 166.437 165.278 166.586C165.128 166.725 165.054 166.911 165.054 167.146C165.054 167.295 165.086 167.423 165.15 167.53C165.224 167.637 165.315 167.722 165.422 167.786C165.528 167.85 165.651 167.898 165.79 167.93C165.928 167.951 166.062 167.962 166.19 167.962C166.723 167.962 167.128 167.818 167.406 167.53C167.694 167.231 167.838 166.831 167.838 166.33V166.058ZM163.022 162.65C163.491 162.202 164.035 161.866 164.654 161.642C165.283 161.418 165.923 161.306 166.574 161.306C167.246 161.306 167.811 161.391 168.27 161.562C168.739 161.722 169.118 161.978 169.406 162.33C169.694 162.671 169.902 163.109 170.03 163.642C170.168 164.165 170.238 164.789 170.238 165.514V169.53H167.838V168.682H167.79C167.587 169.013 167.278 169.269 166.862 169.45C166.456 169.631 166.014 169.722 165.534 169.722C165.214 169.722 164.883 169.679 164.542 169.594C164.2 169.509 163.886 169.37 163.598 169.178C163.32 168.986 163.091 168.73 162.91 168.41C162.728 168.09 162.638 167.695 162.638 167.226C162.638 166.65 162.792 166.186 163.102 165.834C163.422 165.482 163.827 165.21 164.318 165.018C164.819 164.826 165.374 164.698 165.982 164.634C166.59 164.57 167.182 164.538 167.758 164.538V164.41C167.758 164.015 167.619 163.727 167.342 163.546C167.064 163.354 166.723 163.258 166.318 163.258C165.944 163.258 165.582 163.338 165.23 163.498C164.888 163.658 164.595 163.85 164.35 164.074L163.022 162.65ZM176.692 170.73C176.532 171.146 176.351 171.514 176.148 171.834C175.956 172.165 175.722 172.442 175.444 172.666C175.178 172.901 174.858 173.077 174.484 173.194C174.122 173.311 173.69 173.37 173.188 173.37C172.943 173.37 172.687 173.354 172.42 173.322C172.164 173.29 171.94 173.247 171.748 173.194L172.036 170.986C172.164 171.029 172.303 171.061 172.452 171.082C172.612 171.114 172.756 171.13 172.884 171.13C173.29 171.13 173.583 171.034 173.764 170.842C173.946 170.661 174.1 170.399 174.228 170.058L174.484 169.402L171.156 161.562H174.068L175.844 166.682H175.892L177.476 161.562H180.26L176.692 170.73ZM191.402 161.146C191.168 160.847 190.858 160.613 190.474 160.442C190.101 160.261 189.738 160.17 189.386 160.17C189.205 160.17 189.018 160.186 188.826 160.218C188.645 160.25 188.48 160.314 188.33 160.41C188.181 160.495 188.053 160.613 187.946 160.762C187.85 160.901 187.802 161.082 187.802 161.306C187.802 161.498 187.84 161.658 187.914 161.786C188 161.914 188.117 162.026 188.266 162.122C188.426 162.218 188.613 162.309 188.826 162.394C189.04 162.469 189.28 162.549 189.546 162.634C189.93 162.762 190.33 162.906 190.746 163.066C191.162 163.215 191.541 163.418 191.882 163.674C192.224 163.93 192.506 164.25 192.73 164.634C192.954 165.007 193.066 165.477 193.066 166.042C193.066 166.693 192.944 167.258 192.698 167.738C192.464 168.207 192.144 168.597 191.738 168.906C191.333 169.215 190.869 169.445 190.346 169.594C189.824 169.743 189.285 169.818 188.73 169.818C187.92 169.818 187.136 169.679 186.378 169.402C185.621 169.114 184.992 168.709 184.49 168.186L186.282 166.362C186.56 166.703 186.922 166.991 187.37 167.226C187.829 167.45 188.282 167.562 188.73 167.562C188.933 167.562 189.13 167.541 189.322 167.498C189.514 167.455 189.68 167.386 189.818 167.29C189.968 167.194 190.085 167.066 190.17 166.906C190.256 166.746 190.298 166.554 190.298 166.33C190.298 166.117 190.245 165.935 190.138 165.786C190.032 165.637 189.877 165.503 189.674 165.386C189.482 165.258 189.237 165.146 188.938 165.05C188.65 164.943 188.32 164.831 187.946 164.714C187.584 164.597 187.226 164.458 186.874 164.298C186.533 164.138 186.224 163.935 185.946 163.69C185.68 163.434 185.461 163.13 185.29 162.778C185.13 162.415 185.05 161.978 185.05 161.466C185.05 160.837 185.178 160.298 185.434 159.85C185.69 159.402 186.026 159.034 186.442 158.746C186.858 158.458 187.328 158.25 187.85 158.122C188.373 157.983 188.901 157.914 189.434 157.914C190.074 157.914 190.725 158.031 191.386 158.266C192.058 158.501 192.645 158.847 193.146 159.306L191.402 161.146ZM199.036 170.73C198.876 171.146 198.695 171.514 198.492 171.834C198.3 172.165 198.065 172.442 197.788 172.666C197.521 172.901 197.201 173.077 196.828 173.194C196.465 173.311 196.033 173.37 195.532 173.37C195.287 173.37 195.031 173.354 194.764 173.322C194.508 173.29 194.284 173.247 194.092 173.194L194.38 170.986C194.508 171.029 194.647 171.061 194.796 171.082C194.956 171.114 195.1 171.13 195.228 171.13C195.633 171.13 195.927 171.034 196.108 170.842C196.289 170.661 196.444 170.399 196.572 170.058L196.828 169.402L193.5 161.562H196.412L198.188 166.682H198.236L199.82 161.562H202.604L199.036 170.73ZM208.306 163.914C208.093 163.711 207.842 163.541 207.554 163.402C207.266 163.263 206.962 163.194 206.642 163.194C206.397 163.194 206.167 163.242 205.954 163.338C205.751 163.434 205.65 163.599 205.65 163.834C205.65 164.058 205.762 164.218 205.986 164.314C206.221 164.41 206.594 164.517 207.106 164.634C207.405 164.698 207.703 164.789 208.002 164.906C208.311 165.023 208.589 165.178 208.834 165.37C209.079 165.562 209.277 165.797 209.426 166.074C209.575 166.351 209.65 166.682 209.65 167.066C209.65 167.567 209.549 167.994 209.346 168.346C209.143 168.687 208.877 168.965 208.546 169.178C208.226 169.391 207.863 169.546 207.458 169.642C207.053 169.738 206.647 169.786 206.242 169.786C205.591 169.786 204.951 169.685 204.322 169.482C203.703 169.269 203.186 168.959 202.77 168.554L204.242 167.002C204.477 167.258 204.765 167.471 205.106 167.642C205.447 167.813 205.81 167.898 206.194 167.898C206.407 167.898 206.615 167.85 206.818 167.754C207.031 167.647 207.138 167.466 207.138 167.21C207.138 166.965 207.01 166.783 206.754 166.666C206.498 166.549 206.098 166.426 205.554 166.298C205.277 166.234 204.999 166.149 204.722 166.042C204.445 165.935 204.194 165.791 203.97 165.61C203.757 165.429 203.581 165.205 203.442 164.938C203.303 164.671 203.234 164.351 203.234 163.978C203.234 163.498 203.335 163.093 203.538 162.762C203.741 162.421 204.002 162.143 204.322 161.93C204.642 161.717 204.994 161.562 205.378 161.466C205.773 161.359 206.162 161.306 206.546 161.306C207.143 161.306 207.725 161.402 208.29 161.594C208.866 161.775 209.351 162.053 209.746 162.426L208.306 163.914ZM214.013 163.53V166.57C214.013 166.943 214.082 167.226 214.221 167.418C214.37 167.599 214.632 167.69 215.005 167.69C215.133 167.69 215.266 167.679 215.405 167.658C215.554 167.637 215.677 167.605 215.773 167.562L215.805 169.482C215.624 169.546 215.394 169.599 215.117 169.642C214.84 169.695 214.562 169.722 214.285 169.722C213.752 169.722 213.304 169.658 212.941 169.53C212.578 169.391 212.285 169.199 212.061 168.954C211.848 168.698 211.693 168.399 211.597 168.058C211.501 167.706 211.453 167.317 211.453 166.89V163.53H210.173V161.562H211.437V159.466H214.013V161.562H215.885V163.53H214.013ZM222.606 164.634C222.606 164.218 222.473 163.861 222.206 163.562C221.95 163.263 221.561 163.114 221.038 163.114C220.782 163.114 220.547 163.157 220.334 163.242C220.121 163.317 219.934 163.423 219.774 163.562C219.614 163.701 219.486 163.866 219.39 164.058C219.294 164.239 219.241 164.431 219.23 164.634H222.606ZM225.022 165.642C225.022 165.749 225.022 165.855 225.022 165.962C225.022 166.069 225.017 166.17 225.006 166.266H219.23C219.251 166.49 219.315 166.693 219.422 166.874C219.539 167.055 219.683 167.215 219.854 167.354C220.035 167.482 220.233 167.583 220.446 167.658C220.67 167.733 220.899 167.77 221.134 167.77C221.55 167.77 221.902 167.695 222.19 167.546C222.478 167.386 222.713 167.183 222.894 166.938L224.718 168.09C224.345 168.634 223.849 169.055 223.23 169.354C222.622 169.642 221.913 169.786 221.102 169.786C220.505 169.786 219.939 169.695 219.406 169.514C218.873 169.322 218.403 169.05 217.998 168.698C217.603 168.335 217.289 167.893 217.054 167.37C216.83 166.847 216.718 166.25 216.718 165.578C216.718 164.927 216.83 164.341 217.054 163.818C217.278 163.285 217.582 162.837 217.966 162.474C218.35 162.101 218.803 161.813 219.326 161.61C219.849 161.407 220.414 161.306 221.022 161.306C221.609 161.306 222.147 161.407 222.638 161.61C223.129 161.802 223.55 162.085 223.902 162.458C224.254 162.831 224.526 163.285 224.718 163.818C224.921 164.351 225.022 164.959 225.022 165.642ZM236.825 169.53V165.178C236.825 164.954 236.809 164.741 236.777 164.538C236.745 164.325 236.687 164.143 236.601 163.994C236.516 163.845 236.399 163.727 236.249 163.642C236.111 163.546 235.924 163.498 235.689 163.498C235.465 163.498 235.268 163.546 235.097 163.642C234.937 163.738 234.799 163.866 234.681 164.026C234.575 164.186 234.495 164.373 234.441 164.586C234.388 164.789 234.361 165.002 234.361 165.226V169.53H231.737V164.986C231.737 164.527 231.647 164.165 231.465 163.898C231.284 163.631 230.996 163.498 230.601 163.498C230.185 163.498 229.86 163.663 229.625 163.994C229.401 164.325 229.289 164.73 229.289 165.21V169.53H226.649V161.562H229.193V162.666H229.225C229.321 162.495 229.439 162.33 229.577 162.17C229.727 162.01 229.903 161.871 230.105 161.754C230.308 161.626 230.532 161.525 230.777 161.45C231.033 161.375 231.311 161.338 231.609 161.338C232.185 161.338 232.671 161.455 233.065 161.69C233.471 161.925 233.785 162.261 234.009 162.698C234.276 162.282 234.617 161.951 235.033 161.706C235.449 161.461 235.956 161.338 236.553 161.338C237.097 161.338 237.551 161.439 237.913 161.642C238.287 161.834 238.585 162.09 238.809 162.41C239.033 162.719 239.193 163.071 239.289 163.466C239.396 163.85 239.449 164.229 239.449 164.602V169.53H236.825Z" fill="#364FCC"/>
<defs>
<filter id="filter0_d_37_1461" x="0" y="0" width="700" height="573" filterUnits="userSpaceOnUse" color-interpolation-filters="sRGB">
<feFlood flood-opacity="0" result="BackgroundImageFix"/>
<feColorMatrix in="SourceAlpha" type="matrix" values="0 0 0 0 0 0 0 0 0 0 0 0 0 0 0 0 0 0 127 0" result="hardAlpha"/>
<feMorphology radius="5" operator="dilate" in="SourceAlpha" result="effect1_dropShadow_37_1461"/>
<feOffset/>
<feGaussianBlur stdDeviation="5"/>
<feComposite in2="hardAlpha" operator="out"/>
<feColorMatrix type="matrix" values="0 0 0 0 0 0 0 0 0 0 0 0 0 0 0 0 0 0 0.05 0"/>
<feBlend mode="normal" in2="BackgroundImageFix" result="effect1_dropShadow_37_1461"/>
<feBlend mode="normal" in="SourceGraphic" in2="effect1_dropShadow_37_1461" result="shape"/>
</filter>
</defs>
</svg>
