<svg width="556" height="353" viewBox="0 0 556 353" fill="none" xmlns="http://www.w3.org/2000/svg">
<rect x="1.5" y="1.5" width="553" height="350" rx="8.5" stroke="#364FCC" stroke-width="3" stroke-dasharray="6 6"/>
<path d="M50.7208 243.008H56.3608C57.4168 243.008 58.4728 243.184 59.5288 243.536C60.6008 243.888 61.5608 244.424 62.4088 245.144C63.2728 245.848 63.9688 246.736 64.4968 247.808C65.0248 248.864 65.2888 250.096 65.2888 251.504C65.2888 252.928 65.0248 254.168 64.4968 255.224C63.9688 256.28 63.2728 257.168 62.4088 257.888C61.5608 258.592 60.6008 259.12 59.5288 259.472C58.4728 259.824 57.4168 260 56.3608 260H50.7208V243.008ZM52.4488 258.464H55.8808C57.1608 258.464 58.2728 258.264 59.2168 257.864C60.1768 257.464 60.9688 256.944 61.5928 256.304C62.2168 255.648 62.6808 254.904 62.9848 254.072C63.3048 253.24 63.4648 252.384 63.4648 251.504C63.4648 250.624 63.3048 249.768 62.9848 248.936C62.6808 248.104 62.2168 247.368 61.5928 246.728C60.9688 246.072 60.1768 245.544 59.2168 245.144C58.2728 244.744 57.1608 244.544 55.8808 244.544H52.4488V258.464ZM68.7889 251.24C68.7889 250.936 68.7809 250.544 68.7649 250.064C68.7489 249.584 68.7249 249.152 68.6929 248.768H70.2529C70.2849 249.072 70.3089 249.408 70.3249 249.776C70.3409 250.144 70.3489 250.448 70.3489 250.688H70.3969C70.7169 250.032 71.1969 249.504 71.8369 249.104C72.4769 248.688 73.1969 248.48 73.9969 248.48C74.2049 248.48 74.3889 248.488 74.5489 248.504C74.7249 248.52 74.9009 248.552 75.0769 248.6L74.8609 250.136C74.7649 250.104 74.6049 250.072 74.3809 250.04C74.1569 250.008 73.9329 249.992 73.7089 249.992C73.2769 249.992 72.8609 250.072 72.4609 250.232C72.0609 250.392 71.7089 250.648 71.4049 251C71.1169 251.336 70.8769 251.776 70.6849 252.32C70.5089 252.848 70.4209 253.488 70.4209 254.24V260H68.7889V251.24ZM84.2361 252.752C84.2361 251.776 83.9801 251.048 83.4681 250.568C82.9561 250.088 82.2121 249.848 81.2361 249.848C80.5641 249.848 79.9401 249.968 79.3641 250.208C78.7881 250.448 78.3001 250.768 77.9001 251.168L76.9881 250.088C77.4521 249.624 78.0601 249.24 78.8121 248.936C79.5801 248.632 80.4441 248.48 81.4041 248.48C82.0121 248.48 82.5801 248.568 83.1081 248.744C83.6361 248.904 84.1001 249.152 84.5001 249.488C84.9001 249.824 85.2121 250.248 85.4361 250.76C85.6601 251.272 85.7721 251.872 85.7721 252.56V257.48C85.7721 257.912 85.7881 258.36 85.8201 258.824C85.8521 259.288 85.9001 259.68 85.9641 260H84.5001C84.4521 259.728 84.4121 259.432 84.3801 259.112C84.3481 258.792 84.3321 258.48 84.3321 258.176H84.2841C83.7721 258.928 83.1881 259.472 82.5321 259.808C81.8921 260.128 81.1161 260.288 80.2041 260.288C79.7721 260.288 79.3241 260.224 78.8601 260.096C78.4121 259.984 77.9961 259.792 77.6121 259.52C77.2441 259.248 76.9321 258.896 76.6761 258.464C76.4361 258.032 76.3161 257.504 76.3161 256.88C76.3161 256.016 76.5321 255.336 76.9641 254.84C77.4121 254.328 78.0041 253.952 78.7401 253.712C79.4761 253.456 80.3161 253.296 81.2601 253.232C82.2201 253.152 83.2121 253.112 84.2361 253.112V252.752ZM83.7561 254.384C83.0841 254.384 82.4041 254.416 81.7161 254.48C81.0441 254.528 80.4281 254.64 79.8681 254.816C79.3241 254.976 78.8761 255.216 78.5241 255.536C78.1721 255.856 77.9961 256.28 77.9961 256.808C77.9961 257.208 78.0681 257.544 78.2121 257.816C78.3721 258.088 78.5801 258.312 78.8361 258.488C79.0921 258.648 79.3721 258.768 79.6761 258.848C79.9961 258.912 80.3161 258.944 80.6361 258.944C81.2121 258.944 81.7241 258.848 82.1721 258.656C82.6201 258.448 82.9961 258.176 83.3001 257.84C83.6041 257.488 83.8361 257.088 83.9961 256.64C84.1561 256.192 84.2361 255.72 84.2361 255.224V254.384H83.7561ZM90.5764 262.256C91.0244 262.832 91.6324 263.32 92.4004 263.72C93.1844 264.12 94.0084 264.32 94.8724 264.32C95.6724 264.32 96.3524 264.2 96.9124 263.96C97.4724 263.736 97.9204 263.424 98.2564 263.024C98.6084 262.624 98.8644 262.152 99.0244 261.608C99.1844 261.08 99.2644 260.512 99.2644 259.904V257.792H99.2164C98.7844 258.496 98.1684 259.04 97.3684 259.424C96.5844 259.808 95.7844 260 94.9684 260C94.0884 260 93.2884 259.856 92.5684 259.568C91.8644 259.28 91.2564 258.888 90.7444 258.392C90.2484 257.88 89.8564 257.272 89.5684 256.568C89.2964 255.864 89.1604 255.104 89.1604 254.288C89.1604 253.488 89.2964 252.736 89.5684 252.032C89.8564 251.328 90.2484 250.712 90.7444 250.184C91.2564 249.656 91.8644 249.24 92.5684 248.936C93.2884 248.632 94.0884 248.48 94.9684 248.48C95.7844 248.48 96.5844 248.672 97.3684 249.056C98.1524 249.44 98.7684 249.992 99.2164 250.712H99.2644V248.768H100.896V259.904C100.896 260.512 100.808 261.16 100.632 261.848C100.472 262.536 100.16 263.168 99.6964 263.744C99.2484 264.32 98.6324 264.8 97.8484 265.184C97.0644 265.568 96.0484 265.76 94.8004 265.76C93.7604 265.76 92.7684 265.56 91.8244 265.16C90.8804 264.76 90.0724 264.208 89.4004 263.504L90.5764 262.256ZM90.8884 254.24C90.8884 254.832 90.9844 255.392 91.1764 255.92C91.3684 256.448 91.6404 256.912 91.9924 257.312C92.3604 257.712 92.8084 258.032 93.3364 258.272C93.8644 258.496 94.4644 258.608 95.1364 258.608C95.7604 258.608 96.3364 258.504 96.8644 258.296C97.3924 258.088 97.8484 257.792 98.2324 257.408C98.6164 257.024 98.9124 256.568 99.1204 256.04C99.3444 255.496 99.4564 254.896 99.4564 254.24C99.4564 253.648 99.3444 253.088 99.1204 252.56C98.9124 252.032 98.6164 251.568 98.2324 251.168C97.8484 250.768 97.3924 250.448 96.8644 250.208C96.3364 249.968 95.7604 249.848 95.1364 249.848C94.4644 249.848 93.8644 249.968 93.3364 250.208C92.8084 250.448 92.3604 250.768 91.9924 251.168C91.6404 251.568 91.3684 252.032 91.1764 252.56C90.9844 253.088 90.8884 253.648 90.8884 254.24ZM118.22 252.752C118.22 251.776 117.964 251.048 117.452 250.568C116.94 250.088 116.196 249.848 115.22 249.848C114.548 249.848 113.924 249.968 113.348 250.208C112.772 250.448 112.284 250.768 111.884 251.168L110.972 250.088C111.436 249.624 112.044 249.24 112.796 248.936C113.564 248.632 114.428 248.48 115.388 248.48C115.996 248.48 116.564 248.568 117.092 248.744C117.62 248.904 118.084 249.152 118.484 249.488C118.884 249.824 119.196 250.248 119.42 250.76C119.644 251.272 119.756 251.872 119.756 252.56V257.48C119.756 257.912 119.772 258.36 119.804 258.824C119.836 259.288 119.884 259.68 119.948 260H118.484C118.436 259.728 118.396 259.432 118.364 259.112C118.332 258.792 118.316 258.48 118.316 258.176H118.268C117.756 258.928 117.172 259.472 116.516 259.808C115.876 260.128 115.1 260.288 114.188 260.288C113.756 260.288 113.308 260.224 112.844 260.096C112.396 259.984 111.98 259.792 111.596 259.52C111.228 259.248 110.916 258.896 110.66 258.464C110.42 258.032 110.3 257.504 110.3 256.88C110.3 256.016 110.516 255.336 110.948 254.84C111.396 254.328 111.988 253.952 112.724 253.712C113.46 253.456 114.3 253.296 115.244 253.232C116.204 253.152 117.196 253.112 118.22 253.112V252.752ZM117.74 254.384C117.068 254.384 116.388 254.416 115.7 254.48C115.028 254.528 114.412 254.64 113.852 254.816C113.308 254.976 112.86 255.216 112.508 255.536C112.156 255.856 111.98 256.28 111.98 256.808C111.98 257.208 112.052 257.544 112.196 257.816C112.356 258.088 112.564 258.312 112.82 258.488C113.076 258.648 113.356 258.768 113.66 258.848C113.98 258.912 114.3 258.944 114.62 258.944C115.196 258.944 115.708 258.848 116.156 258.656C116.604 258.448 116.98 258.176 117.284 257.84C117.588 257.488 117.82 257.088 117.98 256.64C118.14 256.192 118.22 255.72 118.22 255.224V254.384H117.74ZM125.425 248.768C125.457 249.072 125.481 249.408 125.497 249.776C125.513 250.144 125.521 250.448 125.521 250.688H125.569C125.889 250.032 126.409 249.504 127.129 249.104C127.849 248.688 128.609 248.48 129.409 248.48C130.833 248.48 131.897 248.904 132.601 249.752C133.321 250.6 133.681 251.72 133.681 253.112V260H132.049V253.784C132.049 253.192 132.001 252.656 131.905 252.176C131.809 251.696 131.641 251.288 131.401 250.952C131.177 250.6 130.865 250.328 130.465 250.136C130.081 249.944 129.593 249.848 129.001 249.848C128.569 249.848 128.145 249.936 127.729 250.112C127.329 250.288 126.969 250.56 126.649 250.928C126.329 251.28 126.073 251.736 125.881 252.296C125.689 252.84 125.593 253.488 125.593 254.24V260H123.961V251.24C123.961 250.936 123.953 250.544 123.937 250.064C123.921 249.584 123.897 249.152 123.865 248.768H125.425ZM147.146 258.104C146.666 258.824 146.042 259.368 145.274 259.736C144.506 260.104 143.714 260.288 142.898 260.288C142.018 260.288 141.218 260.136 140.498 259.832C139.794 259.528 139.186 259.112 138.674 258.584C138.178 258.056 137.786 257.432 137.498 256.712C137.226 255.992 137.09 255.216 137.09 254.384C137.09 253.552 137.226 252.776 137.498 252.056C137.786 251.336 138.178 250.712 138.674 250.184C139.186 249.656 139.794 249.24 140.498 248.936C141.218 248.632 142.018 248.48 142.898 248.48C143.714 248.48 144.506 248.672 145.274 249.056C146.042 249.424 146.666 249.976 147.146 250.712H147.194V241.856H148.826V260H147.194V258.104H147.146ZM138.818 254.384C138.818 255.008 138.914 255.6 139.106 256.16C139.298 256.704 139.57 257.184 139.922 257.6C140.29 258 140.738 258.32 141.266 258.56C141.794 258.784 142.394 258.896 143.066 258.896C143.69 258.896 144.266 258.784 144.794 258.56C145.322 258.32 145.778 258 146.162 257.6C146.546 257.2 146.842 256.728 147.05 256.184C147.274 255.624 147.386 255.024 147.386 254.384C147.386 253.744 147.274 253.152 147.05 252.608C146.842 252.048 146.546 251.568 146.162 251.168C145.778 250.752 145.322 250.432 144.794 250.208C144.266 249.968 143.69 249.848 143.066 249.848C142.394 249.848 141.794 249.968 141.266 250.208C140.738 250.448 140.29 250.776 139.922 251.192C139.57 251.592 139.298 252.072 139.106 252.632C138.914 253.176 138.818 253.76 138.818 254.384ZM168.427 258.104C167.947 258.824 167.323 259.368 166.555 259.736C165.787 260.104 164.995 260.288 164.179 260.288C163.299 260.288 162.499 260.136 161.779 259.832C161.075 259.528 160.467 259.112 159.955 258.584C159.459 258.056 159.067 257.432 158.779 256.712C158.507 255.992 158.371 255.216 158.371 254.384C158.371 253.552 158.507 252.776 158.779 252.056C159.067 251.336 159.459 250.712 159.955 250.184C160.467 249.656 161.075 249.24 161.779 248.936C162.499 248.632 163.299 248.48 164.179 248.48C164.995 248.48 165.787 248.672 166.555 249.056C167.323 249.424 167.947 249.976 168.427 250.712H168.475V241.856H170.107V260H168.475V258.104H168.427ZM160.099 254.384C160.099 255.008 160.195 255.6 160.387 256.16C160.579 256.704 160.851 257.184 161.203 257.6C161.571 258 162.019 258.32 162.547 258.56C163.075 258.784 163.675 258.896 164.347 258.896C164.971 258.896 165.547 258.784 166.075 258.56C166.603 258.32 167.059 258 167.443 257.6C167.827 257.2 168.123 256.728 168.331 256.184C168.555 255.624 168.667 255.024 168.667 254.384C168.667 253.744 168.555 253.152 168.331 252.608C168.123 252.048 167.827 251.568 167.443 251.168C167.059 250.752 166.603 250.432 166.075 250.208C165.547 249.968 164.971 249.848 164.347 249.848C163.675 249.848 163.075 249.968 162.547 250.208C162.019 250.448 161.571 250.776 161.203 251.192C160.851 251.592 160.579 252.072 160.387 252.632C160.195 253.176 160.099 253.76 160.099 254.384ZM174.469 251.24C174.469 250.936 174.461 250.544 174.445 250.064C174.429 249.584 174.405 249.152 174.373 248.768H175.933C175.965 249.072 175.989 249.408 176.005 249.776C176.021 250.144 176.029 250.448 176.029 250.688H176.077C176.397 250.032 176.877 249.504 177.517 249.104C178.157 248.688 178.877 248.48 179.677 248.48C179.885 248.48 180.069 248.488 180.229 248.504C180.405 248.52 180.581 248.552 180.757 248.6L180.541 250.136C180.445 250.104 180.285 250.072 180.061 250.04C179.837 250.008 179.613 249.992 179.389 249.992C178.957 249.992 178.541 250.072 178.141 250.232C177.741 250.392 177.389 250.648 177.085 251C176.797 251.336 176.557 251.776 176.365 252.32C176.189 252.848 176.101 253.488 176.101 254.24V260H174.469V251.24ZM193.855 254.384C193.855 255.232 193.703 256.016 193.399 256.736C193.111 257.456 192.703 258.08 192.175 258.608C191.647 259.136 191.015 259.552 190.279 259.856C189.543 260.144 188.735 260.288 187.855 260.288C186.991 260.288 186.191 260.144 185.455 259.856C184.719 259.552 184.087 259.136 183.559 258.608C183.031 258.08 182.615 257.456 182.311 256.736C182.023 256.016 181.879 255.232 181.879 254.384C181.879 253.536 182.023 252.752 182.311 252.032C182.615 251.312 183.031 250.688 183.559 250.16C184.087 249.632 184.719 249.224 185.455 248.936C186.191 248.632 186.991 248.48 187.855 248.48C188.735 248.48 189.543 248.632 190.279 248.936C191.015 249.224 191.647 249.632 192.175 250.16C192.703 250.688 193.111 251.312 193.399 252.032C193.703 252.752 193.855 253.536 193.855 254.384ZM192.127 254.384C192.127 253.76 192.023 253.176 191.815 252.632C191.623 252.072 191.343 251.592 190.975 251.192C190.607 250.776 190.159 250.448 189.631 250.208C189.103 249.968 188.511 249.848 187.855 249.848C187.199 249.848 186.607 249.968 186.079 250.208C185.567 250.448 185.127 250.776 184.759 251.192C184.391 251.592 184.103 252.072 183.895 252.632C183.703 253.176 183.607 253.76 183.607 254.384C183.607 255.008 183.703 255.6 183.895 256.16C184.103 256.704 184.391 257.184 184.759 257.6C185.127 258 185.567 258.32 186.079 258.56C186.607 258.784 187.199 258.896 187.855 258.896C188.511 258.896 189.103 258.784 189.631 258.56C190.159 258.32 190.607 258 190.975 257.6C191.343 257.184 191.623 256.704 191.815 256.16C192.023 255.6 192.127 255.008 192.127 254.384ZM198.999 265.76H197.367V248.768H198.999V250.712H199.071C199.535 249.976 200.151 249.424 200.919 249.056C201.703 248.672 202.495 248.48 203.295 248.48C204.175 248.48 204.967 248.632 205.671 248.936C206.391 249.24 206.999 249.656 207.495 250.184C208.007 250.712 208.399 251.336 208.671 252.056C208.959 252.776 209.103 253.552 209.103 254.384C209.103 255.216 208.959 255.992 208.671 256.712C208.399 257.432 208.007 258.056 207.495 258.584C206.999 259.112 206.391 259.528 205.671 259.832C204.967 260.136 204.175 260.288 203.295 260.288C202.495 260.288 201.703 260.104 200.919 259.736C200.151 259.352 199.535 258.808 199.071 258.104H198.999V265.76ZM207.375 254.384C207.375 253.76 207.279 253.176 207.087 252.632C206.895 252.072 206.615 251.592 206.247 251.192C205.895 250.776 205.455 250.448 204.927 250.208C204.399 249.968 203.799 249.848 203.127 249.848C202.503 249.848 201.927 249.968 201.399 250.208C200.871 250.432 200.415 250.752 200.031 251.168C199.647 251.568 199.343 252.048 199.119 252.608C198.911 253.152 198.807 253.744 198.807 254.384C198.807 255.024 198.911 255.624 199.119 256.184C199.343 256.728 199.647 257.2 200.031 257.6C200.415 258 200.871 258.32 201.399 258.56C201.927 258.784 202.503 258.896 203.127 258.896C203.799 258.896 204.399 258.784 204.927 258.56C205.455 258.32 205.895 258 206.247 257.6C206.615 257.184 206.895 256.704 207.087 256.16C207.279 255.6 207.375 255.008 207.375 254.384ZM223.665 250.136H220.497V256.688C220.497 257.104 220.537 257.448 220.617 257.72C220.697 257.992 220.809 258.208 220.953 258.368C221.113 258.512 221.297 258.616 221.505 258.68C221.713 258.728 221.937 258.752 222.177 258.752C222.401 258.752 222.633 258.72 222.873 258.656C223.129 258.592 223.369 258.504 223.593 258.392L223.665 259.808C223.377 259.92 223.073 260 222.753 260.048C222.449 260.112 222.113 260.144 221.745 260.144C221.441 260.144 221.121 260.104 220.785 260.024C220.449 259.944 220.137 259.792 219.849 259.568C219.561 259.344 219.321 259.04 219.129 258.656C218.953 258.272 218.865 257.768 218.865 257.144V250.136H216.537V248.768H218.865V245.6H220.497V248.768H223.665V250.136ZM227.947 250.616C228.251 249.96 228.755 249.44 229.459 249.056C230.163 248.672 230.915 248.48 231.715 248.48C233.139 248.48 234.203 248.904 234.907 249.752C235.627 250.6 235.987 251.72 235.987 253.112V260H234.355V253.784C234.355 253.192 234.307 252.656 234.211 252.176C234.115 251.696 233.947 251.288 233.707 250.952C233.483 250.6 233.171 250.328 232.771 250.136C232.387 249.944 231.899 249.848 231.307 249.848C230.875 249.848 230.451 249.936 230.035 250.112C229.635 250.288 229.275 250.56 228.955 250.928C228.635 251.28 228.379 251.736 228.187 252.296C227.995 252.84 227.899 253.488 227.899 254.24V260H226.267V241.856H227.899V250.616H227.947ZM248.779 253.52C248.731 252.464 248.387 251.592 247.747 250.904C247.123 250.2 246.227 249.848 245.059 249.848C244.515 249.848 244.011 249.952 243.547 250.16C243.083 250.352 242.675 250.624 242.323 250.976C241.971 251.312 241.691 251.704 241.483 252.152C241.275 252.584 241.155 253.04 241.123 253.52H248.779ZM250.435 254.048C250.435 254.16 250.435 254.28 250.435 254.408C250.435 254.536 250.427 254.672 250.411 254.816H241.099C241.115 255.376 241.227 255.904 241.435 256.4C241.643 256.896 241.931 257.328 242.299 257.696C242.667 258.064 243.099 258.36 243.595 258.584C244.091 258.792 244.627 258.896 245.203 258.896C246.051 258.896 246.779 258.704 247.387 258.32C248.011 257.92 248.483 257.464 248.803 256.952L250.027 257.912C249.355 258.76 248.611 259.368 247.795 259.736C246.995 260.104 246.131 260.288 245.203 260.288C244.371 260.288 243.595 260.144 242.875 259.856C242.171 259.552 241.563 259.136 241.051 258.608C240.539 258.08 240.131 257.456 239.827 256.736C239.539 256.016 239.395 255.232 239.395 254.384C239.395 253.536 239.539 252.752 239.827 252.032C240.115 251.312 240.515 250.688 241.027 250.16C241.539 249.632 242.139 249.224 242.827 248.936C243.515 248.632 244.259 248.48 245.059 248.48C245.939 248.48 246.715 248.632 247.387 248.936C248.059 249.224 248.619 249.624 249.067 250.136C249.515 250.632 249.851 251.216 250.075 251.888C250.315 252.56 250.435 253.28 250.435 254.048ZM268.633 260H267.001V248.768H268.633V260ZM268.993 244.448C268.993 244.784 268.873 245.064 268.633 245.288C268.393 245.496 268.129 245.6 267.841 245.6C267.553 245.6 267.289 245.496 267.049 245.288C266.809 245.064 266.689 244.784 266.689 244.448C266.689 244.112 266.809 243.84 267.049 243.632C267.289 243.408 267.553 243.296 267.841 243.296C268.129 243.296 268.393 243.408 268.633 243.632C268.873 243.84 268.993 244.112 268.993 244.448ZM264.697 250.136H262.057V260H260.425V250.136H258.073V248.768H260.425V245.696C260.425 244.416 260.737 243.408 261.361 242.672C261.985 241.936 262.945 241.568 264.241 241.568C264.449 241.568 264.673 241.584 264.913 241.616C265.153 241.632 265.377 241.672 265.585 241.736L265.297 243.176C265.121 243.128 264.945 243.088 264.769 243.056C264.593 243.024 264.393 243.008 264.169 243.008C263.737 243.008 263.377 243.08 263.089 243.224C262.817 243.368 262.601 243.576 262.441 243.848C262.297 244.104 262.193 244.408 262.129 244.76C262.081 245.112 262.057 245.488 262.057 245.888V248.768H264.697V250.136ZM274.68 260H273.048V241.856H274.68V260ZM287.615 253.52C287.567 252.464 287.223 251.592 286.583 250.904C285.959 250.2 285.063 249.848 283.895 249.848C283.351 249.848 282.847 249.952 282.383 250.16C281.919 250.352 281.511 250.624 281.159 250.976C280.807 251.312 280.527 251.704 280.319 252.152C280.111 252.584 279.991 253.04 279.959 253.52H287.615ZM289.271 254.048C289.271 254.16 289.271 254.28 289.271 254.408C289.271 254.536 289.263 254.672 289.247 254.816H279.935C279.951 255.376 280.063 255.904 280.271 256.4C280.479 256.896 280.767 257.328 281.135 257.696C281.503 258.064 281.935 258.36 282.431 258.584C282.927 258.792 283.463 258.896 284.039 258.896C284.887 258.896 285.615 258.704 286.223 258.32C286.847 257.92 287.319 257.464 287.639 256.952L288.863 257.912C288.191 258.76 287.447 259.368 286.631 259.736C285.831 260.104 284.967 260.288 284.039 260.288C283.207 260.288 282.431 260.144 281.711 259.856C281.007 259.552 280.399 259.136 279.887 258.608C279.375 258.08 278.967 257.456 278.663 256.736C278.375 256.016 278.231 255.232 278.231 254.384C278.231 253.536 278.375 252.752 278.663 252.032C278.951 251.312 279.351 250.688 279.863 250.16C280.375 249.632 280.975 249.224 281.663 248.936C282.351 248.632 283.095 248.48 283.895 248.48C284.775 248.48 285.551 248.632 286.223 248.936C286.895 249.224 287.455 249.624 287.903 250.136C288.351 250.632 288.687 251.216 288.911 251.888C289.151 252.56 289.271 253.28 289.271 254.048ZM302.645 258.248H302.693L306.173 248.768H307.949L302.357 262.904C302.021 263.768 301.589 264.456 301.061 264.968C300.549 265.496 299.805 265.76 298.829 265.76C298.333 265.76 297.845 265.712 297.365 265.616L297.533 264.128C297.917 264.256 298.317 264.32 298.733 264.32C299.293 264.32 299.733 264.144 300.053 263.792C300.373 263.456 300.653 262.968 300.893 262.328L301.805 259.976L297.005 248.768H298.829L302.645 258.248ZM321.66 254.384C321.66 255.232 321.508 256.016 321.204 256.736C320.916 257.456 320.508 258.08 319.98 258.608C319.452 259.136 318.82 259.552 318.084 259.856C317.348 260.144 316.54 260.288 315.66 260.288C314.796 260.288 313.996 260.144 313.26 259.856C312.524 259.552 311.892 259.136 311.364 258.608C310.836 258.08 310.42 257.456 310.116 256.736C309.828 256.016 309.684 255.232 309.684 254.384C309.684 253.536 309.828 252.752 310.116 252.032C310.42 251.312 310.836 250.688 311.364 250.16C311.892 249.632 312.524 249.224 313.26 248.936C313.996 248.632 314.796 248.48 315.66 248.48C316.54 248.48 317.348 248.632 318.084 248.936C318.82 249.224 319.452 249.632 319.98 250.16C320.508 250.688 320.916 251.312 321.204 252.032C321.508 252.752 321.66 253.536 321.66 254.384ZM319.932 254.384C319.932 253.76 319.828 253.176 319.62 252.632C319.428 252.072 319.148 251.592 318.78 251.192C318.412 250.776 317.964 250.448 317.436 250.208C316.908 249.968 316.316 249.848 315.66 249.848C315.004 249.848 314.412 249.968 313.884 250.208C313.372 250.448 312.932 250.776 312.564 251.192C312.196 251.592 311.908 252.072 311.7 252.632C311.508 253.176 311.412 253.76 311.412 254.384C311.412 255.008 311.508 255.6 311.7 256.16C311.908 256.704 312.196 257.184 312.564 257.6C312.932 258 313.372 258.32 313.884 258.56C314.412 258.784 315.004 258.896 315.66 258.896C316.316 258.896 316.908 258.784 317.436 258.56C317.964 258.32 318.412 258 318.78 257.6C319.148 257.184 319.428 256.704 319.62 256.16C319.828 255.6 319.932 255.008 319.932 254.384ZM333.332 260C333.3 259.696 333.276 259.36 333.26 258.992C333.244 258.624 333.236 258.32 333.236 258.08H333.188C332.868 258.736 332.348 259.272 331.628 259.688C330.908 260.088 330.148 260.288 329.348 260.288C327.924 260.288 326.852 259.864 326.132 259.016C325.428 258.168 325.076 257.048 325.076 255.656V248.768H326.708V254.984C326.708 255.576 326.756 256.112 326.852 256.592C326.948 257.072 327.108 257.488 327.332 257.84C327.572 258.176 327.884 258.44 328.268 258.632C328.668 258.824 329.164 258.92 329.756 258.92C330.188 258.92 330.604 258.832 331.004 258.656C331.42 258.48 331.788 258.216 332.108 257.864C332.428 257.496 332.684 257.04 332.876 256.496C333.068 255.936 333.164 255.28 333.164 254.528V248.768H334.796V257.528C334.796 257.832 334.804 258.224 334.82 258.704C334.836 259.184 334.86 259.616 334.892 260H333.332ZM345.333 248.768L348.045 257.888H348.093L351.117 248.768H352.701L355.773 257.888H355.821L358.509 248.768H360.237L356.685 260H354.909L351.909 250.904H351.861L348.909 260H347.133L343.581 248.768H345.333ZM370.103 252.752C370.103 251.776 369.847 251.048 369.335 250.568C368.823 250.088 368.079 249.848 367.103 249.848C366.431 249.848 365.807 249.968 365.231 250.208C364.655 250.448 364.167 250.768 363.767 251.168L362.855 250.088C363.319 249.624 363.927 249.24 364.679 248.936C365.447 248.632 366.311 248.48 367.271 248.48C367.879 248.48 368.447 248.568 368.975 248.744C369.503 248.904 369.967 249.152 370.367 249.488C370.767 249.824 371.079 250.248 371.303 250.76C371.527 251.272 371.639 251.872 371.639 252.56V257.48C371.639 257.912 371.655 258.36 371.687 258.824C371.719 259.288 371.767 259.68 371.831 260H370.367C370.319 259.728 370.279 259.432 370.247 259.112C370.215 258.792 370.199 258.48 370.199 258.176H370.151C369.639 258.928 369.055 259.472 368.399 259.808C367.759 260.128 366.983 260.288 366.071 260.288C365.639 260.288 365.191 260.224 364.727 260.096C364.279 259.984 363.863 259.792 363.479 259.52C363.111 259.248 362.799 258.896 362.543 258.464C362.303 258.032 362.183 257.504 362.183 256.88C362.183 256.016 362.399 255.336 362.831 254.84C363.279 254.328 363.871 253.952 364.607 253.712C365.343 253.456 366.183 253.296 367.127 253.232C368.087 253.152 369.079 253.112 370.103 253.112V252.752ZM369.623 254.384C368.951 254.384 368.271 254.416 367.583 254.48C366.911 254.528 366.295 254.64 365.735 254.816C365.191 254.976 364.743 255.216 364.391 255.536C364.039 255.856 363.863 256.28 363.863 256.808C363.863 257.208 363.935 257.544 364.079 257.816C364.239 258.088 364.447 258.312 364.703 258.488C364.959 258.648 365.239 258.768 365.543 258.848C365.863 258.912 366.183 258.944 366.503 258.944C367.079 258.944 367.591 258.848 368.039 258.656C368.487 258.448 368.863 258.176 369.167 257.84C369.471 257.488 369.703 257.088 369.863 256.64C370.023 256.192 370.103 255.72 370.103 255.224V254.384H369.623ZM377.308 248.768C377.34 249.072 377.364 249.408 377.38 249.776C377.396 250.144 377.404 250.448 377.404 250.688H377.452C377.772 250.032 378.292 249.504 379.012 249.104C379.732 248.688 380.492 248.48 381.292 248.48C382.716 248.48 383.78 248.904 384.484 249.752C385.204 250.6 385.564 251.72 385.564 253.112V260H383.932V253.784C383.932 253.192 383.884 252.656 383.788 252.176C383.692 251.696 383.524 251.288 383.284 250.952C383.06 250.6 382.748 250.328 382.348 250.136C381.964 249.944 381.476 249.848 380.884 249.848C380.452 249.848 380.028 249.936 379.612 250.112C379.212 250.288 378.852 250.56 378.532 250.928C378.212 251.28 377.956 251.736 377.764 252.296C377.572 252.84 377.476 253.488 377.476 254.24V260H375.844V251.24C375.844 250.936 375.836 250.544 375.82 250.064C375.804 249.584 375.78 249.152 375.748 248.768H377.308ZM394.853 250.136H391.685V256.688C391.685 257.104 391.725 257.448 391.805 257.72C391.885 257.992 391.997 258.208 392.141 258.368C392.301 258.512 392.485 258.616 392.693 258.68C392.901 258.728 393.125 258.752 393.365 258.752C393.589 258.752 393.821 258.72 394.061 258.656C394.317 258.592 394.557 258.504 394.781 258.392L394.853 259.808C394.565 259.92 394.261 260 393.941 260.048C393.637 260.112 393.301 260.144 392.933 260.144C392.629 260.144 392.309 260.104 391.973 260.024C391.637 259.944 391.325 259.792 391.037 259.568C390.749 259.344 390.509 259.04 390.317 258.656C390.141 258.272 390.053 257.768 390.053 257.144V250.136H387.725V248.768H390.053V245.6H391.685V248.768H394.853V250.136ZM408.47 250.136H405.302V256.688C405.302 257.104 405.342 257.448 405.422 257.72C405.502 257.992 405.614 258.208 405.758 258.368C405.918 258.512 406.102 258.616 406.31 258.68C406.518 258.728 406.742 258.752 406.982 258.752C407.206 258.752 407.438 258.72 407.678 258.656C407.934 258.592 408.174 258.504 408.398 258.392L408.47 259.808C408.182 259.92 407.878 260 407.558 260.048C407.254 260.112 406.918 260.144 406.55 260.144C406.246 260.144 405.926 260.104 405.59 260.024C405.254 259.944 404.942 259.792 404.654 259.568C404.366 259.344 404.126 259.04 403.934 258.656C403.758 258.272 403.67 257.768 403.67 257.144V250.136H401.342V248.768H403.67V245.6H405.302V248.768H408.47V250.136ZM422.183 254.384C422.183 255.232 422.031 256.016 421.727 256.736C421.439 257.456 421.031 258.08 420.503 258.608C419.975 259.136 419.343 259.552 418.607 259.856C417.871 260.144 417.063 260.288 416.183 260.288C415.319 260.288 414.519 260.144 413.783 259.856C413.047 259.552 412.415 259.136 411.887 258.608C411.359 258.08 410.943 257.456 410.639 256.736C410.351 256.016 410.207 255.232 410.207 254.384C410.207 253.536 410.351 252.752 410.639 252.032C410.943 251.312 411.359 250.688 411.887 250.16C412.415 249.632 413.047 249.224 413.783 248.936C414.519 248.632 415.319 248.48 416.183 248.48C417.063 248.48 417.871 248.632 418.607 248.936C419.343 249.224 419.975 249.632 420.503 250.16C421.031 250.688 421.439 251.312 421.727 252.032C422.031 252.752 422.183 253.536 422.183 254.384ZM420.455 254.384C420.455 253.76 420.351 253.176 420.143 252.632C419.951 252.072 419.671 251.592 419.303 251.192C418.935 250.776 418.487 250.448 417.959 250.208C417.431 249.968 416.839 249.848 416.183 249.848C415.527 249.848 414.935 249.968 414.407 250.208C413.895 250.448 413.455 250.776 413.087 251.192C412.719 251.592 412.431 252.072 412.223 252.632C412.031 253.176 411.935 253.76 411.935 254.384C411.935 255.008 412.031 255.6 412.223 256.16C412.431 256.704 412.719 257.184 413.087 257.6C413.455 258 413.895 258.32 414.407 258.56C414.935 258.784 415.527 258.896 416.183 258.896C416.839 258.896 417.431 258.784 417.959 258.56C418.487 258.32 418.935 258 419.303 257.6C419.671 257.184 419.951 256.704 420.143 256.16C420.351 255.6 420.455 255.008 420.455 254.384ZM439.855 260C439.823 259.696 439.799 259.36 439.783 258.992C439.767 258.624 439.759 258.32 439.759 258.08H439.711C439.391 258.736 438.871 259.272 438.151 259.688C437.431 260.088 436.671 260.288 435.871 260.288C434.447 260.288 433.375 259.864 432.655 259.016C431.951 258.168 431.599 257.048 431.599 255.656V248.768H433.231V254.984C433.231 255.576 433.279 256.112 433.375 256.592C433.471 257.072 433.631 257.488 433.855 257.84C434.095 258.176 434.407 258.44 434.791 258.632C435.191 258.824 435.687 258.92 436.279 258.92C436.711 258.92 437.127 258.832 437.527 258.656C437.943 258.48 438.311 258.216 438.631 257.864C438.951 257.496 439.207 257.04 439.399 256.496C439.591 255.936 439.687 255.28 439.687 254.528V248.768H441.319V257.528C441.319 257.832 441.327 258.224 441.343 258.704C441.359 259.184 441.383 259.616 441.415 260H439.855ZM447.272 265.76H445.64V248.768H447.272V250.712H447.344C447.808 249.976 448.424 249.424 449.192 249.056C449.976 248.672 450.768 248.48 451.568 248.48C452.448 248.48 453.24 248.632 453.944 248.936C454.664 249.24 455.272 249.656 455.768 250.184C456.28 250.712 456.672 251.336 456.944 252.056C457.232 252.776 457.376 253.552 457.376 254.384C457.376 255.216 457.232 255.992 456.944 256.712C456.672 257.432 456.28 258.056 455.768 258.584C455.272 259.112 454.664 259.528 453.944 259.832C453.24 260.136 452.448 260.288 451.568 260.288C450.768 260.288 449.976 260.104 449.192 259.736C448.424 259.352 447.808 258.808 447.344 258.104H447.272V265.76ZM455.648 254.384C455.648 253.76 455.552 253.176 455.36 252.632C455.168 252.072 454.888 251.592 454.52 251.192C454.168 250.776 453.728 250.448 453.2 250.208C452.672 249.968 452.072 249.848 451.4 249.848C450.776 249.848 450.2 249.968 449.672 250.208C449.144 250.432 448.688 250.752 448.304 251.168C447.92 251.568 447.616 252.048 447.392 252.608C447.184 253.152 447.08 253.744 447.08 254.384C447.08 255.024 447.184 255.624 447.392 256.184C447.616 256.728 447.92 257.2 448.304 257.6C448.688 258 449.144 258.32 449.672 258.56C450.2 258.784 450.776 258.896 451.4 258.896C452.072 258.896 452.672 258.784 453.2 258.56C453.728 258.32 454.168 258 454.52 257.6C454.888 257.184 455.168 256.704 455.36 256.16C455.552 255.6 455.648 255.008 455.648 254.384ZM462.555 260H460.923V241.856H462.555V260ZM478.082 254.384C478.082 255.232 477.93 256.016 477.626 256.736C477.338 257.456 476.93 258.08 476.402 258.608C475.874 259.136 475.242 259.552 474.506 259.856C473.77 260.144 472.962 260.288 472.082 260.288C471.218 260.288 470.418 260.144 469.682 259.856C468.946 259.552 468.314 259.136 467.786 258.608C467.258 258.08 466.842 257.456 466.538 256.736C466.25 256.016 466.106 255.232 466.106 254.384C466.106 253.536 466.25 252.752 466.538 252.032C466.842 251.312 467.258 250.688 467.786 250.16C468.314 249.632 468.946 249.224 469.682 248.936C470.418 248.632 471.218 248.48 472.082 248.48C472.962 248.48 473.77 248.632 474.506 248.936C475.242 249.224 475.874 249.632 476.402 250.16C476.93 250.688 477.338 251.312 477.626 252.032C477.93 252.752 478.082 253.536 478.082 254.384ZM476.354 254.384C476.354 253.76 476.25 253.176 476.042 252.632C475.85 252.072 475.57 251.592 475.202 251.192C474.834 250.776 474.386 250.448 473.858 250.208C473.33 249.968 472.738 249.848 472.082 249.848C471.426 249.848 470.834 249.968 470.306 250.208C469.794 250.448 469.354 250.776 468.986 251.192C468.618 251.592 468.33 252.072 468.122 252.632C467.93 253.176 467.834 253.76 467.834 254.384C467.834 255.008 467.93 255.6 468.122 256.16C468.33 256.704 468.618 257.184 468.986 257.6C469.354 258 469.794 258.32 470.306 258.56C470.834 258.784 471.426 258.896 472.082 258.896C472.738 258.896 473.33 258.784 473.858 258.56C474.386 258.32 474.834 258 475.202 257.6C475.57 257.184 475.85 256.704 476.042 256.16C476.25 255.6 476.354 255.008 476.354 254.384ZM488.674 252.752C488.674 251.776 488.418 251.048 487.906 250.568C487.394 250.088 486.65 249.848 485.674 249.848C485.002 249.848 484.378 249.968 483.802 250.208C483.226 250.448 482.738 250.768 482.338 251.168L481.426 250.088C481.89 249.624 482.498 249.24 483.25 248.936C484.018 248.632 484.882 248.48 485.842 248.48C486.45 248.48 487.018 248.568 487.546 248.744C488.074 248.904 488.538 249.152 488.938 249.488C489.338 249.824 489.65 250.248 489.874 250.76C490.098 251.272 490.21 251.872 490.21 252.56V257.48C490.21 257.912 490.226 258.36 490.258 258.824C490.29 259.288 490.338 259.68 490.402 260H488.938C488.89 259.728 488.85 259.432 488.818 259.112C488.786 258.792 488.77 258.48 488.77 258.176H488.722C488.21 258.928 487.626 259.472 486.97 259.808C486.33 260.128 485.554 260.288 484.642 260.288C484.21 260.288 483.762 260.224 483.298 260.096C482.85 259.984 482.434 259.792 482.05 259.52C481.682 259.248 481.37 258.896 481.114 258.464C480.874 258.032 480.754 257.504 480.754 256.88C480.754 256.016 480.97 255.336 481.402 254.84C481.85 254.328 482.442 253.952 483.178 253.712C483.914 253.456 484.754 253.296 485.698 253.232C486.658 253.152 487.65 253.112 488.674 253.112V252.752ZM488.194 254.384C487.522 254.384 486.842 254.416 486.154 254.48C485.482 254.528 484.866 254.64 484.306 254.816C483.762 254.976 483.314 255.216 482.962 255.536C482.61 255.856 482.434 256.28 482.434 256.808C482.434 257.208 482.506 257.544 482.65 257.816C482.81 258.088 483.018 258.312 483.274 258.488C483.53 258.648 483.81 258.768 484.114 258.848C484.434 258.912 484.754 258.944 485.074 258.944C485.65 258.944 486.162 258.848 486.61 258.656C487.058 258.448 487.434 258.176 487.738 257.84C488.042 257.488 488.274 257.088 488.434 256.64C488.594 256.192 488.674 255.72 488.674 255.224V254.384H488.194ZM503.654 258.104C503.174 258.824 502.55 259.368 501.782 259.736C501.014 260.104 500.222 260.288 499.406 260.288C498.526 260.288 497.726 260.136 497.006 259.832C496.302 259.528 495.694 259.112 495.182 258.584C494.686 258.056 494.294 257.432 494.006 256.712C493.734 255.992 493.598 255.216 493.598 254.384C493.598 253.552 493.734 252.776 494.006 252.056C494.294 251.336 494.686 250.712 495.182 250.184C495.694 249.656 496.302 249.24 497.006 248.936C497.726 248.632 498.526 248.48 499.406 248.48C500.222 248.48 501.014 248.672 501.782 249.056C502.55 249.424 503.174 249.976 503.654 250.712H503.702V241.856H505.334V260H503.702V258.104H503.654ZM495.326 254.384C495.326 255.008 495.422 255.6 495.614 256.16C495.806 256.704 496.078 257.184 496.43 257.6C496.798 258 497.246 258.32 497.774 258.56C498.302 258.784 498.902 258.896 499.574 258.896C500.198 258.896 500.774 258.784 501.302 258.56C501.83 258.32 502.286 258 502.67 257.6C503.054 257.2 503.35 256.728 503.558 256.184C503.782 255.624 503.894 255.024 503.894 254.384C503.894 253.744 503.782 253.152 503.558 252.608C503.35 252.048 503.054 251.568 502.67 251.168C502.286 250.752 501.83 250.432 501.302 250.208C500.774 249.968 500.198 249.848 499.574 249.848C498.902 249.848 498.302 249.968 497.774 250.208C497.246 250.448 496.798 250.776 496.43 251.192C496.078 251.592 495.806 252.072 495.614 252.632C495.422 253.176 495.326 253.76 495.326 254.384ZM108.824 283.384C108.824 284.232 108.672 285.016 108.368 285.736C108.08 286.456 107.672 287.08 107.144 287.608C106.616 288.136 105.984 288.552 105.248 288.856C104.512 289.144 103.704 289.288 102.824 289.288C101.96 289.288 101.16 289.144 100.424 288.856C99.6879 288.552 99.0559 288.136 98.5279 287.608C97.9999 287.08 97.5839 286.456 97.2799 285.736C96.9919 285.016 96.8479 284.232 96.8479 283.384C96.8479 282.536 96.9919 281.752 97.2799 281.032C97.5839 280.312 97.9999 279.688 98.5279 279.16C99.0559 278.632 99.6879 278.224 100.424 277.936C101.16 277.632 101.96 277.48 102.824 277.48C103.704 277.48 104.512 277.632 105.248 277.936C105.984 278.224 106.616 278.632 107.144 279.16C107.672 279.688 108.08 280.312 108.368 281.032C108.672 281.752 108.824 282.536 108.824 283.384ZM107.096 283.384C107.096 282.76 106.992 282.176 106.784 281.632C106.592 281.072 106.312 280.592 105.944 280.192C105.576 279.776 105.128 279.448 104.6 279.208C104.072 278.968 103.48 278.848 102.824 278.848C102.168 278.848 101.576 278.968 101.048 279.208C100.536 279.448 100.096 279.776 99.7279 280.192C99.3599 280.592 99.0719 281.072 98.8639 281.632C98.6719 282.176 98.5759 282.76 98.5759 283.384C98.5759 284.008 98.6719 284.6 98.8639 285.16C99.0719 285.704 99.3599 286.184 99.7279 286.6C100.096 287 100.536 287.32 101.048 287.56C101.576 287.784 102.168 287.896 102.824 287.896C103.48 287.896 104.072 287.784 104.6 287.56C105.128 287.32 105.576 287 105.944 286.6C106.312 286.184 106.592 285.704 106.784 285.16C106.992 284.6 107.096 284.008 107.096 283.384ZM112.336 280.24C112.336 279.936 112.328 279.544 112.312 279.064C112.296 278.584 112.272 278.152 112.24 277.768H113.8C113.832 278.072 113.856 278.408 113.872 278.776C113.888 279.144 113.896 279.448 113.896 279.688H113.944C114.264 279.032 114.744 278.504 115.384 278.104C116.024 277.688 116.744 277.48 117.544 277.48C117.752 277.48 117.936 277.488 118.096 277.504C118.272 277.52 118.448 277.552 118.624 277.6L118.408 279.136C118.312 279.104 118.152 279.072 117.928 279.04C117.704 279.008 117.48 278.992 117.256 278.992C116.824 278.992 116.408 279.072 116.008 279.232C115.608 279.392 115.256 279.648 114.952 280C114.664 280.336 114.424 280.776 114.232 281.32C114.056 281.848 113.968 282.488 113.968 283.24V289H112.336V280.24ZM277.175 283.384C277.175 284.232 277.023 285.016 276.719 285.736C276.431 286.456 276.023 287.08 275.495 287.608C274.967 288.136 274.335 288.552 273.599 288.856C272.863 289.144 272.055 289.288 271.175 289.288C270.311 289.288 269.511 289.144 268.775 288.856C268.039 288.552 267.407 288.136 266.879 287.608C266.351 287.08 265.935 286.456 265.631 285.736C265.343 285.016 265.199 284.232 265.199 283.384C265.199 282.536 265.343 281.752 265.631 281.032C265.935 280.312 266.351 279.688 266.879 279.16C267.407 278.632 268.039 278.224 268.775 277.936C269.511 277.632 270.311 277.48 271.175 277.48C272.055 277.48 272.863 277.632 273.599 277.936C274.335 278.224 274.967 278.632 275.495 279.16C276.023 279.688 276.431 280.312 276.719 281.032C277.023 281.752 277.175 282.536 277.175 283.384ZM275.447 283.384C275.447 282.76 275.343 282.176 275.135 281.632C274.943 281.072 274.663 280.592 274.295 280.192C273.927 279.776 273.479 279.448 272.951 279.208C272.423 278.968 271.831 278.848 271.175 278.848C270.519 278.848 269.927 278.968 269.399 279.208C268.887 279.448 268.447 279.776 268.079 280.192C267.711 280.592 267.423 281.072 267.215 281.632C267.023 282.176 266.927 282.76 266.927 283.384C266.927 284.008 267.023 284.6 267.215 285.16C267.423 285.704 267.711 286.184 268.079 286.6C268.447 287 268.887 287.32 269.399 287.56C269.927 287.784 270.519 287.896 271.175 287.896C271.831 287.896 272.423 287.784 272.951 287.56C273.479 287.32 273.927 287 274.295 286.6C274.663 286.184 274.943 285.704 275.135 285.16C275.343 284.6 275.447 284.008 275.447 283.384ZM282.151 277.768C282.183 278.072 282.207 278.408 282.223 278.776C282.239 279.144 282.247 279.448 282.247 279.688H282.295C282.615 279.032 283.135 278.504 283.855 278.104C284.575 277.688 285.335 277.48 286.135 277.48C287.559 277.48 288.623 277.904 289.327 278.752C290.047 279.6 290.407 280.72 290.407 282.112V289H288.775V282.784C288.775 282.192 288.727 281.656 288.631 281.176C288.535 280.696 288.367 280.288 288.127 279.952C287.903 279.6 287.591 279.328 287.191 279.136C286.807 278.944 286.319 278.848 285.727 278.848C285.295 278.848 284.871 278.936 284.455 279.112C284.055 279.288 283.695 279.56 283.375 279.928C283.055 280.28 282.799 280.736 282.607 281.296C282.415 281.84 282.319 282.488 282.319 283.24V289H280.687V280.24C280.687 279.936 280.679 279.544 280.663 279.064C280.647 278.584 280.623 278.152 280.591 277.768H282.151ZM304.497 287.248H304.545L308.025 277.768H309.801L304.209 291.904C303.873 292.768 303.441 293.456 302.913 293.968C302.401 294.496 301.657 294.76 300.681 294.76C300.185 294.76 299.697 294.712 299.217 294.616L299.385 293.128C299.769 293.256 300.169 293.32 300.585 293.32C301.145 293.32 301.585 293.144 301.905 292.792C302.225 292.456 302.505 291.968 302.745 291.328L303.657 288.976L298.857 277.768H300.681L304.497 287.248ZM323.511 283.384C323.511 284.232 323.359 285.016 323.055 285.736C322.767 286.456 322.359 287.08 321.831 287.608C321.303 288.136 320.671 288.552 319.935 288.856C319.199 289.144 318.391 289.288 317.511 289.288C316.647 289.288 315.847 289.144 315.111 288.856C314.375 288.552 313.743 288.136 313.215 287.608C312.687 287.08 312.271 286.456 311.967 285.736C311.679 285.016 311.535 284.232 311.535 283.384C311.535 282.536 311.679 281.752 311.967 281.032C312.271 280.312 312.687 279.688 313.215 279.16C313.743 278.632 314.375 278.224 315.111 277.936C315.847 277.632 316.647 277.48 317.511 277.48C318.391 277.48 319.199 277.632 319.935 277.936C320.671 278.224 321.303 278.632 321.831 279.16C322.359 279.688 322.767 280.312 323.055 281.032C323.359 281.752 323.511 282.536 323.511 283.384ZM321.783 283.384C321.783 282.76 321.679 282.176 321.471 281.632C321.279 281.072 320.999 280.592 320.631 280.192C320.263 279.776 319.815 279.448 319.287 279.208C318.759 278.968 318.167 278.848 317.511 278.848C316.855 278.848 316.263 278.968 315.735 279.208C315.223 279.448 314.783 279.776 314.415 280.192C314.047 280.592 313.759 281.072 313.551 281.632C313.359 282.176 313.263 282.76 313.263 283.384C313.263 284.008 313.359 284.6 313.551 285.16C313.759 285.704 314.047 286.184 314.415 286.6C314.783 287 315.223 287.32 315.735 287.56C316.263 287.784 316.855 287.896 317.511 287.896C318.167 287.896 318.759 287.784 319.287 287.56C319.815 287.32 320.263 287 320.631 286.6C320.999 286.184 321.279 285.704 321.471 285.16C321.679 284.6 321.783 284.008 321.783 283.384ZM335.183 289C335.151 288.696 335.127 288.36 335.111 287.992C335.095 287.624 335.087 287.32 335.087 287.08H335.039C334.719 287.736 334.199 288.272 333.479 288.688C332.759 289.088 331.999 289.288 331.199 289.288C329.775 289.288 328.703 288.864 327.983 288.016C327.279 287.168 326.927 286.048 326.927 284.656V277.768H328.559V283.984C328.559 284.576 328.607 285.112 328.703 285.592C328.799 286.072 328.959 286.488 329.183 286.84C329.423 287.176 329.735 287.44 330.119 287.632C330.519 287.824 331.015 287.92 331.607 287.92C332.039 287.92 332.455 287.832 332.855 287.656C333.271 287.48 333.639 287.216 333.959 286.864C334.279 286.496 334.535 286.04 334.727 285.496C334.919 284.936 335.015 284.28 335.015 283.528V277.768H336.647V286.528C336.647 286.832 336.655 287.224 336.671 287.704C336.687 288.184 336.711 288.616 336.743 289H335.183ZM340.969 280.24C340.969 279.936 340.961 279.544 340.945 279.064C340.929 278.584 340.905 278.152 340.873 277.768H342.433C342.465 278.072 342.489 278.408 342.505 278.776C342.521 279.144 342.529 279.448 342.529 279.688H342.577C342.897 279.032 343.377 278.504 344.017 278.104C344.657 277.688 345.377 277.48 346.177 277.48C346.385 277.48 346.569 277.488 346.729 277.504C346.905 277.52 347.081 277.552 347.257 277.6L347.041 279.136C346.945 279.104 346.785 279.072 346.561 279.04C346.337 279.008 346.113 278.992 345.889 278.992C345.457 278.992 345.041 279.072 344.641 279.232C344.241 279.392 343.889 279.648 343.585 280C343.297 280.336 343.057 280.776 342.865 281.32C342.689 281.848 342.601 282.488 342.601 283.24V289H340.969V280.24ZM363.705 280.336C363.433 279.904 363.033 279.552 362.505 279.28C361.993 278.992 361.433 278.848 360.825 278.848C360.169 278.848 359.577 278.968 359.049 279.208C358.521 279.432 358.065 279.752 357.681 280.168C357.313 280.568 357.025 281.048 356.817 281.608C356.625 282.152 356.529 282.744 356.529 283.384C356.529 284.024 356.625 284.616 356.817 285.16C357.025 285.704 357.313 286.184 357.681 286.6C358.049 287 358.497 287.32 359.025 287.56C359.553 287.784 360.145 287.896 360.801 287.896C361.521 287.896 362.129 287.76 362.625 287.488C363.121 287.216 363.529 286.864 363.849 286.432L365.073 287.344C364.593 287.936 364.001 288.408 363.297 288.76C362.609 289.112 361.777 289.288 360.801 289.288C359.889 289.288 359.065 289.144 358.329 288.856C357.593 288.552 356.961 288.136 356.433 287.608C355.921 287.08 355.521 286.456 355.233 285.736C354.945 285.016 354.801 284.232 354.801 283.384C354.801 282.536 354.945 281.752 355.233 281.032C355.521 280.312 355.921 279.688 356.433 279.16C356.961 278.632 357.593 278.224 358.329 277.936C359.065 277.632 359.889 277.48 360.801 277.48C361.553 277.48 362.313 277.648 363.081 277.984C363.865 278.304 364.497 278.784 364.977 279.424L363.705 280.336ZM378.777 283.384C378.777 284.232 378.625 285.016 378.321 285.736C378.033 286.456 377.625 287.08 377.097 287.608C376.569 288.136 375.937 288.552 375.201 288.856C374.465 289.144 373.657 289.288 372.777 289.288C371.913 289.288 371.113 289.144 370.377 288.856C369.641 288.552 369.009 288.136 368.481 287.608C367.953 287.08 367.537 286.456 367.233 285.736C366.945 285.016 366.801 284.232 366.801 283.384C366.801 282.536 366.945 281.752 367.233 281.032C367.537 280.312 367.953 279.688 368.481 279.16C369.009 278.632 369.641 278.224 370.377 277.936C371.113 277.632 371.913 277.48 372.777 277.48C373.657 277.48 374.465 277.632 375.201 277.936C375.937 278.224 376.569 278.632 377.097 279.16C377.625 279.688 378.033 280.312 378.321 281.032C378.625 281.752 378.777 282.536 378.777 283.384ZM377.049 283.384C377.049 282.76 376.945 282.176 376.737 281.632C376.545 281.072 376.265 280.592 375.897 280.192C375.529 279.776 375.081 279.448 374.553 279.208C374.025 278.968 373.433 278.848 372.777 278.848C372.121 278.848 371.529 278.968 371.001 279.208C370.489 279.448 370.049 279.776 369.681 280.192C369.313 280.592 369.025 281.072 368.817 281.632C368.625 282.176 368.529 282.76 368.529 283.384C368.529 284.008 368.625 284.6 368.817 285.16C369.025 285.704 369.313 286.184 369.681 286.6C370.049 287 370.489 287.32 371.001 287.56C371.529 287.784 372.121 287.896 372.777 287.896C373.433 287.896 374.025 287.784 374.553 287.56C375.081 287.32 375.529 287 375.897 286.6C376.265 286.184 376.545 285.704 376.737 285.16C376.945 284.6 377.049 284.008 377.049 283.384ZM383.897 279.688C384.217 279.032 384.705 278.504 385.361 278.104C386.033 277.688 386.777 277.48 387.593 277.48C387.897 277.48 388.209 277.512 388.529 277.576C388.865 277.64 389.185 277.768 389.489 277.96C389.809 278.136 390.097 278.376 390.353 278.68C390.625 278.984 390.857 279.376 391.049 279.856C391.433 279.088 391.953 278.504 392.609 278.104C393.281 277.688 394.073 277.48 394.985 277.48C396.409 277.48 397.473 277.904 398.177 278.752C398.897 279.6 399.257 280.72 399.257 282.112V289H397.625V282.784C397.625 281.6 397.401 280.648 396.953 279.928C396.521 279.208 395.777 278.848 394.721 278.848C394.129 278.848 393.625 278.968 393.209 279.208C392.809 279.448 392.481 279.768 392.225 280.168C391.985 280.552 391.809 280.992 391.697 281.488C391.585 281.984 391.529 282.496 391.529 283.024V289H389.897V282.448C389.897 281.904 389.857 281.408 389.777 280.96C389.697 280.512 389.553 280.136 389.345 279.832C389.153 279.512 388.881 279.272 388.529 279.112C388.177 278.936 387.729 278.848 387.185 278.848C386.801 278.848 386.409 278.936 386.009 279.112C385.625 279.288 385.273 279.56 384.953 279.928C384.649 280.28 384.401 280.736 384.209 281.296C384.017 281.84 383.921 282.488 383.921 283.24V289H382.289V280.24C382.289 279.936 382.281 279.544 382.265 279.064C382.249 278.584 382.225 278.152 382.193 277.768H383.753C383.785 278.072 383.809 278.408 383.825 278.776C383.841 279.144 383.849 279.448 383.849 279.688H383.897ZM405.108 294.76H403.476V277.768H405.108V279.712H405.18C405.644 278.976 406.26 278.424 407.028 278.056C407.812 277.672 408.604 277.48 409.404 277.48C410.284 277.48 411.076 277.632 411.78 277.936C412.5 278.24 413.108 278.656 413.604 279.184C414.116 279.712 414.508 280.336 414.78 281.056C415.068 281.776 415.212 282.552 415.212 283.384C415.212 284.216 415.068 284.992 414.78 285.712C414.508 286.432 414.116 287.056 413.604 287.584C413.108 288.112 412.5 288.528 411.78 288.832C411.076 289.136 410.284 289.288 409.404 289.288C408.604 289.288 407.812 289.104 407.028 288.736C406.26 288.352 405.644 287.808 405.18 287.104H405.108V294.76ZM413.484 283.384C413.484 282.76 413.388 282.176 413.196 281.632C413.004 281.072 412.724 280.592 412.356 280.192C412.004 279.776 411.564 279.448 411.036 279.208C410.508 278.968 409.908 278.848 409.236 278.848C408.612 278.848 408.036 278.968 407.508 279.208C406.98 279.432 406.524 279.752 406.14 280.168C405.756 280.568 405.452 281.048 405.228 281.608C405.02 282.152 404.916 282.744 404.916 283.384C404.916 284.024 405.02 284.624 405.228 285.184C405.452 285.728 405.756 286.2 406.14 286.6C406.524 287 406.98 287.32 407.508 287.56C408.036 287.784 408.612 287.896 409.236 287.896C409.908 287.896 410.508 287.784 411.036 287.56C411.564 287.32 412.004 287 412.356 286.6C412.724 286.184 413.004 285.704 413.196 285.16C413.388 284.6 413.484 284.008 413.484 283.384ZM426.871 289C426.839 288.696 426.815 288.36 426.799 287.992C426.783 287.624 426.775 287.32 426.775 287.08H426.727C426.407 287.736 425.887 288.272 425.167 288.688C424.447 289.088 423.687 289.288 422.887 289.288C421.463 289.288 420.391 288.864 419.671 288.016C418.967 287.168 418.615 286.048 418.615 284.656V277.768H420.247V283.984C420.247 284.576 420.295 285.112 420.391 285.592C420.487 286.072 420.647 286.488 420.871 286.84C421.111 287.176 421.423 287.44 421.807 287.632C422.207 287.824 422.703 287.92 423.295 287.92C423.727 287.92 424.143 287.832 424.543 287.656C424.959 287.48 425.327 287.216 425.647 286.864C425.967 286.496 426.223 286.04 426.415 285.496C426.607 284.936 426.703 284.28 426.703 283.528V277.768H428.335V286.528C428.335 286.832 428.343 287.224 428.359 287.704C428.375 288.184 428.399 288.616 428.431 289H426.871ZM437.72 279.136H434.552V285.688C434.552 286.104 434.592 286.448 434.672 286.72C434.752 286.992 434.864 287.208 435.008 287.368C435.168 287.512 435.352 287.616 435.56 287.68C435.768 287.728 435.992 287.752 436.232 287.752C436.456 287.752 436.688 287.72 436.928 287.656C437.184 287.592 437.424 287.504 437.648 287.392L437.72 288.808C437.432 288.92 437.128 289 436.808 289.048C436.504 289.112 436.168 289.144 435.8 289.144C435.496 289.144 435.176 289.104 434.84 289.024C434.504 288.944 434.192 288.792 433.904 288.568C433.616 288.344 433.376 288.04 433.184 287.656C433.008 287.272 432.92 286.768 432.92 286.144V279.136H430.592V277.768H432.92V274.6H434.552V277.768H437.72V279.136ZM448.841 282.52C448.793 281.464 448.449 280.592 447.809 279.904C447.185 279.2 446.289 278.848 445.121 278.848C444.577 278.848 444.073 278.952 443.609 279.16C443.145 279.352 442.737 279.624 442.385 279.976C442.033 280.312 441.753 280.704 441.545 281.152C441.337 281.584 441.217 282.04 441.185 282.52H448.841ZM450.497 283.048C450.497 283.16 450.497 283.28 450.497 283.408C450.497 283.536 450.489 283.672 450.473 283.816H441.161C441.177 284.376 441.289 284.904 441.497 285.4C441.705 285.896 441.993 286.328 442.361 286.696C442.729 287.064 443.161 287.36 443.657 287.584C444.153 287.792 444.689 287.896 445.265 287.896C446.113 287.896 446.841 287.704 447.449 287.32C448.073 286.92 448.545 286.464 448.865 285.952L450.089 286.912C449.417 287.76 448.673 288.368 447.857 288.736C447.057 289.104 446.193 289.288 445.265 289.288C444.433 289.288 443.657 289.144 442.937 288.856C442.233 288.552 441.625 288.136 441.113 287.608C440.601 287.08 440.193 286.456 439.889 285.736C439.601 285.016 439.457 284.232 439.457 283.384C439.457 282.536 439.601 281.752 439.889 281.032C440.177 280.312 440.577 279.688 441.089 279.16C441.601 278.632 442.201 278.224 442.889 277.936C443.577 277.632 444.321 277.48 445.121 277.48C446.001 277.48 446.777 277.632 447.449 277.936C448.121 278.224 448.681 278.624 449.129 279.136C449.577 279.632 449.913 280.216 450.137 280.888C450.377 281.56 450.497 282.28 450.497 283.048ZM454.008 280.24C454.008 279.936 454 279.544 453.984 279.064C453.968 278.584 453.944 278.152 453.912 277.768H455.472C455.504 278.072 455.528 278.408 455.544 278.776C455.56 279.144 455.568 279.448 455.568 279.688H455.616C455.936 279.032 456.416 278.504 457.056 278.104C457.696 277.688 458.416 277.48 459.216 277.48C459.424 277.48 459.608 277.488 459.768 277.504C459.944 277.52 460.12 277.552 460.296 277.6L460.08 279.136C459.984 279.104 459.824 279.072 459.6 279.04C459.376 279.008 459.152 278.992 458.928 278.992C458.496 278.992 458.08 279.072 457.68 279.232C457.28 279.392 456.928 279.648 456.624 280C456.336 280.336 456.096 280.776 455.904 281.32C455.728 281.848 455.64 282.488 455.64 283.24V289H454.008V280.24Z" fill="black"/>
<path d="M129.48 270.856V278.944H129.552C129.696 278.752 129.88 278.552 130.104 278.344C130.328 278.136 130.592 277.944 130.896 277.768C131.216 277.592 131.584 277.448 132 277.336C132.416 277.208 132.888 277.144 133.416 277.144C134.232 277.144 134.984 277.304 135.672 277.624C136.36 277.928 136.952 278.352 137.448 278.896C137.944 279.44 138.328 280.08 138.6 280.816C138.872 281.552 139.008 282.344 139.008 283.192C139.008 284.04 138.872 284.84 138.6 285.592C138.344 286.328 137.968 286.976 137.472 287.536C136.992 288.08 136.4 288.52 135.696 288.856C135.008 289.176 134.224 289.336 133.344 289.336C132.528 289.336 131.76 289.16 131.04 288.808C130.336 288.456 129.784 287.944 129.384 287.272H129.336V289H126.6V270.856H129.48ZM136.08 283.192C136.08 282.744 136.008 282.304 135.864 281.872C135.736 281.424 135.536 281.024 135.264 280.672C134.992 280.32 134.648 280.04 134.232 279.832C133.816 279.608 133.328 279.496 132.768 279.496C132.24 279.496 131.768 279.608 131.352 279.832C130.936 280.056 130.576 280.344 130.272 280.696C129.984 281.048 129.76 281.448 129.6 281.896C129.456 282.344 129.384 282.792 129.384 283.24C129.384 283.688 129.456 284.136 129.6 284.584C129.76 285.016 129.984 285.408 130.272 285.76C130.576 286.112 130.936 286.4 131.352 286.624C131.768 286.832 132.24 286.936 132.768 286.936C133.328 286.936 133.816 286.824 134.232 286.6C134.648 286.376 134.992 286.088 135.264 285.736C135.536 285.384 135.736 284.984 135.864 284.536C136.008 284.088 136.08 283.64 136.08 283.192ZM141.787 277.48H144.547V279.4H144.595C144.915 278.728 145.363 278.184 145.939 277.768C146.515 277.352 147.187 277.144 147.955 277.144C148.067 277.144 148.187 277.152 148.315 277.168C148.443 277.168 148.555 277.184 148.651 277.216V279.856C148.459 279.808 148.291 279.776 148.147 279.76C148.019 279.744 147.891 279.736 147.763 279.736C147.107 279.736 146.579 279.856 146.179 280.096C145.779 280.336 145.467 280.624 145.243 280.96C145.019 281.296 144.867 281.64 144.787 281.992C144.707 282.344 144.667 282.624 144.667 282.832V289H141.787V277.48ZM149.435 283.192C149.435 282.28 149.595 281.456 149.915 280.72C150.251 279.968 150.699 279.328 151.259 278.8C151.819 278.272 152.483 277.864 153.251 277.576C154.019 277.288 154.835 277.144 155.699 277.144C156.563 277.144 157.379 277.288 158.147 277.576C158.915 277.864 159.579 278.272 160.139 278.8C160.699 279.328 161.139 279.968 161.459 280.72C161.795 281.456 161.963 282.28 161.963 283.192C161.963 284.104 161.795 284.936 161.459 285.688C161.139 286.44 160.699 287.088 160.139 287.632C159.579 288.16 158.915 288.576 158.147 288.88C157.379 289.184 156.563 289.336 155.699 289.336C154.835 289.336 154.019 289.184 153.251 288.88C152.483 288.576 151.819 288.16 151.259 287.632C150.699 287.088 150.251 286.44 149.915 285.688C149.595 284.936 149.435 284.104 149.435 283.192ZM152.363 283.192C152.363 283.64 152.427 284.088 152.555 284.536C152.699 284.984 152.907 285.384 153.179 285.736C153.451 286.088 153.795 286.376 154.211 286.6C154.627 286.824 155.123 286.936 155.699 286.936C156.275 286.936 156.771 286.824 157.187 286.6C157.603 286.376 157.947 286.088 158.219 285.736C158.491 285.384 158.691 284.984 158.819 284.536C158.963 284.088 159.035 283.64 159.035 283.192C159.035 282.744 158.963 282.304 158.819 281.872C158.691 281.424 158.491 281.024 158.219 280.672C157.947 280.32 157.603 280.04 157.187 279.832C156.771 279.608 156.275 279.496 155.699 279.496C155.123 279.496 154.627 279.608 154.211 279.832C153.795 280.04 153.451 280.32 153.179 280.672C152.907 281.024 152.699 281.424 152.555 281.872C152.427 282.304 152.363 282.744 152.363 283.192ZM163.123 277.48H166.243L168.643 285.736H168.691L171.163 277.48H174.235L176.731 285.736H176.779L179.227 277.48H182.227L178.243 289H175.315L172.699 280.936H172.651L170.059 289H167.131L163.123 277.48ZM190.356 280.552C190.1 280.216 189.748 279.928 189.3 279.688C188.852 279.432 188.364 279.304 187.836 279.304C187.372 279.304 186.948 279.4 186.564 279.592C186.18 279.784 185.988 280.104 185.988 280.552C185.988 281 186.196 281.32 186.612 281.512C187.044 281.688 187.668 281.872 188.484 282.064C188.916 282.16 189.348 282.288 189.78 282.448C190.228 282.608 190.628 282.824 190.98 283.096C191.348 283.352 191.644 283.68 191.868 284.08C192.092 284.464 192.204 284.936 192.204 285.496C192.204 286.2 192.068 286.8 191.796 287.296C191.54 287.776 191.188 288.168 190.74 288.472C190.308 288.776 189.796 288.992 189.204 289.12C188.628 289.264 188.028 289.336 187.404 289.336C186.508 289.336 185.636 289.176 184.788 288.856C183.94 288.52 183.236 288.048 182.676 287.44L184.572 285.664C184.892 286.08 185.308 286.424 185.82 286.696C186.332 286.968 186.9 287.104 187.524 287.104C187.732 287.104 187.94 287.08 188.148 287.032C188.372 286.984 188.572 286.912 188.748 286.816C188.94 286.704 189.092 286.56 189.204 286.384C189.316 286.208 189.372 285.992 189.372 285.736C189.372 285.256 189.148 284.912 188.7 284.704C188.268 284.496 187.612 284.288 186.732 284.08C186.3 283.984 185.876 283.864 185.46 283.72C185.06 283.56 184.7 283.36 184.38 283.12C184.06 282.864 183.804 282.552 183.612 282.184C183.42 281.816 183.324 281.36 183.324 280.816C183.324 280.176 183.452 279.624 183.708 279.16C183.98 278.696 184.332 278.32 184.764 278.032C185.196 277.728 185.684 277.504 186.228 277.36C186.772 277.216 187.332 277.144 187.908 277.144C188.74 277.144 189.548 277.288 190.332 277.576C191.132 277.864 191.764 278.304 192.228 278.896L190.356 280.552ZM202.82 282.088C202.82 281.72 202.764 281.368 202.652 281.032C202.556 280.696 202.396 280.4 202.172 280.144C201.948 279.888 201.66 279.688 201.308 279.544C200.972 279.384 200.572 279.304 200.108 279.304C199.244 279.304 198.508 279.568 197.9 280.096C197.308 280.608 196.98 281.272 196.916 282.088H202.82ZM205.7 283.384C205.7 283.512 205.7 283.64 205.7 283.768C205.7 283.896 205.692 284.024 205.676 284.152H196.916C196.948 284.568 197.052 284.952 197.228 285.304C197.42 285.64 197.668 285.936 197.972 286.192C198.276 286.432 198.62 286.624 199.004 286.768C199.388 286.912 199.788 286.984 200.204 286.984C200.924 286.984 201.532 286.856 202.028 286.6C202.524 286.328 202.932 285.96 203.252 285.496L205.172 287.032C204.036 288.568 202.388 289.336 200.228 289.336C199.332 289.336 198.508 289.2 197.756 288.928C197.004 288.64 196.348 288.24 195.788 287.728C195.244 287.216 194.812 286.592 194.492 285.856C194.188 285.104 194.036 284.256 194.036 283.312C194.036 282.384 194.188 281.544 194.492 280.792C194.812 280.024 195.244 279.376 195.788 278.848C196.332 278.304 196.972 277.888 197.708 277.6C198.46 277.296 199.268 277.144 200.132 277.144C200.932 277.144 201.668 277.28 202.34 277.552C203.028 277.808 203.62 278.2 204.116 278.728C204.612 279.24 204.996 279.888 205.268 280.672C205.556 281.44 205.7 282.344 205.7 283.384ZM222.602 277.48H225.482V289H222.602V277.48ZM222.194 273.568C222.194 273.104 222.362 272.704 222.698 272.368C223.05 272.016 223.49 271.84 224.018 271.84C224.546 271.84 224.986 272.008 225.338 272.344C225.706 272.664 225.89 273.072 225.89 273.568C225.89 274.064 225.706 274.48 225.338 274.816C224.986 275.136 224.546 275.296 224.018 275.296C223.49 275.296 223.05 275.128 222.698 274.792C222.362 274.44 222.194 274.032 222.194 273.568ZM214.946 279.784H212.762V277.48H214.946V275.776C214.946 275.088 215.018 274.432 215.162 273.808C215.322 273.168 215.578 272.608 215.93 272.128C216.298 271.648 216.778 271.272 217.37 271C217.962 270.712 218.706 270.568 219.602 270.568C219.922 270.568 220.186 270.584 220.394 270.616C220.618 270.632 220.842 270.672 221.066 270.736L220.874 273.184C220.714 273.136 220.538 273.096 220.346 273.064C220.17 273.032 219.978 273.016 219.77 273.016C219.354 273.016 219.018 273.096 218.762 273.256C218.506 273.416 218.306 273.624 218.162 273.88C218.034 274.136 217.946 274.416 217.898 274.72C217.85 275.024 217.826 275.32 217.826 275.608V277.48H220.49V279.784H217.826V289H214.946V279.784ZM228.764 270.856H231.644V289H228.764V270.856ZM243.25 282.088C243.25 281.72 243.194 281.368 243.082 281.032C242.986 280.696 242.826 280.4 242.602 280.144C242.378 279.888 242.09 279.688 241.738 279.544C241.402 279.384 241.002 279.304 240.538 279.304C239.674 279.304 238.938 279.568 238.33 280.096C237.738 280.608 237.41 281.272 237.346 282.088H243.25ZM246.13 283.384C246.13 283.512 246.13 283.64 246.13 283.768C246.13 283.896 246.122 284.024 246.106 284.152H237.346C237.378 284.568 237.482 284.952 237.658 285.304C237.85 285.64 238.098 285.936 238.402 286.192C238.706 286.432 239.05 286.624 239.434 286.768C239.818 286.912 240.218 286.984 240.634 286.984C241.354 286.984 241.962 286.856 242.458 286.6C242.954 286.328 243.362 285.96 243.682 285.496L245.602 287.032C244.466 288.568 242.818 289.336 240.658 289.336C239.762 289.336 238.938 289.2 238.186 288.928C237.434 288.64 236.778 288.24 236.218 287.728C235.674 287.216 235.242 286.592 234.922 285.856C234.618 285.104 234.466 284.256 234.466 283.312C234.466 282.384 234.618 281.544 234.922 280.792C235.242 280.024 235.674 279.376 236.218 278.848C236.762 278.304 237.402 277.888 238.138 277.6C238.89 277.296 239.698 277.144 240.562 277.144C241.362 277.144 242.098 277.28 242.77 277.552C243.458 277.808 244.05 278.2 244.546 278.728C245.042 279.24 245.426 279.888 245.698 280.672C245.986 281.44 246.13 282.344 246.13 283.384ZM255.231 280.552C254.975 280.216 254.623 279.928 254.175 279.688C253.727 279.432 253.239 279.304 252.711 279.304C252.247 279.304 251.823 279.4 251.439 279.592C251.055 279.784 250.863 280.104 250.863 280.552C250.863 281 251.071 281.32 251.487 281.512C251.919 281.688 252.543 281.872 253.359 282.064C253.791 282.16 254.223 282.288 254.655 282.448C255.103 282.608 255.503 282.824 255.855 283.096C256.223 283.352 256.519 283.68 256.743 284.08C256.967 284.464 257.079 284.936 257.079 285.496C257.079 286.2 256.943 286.8 256.671 287.296C256.415 287.776 256.063 288.168 255.615 288.472C255.183 288.776 254.671 288.992 254.079 289.12C253.503 289.264 252.903 289.336 252.279 289.336C251.383 289.336 250.511 289.176 249.663 288.856C248.815 288.52 248.111 288.048 247.551 287.44L249.447 285.664C249.767 286.08 250.183 286.424 250.695 286.696C251.207 286.968 251.775 287.104 252.399 287.104C252.607 287.104 252.815 287.08 253.023 287.032C253.247 286.984 253.447 286.912 253.623 286.816C253.815 286.704 253.967 286.56 254.079 286.384C254.191 286.208 254.247 285.992 254.247 285.736C254.247 285.256 254.023 284.912 253.575 284.704C253.143 284.496 252.487 284.288 251.607 284.08C251.175 283.984 250.751 283.864 250.335 283.72C249.935 283.56 249.575 283.36 249.255 283.12C248.935 282.864 248.679 282.552 248.487 282.184C248.295 281.816 248.199 281.36 248.199 280.816C248.199 280.176 248.327 279.624 248.583 279.16C248.855 278.696 249.207 278.32 249.639 278.032C250.071 277.728 250.559 277.504 251.103 277.36C251.647 277.216 252.207 277.144 252.783 277.144C253.615 277.144 254.423 277.288 255.207 277.576C256.007 277.864 256.639 278.304 257.103 278.896L255.231 280.552Z" fill="#364FCC"/>
<path d="M324.299 96.1108C321.733 95.5959 319.633 93.9811 318.548 91.6719C306.535 66.1536 278.69 51.8849 250.86 57.0494C225.501 61.7302 205.623 82.1074 201.384 107.766C200.128 115.341 200.221 122.924 201.639 130.312C202.104 132.723 201.073 135.406 198.958 137.341C190.084 145.462 185 157.032 185 169.093C185 192.746 204.119 212 227.625 212H312.875C344.929 212 371 185.756 371 153.49C371 125.678 351.362 101.548 324.299 96.1186V96.1108ZM312.875 196.389H227.625C212.667 196.389 200.5 184.141 200.5 169.085C200.5 161.416 203.74 154.044 209.382 148.879C215.473 143.301 218.333 135.047 216.845 127.324C215.775 121.769 215.713 116.051 216.659 110.309C219.782 91.4144 234.987 75.8195 253.634 72.3791C256.618 71.833 259.586 71.5678 262.515 71.5678C280.434 71.5678 296.654 81.6237 304.536 98.3576C307.737 105.16 313.836 109.919 321.26 111.409C341.101 115.396 355.492 133.089 355.492 153.49C355.492 177.144 336.365 196.397 312.867 196.397L312.875 196.389ZM302.188 136.264C305.218 139.315 305.218 144.245 302.188 147.296C300.677 148.817 298.692 149.581 296.708 149.581C294.724 149.581 292.741 148.817 291.229 147.296L278 133.979V172.985C278 177.3 274.528 180.787 270.25 180.787C265.972 180.787 262.5 177.3 262.5 172.985V133.979L249.271 147.296C246.241 150.346 241.343 150.346 238.312 147.296C235.282 144.245 235.282 139.315 238.312 136.264L259.292 115.146C262.283 112.135 266.212 110.621 270.142 110.598L270.25 110.575L270.358 110.598C274.296 110.621 278.217 112.135 281.208 115.146L302.188 136.264Z" fill="#364FCC"/>
</svg>
